<svg id="Capa_1" data-name="Capa 1" xmlns="http://www.w3.org/2000/svg" viewBox="0 0 34.28 46.6"><defs><style>.cls-1{fill:#fff;}</style></defs><path class="cls-1" d="M11.14.57c0,.18-.46,4.43,1.47,7.22a6.49,6.49,0,0,0,5.59,2.66.6.6,0,0,0,.49-.35,6.48,6.48,0,0,0-.52-6.16C16.23,1.15,12.1.07,11.92,0a.62.62,0,0,0-.78.55Zm0,0"/><path class="cls-1" d="M14.51,45.27c-3-1.17-3.93-5.18-3.93-15.66,0-10.21.85-14.28,3.7-15.56l-.93-1.38C4.78,14.26,0,21.27,0,29.61s4.9,15.5,13.66,17Z"/><path class="cls-1" d="M21.65,12.83l-1,1.59c2.32,1.61,3,5.81,3,15.19,0,9.84-.74,14-3.33,15.41l1,1.46c8.4-1.72,13-8.69,13-16.87S29.8,14.66,21.65,12.83Z"/></svg>