<svg id="Capa_1" data-name="Capa 1" xmlns="http://www.w3.org/2000/svg" viewBox="0 0 296.57 78.62"><defs><style>.cls-1{fill:#fff;}</style></defs><path class="cls-1" d="M15.48,52.49v1.23H.72V52.49C3.46,51.7,3.6,48.68,3.6,45V8.57C3.6,6.05,2.88,5,0,3.89V2.66L12.6,0V45C12.6,49,13,51.84,15.48,52.49Z"/><path class="cls-1" d="M53.5,48.75l1.22.5c-.57,2.31-3.89,5.11-8.42,5.11,0,0-6.41,0-7.2-5.83C38,51.7,33.77,54.36,28.66,54.36c0,0-8.28,0-8.28-7.34,0-7.85,6-8.57,18.65-11.74V30.82c0-7.49-4.18-11.23-9.15-8.64-2.3,1.15-2.59,2.37-2.09,2.45a3.71,3.71,0,0,1,2.67,1.58,4.08,4.08,0,0,1-1.08,5.69,4.14,4.14,0,0,1-5.69-1.08,4.24,4.24,0,0,1-.22-4.32c.72-1.23,1.66-3.17,5.62-5.26a14.3,14.3,0,0,1,7-1.44c9.44,0,12,5.91,12,14.4V44.93s-.07,5,3.45,5A2.13,2.13,0,0,0,53.5,48.75ZM39,36.58c-7.06,1.58-9.44,5-9.44,8.64,0,0,0,4.75,4.68,4.75A5.33,5.33,0,0,0,39,46.3Z"/><path class="cls-1" d="M95.4,37.37c0,11.59-7.63,17-17.71,17a16,16,0,0,1-8.57-2.23V64.59c0,4,.43,12,2.95,12.69V78.5H57.31V77.28c2.74-.79,2.88-9,2.88-12.69V27.94c0-2.45-.72-3-3.6-4V22.68L69.12,19.8v5.83c2.3-4.24,7.56-5.83,10.95-5.83C88.2,19.8,95.4,26.07,95.4,37.37ZM85.11,38c0-11.59-2.74-15.55-8.57-15.55-4.32,0-6.92,3.45-7.42,7.77V43.42c.65,7.34,4.75,9.72,8.42,9.72C82.8,53.14,85.11,49,85.11,38Z"/><path class="cls-1" d="M195,53.72H180.15V52.49c2.73-.79,2.88-3.89,2.88-7.56V31c0-4-2-6-5.26-6-2.66,0-5.69,3.24-5.69,6.12V44.93c0,4,.36,6.91,2.95,7.56v1.23H160.2V52.49c2.74-.79,2.88-3.89,2.88-7.56V31c0-4-1.94-6-5.18-6-2.67,0-5.76,3.31-5.76,5.9V45.08c0,4,.43,6.69,3,7.41v1.23H140.33V52.49c2.73-.79,2.8-3.74,2.8-7.41V29.31c0-2.52-.64-3.82-3.6-5.4V22.68l12.61-2.88v7.42C154.08,23,158.47,19.8,163,19.8c5,0,8.14,2.31,9,7.63A12.13,12.13,0,0,1,183,19.8c5.62,0,9.08,2.23,9.08,11V44.93c0,4,.36,6.91,2.95,7.56Z"/><path class="cls-1" d="M230.83,36.44H207.94c.57,7.05,4.17,10.72,9,11.8,3.89.87,9.64-.57,11.45-4l1.22.65c-1.15,3.75-5.4,9.43-15.05,9.43-9.43,0-15.91-8.71-15.91-17.13,0-10.16,6.91-17.43,16.85-17.43C225.94,19.8,230.83,25.2,230.83,36.44Zm-8.78-1.23c0-9.07-3-14.18-6.91-14.18-4.25,0-7.2,7.27-7.2,14.18Z"/><path class="cls-1" d="M257.47,46.73l1.08.65a12.39,12.39,0,0,1-10.65,7c-5.69,0-9.08-2.3-9.08-11V21.67h-3.6L235,20.45h3.81V10.8l9-1.51V20.45h8.57l-.29,1.22h-8.28V43.13c0,4,1.73,6.12,5.33,6.12A5.29,5.29,0,0,0,257.47,46.73Z"/><path class="cls-1" d="M295.34,48.75l1.23.5c-.58,2.31-3.89,5.11-8.43,5.11,0,0-6.4,0-7.2-5.83-1.08,3.17-5.32,5.83-10.44,5.83,0,0-8.28,0-8.28-7.34,0-7.85,6-8.57,18.65-11.74V30.82c0-7.49-4.17-11.23-9.14-8.64-2.31,1.15-2.6,2.37-2.09,2.45a3.69,3.69,0,0,1,2.66,1.58,4.08,4.08,0,0,1-1.08,5.69,4.15,4.15,0,0,1-5.69-1.08,4.26,4.26,0,0,1-.21-4.32c.72-1.23,1.65-3.17,5.61-5.26a14.33,14.33,0,0,1,7-1.44c9.43,0,12,5.91,12,14.4V44.93s-.07,5,3.46,5A2.12,2.12,0,0,0,295.34,48.75ZM280.87,36.58c-7.06,1.58-9.43,5-9.43,8.64,0,0,0,4.75,4.68,4.75a5.32,5.32,0,0,0,4.75-3.67Z"/><path class="cls-1" d="M112.87,8c0,.18-.46,4.43,1.47,7.22a6.51,6.51,0,0,0,5.59,2.66.61.61,0,0,0,.5-.35,6.46,6.46,0,0,0-.53-6.16c-1.93-2.79-6.07-3.87-6.24-3.92a.62.62,0,0,0-.79.55Zm0,0"/><path class="cls-1" d="M116.25,52.74c-3-1.17-3.93-5.18-3.93-15.66,0-10.21.84-14.28,3.7-15.56l-.93-1.38c-8.58,1.59-13.35,8.6-13.35,16.94s4.89,15.5,13.66,17Z"/><path class="cls-1" d="M123.38,20.3l-1,1.59c2.31,1.61,3,5.81,3,15.19,0,9.84-.74,14-3.33,15.41L123,54c8.4-1.71,13-8.69,13-16.87S131.54,22.14,123.38,20.3Z"/><path class="cls-1" d="M141.1,74.78H139l-1.12-3.15h-5l-1.1,3.15h-2.13L134.34,62h2.09Zm-4.83-7.64-.87-3h0l-.87,3-1,2.72h3.68Z"/><path class="cls-1" d="M150.43,73.2a3.67,3.67,0,0,1-1.06,1.1,3,3,0,0,1-1.7.48,3.68,3.68,0,0,1-1.53-.32,3.55,3.55,0,0,1-1.22-.92,4.46,4.46,0,0,1-.81-1.48,6,6,0,0,1-.29-2,6.24,6.24,0,0,1,.25-1.79,4.59,4.59,0,0,1,.75-1.5,3.64,3.64,0,0,1,1.22-1,3.46,3.46,0,0,1,1.67-.38,3,3,0,0,1,.93.13,2.88,2.88,0,0,1,.75.35,3.62,3.62,0,0,1,.59.48,3.39,3.39,0,0,1,.43.54l.27-1.3h1.74V74a6,6,0,0,1-.33,2.13,3.59,3.59,0,0,1-.93,1.42,3.5,3.5,0,0,1-1.42.8,5.85,5.85,0,0,1-1.76.25,7.19,7.19,0,0,1-2-.27,5.77,5.77,0,0,1-1.53-.64l.52-1.58a4.81,4.81,0,0,0,1.33.57,5.48,5.48,0,0,0,1.44.19,4,4,0,0,0,1.07-.13,2.11,2.11,0,0,0,.85-.45,2,2,0,0,0,.56-.85,4.15,4.15,0,0,0,.2-1.38Zm0-4.73a3.14,3.14,0,0,0-.94-1,2.18,2.18,0,0,0-1.28-.4,2.15,2.15,0,0,0-1.69.75,3.23,3.23,0,0,0-.67,2.23,4.74,4.74,0,0,0,.18,1.41,2.57,2.57,0,0,0,.5.93,1.76,1.76,0,0,0,.72.52,2.27,2.27,0,0,0,.86.16,2.07,2.07,0,0,0,1.67-.76,3.17,3.17,0,0,0,.65-2.11Z"/><path class="cls-1" d="M158.41,71a2.75,2.75,0,0,0,.9,1.86,2.91,2.91,0,0,0,1.87.59,5.62,5.62,0,0,0,1.22-.13,5.31,5.31,0,0,0,1.16-.4l.45,1.45a6.36,6.36,0,0,1-3,.66,5.5,5.5,0,0,1-2-.33,3.69,3.69,0,0,1-1.43-1,4.07,4.07,0,0,1-.85-1.53,6.52,6.52,0,0,1-.29-2,7,7,0,0,1,.25-1.86,4.09,4.09,0,0,1,.77-1.53,3.59,3.59,0,0,1,1.33-1,4.7,4.7,0,0,1,2-.37,4.41,4.41,0,0,1,1.64.28,3.33,3.33,0,0,1,1.19.8,3.4,3.4,0,0,1,.72,1.24,5,5,0,0,1,.24,1.59,5.26,5.26,0,0,1-.07.89,6.67,6.67,0,0,1-.16.78Zm2.34-4.06a2,2,0,0,0-1.72.76,3.65,3.65,0,0,0-.68,2h4.3v-.34a3.11,3.11,0,0,0-.45-1.8A1.65,1.65,0,0,0,160.75,66.9Z"/><path class="cls-1" d="M170.49,74.78h-2V65.6h1.75l.26,1.3a3.41,3.41,0,0,1,.5-.52,4.29,4.29,0,0,1,.7-.48,4.19,4.19,0,0,1,.87-.36,3.42,3.42,0,0,1,1-.14,2.78,2.78,0,0,1,2.24,1,4,4,0,0,1,.82,2.68v5.74h-2v-5.7a2.5,2.5,0,0,0-.38-1.47,1.39,1.39,0,0,0-1.19-.52,2.8,2.8,0,0,0-1.47.4,3.79,3.79,0,0,0-1.1,1Z"/><path class="cls-1" d="M185.24,73.41a5,5,0,0,0,1.21-.14,4.11,4.11,0,0,0,1.16-.45l.46,1.45a5.89,5.89,0,0,1-2.95.72,4.91,4.91,0,0,1-2-.37,4,4,0,0,1-1.43-1,4.23,4.23,0,0,1-.85-1.53,6.17,6.17,0,0,1,0-3.74,4.41,4.41,0,0,1,.85-1.53,3.88,3.88,0,0,1,1.44-1,5.06,5.06,0,0,1,2-.37,6.34,6.34,0,0,1,1.46.16,4.81,4.81,0,0,1,1.31.5l-.43,1.45a4.8,4.8,0,0,0-2.26-.54,2.35,2.35,0,0,0-2,.9,4.57,4.57,0,0,0,0,4.65A2.32,2.32,0,0,0,185.24,73.41Z"/><path class="cls-1" d="M193,64.18a1.21,1.21,0,0,1-.94-.36,1.23,1.23,0,0,1-.33-.86,1.17,1.17,0,0,1,.33-.84,1.44,1.44,0,0,1,1.88,0,1.17,1.17,0,0,1,.33.84,1.23,1.23,0,0,1-.33.86A1.21,1.21,0,0,1,193,64.18Zm1,10.6h-2V65.6h2Z"/><path class="cls-1" d="M198,72.21a2.68,2.68,0,0,1,1.1-2.4,5.24,5.24,0,0,1,3-.75h1.6v-.3a1.72,1.72,0,0,0-.5-1.36A2.08,2.08,0,0,0,201.8,67a5.82,5.82,0,0,0-1.48.19,6.57,6.57,0,0,0-1.29.52l-.45-1.41a5.81,5.81,0,0,1,1.44-.61,6.74,6.74,0,0,1,2-.26,3.68,3.68,0,0,1,2.75.91,3.41,3.41,0,0,1,.89,2.51v6H204l-.28-1.37a4.94,4.94,0,0,1-.43.59,2.81,2.81,0,0,1-.57.51,3.19,3.19,0,0,1-.79.35,3.8,3.8,0,0,1-1.08.13,3.36,3.36,0,0,1-1.11-.18,2.58,2.58,0,0,1-.9-.54,2.52,2.52,0,0,1-.61-.88A3.14,3.14,0,0,1,198,72.21Zm5.7-1.78h-1.62a2.48,2.48,0,0,0-1.6.45,1.54,1.54,0,0,0-.56,1.27,1.27,1.27,0,0,0,.37,1,1.28,1.28,0,0,0,.94.36,2.36,2.36,0,0,0,1-.21,2.31,2.31,0,0,0,.78-.54,2.62,2.62,0,0,0,.51-.79,2.33,2.33,0,0,0,.18-.9Z"/><path class="cls-1" d="M222.13,75a6.73,6.73,0,0,1-2.67-.49,5.22,5.22,0,0,1-1.9-1.37A5.64,5.64,0,0,1,216.42,71a8.68,8.68,0,0,1-.39-2.66,8.48,8.48,0,0,1,.4-2.63,6,6,0,0,1,1.18-2.09,5.57,5.57,0,0,1,1.91-1.39,6.33,6.33,0,0,1,2.61-.5A8.34,8.34,0,0,1,224,62a6.34,6.34,0,0,1,1.54.56L225,64.12a6.21,6.21,0,0,0-2.73-.61,3.83,3.83,0,0,0-3.09,1.28,6.57,6.57,0,0,0,0,7.17,3.78,3.78,0,0,0,3.1,1.28,6.4,6.4,0,0,0,1.4-.16,6,6,0,0,0,1.45-.52l.49,1.63a6.61,6.61,0,0,1-1.58.59A8,8,0,0,1,222.13,75Z"/><path class="cls-1" d="M231.44,67.07c.12-.19.25-.39.39-.59a3.26,3.26,0,0,1,.51-.54,2.5,2.5,0,0,1,.65-.39,2.23,2.23,0,0,1,.83-.15,2,2,0,0,1,.84.15,2.68,2.68,0,0,1,.45.25l-.49,1.89a1.72,1.72,0,0,0-1.16-.38,2.25,2.25,0,0,0-1.19.32,2.19,2.19,0,0,0-.83.94v6.21h-2V65.6h1.71Z"/><path class="cls-1" d="M239.78,71a2.8,2.8,0,0,0,.91,1.86,2.91,2.91,0,0,0,1.87.59,5.69,5.69,0,0,0,1.22-.13,5.05,5.05,0,0,0,1.15-.4l.46,1.45a6.39,6.39,0,0,1-3,.66,5.5,5.5,0,0,1-2-.33,3.61,3.61,0,0,1-1.43-1,4.07,4.07,0,0,1-.85-1.53,7,7,0,0,1,0-3.86,4.23,4.23,0,0,1,.76-1.53,3.62,3.62,0,0,1,1.34-1,4.62,4.62,0,0,1,2-.37,4.37,4.37,0,0,1,1.64.28,3.18,3.18,0,0,1,1.92,2,5.05,5.05,0,0,1,.23,1.59,6.54,6.54,0,0,1-.06.89c0,.29-.1.55-.16.78Zm2.34-4.06a2,2,0,0,0-1.72.76,3.72,3.72,0,0,0-.67,2H244v-.34a3.19,3.19,0,0,0-.44-1.8A1.67,1.67,0,0,0,242.12,66.9Z"/><path class="cls-1" d="M249.13,72.21a2.69,2.69,0,0,1,1.11-2.4,5.24,5.24,0,0,1,3-.75h1.59v-.3a1.71,1.71,0,0,0-.49-1.36A2.08,2.08,0,0,0,253,67a5.82,5.82,0,0,0-1.48.19,6.11,6.11,0,0,0-1.29.52l-.46-1.41a6.07,6.07,0,0,1,1.45-.61,6.67,6.67,0,0,1,2-.26,3.72,3.72,0,0,1,2.76.91,3.45,3.45,0,0,1,.89,2.51v6h-1.65l-.29-1.37a4.86,4.86,0,0,1-.42.59,2.81,2.81,0,0,1-.57.51,3.37,3.37,0,0,1-.79.35A3.92,3.92,0,0,1,252,75a3.3,3.3,0,0,1-1.1-.18,2.58,2.58,0,0,1-.9-.54,2.52,2.52,0,0,1-.61-.88A3.14,3.14,0,0,1,249.13,72.21Zm5.7-1.78h-1.61a2.53,2.53,0,0,0-1.61.45,1.57,1.57,0,0,0-.56,1.27,1.25,1.25,0,0,0,1.31,1.32,2.37,2.37,0,0,0,1-.21,2.53,2.53,0,0,0,.78-.54,2.59,2.59,0,0,0,.5-.79,2.33,2.33,0,0,0,.18-.9Z"/><path class="cls-1" d="M263.55,72.1a1.73,1.73,0,0,0,.22,1,.91.91,0,0,0,.81.33,2.55,2.55,0,0,0,1.35-.38l.44,1.46a3.55,3.55,0,0,1-.94.4,4.71,4.71,0,0,1-1.19.13,2.63,2.63,0,0,1-2-.69,3.21,3.21,0,0,1-.63-2.2v-5h-1.41V65.59h1.43l.47-2.61h1.46v2.61h2.72v1.52h-2.72Z"/><path class="cls-1" d="M271.14,64.18A1.2,1.2,0,0,1,269.86,63a1.14,1.14,0,0,1,.34-.84,1.2,1.2,0,0,1,.94-.35,1.23,1.23,0,0,1,.94.35,1.17,1.17,0,0,1,.33.84,1.18,1.18,0,0,1-1.27,1.22Zm1,10.6h-2V65.6h2Z"/><path class="cls-1" d="M279,74.78l-3.28-9.18h2l1.44,4.22L280,73h0l.81-3.19,1.47-4.22h2l-3.29,9.18Z"/><path class="cls-1" d="M287,72.21a2.7,2.7,0,0,1,1.1-2.4,5.29,5.29,0,0,1,3-.75h1.6v-.3a1.75,1.75,0,0,0-.49-1.36,2.1,2.1,0,0,0-1.39-.43,5.76,5.76,0,0,0-1.48.19,6.42,6.42,0,0,0-1.3.52l-.45-1.41a6.16,6.16,0,0,1,1.44-.61,6.78,6.78,0,0,1,2-.26,3.68,3.68,0,0,1,2.75.91,3.41,3.41,0,0,1,.9,2.51v6H293l-.28-1.37a4.94,4.94,0,0,1-.43.59,2.81,2.81,0,0,1-.57.51,3,3,0,0,1-.79.35,3.8,3.8,0,0,1-1.08.13,3.3,3.3,0,0,1-1.1-.18,2.58,2.58,0,0,1-.9-.54,2.4,2.4,0,0,1-.61-.88A3,3,0,0,1,287,72.21Zm5.7-1.78H291.1a2.5,2.5,0,0,0-1.6.45,1.54,1.54,0,0,0-.56,1.27,1.27,1.27,0,0,0,.37,1,1.3,1.3,0,0,0,.94.36,2.4,2.4,0,0,0,1-.21,2.37,2.37,0,0,0,.77-.54,2.44,2.44,0,0,0,.51-.79,2.33,2.33,0,0,0,.18-.9Z"/></svg>