<?xml version="1.0" standalone="no"?>
<!DOCTYPE svg PUBLIC "-//W3C//DTD SVG 1.1//EN" "http://www.w3.org/Graphics/SVG/1.1/DTD/svg11.dtd" >
<svg xmlns="http://www.w3.org/2000/svg" xmlns:xlink="http://www.w3.org/1999/xlink" version="1.1">
<metadata>
Created by FontForge 20170731 at Wed Apr 20 13:37:17 2022
 By Aleksey,,,
Dearest(c) (Fikryal.Co Studio). 2020. All Rights Reserved
</metadata>
<defs>
<font id="Dearest" horiz-adv-x="438" >
  <font-face 
    font-family="Dearest"
    font-weight="400"
    font-stretch="normal"
    units-per-em="2048"
    panose-1="2 0 5 0 0 0 0 0 0 0"
    ascent="1638"
    descent="-410"
    x-height="623"
    cap-height="1380"
    bbox="-1118 -868 1657 1782"
    underline-thickness="102"
    underline-position="-255"
    unicode-range="U+001D-222B"
  />
<missing-glyph horiz-adv-x="1024" 
 />
    <glyph glyph-name=".notdef" horiz-adv-x="1024" 
 />
    <glyph glyph-name=".null" horiz-adv-x="0" 
 />
    <glyph glyph-name=".null" horiz-adv-x="0" 
 />
    <glyph glyph-name="nonmarkingreturn" horiz-adv-x="1040" 
 />
    <glyph glyph-name="space" unicode=" " horiz-adv-x="468" 
 />
    <glyph glyph-name="space" unicode="&#xa0;" horiz-adv-x="468" 
 />
    <glyph glyph-name="exclam" unicode="!" horiz-adv-x="454" 
d="M174 -18q-61 0 -70 67q-10 86 -14 260v49q0 69 4 213q12 366 33 564q4 42 41 163q8 28 39 31h8q38 0 68 -24.5t36 -61.5q7 -47 7 -78q0 -29 -9 -112q-20 -145 -26 -224q-3 -36 -13.5 -143t-13.5 -166q-14 -254 -14 -327t6 -144v-6q0 -25 -23 -41q-10 -9 -43 -18z
M188 -324q-29 0 -52 20.5t-23 49.5v59l-2 62q0 27 26 37q16 4 27 4q60 0 88 -39q10 -13 10 -25l-2 -10q-4 -17 -7 -37t-6 -44.5t-5 -37.5q-6 -23 -21 -30q-15 -9 -33 -9z" />
    <glyph glyph-name="quotedbl" unicode="&#x22;" 
d="M315 1073h-6q-23 0 -44.5 21t-22.5 47q-3 46 -15.5 87.5t-17.5 65.5q0 11 9.5 21t21.5 10q36 -6 56 -21t30 -47q20 -71 20 -133q0 -28 -7 -39.5t-24 -11.5zM184 1073q-60 0 -75 51q-2 9 -3.5 27.5t-3.5 26.5q-5 45 -22 96q0 2 -3 9.5t-3 12.5q0 12 10 19q8 10 20 10
q13 0 25 -6q44 -15 59 -62q20 -58 23 -131v-12q0 -12 -1 -18.5t-7 -13.5t-19 -9z" />
    <glyph glyph-name="numbersign" unicode="#" horiz-adv-x="1212" 
d="M739 602h4q1 24 3.5 77t3.5 81v8q0 12 -13 12h-6q-92 -11 -250 -26q-12 -4 -14 -6q-6 -3 -6 -15q-18 -190 -23 -313v-6q0 -19 15 -19q8 0 12 2q126 15 252 21q22 0 22 18v166zM735 106v150q0 14 -4 18q-10 5 -20 5q-126 -9 -267 -31q-18 0 -18 -21q-4 -172 -4 -262v-96
q0 -10 2 -16q2 -8 2 -25q0 -16 -10 -33q-31 -31 -74 -31q-11 0 -23 3q-23 6 -32 24q-7 14 -11 41q-16 154 -16 293v49q0 19 -2 25q-3 6 -8 6q-6 0 -29 -10h-2q-21 -9 -37 -9q-28 0 -47 31q-14 20 -14 43q0 28 29 51q42 31 88 45q15 3 20 11q4 12 6 22q4 216 8 320
q0 12 -2 14q-4 4 -12 4h-6l-41 -4q-31 -3 -64 -6h-6q-23 0 -41 24t-18 50q0 10 2 16q3 10 14 18q3 1 23 6q5 1 41 11q33 9 96 20q13 3 18 8q5 9 7 21q3 167 32 311l13 47q3 20 10 45q4 18 18 27q13 8 33 8q7 0 23 -4q84 -41 84 -131v-35q0 -94 -17 -213v-2q-4 -28 -4 -33
q0 -6 4 -10t15 -4q14 0 24 2q146 12 215 16q27 0 27 23v4q3 126 31 260l18 74l4 16q3 16 21 27q17 10 30 10q11 0 17 -2q85 -36 88 -121q2 -23 2 -67q0 -82 -17 -189q-2 -4 -2 -12q0 -18 19 -18h8q69 -4 115 -11q65 -18 65 -71q0 -7 -4 -23q-9 -31 -37 -31h-10q-71 9 -145 9
q-24 0 -27 -23q-8 -111 -10 -164l-13 -164v-8q0 -22 25 -22q19 0 27 -2q16 -4 26 -4q29 -3 45 -29q15 -24 15 -51q0 -11 -4 -27q-3 -14 -15 -18q-20 -5 -26 -5l-82 9h-4q-17 0 -17 -21q-1 -21 -2 -62.5t-2 -62.5q-4 -110 -4 -164q0 -67 6 -137v-8q0 -51 -67 -66l-17 -2
q-56 0 -65 60q-17 160 -17 284z" />
    <glyph glyph-name="dollar" unicode="$" horiz-adv-x="1071" 
d="M496 573q1 0 6 5v6l22 258l-2 2h-4l-4 -8q-6 -7 -20 -31q-3 -5 -18.5 -33.5t-22.5 -44.5q-19 -43 -19 -84v-6q0 -21 17 -41q14 -20 41 -23h4zM604 115q63 63 90 133q8 24 8 47q0 52 -61 76l-10 4q-8 0 -8 -17zM516 -303q-16 0 -39 10q-20 11 -20 35l4 160v2q0 14 -21 14
q-116 3 -217 55q-57 26 -102 84q-23 38 -23 68t15 57q13 29 39 29q15 0 30 -6q49 -18 49 -53v-9q-4 -28 -4 -39q0 -22 15 -34q13 -13 43 -25q61 -22 116 -22l35 2q19 4 25 10q8 8 8 26l20 355q0 20 -18 26q-73 25 -143 88q-74 65 -74 152q0 38 14 76q85 236 293 385
q24 15 31 45q9 44 24 84q17 54 25 96q6 27 31 27l10 -2q26 -3 47 -27q16 -22 16 -49l-2 -14q-7 -22 -14 -68l80 18q28 7 45 7q82 0 135 -62q51 -63 51 -141q0 -37 -12 -74q-39 -87 -90 -143l-12 -16t-15 -19q-12 -15 -24 -27q-25 -30 -35 -45q-6 -9 -14 -12q-12 -4 -23 -4
q-35 3 -63 31q-31 28 -39 59v10q0 17 12 29q104 87 141 219q4 11 8 29q4 12 5 14l2 8q0 12 -11 12l-8 -2q-87 -24 -160 -84q-7 -5 -10 -14q-2 -6 -2 -16v-13q-26 -209 -51 -436l-2 -28q0 -16 8 -21q6 -6 29 -16q81 -40 143 -105q60 -72 60 -141q0 -58 -41 -123
q-80 -111 -218 -172q-25 -8 -28 -41q0 -58 -6 -117l-4 -41q-15 -61 -64 -61z" />
    <glyph glyph-name="percent" unicode="%" horiz-adv-x="1093" 
d="M809 158q36 55 39 100l2 10v4q-2 2 -6 2h-6q-10 0 -13 -10q-16 -40 -16 -88v-18zM358 995q34 43 37 95l2 10v4q-2 2 -6 2h-4q-11 0 -14 -12q-17 -42 -17 -76zM182 -242q-30 3 -57 21q-23 13 -23 35q0 10 7 20l90 193q61 133 180 385q149 332 369 647q80 113 180 233
l18 21q26 26 55 26q45 0 66 -55l2 -16q0 -14 -6 -23q-165 -232 -275 -434q-122 -217 -239 -455l-41 -77l-215 -416q-7 -13 -31 -51l-12 -19q-24 -35 -68 -35zM373 889h-15q-83 18 -104 96q-4 36 -4 53q0 90 45 164l12 17q1 1 4.5 2t5.5 2q15 3 27 12q12 6 12 31v2q0 6 11 10
q6 2 20 2h12q65 -9 86 -68q17 -53 17 -100q0 -85 -39 -156q-34 -67 -90 -67zM823 57q-59 0 -106 68q-17 46 -17 78q3 75 33 143q14 31 27 39q19 11 43 14l-2 15q0 37 39 37h14q62 -9 84 -72q18 -53 18 -105q0 -98 -63 -182q-27 -35 -70 -35z" />
    <glyph glyph-name="ampersand" unicode="&#x26;" horiz-adv-x="892" 
d="M406 35q6 0 12 6q8 8 10 14q2 8 10 15l8 12q28 63 39 100l25 66v4q0 8 -4 12l-92 115l-29 -117q-14 -60 -14 -129l2 -47v-4q2 -8 10 -29q3 -15 18 -18h5zM393 678q70 113 156 233q103 142 170 260q-146 -9 -240 -129q-94 -119 -94 -280q0 -45 8 -84zM420 -66
q-69 0 -127 52q-65 65 -74 157l-2 47q0 80 25 160q20 74 57 152q8 13 8 28q0 14 -10 31q-70 125 -70 260q0 57 19 125q65 198 250 293q82 49 176 64l18 2q64 0 107 -43q41 -47 41 -107q0 -13 -4 -37q-22 -79 -66 -139q-45 -71 -100 -145q-50 -66 -109 -158q-35 -57 -90 -162
q-4 -12 -4 -18q0 -12 6 -21q30 -51 82 -113q1 3 4 9.5t4 9.5q4 7 13.5 24t13.5 25q16 29 41 29q14 0 37 -10q32 -14 32 -46q0 -11 -6 -26q-7 -15 -20 -55q-8 -19 -19 -48l-2 -10q0 -7 11 -18q4 -3 24 -23q87 -84 199 -143q17 -7 33 -27q12 -18 12 -35l-2 -10q-9 -22 -41 -22
q-16 0 -37 6q-118 40 -211 127q-20 15 -27 22q-14 -55 -47 -106q-9 -13 -10 -17q-26 -45 -61 -63q-37 -21 -74 -21z" />
    <glyph glyph-name="quotesingle" unicode="'" horiz-adv-x="258" 
d="M184 1073q-60 0 -75 51q-2 9 -3.5 27.5t-3.5 26.5q-5 45 -22 96q0 2 -3 9.5t-3 12.5q0 12 10 19q8 10 20 10q13 0 25 -6q44 -15 59 -62q20 -58 23 -131v-12q0 -12 -1 -18.5t-7 -13.5t-19 -9z" />
    <glyph glyph-name="parenleft" unicode="(" horiz-adv-x="497" 
d="M272 -258q-32 0 -57 31q-27 48 -33 75q-75 289 -84 576q3 425 187 784q49 86 112 144q27 24 58 24q43 0 73 -43q9 -12 9 -26q0 -11 -13 -27q-207 -262 -272 -596q-35 -152 -35 -301q0 -65 6 -129q15 -201 72 -404q10 -29 27 -49q8 -8 8 -20q0 -15 -17 -25
q-20 -14 -41 -14z" />
    <glyph glyph-name="parenright" unicode=")" horiz-adv-x="491" 
d="M131 -289q-45 0 -72 41q-8 13 -8 29t10 26q169 199 256 523q52 194 52 377q0 54 -7 129q-21 226 -65 387q-15 47 -33 65q-8 8 -8 17q0 10 12 22q19 19 47 19q32 0 52 -23q16 -20 30 -61q33 -103 64 -299q28 -182 28 -316q-10 -431 -188 -768q-48 -88 -111 -143
q-28 -25 -59 -25z" />
    <glyph glyph-name="asterisk" unicode="*" horiz-adv-x="585" 
d="M375 817q-49 0 -64 62q-4 29 -8 86q-27 -27 -39 -37t-35 -33q-20 -23 -39 -23q-12 0 -32 13q-31 19 -31 47q0 10 6 22q20 39 53 72l64 61q8 5 8 13q0 6 -8 14q-26 26 -80 84l-14 21q-9 9 -9 20q0 1 5 16q10 17 26 23q15 6 33 6q59 0 100 -41q4 2 8 10q0 5 3 11v6
q7 30 18 41q8 11 31 14h10q22 0 45 -10q23 -13 29 -33q6 -18 14 -18t16 8q7 8 21 12q8 4 10 6q20 10 37 10q48 0 68 -57v-8q0 -25 -23 -35q-72 -45 -133 -94q-10 -10 -10 -14q0 -7 10 -17l67 -55q19 -16 19 -31q0 -20 -29 -33q-23 -10 -41 -10q-8 0 -24 4l-11 2
q-10 0 -10 -12v-8q0 -18 4 -58v-6q0 -23 -20 -37q-22 -14 -45 -14z" />
    <glyph glyph-name="plus" unicode="+" horiz-adv-x="804" 
d="M459 221h-6q-61 0 -76 62q-10 46 -10 110l2 70q0 26 -21 26h-69l-41 -2q-23 0 -44.5 21.5t-21.5 44.5v4q0 15 10 23t25 8h110h17.5t13.5 0.5t9 0.5t6.5 2.5t3 4t2.5 6.5t0.5 9t0.5 13t1 17q1 15 1.5 45.5t3 54.5t9.5 45l2 9q9 34 20.5 47.5t30.5 13.5h11q35 -3 60 -26.5
t28 -57.5l2 -27q0 -13 -15 -116l-4 -23q0 -8 21 -8h71v2h68q44 0 63 -39q9 -15 9 -26q0 -24 -35 -27q-62 -4 -182 -8q-14 -2 -20 -8t-7 -21q-6 -65 -6 -129l2 -78q0 -22 -10 -32t-35 -11z" />
    <glyph glyph-name="comma" unicode="," horiz-adv-x="378" 
d="M223 104q-31 0 -49 15t-18 39q0 22 10 37q25 38 74 98q15 18 39 18q20 0 38.5 -11t26.5 -26q2 -4 2 -14q0 -14 -8 -22l-82 -113q-12 -21 -33 -21z" />
    <glyph glyph-name="hyphen" unicode="-" horiz-adv-x="538" 
d="M147 496q-26 0 -41 18q-16 16 -16 41l2 12q3 16 17 23q12 6 26 6q49 8 111 8l78 -2h145q29 -3 43 -20t14 -43v-13q-3 -16 -14 -20q-9 -6 -27 -6q-53 2 -163 2z" />
    <glyph glyph-name="hyphen" unicode="&#xad;" horiz-adv-x="538" 
d="M147 496q-26 0 -41 18q-16 16 -16 41l2 12q3 16 17 23q12 6 26 6q49 8 111 8l78 -2h145q29 -3 43 -20t14 -43v-13q-3 -16 -14 -20q-9 -6 -27 -6q-53 2 -163 2z" />
    <glyph glyph-name="period" unicode="." horiz-adv-x="251" 
d="M176 193q-32 3 -51 22q-23 20 -23 45v4q0 28 19 53q16 25 37 25q31 -3 53 -25q18 -21 18 -55q0 -69 -53 -69z" />
    <glyph glyph-name="slash" unicode="/" horiz-adv-x="1193" 
d="M133 -258q-26 3 -45 14q-18 9 -18 27q0 9 8 20q88 130 139 217q9 15 28.5 46t28.5 47q291 469 650 1005q32 46 73 123l37 62q16 28 43 28q7 0 27 -4q35 -12 53 -39q12 -15 12 -33q0 -11 -10 -28q-235 -347 -434 -656q-246 -381 -504 -753q-12 -15 -22 -35q-9 -20 -27 -31
q-10 -6 -39 -10z" />
    <glyph glyph-name="zero" unicode="0" horiz-adv-x="905" 
d="M391 -129q12 0 29 23q46 59 72 118q50 106 98.5 234.5t93.5 310t45 317.5q0 203 -98 289q-13 13 -21 13t-18 -19q-62 -103 -135 -291q-152 -390 -152 -688q0 -88 10 -147q15 -84 47 -133q18 -27 29 -27zM352 -252q-105 0 -164 92q-53 83 -75 228q-11 84 -11 204
q13 500 269 936q74 123 190 123q47 0 86 -16q238 -97 238 -457q0 -223 -81.5 -484.5t-172.5 -418.5q-63 -102 -129 -154q-59 -43 -123 -51z" />
    <glyph glyph-name="one" unicode="1" horiz-adv-x="378" 
d="M70 68q13 363 45 680q21 260 92 514v4q0 2 2 4q15 63 57 63q13 0 21 -2q80 -18 80 -86v-10q-10 -101 -29 -184q-12 -64 -21 -125q-29 -170 -43 -324q-21 -201 -36 -416q-17 -167 -17 -299q0 -42 2 -65v-6q0 -42 -33 -56q-25 -14 -53 -14q-19 0 -39 10q-10 8 -14 19
q-2 6 -6 22q0 9 -2 13q-6 108 -6 210v48z" />
    <glyph glyph-name="two" unicode="2" horiz-adv-x="858" 
d="M133 -246q-28 0 -59 17q-33 17 -33 41q0 21 20 41q138 160 224 272q63 80 157 244q93 161 166 348q74 189 74 342q0 67 -18 123q-6 20 -21 20l-14 -2q-36 -15 -68 -43q-189 -168 -242 -428q-2 -14 -2 -41v-49q0 -32 -30 -35l-25 -4q-59 0 -80 70q-10 52 -10 92
q0 76 27 147q79 225 266 365q76 55 145 55q94 0 156 -86q61 -88 61 -207v-12q-9 -189 -112 -420q-97 -218 -226 -420q-125 -197 -198 -284l-6 -6q-1 -1 -3 -4.5t-3 -4.5q-5 -10 -5 -12q4 -2 13 -2h12q148 0 295 -12q38 -3 70 -25q14 -14 14 -27q0 -17 -25 -30q-24 -8 -55 -8
h-242q-94 0 -204 -13z" />
    <glyph glyph-name="three" unicode="3" horiz-adv-x="921" 
d="M309 -229q-85 0 -164 30q-38 14 -67 43q-29 32 -29 68q0 25 12 49q15 27 48 27q16 0 34 -6q41 -14 41 -45l-4 -33q0 -22 37 -27l53 -4q88 0 162.5 36t124.5 93t85 129.5t51 144.5t16 138q0 79 -24 128.5t-67 49.5q-12 0 -20 -2q-54 -13 -135 -64q-27 -18 -62 -18
q-49 0 -88 39q-20 20 -20 43q0 19 16 41q144 191 299 477q31 54 31 76q0 10 -8 10q-9 0 -21 -6q-216 -114 -301 -336q-5 -13 -9.5 -39t-6.5 -33q-6 -39 -43 -39l-14 2q-68 12 -68 82v6q0 273 264 431q79 50 162 61l29 2q72 0 120 -47.5t48 -116.5q0 -13 -9 -53
q-27 -88 -116 -246q-16 -29 -48.5 -82t-39.5 -65q-9 -13 -9 -17v-4q53 0 80 -8q122 -29 162 -156q23 -70 23 -163q0 -82 -21 -164t-63 -158t-111.5 -139.5t-159.5 -100.5q-81 -34 -170 -34z" />
    <glyph glyph-name="four" unicode="4" horiz-adv-x="870" 
d="M328 571l227 50q14 3 16 8q2 4 2 16l29 340q-150 -208 -274 -414zM594 -248l-12 2q-47 3 -47 47l-5 123q0 134 13 297v2q8 156 14 236q0 23 2 33q-78 -20 -207 -58q-52 -18 -108 -18h-11q-47 3 -83 26q-48 28 -48 66q0 20 17 47q4 8 11.5 20.5t19 31.5t20.5 34
q120 198 176 287q107 168 215 303q109 133 180 133h7q41 -6 69 -31q30 -30 33 -63l2 -35q0 -79 -27 -156q0 -6 -2 -10q-41 -187 -63 -401q0 -2 -10 -88q-6 -35 -11 -80q-2 -37 -10 -97q-9 -73 -20 -206q-15 -187 -27 -385q-3 -24 -27 -41q-29 -16 -61 -19z" />
    <glyph glyph-name="five" unicode="5" horiz-adv-x="1177" 
d="M317 -246q-33 0 -51 2q-72 8 -133 60q-59 50 -74 121l-2 26q0 56 33 103q30 49 82 67q6 2 18 2q23 0 46 -10q23 -13 32 -31q6 -9 6 -20q0 -15 -12 -27q-7 -3 -10 -10q-20 -16 -31 -27q-22 -28 -22 -59q0 -22 8 -41q24 -47 74 -47h6q183 9 309 112q127 101 199 250
q67 143 67 271q0 93 -39 149q-42 60 -123 60q-22 0 -57 -7q-113 -36 -190 -102l-72 -57q-47 -35 -100 -35q-38 0 -80 22q-51 29 -51 88v11q0 55 12 110q18 80 26 107q28 110 84 231h-6q-25 0 -41 -8l-16 -4q-8 -2 -25 -2q-86 6 -86 94q3 33 31 55q57 42 127 58
q274 75 541 90q74 4 108 4q83 0 162 -21q28 -7 47 -18q53 -35 53 -86q0 -19 -6 -37q-12 -27 -33 -27q-8 0 -14 3q-74 26 -149 26q-57 0 -113 -6q-77 -9 -199 -27q-97 -14 -200 -34q-8 -8 -15 -41q-8 -28 -26 -97q-5 -20 -16.5 -59.5t-16.5 -58.5q-4 -18 -12 -49t-11 -44
q-3 -11 -7 -23t-6 -19.5t-3 -10.5q162 98 305 98q155 0 258 -100q103 -103 103 -278q0 -66 -23 -160q-40 -147 -129 -256q-84 -102 -217 -180q-74 -47 -154 -74q-79 -27 -166 -27z" />
    <glyph glyph-name="six" unicode="6" horiz-adv-x="987" 
d="M489 -113q36 0 74 47q120 150 135 345v6q-2 2 -4 2q-2 -1 -5.5 -2t-4.5 -2q-2 -1 -10 -9q0 -2 -2 -4q-116 -110 -166 -264q-13 -37 -27 -51q-19 -19 -26 -21q-15 -6 -23 -6q-2 -2 -6 -2t-4 -4l2 -4q39 -31 67 -31zM483 -238h-12q-145 0 -233 117q-99 131 -113 289
q-10 92 -10 164q0 449 303 807q100 129 260 176q33 8 70 8q111 0 190 -94q43 -52 43 -117q0 -23 -6 -47q-38 -139 -158 -213q-30 -18 -61 -18q-41 0 -74 26q-25 19 -25 41q0 15 13 35q5 10 20 35q38 65 62 119q2 2 2 8q8 13 8 32q-40 -14 -66 -32q-244 -164 -338 -436
q-67 -183 -67 -381v-31q3 -54 18 -119q14 -59 37 -104q35 172 139 303q54 72 138 119q48 26 100 26q47 0 94 -24q92 -59 92 -166q0 -25 -2 -37q-27 -183 -143 -330q-105 -141 -281 -156z" />
    <glyph glyph-name="seven" unicode="7" horiz-adv-x="933" 
d="M340 -272q-34 0 -61 24q-17 17 -17 33l4 20l176 617l-36 -6q-82 -16 -91 -17l-34 -4q-40 0 -76 31q-25 28 -25 49q0 30 43 51q73 24 131 29l109 12l18 6q5 2 8 15q81 315 218 622v11q-109 -11 -220 -47q-3 -1 -10 -3.5t-10 -3.5q-16 -3 -33 -10q-13 -3 -38.5 -9t-39.5 -9
q-41 -9 -80 -9h-22q-73 6 -121 66q-14 20 -14 41q0 32 41 47q134 47 266 59h10q90 18 150 25q65 8 149 8q73 0 121 -39q51 -41 62 -106l2 -23q0 -26 -9 -53q-45 -148 -77 -225q-6 -16 -23 -59t-25 -66q-31 -90 -75 -199l-4 -14q0 -10 20 -10q12 0 18 -2q27 0 58 -7
q49 -15 69 -59q7 -18 7 -25q-3 -30 -39 -30q-80 0 -160 -6q-31 0 -37 -29l-209 -604q-3 -16 -12 -31q-1 -2 -2 -5.5t-2 -4.5q-26 -51 -78 -51z" />
    <glyph glyph-name="eight" unicode="8" horiz-adv-x="864" 
d="M356 -160q15 0 31 13q52 39 84 88q23 33 37 65t14 72v6q0 52 -43 104q-47 53 -92 93q-29 25 -63 63q-62 -136 -62 -276q0 -58 8 -105q8 -54 52 -104q16 -19 34 -19zM514 334q6 6 6 8q8 26 17.5 55.5t20.5 64.5t17 54q97 309 144 485q18 65 18 129q0 20 -4 56
q-3 17 -12 26t-23 9l-14 -2q-94 -22 -152 -97q-88 -102 -141 -225q-45 -99 -45 -209q0 -38 6 -78q3 -13 15 -41q11 -33 24 -59q5 -12 13.5 -31.5t9.5 -21.5q10 -23 12 -25q42 -58 88 -98zM326 -268q-122 0 -187 133q-41 77 -41 266q3 181 117 381q6 9 6 20v9q-18 71 -18 141
q0 81 22 164q20 77 60 158q76 171 229 276q68 53 150 53q31 0 55 -8q73 -22 112 -78q41 -59 41 -135l-2 -27q-18 -161 -71 -319l-13 -43q-76 -247 -155 -475q-4 -12 -4 -21q0 -11 8 -22q39 -59 39 -127q0 -54 -27 -107q-76 -165 -250 -227q-37 -12 -71 -12z" />
    <glyph glyph-name="nine" unicode="9" horiz-adv-x="921" 
d="M305 586q93 152 111 182q114 185 235 403q8 11 8 23q0 7 -6 16q-9 9 -16 9q-4 0 -19 -5h-2q-79 -31 -131 -98q-107 -133 -149 -317q-31 -105 -31 -213zM268 -256q-41 0 -96 10q-39 9 -74 33q-57 51 -57 123q0 55 33 94q22 19 53 19q29 0 51 -19q8 -8 8 -20l-2 -15
q-12 -36 -14 -55v-12q0 -62 63 -68h19q109 0 182 76q75 75 121 194q48 123 74 258q24 124 41 275q13 113 20 235q1 9 2 27.5t2 26.5q2 16 2 45q-103 -163 -192 -340q-10 -17 -15 -29q-42 -79 -88 -149q-48 -75 -135 -84h-6q-93 0 -102 96l-2 74q0 136 24 268q20 127 78 258
q55 119 141 205q84 78 181 78q75 0 145 -52q7 -7 20 -10q117 -6 117 -123q0 -48 2 -73q2 -57 2 -172v-58q-3 -128 -30 -313q-29 -197 -60 -311q-55 -248 -252 -404q-119 -88 -256 -88z" />
    <glyph glyph-name="colon" unicode=":" horiz-adv-x="251" 
d="M201 279q-32 3 -51 22q-23 20 -23 45v4q0 29 18 53q16 25 37 25q32 -3 54 -25q18 -21 18 -55q0 -69 -53 -69zM201 639q-31 3 -51 23q-23 20 -23 45v4q0 29 18 53q15 24 37 24q33 -3 54 -24q18 -21 18 -55q0 -70 -53 -70z" />
    <glyph glyph-name="semicolon" unicode=";" horiz-adv-x="251" 
d="M158 639q-32 3 -52 23q-22 19 -22 45v4q0 29 18 53q15 24 37 24q33 -3 54 -24q18 -21 18 -55q0 -70 -53 -70zM109 162q-65 0 -68 53q0 14 10 37q35 53 74 98q16 19 39 19q17 0 39 -11q17 -12 26 -26q2 -4 2 -15q0 -14 -8 -22l-82 -113q-14 -20 -32 -20z" />
    <glyph glyph-name="semicolon" unicode="&#x37e;" horiz-adv-x="251" 
d="M158 639q-32 3 -52 23q-22 19 -22 45v4q0 29 18 53q15 24 37 24q33 -3 54 -24q18 -21 18 -55q0 -70 -53 -70zM109 162q-65 0 -68 53q0 14 10 37q35 53 74 98q16 19 39 19q17 0 39 -11q17 -12 26 -26q2 -4 2 -15q0 -14 -8 -22l-82 -113q-14 -20 -32 -20z" />
    <glyph glyph-name="less" unicode="&#x3c;" horiz-adv-x="761" 
d="M684 231q-11 0 -25 7l-65 24q-63 20 -131 49q-66 26 -101 37q-70 23 -161 64q-73 30 -107 100q-8 19 -8 39q0 38 41 59q13 5 39 23q227 130 463 223q12 4 18 4q16 0 31 -12q44 -30 47 -82v-12q0 -34 -39 -43h-6q-1 -1 -4 -3t-4 -3q-144 -87 -301 -156l-70 -33l-14 -8
q28 -13 221 -96l82 -37l69 -35q35 -15 50 -53q6 -12 6 -25q0 -12 -10 -22q-9 -9 -21 -9z" />
    <glyph glyph-name="equal" unicode="=" horiz-adv-x="776" 
d="M156 387h-6q-31 0 -52 21q-28 16 -28 49v8q3 19 16 27q15 8 27 10h2q107 34 217 43q7 1 22.5 3t22.5 3q125 16 233 16h64q69 -9 84 -75v-11q0 -32 -35 -35q-172 -10 -317 -32q-66 -11 -146 -21q-46 -4 -70 -4q-10 -2 -34 -2zM164 573q-25 0 -49 17q-25 18 -33 41l-4 18
q0 30 33 41q65 24 129 27q118 14 254 14q71 0 159 -10q65 -12 80 -70l2 -16q0 -33 -37 -33h-6q-78 4 -114 4q-169 0 -318 -20q-21 0 -31 -2q-26 -3 -49 -9z" />
    <glyph glyph-name="greater" unicode="&#x3e;" horiz-adv-x="743" 
d="M162 254q-13 0 -23 10q-8 8 -8 23t10 32q19 37 64 54q82 38 319 143q5 2 16.5 7.5t18.5 8.5l-8 5q-161 75 -270 131l-97 55q-1 1 -3 2t-3 2q-4 3 -20 8q-37 9 -37 41v8q3 53 47 88q18 11 31 11q6 0 22 -4q194 -75 395 -189q14 -6 29 -14t33.5 -18t28.5 -15q55 -27 55 -72
q0 -23 -23 -61q-38 -53 -94 -76q-80 -35 -174 -67q-19 -7 -59.5 -21.5t-59.5 -21.5q-81 -33 -106 -41l-53 -21l-7 -2q-15 -6 -24 -6z" />
    <glyph glyph-name="question" unicode="?" horiz-adv-x="831" 
d="M430 -74h-12q-66 0 -107 62q-8 31 -8 78q0 137 55 344q56 211 129 385q35 82 80 155q53 86 88 176l2 4q7 7 7 17l-2 8q-32 -4 -50 -14q-267 -123 -387 -393q-18 -41 -18 -86l2 -35q-3 -27 -31 -27h-8q-61 9 -82 64q-18 46 -18 96q0 44 16 94q66 178 193 299
q123 117 315 164q28 4 43 4q76 0 129 -53q51 -54 51 -133q0 -23 -2 -35q-16 -87 -47 -144q-38 -71 -76 -122q-23 -33 -63 -103q-57 -105 -113 -313q-57 -200 -57 -348q0 -56 12 -90l4 -17q0 -31 -45 -37zM406 -322h-11q-80 12 -80 103v6l4 33q9 57 54 57h4q27 0 49 -14
q23 -15 33 -37l2 -8l-2 -8q-18 -67 -23 -115q0 -9 -8 -12q-15 -5 -22 -5z" />
    <glyph glyph-name="at" unicode="@" horiz-adv-x="1470" 
d="M633 659q-71 -41 -105 -104q-35 -65 -55 -139q101 121 160 243zM635 399l-8 -8q-29 -39 -76 -86q-45 -45 -105 -45q-24 0 -45 8q-53 18 -65 74q-6 27 -6 57q0 53 16 109q41 136 152 225q53 41 108 41q54 0 101 -41q8 -8 26 -35q12 -22 41 -47q8 -8 8 -20q0 -9 -4 -25
q-20 -70 -20 -145q0 -64 14 -119q21 -98 80 -98q35 0 86 39q107 84 176 196q123 178 168 398q6 37 6 73q0 34 -6 68q-41 167 -217 188q-54 4 -84 4q-265 0 -477 -170q-217 -171 -275 -438q-16 -78 -16 -145q0 -135 59 -262q71 -148 220 -209q143 -64 303 -64q130 3 233 86
q27 27 64 33h14q20 0 33 -16q2 -4 2 -11q0 -9 -6 -18q-2 -3 -15 -16q-81 -76 -192 -117q-104 -39 -221 -39q-209 0 -388 123q-178 118 -231 354q-18 85 -18 170q0 152 55 289q53 133 158 262q210 253 542 297q47 8 101 8q105 0 200 -33q134 -46 211 -149q76 -104 76 -236
q0 -53 -12 -108q-70 -289 -277 -508q-95 -108 -237 -135q-12 -2 -35 -2q-126 0 -188 127q-24 59 -29 116z" />
    <glyph glyph-name="A" unicode="A" horiz-adv-x="950" 
d="M379 514q7 2 24.5 7.5t26.5 8.5q77 27 133 43q14 3 21 13q4 8 4 18v41q0 79 6 158q10 103 35 254q-165 -264 -250 -543zM698 -301h-8q-47 0 -59 41q-24 82 -27 147q-16 282 -16 525l-2 24l-166 -67q-36 -14 -66 -31q-20 -14 -26 -35q-9 -20 -15 -70q-2 -2 -2 -6
q-40 -196 -49 -403q-3 -59 -20 -82q-22 -25 -43 -25q-24 0 -47 23t-23 45v2q1 15 2 45.5t2 46.5q3 162 35 344q2 6 2 17l-8 2q-7 0 -15 -4l-10 -5q-18 -6 -35 -6q-24 0 -51 17q-39 23 -39 53q0 25 31 53q71 58 147 84q32 11 41 47q94 361 301 674q1 1 2.5 3t2.5 3
q53 73 98 121q20 24 39 37q20 14 45 14q19 0 35 -8q75 -37 75 -119l2 -39q0 -64 -8 -116l-6 -54l-26 -278l-7 -94q0 -18 23 -21q57 -9 72 -72l2 -12q0 -28 -35 -31q-12 0 -21 3q-6 2 -22 2q-14 0 -25 -11q-8 -8 -8 -24l2 -41q-6 -170 -6 -336l2 -238q2 -21 10 -77
q0 -13 -2 -23q-7 -20 -26 -31q-20 -14 -52 -14z" />
    <glyph glyph-name="B" unicode="B" horiz-adv-x="1171" 
d="M535 768q20 23 98 125q127 174 127 252q0 31 -64 31q-43 0 -86 -11q-19 -91 -41 -223q-14 -84 -34 -174zM303 -295q-87 0 -162 41q-149 79 -170 252q0 70 31 115q50 71 96 71q28 -3 49 -18q24 -21 27 -45q-3 -12 -18 -33q-56 -59 -56 -117q0 -48 41 -104q44 -47 111 -47
h16q121 15 221 84q252 168 345 454q14 35 14 105q0 77 -76 92q-70 8 -74 8q-44 0 -90 -12q-108 -27 -114 -43q-27 -58 -99 -473q-9 -72 -18 -84q-24 -27 -86 -27q-83 6 -86 107q0 84 14 194q4 20 4 31q64 423 144 799q-9 0 -11 -2l-8 -4q-77 -57 -125 -119q-14 -17 -14 -41
q0 -11 4 -17q4 -12 4 -18q-6 -25 -37 -25q-42 0 -69 35q-28 36 -31 78q3 46 31 82q197 274 528 289q104 0 170 -60q72 -66 72 -155q-3 -70 -29 -129q-59 -126 -195 -287q82 -6 156 -31q86 -42 127 -112q37 -64 37 -142v-32q-27 -186 -150 -340q-145 -201 -376 -291
q-71 -29 -148 -29z" />
    <glyph glyph-name="C" unicode="C" horiz-adv-x="1150" 
d="M354 -240q-172 6 -260 181q-82 155 -82 376v50q9 144 49 297q43 164 121 305q117 214 264 313q137 90 256 90h15q103 -3 170 -76q61 -64 61 -182v-20q-4 -52 -10 -78q-22 -117 -90 -203q-21 -27 -51 -27q-19 3 -43 15q-37 21 -37 51q5 19 8 27q51 102 57 217l-2 53
q-9 91 -78 94q-19 0 -43 -6q-110 -34 -180 -125q-143 -178 -211 -399q-55 -168 -61 -344l-2 -35v-31q0 -136 45 -258q25 -69 82 -115q31 -22 67 -22h11q76 0 168 63q81 55 194 160q80 76 180 191q50 57 131 153q5 5 23 29q64 67 96 67h2q27 -3 27 -45q-3 -46 -47 -120
q-90 -124 -203 -240q-110 -116 -221 -213q-8 -6 -25 -23q-51 -44 -73 -59q-167 -111 -293 -111h-15z" />
    <glyph glyph-name="D" unicode="D" horiz-adv-x="1468" 
d="M434 -293q-141 0 -278 90q-28 22 -43 49q-19 29 -19 62v6q3 37 31 37l18 -4q45 -12 54 -53q3 -18 14 -29q10 -10 27 -17q77 -32 163 -32q174 0 342 116t304 293t217 367q82 189 82 338l-5 53q-21 129 -110 182q-94 54 -211 54q-128 0 -246 -39q-127 -41 -209 -99l-14 -12
l18 -6q13 -3 23 -10q53 -24 53 -76l-2 -23q-32 -215 -49 -362q-9 -82 -12 -162q-6 -80 -15 -162q0 -14 -2 -20q0 -54 -24 -107q-27 -43 -78 -43h-10q-59 3 -74 58q0 2 -2 4q-6 24 -6 49q0 23 2 33q5 161 22 366q15 178 56 363l-2 12q-99 -94 -140 -223v-6l4 -33
q0 -25 -28 -25h-9q-31 6 -55 33q-24 24 -33 59q-2 10 -2 27q0 26 11 68q61 173 217 272q158 97 299 143q139 45 272 45q215 0 348 -118q135 -120 135 -332q0 -170 -98 -385q-199 -431 -600 -694q-162 -107 -336 -107z" />
    <glyph glyph-name="E" unicode="E" horiz-adv-x="702" 
d="M412 -229q-58 0 -105 8q-218 35 -252 254q-10 78 -10 141q0 106 18 211q47 348 148 676l33 90l4 8q12 21 12 47q0 16 -8 29q-4 12 -4 18q0 26 24 41q30 20 54 41l2 2q19 19 37 19l12 -2q18 -6 39 -6q27 0 65 10l25 6q4 2 12 2q94 20 197 20q52 0 96 -8q93 -18 102 -94
l2 -16q0 -37 -32 -37q-5 0 -25 4q-43 14 -90 14q-66 0 -121 -14l-92 -18q-54 -14 -72 -17q-22 -3 -32 -29l-37 -106q-88 -247 -142 -465l-4 -25l-4 -12q3 -8 10 -8l11 2q65 18 127 18l28 -2q65 0 103 -53q14 -14 14 -37l-4 -16q-6 -9 -14 -12q-12 -4 -19 -4h-37
q-37 0 -94 -11q-67 -17 -94 -26q-7 -3 -15.5 -5.5t-19 -6l-16.5 -5.5q-4 -1 -11 -8q-1 -2 -2 -6.5t-2 -7.5q-20 -100 -20 -264q0 -8 4 -62q3 -38 18 -82q30 -93 129 -102h41q89 0 179 22t163 72q27 18 56 18q17 0 32 -6q28 -6 37 -32v-5q0 -9 -6 -18q-10 -10 -16 -14l-2 -2
q-97 -72 -213 -99q-108 -30 -219 -30z" />
    <glyph glyph-name="F" unicode="F" horiz-adv-x="782" 
d="M197 -281q-6 0 -31 5q-46 9 -49 57l-4 82q0 71 6 141v2q0 11 2 17l18 276v10v8q-2 2 -8 2l-10 -2q-15 -6 -31 -6q-24 0 -47 29q-18 27 -18 57q0 23 16 49q29 42 84 58q35 9 35 49q15 159 39 313q6 39 15.5 113t12.5 100l2 8q-4 11 -12 11h-10l-29 -4q-33 -4 -57 -9
l-10 -2q-14 0 -27 13q-31 28 -31 63q0 43 41 70q83 44 176 59q30 3 39 31l6 14q41 66 91 66q44 0 88 -53q13 -19 32 -19h9q188 19 354 19q59 0 117 -3q94 -3 196 -32q64 -27 64 -86q0 -19 -11 -45q-12 -27 -36 -27q-11 0 -17 2q-118 23 -213 23q-80 0 -119 -2q-10 -2 -34 -2
q-145 -5 -324 -29q-13 -3 -16 -6q-5 -2 -9 -15l-36 -176q-41 -185 -68 -338l-2 -14q0 -14 14 -14l17 2q75 16 143 16q21 0 57 -4q93 -21 93 -104v-5q-3 -49 -43 -49l-15 2q-32 4 -49 4q-71 0 -145 -22l-58 -12q-46 -6 -49 -56l-49 -393v-8q-12 -109 -14 -168q-3 -47 -50 -59
q-21 -7 -36 -7z" />
    <glyph glyph-name="G" unicode="G" horiz-adv-x="1304" 
d="M836 -283l-15 2q-45 3 -45 45v13l43 319v15q-63 -86 -137 -154q-124 -112 -287 -127l-28 -2q-214 0 -297 238q-25 95 -25 186q0 61 10 139q43 358 250 664q117 182 307 276q72 35 142 35q26 0 53 -6q76 -18 123 -74q43 -55 43 -133v-14q-12 -149 -101 -273
q-17 -20 -49 -20q-25 0 -49 12q-35 18 -35 49q0 12 6 27q18 49 64 143q31 54 31 117v14q-3 45 -35 45l-25 -4q-101 -26 -180 -108q-238 -229 -326 -543q-53 -161 -53 -328l2 -57q3 -98 43 -182q54 -97 137 -97q49 0 99 33q64 40 106 94q119 145 187 297q8 18 24 58l4 12
l-178 -37q-28 -4 -37 -4q-85 0 -106 88q-2 6 -2 19q0 10 4 22q21 41 127 68q109 26 217 37q114 12 156 12h20q78 0 172 -23q27 -8 51 -39q19 -29 19 -61q0 -11 -4 -27q-9 -28 -37 -28l-15 2q-41 8 -92 8l-80 -2q-13 0 -22 -6q-6 -4 -10 -23l-82 -491l-29 -185
q-15 -41 -59 -41z" />
    <glyph glyph-name="H" unicode="H" horiz-adv-x="1439" 
d="M952 -319q-22 0 -41 8q-17 6 -26 20q-8 13 -11 33q-8 55 -8 123q0 73 2 112q2 6 2 23q18 273 52 530v15q0 8 -11 8l-10 -2q-210 -29 -266 -35l-100 -16q0 -9 -3 -15q-6 -51 -14 -149q-26 -217 -26 -455q0 -19 4 -65v-6q0 -27 -25 -43q-29 -19 -61 -19q-18 0 -39 6
q-35 12 -41 47q-18 108 -21 215q0 201 13 445l-43 -6q-10 -1 -58.5 -8t-75.5 -11h-18q-52 0 -86 37q-21 24 -21 43q0 27 46 39q119 32 260 51h4q15 182 47 447q12 112 65 215q26 57 70 57l20 -2q35 -6 62 -33q26 -29 31 -59q0 -15 2 -21q2 -12 2 -36v-11q-8 -81 -25 -170
q-2 -12 -4 -24.5t-4.5 -27.5t-3.5 -23q-23 -129 -39 -269l-2 -10l108 16q144 21 256 31q17 3 21 10q5 5 8 21q22 208 70 403q20 96 82 183q29 36 61 36q9 0 25 -4q59 -24 65 -86q4 -46 4 -63q0 -64 -12 -123q-6 -33 -29 -121q-6 -27 -12 -51l-35 -156l-2 -12v-2
q0 -10 17 -10h6q78 4 119 4q59 0 83 -56q9 -15 9 -26q0 -27 -41 -33q-122 -12 -191 -16q-30 0 -33 -29q-23 -163 -51 -344q-1 -9 -4 -25t-4 -22q-24 -180 -37 -324q-2 -35 -2 -100v-6q0 -24 -18 -33q-29 -20 -62 -20z" />
    <glyph glyph-name="I" unicode="I" horiz-adv-x="366" 
d="M139 -266q-18 0 -33 6q-31 9 -34 51q-15 111 -15 223q6 531 72 1082q12 119 59 225q24 59 60 59l18 -4q30 -6 51 -33q23 -34 25 -65q0 -3 1 -10.5t1 -10.5q2 -12 2 -36v-11q-8 -110 -31 -227l-6 -31q-24 -156 -37 -278q0 -6 -1 -19t-1 -20q-11 -91 -32 -289
q-25 -277 -27 -475q0 -45 2 -70v-6q0 -30 -23 -43q-24 -18 -51 -18z" />
    <glyph glyph-name="J" unicode="J" horiz-adv-x="917" 
d="M217 -317h-4q-79 0 -119 63q-41 65 -41 160q0 101 45 211t138 211q36 28 63 28q26 0 45 -16q18 -15 18 -43t-28 -64q-49 -46 -96 -165q-48 -121 -48 -193v-6q0 -49 31 -49l15 2q154 55 266 244q111 187 172 423q59 239 59 418q0 125 -26 199q-27 76 -89 76l-24 -4
q-80 -24 -141 -82q-95 -68 -156 -183q-19 -43 -45 -65q-24 -21 -47 -21q-29 0 -47 27q-19 28 -19 61q0 30 15 60q106 186 219 274t217 88q122 0 203 -118t81 -340q0 -199 -79 -467q-41 -128 -117 -293q-77 -165 -195 -295q-117 -129 -266 -141z" />
    <glyph glyph-name="K" unicode="K" horiz-adv-x="864" 
d="M106 -274q-31 0 -53.5 39t-25.5 112l-2 78q0 292 63 731.5t141 622.5q38 92 86 92q37 0 65 -55.5t28 -124.5q0 -10 -5 -50q-13 -64 -42.5 -187t-41.5 -183q-13 -72 -16 -131l117 127q189 204 397 391q44 40 86 65q29 19 49 19q31 0 58 -35q22 -28 22 -53v-8
q0 -25 -24 -56q-25 -29 -82.5 -74.5t-65.5 -52.5q-312 -275 -528 -520q-10 -10 -10 -16q0 -7 8 -19q9 -16 32 -56t35 -60.5t31 -53t36.5 -59.5t35.5 -53q72 -103 131 -170q70 -77 133 -109q35 -17 35 -37l-2 -8q-6 -29 -52 -33h-10q-21 0 -59 15q-63 28 -116 74t-111 112
q-86 101 -185 254q-3 3 -9.5 13.5t-10.5 15.5q-4 -49 -19 -179.5t-20 -199.5q-7 -85 -35.5 -131.5t-63.5 -46.5z" />
    <glyph glyph-name="L" unicode="L" horiz-adv-x="636" 
d="M391 -203q-57 0 -104 8q-218 35 -252 254q-10 78 -10 142q0 103 18 211q48 354 147 673l33 93q46 119 84 178q37 57 78 57l12 -2q32 -6 45 -31q13 -26 13 -57q0 -33 -9 -68q-13 -50 -16 -57q-4 -16 -10 -32.5t-13.5 -37t-11.5 -32.5q-82 -229 -141 -469
q-26 -112 -45 -226v-4q-21 -102 -21 -260q0 -8 2 -29.5t3 -31.5q3 -40 18 -84q30 -92 129 -101l49 -2q84 0 174 23q83 21 160 74q27 18 57 18q18 0 33 -6q13 -3 23 -10q9 -9 12 -23v-4q0 -12 -8 -20q-11 -11 -17 -15q-94 -70 -211 -98q-115 -31 -221 -31z" />
    <glyph glyph-name="M" unicode="M" horiz-adv-x="1378" 
d="M1116 -260q-28 0 -49 37q-24 42 -35 121q-16 219 -16 438q0 440 57 829q-45 -45 -57 -65q-1 -2 -3.5 -5.5t-4 -5.5t-2.5 -4q-203 -272 -330 -598l-4 -12q-9 -22 -51 -104q-21 -40 -54 -60q-36 -22 -63 -22q-29 0 -49 20q-23 20 -29 62v18q0 103 -12 205q-10 105 -11 133
q-4 45 -8 135l-4 62q-33 -64 -47 -105q-1 -2 -2 -5.5t-2 -4.5q-147 -395 -150 -795q-2 -31 -10 -94q-3 -26 -18 -35q-16 -13 -37 -16l-21 -2q-37 0 -57 33q-14 32 -14 102q0 175 78 498q77 316 159 510q19 50 60 104q34 49 94 49q20 0 41 -6q61 -21 88 -80q27 -65 27 -131
l2 -137q0 -65 -2 -98v-39q10 3 12 8q1 1 2 4.5t2 5.5q0 2 2 4q152 302 352 566q35 46 76 88q41 41 90 41q22 0 43 -9q83 -27 98 -114q9 -64 9 -133q0 -59 -6 -121q-2 -24 -23 -213q-23 -197 -31 -363q-12 -206 -12 -413l2 -125q0 -68 -25 -113q-23 -45 -55 -45z" />
    <glyph glyph-name="N" unicode="N" horiz-adv-x="1167" 
d="M748 -246l-33 4q-45 13 -80 64q-69 92 -121 250q-96 295 -135 698l-2 25q-35 -71 -84 -203q-81 -225 -111 -385q-18 -99 -24 -201q-1 -16 -4.5 -45t-6 -54t-2.5 -48l2 -35q0 -6 -6 -12q-22 -27 -57 -27l-21 2q-45 7 -55 43q-12 45 -12 137q3 524 283 996q45 75 59 96
q34 49 82 49q35 0 74 -31q46 -38 53 -110l28 -275q48 -418 148 -686q9 -22 18 -31q12 61 21 123q32 202 84.5 604t83.5 601q6 36 32 59.5t54 23.5q24 0 38.5 -17.5t14.5 -53.5v-17q-8 -95 -32 -269t-31 -245q-29 -265 -43 -485q-22 -285 -25 -311q-11 -82 -35 -131
q-22 -47 -64.5 -75t-90.5 -28z" />
    <glyph glyph-name="O" unicode="O" horiz-adv-x="1032" 
d="M340 -135q65 0 143 90q74 86 138 201q58 102 88 180q94 260 94 455q0 179 -62 288q-64 107 -153 107q-73 0 -154 -84q-79 -79 -151 -268q-87 -241 -93 -492v-47q0 -155 33 -293q20 -65 53 -104q26 -33 64 -33zM307 -299q-106 0 -176 98q-75 123 -90 260q-13 96 -16 236
q0 389 180 733q65 131 170 219l14 13q100 71 197 71q114 0 209 -80q80 -68 123 -174q43 -107 43 -219v-14q0 -117 -27 -264q-27 -146 -80 -295q-74 -206 -195 -367q-120 -159 -290 -209q-27 -8 -62 -8z" />
    <glyph glyph-name="P" unicode="P" horiz-adv-x="1337" 
d="M584 434q20 8 59 21l19 6q300 99 505 330q110 110 144 258q4 28 4 38q0 81 -82 121q-56 27 -119 33l-55 2q-108 0 -213 -31q-96 -28 -203 -77q31 -31 37 -72q2 -16 2 -47q0 -24 -4 -60q-6 -29 -29 -120q-18 -65 -35 -156q-18 -120 -30 -246zM461 -305q-62 0 -92 76
q-16 70 -19 129q-4 110 -4 168q0 242 21 485q1 17 4 49t4 47q4 65 16 203q4 48 23 139q-160 -117 -240 -276q-3 -7 -8.5 -20.5t-7.5 -18.5q-21 -47 -27 -58q-12 -26 -35 -26q-13 0 -26 8q-45 26 -45 82l4 29q27 102 98 182q284 361 739 461q82 16 154 16t135 -14
q116 -27 182 -111t66 -190q0 -51 -19 -113q-65 -194 -221 -326q-195 -180 -446 -280q-45 -19 -99 -29q-28 -6 -40 -18t-15 -41v-4q-20 -184 -20 -381v-60q0 -6 2 -8q0 -6 4 -18l4 -21q0 -25 -29 -41q-33 -20 -63 -20z" />
    <glyph glyph-name="Q" unicode="Q" horiz-adv-x="1200" 
d="M498 -96q11 0 28 10q40 27 70 61q169 184 270 428q48 115 72 215q29 116 29 224l-2 49q-9 160 -66 239q-57 78 -133 78q-82 0 -172 -84q-91 -88 -154 -247q-85 -227 -94 -471v-37q0 -154 33 -289q21 -95 88 -162q14 -14 31 -14zM117 -387q-62 0 -74 68l-2 14q0 30 27 51
q44 33 90 41q98 29 161 41q9 0 11 2v6q-65 62 -92 139q-31 88 -39 160q-17 129 -17 227q0 302 123 592q78 191 230 322q116 84 217 84q152 0 254 -156q100 -153 100 -393q0 -196 -90 -434q-86 -229 -295 -463q-8 -8 -14 -12q-15 -15 -25 -23q70 4 102 4q68 0 146 -10
q20 -2 51 -10q76 -24 76 -90l-2 -17q-6 -41 -39 -41l-12 2q-64 15 -134 15q-86 0 -174 -15q-217 -27 -434 -77q-84 -19 -106 -23q-28 -4 -39 -4z" />
    <glyph glyph-name="R" unicode="R" horiz-adv-x="1353" 
d="M578 406l79 26q298 94 506 328q106 109 144 260q2 12 2 35q0 84 -80 125q-56 27 -119 30q-20 2 -61 2q-107 0 -209 -30q-93 -27 -201 -78q39 -51 39 -125q0 -49 -12 -102q-14 -62 -27 -107q-22 -80 -29 -121q-15 -99 -32 -243zM457 -336q-62 0 -92 76q-16 70 -19 131
q-4 118 -4 180q0 245 20 471q8 128 25 301q3 65 21 138q-155 -116 -238 -275l-43 -96q-12 -27 -35 -27q-13 0 -26 8q-46 27 -46 78l5 31q27 105 98 182q283 360 737 463q82 16 156 16q72 0 135 -14q117 -30 182 -110q66 -84 66 -193q0 -51 -19 -113q-67 -189 -221 -325
q-191 -177 -446 -281q-31 -11 -51 -16q77 -111 149 -197q66 -78 150 -155q65 -59 143 -93q14 -3 26 -12q13 -10 13 -27v-4q-3 -15 -17 -26q-12 -8 -30 -11q-8 -2 -25 -2q-25 0 -49 9q-144 58 -244 161q-100 97 -211 232l-12 14q-18 -167 -18 -334l2 -71q0 -9 4 -25t4 -22
q0 -26 -27 -41q-35 -21 -63 -21z" />
    <glyph glyph-name="S" unicode="S" horiz-adv-x="995" 
d="M344 -268q-105 3 -190 32q-60 20 -101 74q-20 29 -20 62q0 30 14 55q18 28 33 41q12 12 31 12q30 0 63 -26q21 -15 21 -35q0 -14 -13 -37q-12 -21 -12 -35q0 -19 37 -22q41 -9 80 -9q137 0 231 76t129 197q6 24 6 47q0 88 -90 135q-76 35 -153 53q-3 1 -10.5 3t-10.5 3
q-48 12 -115 45q-135 71 -135 203q0 30 6 64q49 214 179 397q82 124 194 211q82 64 187 82q14 2 38 2q119 0 201 -82t82 -199q0 -38 -8 -69q-38 -149 -162 -230q-40 -24 -78 -24q-51 0 -92 41q-29 29 -29 51q0 26 31 51q108 102 117 250q0 18 -12 18l-11 -2
q-67 -16 -118 -55q-263 -189 -342 -504q-5 -10 -5 -16l-2 -33q0 -30 17 -47q16 -16 59 -25q2 0 4 -2q133 -24 252 -94q147 -84 174 -250l4 -43q0 -119 -92 -202q-166 -158 -389 -164z" />
    <glyph glyph-name="T" unicode="T" horiz-adv-x="686" 
d="M371 -258l-25 4q-25 6 -39 23q-11 14 -14 45q-12 117 -12 233l2 82q15 465 82 915q2 27 14 66l2 12q0 8 -8 8l-211 -49q-27 -6 -51 -6h-7q-33 0 -57 27q-27 27 -27 61q0 33 29 49q91 57 191 72q175 39 333 59q167 21 336 21q59 0 131 -10q27 -6 45 -33q17 -31 17 -55
q0 -23 -12 -41q-8 -8 -17 -11q-12 -4 -18 -4q-27 2 -76 2q-97 0 -170 -8q-68 -7 -170 -22l-25 -4q-13 -6 -28 -91q-3 -18 -10 -55.5t-13 -70t-10 -62.5q-6 -40 -14.5 -96.5t-10.5 -69.5q-1 -5 -1.5 -12.5t-1 -12.5t-1.5 -8l-35 -284q-19 -152 -32 -338q-1 -9 -2 -27.5
t-2 -27.5q-4 -78 -4 -117q0 -48 6 -94v-9q0 -12 -6 -24q-11 -18 -31 -27q-23 -10 -47 -10z" />
    <glyph glyph-name="U" unicode="U" horiz-adv-x="1212" 
d="M887 -254q-38 0 -56 21q-10 8 -14 30q-4 66 -4 99q0 41 3.5 116t4.5 97q19 291 47 544q4 52 35 355q0 10 4 14q-4 2 -8 2q-7 -14 -68 -123q-53 -96 -141 -288t-98 -212q-78 -165 -148 -290q-27 -43 -53.5 -71.5t-62.5 -47.5q-38 -15 -72 -15q-78 0 -121 78
q-46 81 -65 232q-17 163 -17 288q0 285 70 588q16 77 57 144q41 59 113 59q65 0 104 -45q15 -18 15 -33q0 -18 -17 -35q-12 -8 -20 -32q-74 -193 -105 -412q-16 -128 -16 -289q0 -103 6 -205q7 -106 31 -176q30 44 55 111q193 443 549 1038q18 28 61 86q20 29 54 29
q6 0 26 -4q38 -10 61 -42t25 -75v-16q0 -31 -2.5 -61.5t-9.5 -80t-8 -61.5q-8 -57 -23 -162t-20 -137l-39 -305l-29 -297q-22 -187 -24 -312v-43q0 -38 -37 -53q-16 -8 -43 -8z" />
    <glyph glyph-name="V" unicode="V" horiz-adv-x="1122" 
d="M371 -258l-17 -2q-126 0 -176 121q-10 21 -17.5 47t-11.5 43t-10.5 51t-9.5 47q-26 124 -47.5 306.5t-24.5 310.5q4 308 97 516q30 71 67 116q30 37 74 37l22 -2q61 -9 107 -55q39 -42 39 -84q0 -13 -8 -45q-84 -252 -105 -352q-57 -246 -57 -482q0 -73 6 -147
q11 -152 57 -242q21 -37 31 -37t31 35q57 94 121 281q27 75 82 230.5t88 248.5t83 224.5t95 240.5q64 153 121 248q20 39 71 39q48 0 74 -39q6 -9 6 -21l-4 -16q-79 -162 -145.5 -334.5t-155 -437.5t-117.5 -346q-61 -176 -104 -267q-58 -111 -113 -161q-70 -67 -149 -72z
" />
    <glyph glyph-name="W" unicode="W" horiz-adv-x="1376" 
d="M803 -262h-8q-96 0 -160 82q-74 107 -94 227q-34 150 -37 313q0 15 -8 23l-64 -170l-6 -18q-51 -138 -100 -244q-36 -79 -105 -113q-27 -12 -53 -12l-31 4q-53 12 -65 72q-30 122 -35 227q-4 86 -4 156q0 133 16 327q14 175 60 338q41 160 114 244q39 39 84 39
q65 0 109 -74q8 -19 8 -43q0 -42 -21 -88q-8 -18 -26 -50.5t-19 -35.5q-26 -42 -32 -61q-117 -323 -117 -668v-49q133 287 248 508q7 14 47 82q27 41 65 41q13 0 31 -7q62 -18 62 -86v-6l-7 -104q-4 -70 -6 -107l-2 -73q0 -200 55 -389q21 -78 72 -138q23 -26 47 -26
q20 0 45 28q85 117 138 449q49 325 49 612q0 121 -13 223q-12 95 -36 129q-13 16 -13 31q0 25 35 37q20 4 29 4q49 0 86 -43q49 -58 67 -188q19 -139 19 -289q0 -153 -17 -352q-14 -165 -34 -281q-12 -68 -41 -168q-25 -85 -76 -157q-94 -141 -256 -156z" />
    <glyph glyph-name="X" unicode="X" horiz-adv-x="1060" 
d="M98 -326q-48 0 -78 47l-4 17q0 22 15 37q203 322 401 606q14 14 14 35l-4 20q-33 130 -49 240q-20 114 -20 242q0 60 6 122l3 45l3 45q4 82 8 121q4 12 4 19q9 35 23 49q11 14 39 14h12q35 -6 61 -28q25 -22 25 -56q2 -47 2 -141q0 -159 10 -354q7 -60 15 -113l6 -37
q26 36 115 158q37 54 71 98l70 92q155 211 299 379l12 17q32 38 68 38t69 -45q33 -39 33 -79t-37 -80q-343 -375 -635 -785q-14 -14 -14 -37l2 -16q45 -168 102 -289q13 -32 48 -84q16 -25 38 -41t52 -16l35 4q17 0 34 -10q13 -8 17 -23v-6q0 -27 -51 -47q-40 -12 -80 -12
q-86 0 -156 67q-94 104 -141 238l-27 72l-8 -4q-1 -1 -3 -4.5t-3 -4.5q0 -2 -2 -4l-336 -473q-26 -33 -64 -33z" />
    <glyph glyph-name="Y" unicode="Y" horiz-adv-x="1280" 
d="M629 -672q-18 0 -39 6q-45 12 -51 56v8q0 31 36 49l17 8q73 5 173.5 291.5t170.5 637.5t70 548q0 145 -45 145q-12 0 -27 -12q-50 -60 -144.5 -183.5t-144.5 -183.5q-70 -86 -113 -123q-76 -63 -157 -63h-21q-109 11 -157 117q-42 88 -45 223l-2 61q0 262 81 484
q27 73 63 106t73 33q44 0 79 -40.5t35 -84.5q0 -17 -6 -29q-12 -29 -21 -65.5t-13.5 -62.5t-11.5 -69.5t-11 -64.5q-25 -150 -25 -256l2 -63q0 -55 17 -113l49 72q154 231 282 370q94 101 175 150q50 27 96 27q49 0 100 -31q53 -33 72 -100q35 -112 35 -250l-2 -56
q-8 -186 -33.5 -366t-71.5 -363.5t-120.5 -357.5t-172.5 -318q-59 -88 -125 -120q-39 -17 -67 -17z" />
    <glyph glyph-name="Z" unicode="Z" horiz-adv-x="1193" 
d="M1036 -369h-4q-93 6 -184 33q-184 46 -369 105l-164 49q-62 16 -112 16q-15 0 -51 -4h-11q-33 0 -63 27q-32 22 -45 59q-4 16 -4 21q0 18 16 34q31 23 49 39q207 165 350 391q21 32 64 97t65 96q132 200 273 393l67 90q-179 -27 -344 -67q-72 -17 -157 -33
q-74 -14 -162 -14h-14q-47 3 -78 34q-31 27 -41 80l-2 21q0 38 37 53q92 41 188 59q261 52 516 111q88 21 178 27h8q71 0 125 -54q50 -56 50 -131q0 -21 -7 -49q-27 -82 -75 -145q0 -2 -2 -4q-206 -294 -412 -566q-160 -220 -367 -424l228 -77q7 -2 27.5 -10t31.5 -11
q122 -45 289 -88q3 -1 10.5 -2t11.5 -2l21 -4q68 -14 96 -88q6 -15 6 -29q0 -33 -39 -33z" />
    <glyph glyph-name="bracketleft" unicode="[" horiz-adv-x="638" 
d="M158 -301q-26 0 -47 18q-32 19 -41 47q-11 33 -11 62q-2 23 -2 65v64q6 265 49 684q43 423 87 670q10 29 36 32q105 23 191 37l41 4q45 0 92 -18q44 -15 65 -59q7 -11 7 -21q0 -6 -7 -16q-9 -15 -24 -15l-12 4q-27 15 -58 15q-36 0 -73 -12q-4 -1 -16 -4.5t-19 -4.5
q-2 -1 -7 -2t-8 -2q-21 -6 -41 -6q-17 0 -22 -8q-5 -7 -8 -23q-12 -163 -47 -475q-35 -352 -41 -422q-21 -209 -21 -372v-58q0 -12 4 -16t13 -4h8q41 8 92 8q54 0 113 -16q65 -21 77 -86l2 -19q0 -43 -49 -43h-6l-53 4q-82 4 -125 4l-64 -2q-27 0 -57 -10z" />
    <glyph glyph-name="backslash" unicode="\" horiz-adv-x="763" 
d="M121 1380q60 0 86 -63q33 -95 45 -156q11 -48 14 -59q125 -454 289 -877q30 -85 88 -223q11 -29 35 -88.5t35 -89.5q10 -27 10 -45q0 -44 -49 -68q-23 -10 -35 -10q-27 0 -45 35q-135 250 -223 520q-166 489 -289 995q-5 25 -16 58q-1 4 -2 9t-2 8.5t-1 6.5q0 44 60 47z
" />
    <glyph glyph-name="bracketright" unicode="]" horiz-adv-x="661" 
d="M217 -291q-45 0 -92 21q-44 15 -62 55q-6 12 -6 25q0 7 6 16q12 12 25 12l12 -4q25 -14 58 -14q36 0 71 12q5 1 14.5 3t14.5 3q4 1 12 2t11 2q13 4 43 8q26 3 26 31q9 131 45 455q23 209 45 430q19 223 19 383v59q0 15 -2 17q-4 4 -11 4h-8q-52 -10 -94 -10
q-56 0 -115 18q-68 24 -77 92l-2 14q0 41 51 41l65 -4q58 -6 121 -6l70 4q12 0 28 4q21 9 39 9q38 0 66 -31q24 -24 33 -94q10 -82 10 -179q0 -207 -27 -483q-20 -210 -59 -506q-22 -170 -47 -317q-4 -18 -17 -23q-9 -5 -32 -10q-22 -2 -52 -10q-79 -18 -137 -25
q-28 -4 -45 -4z" />
    <glyph glyph-name="asciicircum" unicode="^" horiz-adv-x="403" 
d="M381 1055q-11 0 -23 6q-41 21 -65 65q-1 2 -9 17.5t-12 23.5q0 1 -3.5 6t-4.5 9q-36 -33 -65 -80l-9 -12q-16 -19 -32 -19q-7 0 -23 4q-45 20 -45 55q0 21 19 46q40 50 79 86q5 5 25 24t29 29q10 10 22 10q14 0 25 -8q45 -21 55 -70q12 -77 55 -141q11 -11 11 -25
q0 -9 -9 -18q-8 -8 -20 -8z" />
    <glyph glyph-name="underscore" unicode="_" horiz-adv-x="1071" 
d="M623 190q-63 0 -121 3q-16 2 -51 2l-148 4q-86 0 -172 -9h-6q-29 0 -47 27q-21 27 -21 55q0 17 6 29q10 20 33 23q37 6 111 10h299l110 4q74 0 111 -2t113 -2q42 0 51 -64v-6q0 -49 -45 -61q-52 -8 -117 -8q-10 -2 -29 -2z" />
    <glyph glyph-name="grave" unicode="`" horiz-adv-x="258" 
d="M193 1087q-8 -2 -25 -2q-39 0 -62 33q-4 9 -8 27q-2 8 -10 24q-16 41 -45 88q-8 11 -10 21v4q0 7 6 16q5 9 8 11q1 1 4 2t4 2q4 2 13 2q8 0 12 -2q47 -3 74 -47q32 -48 51 -121l4 -12q4 -12 4 -21q0 -16 -20 -25z" />
    <glyph glyph-name="a" unicode="a" horiz-adv-x="794" 
d="M-61 350q22 19 71 72q39 45 74 98q34 49 37 86q-59 -20 -119 -102q-57 -80 -63 -154zM287 195q-31 0 -66 12q-91 30 -94 127v33q-25 -25 -37 -35q-26 -26 -76 -72q-35 -35 -77 -35l-17 2q-108 27 -108 117q0 17 2 27q35 207 215 311q44 23 77 23q74 0 121 -87
q7 -10 19 -16q51 -17 51 -61l-4 -31l-17 -61q-11 -34 -22 -95l-2 -26v-6q0 -25 18 -25q14 0 41 12q188 82 346 221l25 23q22 16 43 16q36 0 61 -32q9 -9 9 -21t-13 -22q-185 -179 -417 -283q-43 -16 -78 -16z" />
    <glyph glyph-name="b" unicode="b" horiz-adv-x="671" 
d="M145 -39q45 48 70 102q-48 -48 -70 -102zM82 477q12 10 33 31q12 10 35 33q54 48 120 59q6 2 23 2q110 0 156 -119l6 -24l4 -17q47 38 84 62q41 30 84 51q13 8 32 8q22 0 39 -14q25 -19 25 -35q0 -20 -27 -35q-116 -68 -223 -164q-10 -10 -16 -14q-7 -5 -11 -12
q-1 -3 -3 -8.5t-3 -8.5q0 -8 -2 -10q-56 -207 -194 -366q-28 -31 -58 -52q-33 -20 -77 -20h-5q-96 0 -102 84q0 26 12 53q60 135 170 242q46 46 125 114q26 23 29 52v2q8 33 8 71q0 23 -6 47q-3 23 -18 23q-7 0 -19 -6q-31 -17 -72 -53q-101 -101 -155 -246q-9 -45 -60 -45
h-16q-65 9 -74 61q8 165 41 434q26 237 74 457q6 21 25 37q15 12 36 12q20 0 39 -16q17 -20 17 -57q0 -17 -2 -25q-5 -40 -15.5 -116.5t-13.5 -94.5q-34 -218 -45 -354v-23z" />
    <glyph glyph-name="c" unicode="c" horiz-adv-x="563" 
d="M61 549q-32 -40 -65 -103q-27 -52 -27 -116v-19q0 -26 8 -26h3q7 0 22 6q226 89 444 248q27 18 54 18q26 0 53 -18q20 -17 20 -35q0 -16 -18 -31q-206 -173 -463 -276q-46 -21 -92 -21q-26 0 -59 10q-113 40 -113 158q0 15 4 43q26 159 148 275q50 53 116 53q11 0 35 -4
q85 -21 100 -105q2 -6 2 -18q0 -35 -18 -62q-14 -22 -47 -47q-11 -8 -27 -8q-21 0 -39 12q-41 15 -41 60v6z" />
    <glyph glyph-name="d" unicode="d" horiz-adv-x="610" 
d="M-133 221q103 146 192 352q-72 -25 -132 -134t-60 -214v-4zM238 -190q-56 0 -68 67q-16 117 -20 352q-3 114 -3 228q-4 0 -6 2q-94 -190 -94 -191q-51 -100 -110 -159q-36 -39 -87 -39h-8q-47 2 -75.5 27.5t-28.5 70.5v4q0 247 158 436q21 23 57 45q32 19 63 19t58 -15
l16 -4q8 0 14 15q16 36 67.5 162t95 220t79.5 146q19 29 39 29q9 0 31 -11q41 -18 41 -57q0 -10 -2 -16q-9 -27 -15 -39q-77 -153 -110 -416q-33 -238 -33 -545v-102q1 -14 1 -42t1 -45t3 -40.5t5 -42.5v-10q0 -31 -35 -43q-18 -6 -34 -6z" />
    <glyph glyph-name="e" unicode="e" horiz-adv-x="604" 
d="M45 469q58 39 72 104q-72 -21 -72 -104zM92 113q-82 0 -133 51q-56 50 -65 135l-5 53q3 193 160 320q42 28 80 28q37 0 70 -26q33 -30 39 -82q-25 -131 -127 -217q-41 -29 -84 -35q-15 0 -15 -16q0 -99 66 -99q55 0 123 45q83 55 143 107q85 70 127 108q38 35 59 50
q22 16 43 16q23 0 41 -12q17 -14 17 -33q0 -41 -348 -318q-87 -75 -191 -75z" />
    <glyph glyph-name="f" unicode="f" horiz-adv-x="403" 
d="M-135 -125q-58 0 -64 76q-6 77 -6 147l2 205q0 117 19 389q0 13 -9 13l-28 -3q-74 0 -86 82q0 47 121 68q23 3 30 33q35 176 136 313q58 82 141 82q68 0 74 -53v-25q0 -32 -11 -35q-12 -4 -22 -4l-23 6q-24 0 -51 -43q-28 -55 -43 -100q-16 -62 -16 -94q0 -36 20 -39
q55 10 103 10q139 0 139 -94q-3 -39 -27 -39q-27 8 -65 8q-55 0 -99 -8q-41 -8 -53 -8q-30 0 -41 -14q-14 -14 -35 -275q-30 -349 -30 -532q0 -66 -76 -66z" />
    <glyph glyph-name="g" unicode="g" horiz-adv-x="634" 
d="M-240 324q46 56 99 137q2 3 35 53l4 8q0 2 -4 6q-8 4 -13 4q-6 0 -8 -2q-28 -12 -45 -38q-53 -74 -68 -168zM-383 -762q9 0 23 14q35 32 65 84q62 107 98 232q40 139 60 244l4 16l-8 4l-90 -125q-113 -149 -166 -332q-11 -42 -11 -65q0 -20 7 -45q6 -27 18 -27z
M-385 -862q-137 0 -158 143l-2 37q0 116 51 221q108 237 281 434l104 127q1 1 2.5 3t2.5 3l8 9q2 2 2 12l18 166l-8 2q-39 -55 -88 -98q-37 -37 -90 -37h-12q-102 15 -111 116q0 195 141 324q41 35 86 35q50 0 92 -39q12 -12 31 -12h17q35 0 63 -25q24 -24 27 -63v-183
q10 3 16 9t8 10q2 0 2 2q108 120 242 213q21 12 43 12q34 0 63 -29q13 -16 13 -26q0 -14 -19 -27q-133 -105 -233 -225q-3 -3 -84 -90q-71 -77 -74 -182q-27 -320 -168 -613q-49 -100 -125 -170q-59 -59 -141 -59z" />
    <glyph glyph-name="h" unicode="h" horiz-adv-x="759" 
d="M33 246q-35 0 -64 16q-30 21 -30 57v50q0 88 8 159q27 263 104 523q20 65 51 96q27 27 52 27q23 0 43 -23q18 -21 18 -51q0 -22 -8 -35q-33 -86 -41 -164q-8 -37 -10 -51q-17 -92 -25 -162l-16 -110v-31q5 5 15 14t15 14q36 36 62 52q43 30 88 30q33 0 67 -18
q47 -27 62 -74q2 -4 31 -84q1 -5 4 -13t4 -9q3 -23 20 -23q7 0 19 4q99 40 209 103q26 16 49 16q26 0 53 -18q21 -12 21 -29q0 -13 -17 -27q-132 -106 -305 -153q-24 -4 -37 -4q-99 0 -145 114q-14 59 -17 78q-3 17 -8 17q-3 0 -14 -11q-61 -55 -107 -125q-39 -58 -71 -112
q-15 -25 -35 -33q-23 -10 -45 -10z" />
    <glyph glyph-name="i" unicode="i" horiz-adv-x="649" 
d="M41 233q-32 0 -59 9q-109 27 -109 129v10q6 100 47 190q23 45 64 45q24 0 49 -14q35 -18 35 -49q0 -10 -7 -31l-18 -49q-23 -48 -31 -88l-6 -37q0 -22 21 -22l36 8q132 38 252 96q14 6 61 26.5t73 30.5l131 58q16 8 36 8q34 0 56 -25q12 -12 12 -24q0 -16 -18 -25
l-144 -69q-191 -106 -409 -166q-28 -7 -70 -11h-2zM68 707h-11q-61 9 -61 59v4q1 3 2 11t2 12q4 28 4 47q0 25 25 28l12 2q28 0 55 -18q27 -21 27 -49q0 -9 -4 -21q-2 -8 -6 -28q-2 -2 -2 -6q-9 -41 -43 -41z" />
    <glyph glyph-name="j" unicode="j" horiz-adv-x="407" 
d="M-961 -725q9 0 23 14q47 40 72 84q68 110 116 240q35 100 76 252l-8 4l-98 -125q-124 -155 -187 -332q-14 -38 -14 -80l4 -30q3 -27 16 -27zM-969 -825q-134 0 -149 143v10q0 127 65 248q126 240 308 434l112 127q16 13 19 27q1 10 4 46.5t4 59.5q3 101 14 179
q8 78 39 131q32 38 66 38q61 -3 61 -81l-12 -187q6 2 14 6l10 11l4 4q114 120 254 213q21 12 45 12q34 0 60 -29q10 -17 10 -24q0 -17 -18 -29q-135 -100 -250 -227q-43 -45 -88 -88q-72 -78 -84 -183q-46 -316 -207 -612q-55 -98 -135 -170q-62 -59 -146 -59zM-467 729h-10
q-62 9 -62 59v5q1 3 2 10.5t2 11.5q5 35 5 47q0 26 24 29l12 2q28 0 56 -19q26 -20 26 -49q0 -8 -4 -20q-1 -6 -4 -16.5t-4 -12.5v-6q-9 -41 -43 -41z" />
    <glyph glyph-name="k" unicode="k" horiz-adv-x="739" 
d="M-41 -133q-50 0 -53 59q6 287 43 635q40 375 88 629q21 53 72 53h6q94 -12 94 -92l-4 -31q-15 -66 -21 -127q-8 -40 -10 -63l-41 -262l-2 -23l94 117l17 20q67 94 166 174q24 17 41 17q12 0 24 -6q43 -21 43 -68v-4q0 -13 -8 -21q-148 -148 -264 -319l-88 -119q6 2 22 6
q150 47 252 72q134 30 215 41l19 2q71 0 98 -59q6 -12 6 -23q0 -26 -35 -35q-209 -41 -373 -94q-64 -21 -129 -39q-83 -21 -114 -26l-11 -2q-15 -3 -18 -9q-5 -8 -8 -22q-8 -90 -12 -137q-14 -138 -17 -183q-6 -50 -76 -59z" />
    <glyph glyph-name="l" unicode="l" horiz-adv-x="296" 
d="M-2 -6q-21 0 -41 14q-14 14 -14 35q-4 62 -4 88v74q7 284 36 665q1 19 21 181q10 80 39 172q17 45 55 45q29 0 57 -31q29 -32 29 -80v-8q-6 -84 -18 -143q0 -4 -11 -76q-29 -217 -43 -398q-21 -196 -38 -446v-31q0 -37 -29 -51q-20 -10 -39 -10z" />
    <glyph glyph-name="m" unicode="m" horiz-adv-x="1234" 
d="M-41 184q-29 0 -59 21q-43 27 -43 74v6q12 121 47 237q20 67 51 137q36 48 68 48q17 0 34 -17q15 -15 15 -49q0 -26 -17 -82q-19 -47 -32 -121l65 82q52 64 113 113q39 26 75 26q43 0 72 -26q32 -29 41 -80q4 -46 4 -84l60 55q68 61 108 88q38 23 64 23q33 0 61 -25
q29 -26 37 -57q13 -55 16 -96q1 -7 2 -20t2 -19q5 -31 17 -51q10 -17 28 -17q22 0 46 8q172 50 296 174q22 25 50 25q21 0 41 -14q32 -19 32 -45q0 -21 -22 -43q-149 -162 -367 -215q-28 -7 -47 -7q-81 0 -141 60q-59 59 -68 147v66q-43 -41 -88 -92l-24 -29l-29 -33
q-28 -32 -45 -49q-28 -31 -64 -31q-18 0 -39 9q-57 20 -63 81v146q-49 -42 -78 -82q-3 -3 -9 -10t-9 -10q-45 -56 -97 -134l-28 -41q-35 -47 -76 -47z" />
    <glyph glyph-name="n" unicode="n" horiz-adv-x="874" 
d="M-43 244l-25 4q-51 15 -65 57l-2 17q0 40 20 104q11 41 41 129q19 56 37 88q13 16 31 19h6q32 0 53 -21t21 -49q0 -11 -4 -27l-21 -67q54 51 105 80q51 28 92 28q86 0 135 -102l27 -66q9 -28 41 -28h12q121 23 241 77q44 17 86 45q18 11 35 11q38 0 62 -35q6 -9 6 -21
q0 -13 -12 -22q-31 -24 -52 -35q-131 -70 -280 -108q-35 -9 -66 -9q-133 0 -198 148q-12 28 -13 31q-3 10 -12 10t-39 -23q-109 -84 -196 -200q-27 -35 -66 -35z" />
    <glyph glyph-name="o" unicode="o" horiz-adv-x="389" 
d="M-23 295q62 78 95 160l4 12q0 7 -8 10l-39 17l-4 2q-2 0 -2 -2l-5 -5q-41 -90 -41 -182v-12zM-35 164q-28 0 -53 14q-34 15 -43 43q-12 27 -12 58v14q9 151 73 285q11 22 23 34q9 9 22 9q4 0 19 -5q8 -2 26 -2q13 0 19 2q24 7 41 7q66 0 100 -76q6 -27 6 -53
q0 -75 -36 -146q-38 -74 -84 -129t-101 -55z" />
    <glyph glyph-name="p" unicode="p" horiz-adv-x="671" 
d="M174 459q54 54 79 80t62 75.5t58 96.5q-109 -86 -199 -252zM-98 -401h-11q-59 6 -59 61q15 535 70 1100q3 35 22.5 52t46.5 17q29 0 52.5 -18t23.5 -45v-8q-4 -31 -7 -66.5t-6 -78t-5 -66.5q0 -22 -4 -58l71 129q85 137 193 211q61 39 117 39q47 0 92 -26q75 -44 75 -125
q0 -34 -14 -66q-14 -34 -59 -90q-141 -165 -277 -262q-54 -37 -92 -37q-23 0 -33 4h-4q-12 0 -23.5 -18t-20.5 -50t-16.5 -70.5t-13.5 -87t-11 -91.5t-8.5 -91t-6 -79t-4.5 -62t-2 -34q-3 -84 -86 -84z" />
    <glyph glyph-name="q" unicode="q" horiz-adv-x="778" 
d="M-94 311l12 11q7 10 35 38q112 129 164 193q12 15 12 39q0 18 -8 31q-9 12 -27 12l-12 -2q-127 -142 -176 -322zM94 -741q-26 0 -45 28q-18 27 -18 99v26q9 131 30 336q13 129 43 391q18 156 31 242l-4 4l-65 -94q-2 -6 -11 -15q-42 -67 -96 -118q-51 -45 -109 -45
q-34 0 -71 18q-53 35 -53 96q0 73 26 135q61 186 197 328q37 37 63 53q50 29 88 29q46 0 82 -31q33 -29 39 -88q3 -15 8 -20q3 -7 17 -10q52 -18 55 -78l2 -37q0 -80 -16 -168q-26 -174 -29 -203q-1 -10 -3 -27t-6 -48t-7 -56q-22 -184 -23 -199q-16 -129 -16 -133
q9 22 26.5 64.5t26.5 64.5q58 143 164 371q77 172 205 369q27 24 61 24q24 0 45 -12q19 -16 19 -33q0 -8 -11 -26q-108 -139 -215 -355q-96 -193 -184 -403q-35 -80 -76 -170q-41 -97 -71 -225q0 -6 -3 -9q-6 -24 -34 -49q-29 -26 -62 -26z" />
    <glyph glyph-name="r" unicode="r" horiz-adv-x="559" 
d="M27 518q13 13 33.5 36t31.5 34q89 99 189 137q30 10 53 10q40 0 78 -30q30 -27 30 -68q0 -19 -2 -29q-10 -26 -30 -26l-9 2q-39 4 -51 34q-5 13 -14 13q-8 0 -17 -6q-121 -65 -198 -197q-2 -4 -21 -33t-23.5 -36.5t-20 -32.5t-21.5 -37.5t-17.5 -33.5t-19 -39.5
t-14.5 -37.5q-12 -35 -56 -35q-10 0 -16 2q-47 5 -47 113q0 82 23.5 196t43.5 169q14 14 37 14q27 0 48.5 -18.5t21.5 -45.5q0 -13 -6 -28q-6 -9 -6 -21v-6z" />
    <glyph glyph-name="s" unicode="s" horiz-adv-x="641" 
d="M-31 -20l-14 4q-83 30 -74 98q2 10 10 35q48 85 121 135q16 13 86 61q12 9 15 23l2 8q-3 21 -25 27q-4 1 -15 4t-18 4q-29 8 -65 22q-79 34 -88 117v17q6 30 24 57q73 114 201 170q35 18 70 12q28 -3 59 -31q45 -42 39 -96q-5 -25 -10 -33q-10 -29 -21 -49
q-12 -29 -37 -26q-2 1 -8.5 2t-9.5 2q-49 27 -43 69q0 11 10 31q6 9 6 16q1 1 2 4t2 5q-104 -57 -155 -164l-4 -8q0 -7 6 -13q8 -4 14 -4q63 -15 117 -49l8 -8q11 -4 14 -16q4 -2 11 -9q3 -6 10 -6l6 -2q22 7 33 14l18 11q119 69 312 133q23 4 30 2q35 -3 54 -39
q9 -15 6 -27q-3 -16 -29 -22q-233 -85 -379 -178q-21 -14 -24 -39q-47 -164 -197 -250q-38 -20 -70 -14z" />
    <glyph glyph-name="t" unicode="t" horiz-adv-x="342" 
d="M-174 -10q-23 0 -43 14q-6 4 -10 16q-1 3 -3 10.5t-3 10.5q-3 47 -3 86v74q11 320 37 665q2 4 2 13l2 10q0 16 -14 16l-12 -2q-41 -15 -78 -18l-14 -2q-48 0 -72 49q-8 16 -8 33q0 26 31 45q39 19 75 24l25 6q20 4 29 4q27 3 40 11q18 11 21 37q7 51 33 127q18 43 51 43
q12 0 18 -2q76 -21 76 -105v-10q0 -13 -2 -19q-4 -20 -4 -26q0 -7 4 -19q3 -3 19 -6q10 -2 34 -6q29 -4 41 -6q47 -15 56 -66l4 -22q-3 -31 -29 -31l-12 2q-36 4 -54 4q-21 0 -67 -4q-6 -2 -14 -6q-5 -5 -5 -14q-14 -97 -34 -301q-2 -17 -5.5 -49.5t-5.5 -47.5
q-13 -138 -38 -432v-45q0 -36 -27 -51q-23 -10 -41 -10z" />
    <glyph glyph-name="u" unicode="u" horiz-adv-x="755" 
d="M41 205h-6q-83 3 -98 84q-7 40 -7 69q0 84 21 166q16 90 26 135q8 32 31 48q20 14 47 14q32 0 54 -14q22 -16 22 -41q0 -16 -10 -33q-12 -35 -21 -86q-5 -30 -14 -103q-2 -17 -5.5 -42t-4.5 -33l43 63q9 13 10 17q54 83 102 135q39 39 84 39q25 0 54 -13q43 -18 43 -63
v-41q0 -62 12 -123q6 -51 25 -51q13 0 43 24q91 68 192 166q29 29 64 29q17 0 32 -6q27 -12 27 -31q0 -10 -12 -25q-116 -137 -265 -231q-47 -29 -92 -29h-10q-88 9 -123 95q-14 37 -20 92q-19 -27 -43 -58q-28 -45 -60 -77q-25 -32 -61 -54t-80 -22z" />
    <glyph glyph-name="v" unicode="v" horiz-adv-x="624" 
d="M131 135q-20 0 -41 6q-56 17 -84 72q-47 103 -47 207v24q0 82 18 164q9 39 50 45l20 2q69 0 84 -82q6 -52 35 -243q77 155 192 315q38 58 80 100q29 29 64 29q27 0 49 -14q22 -16 22 -33q0 -10 -10 -27q-123 -169 -241 -378q-42 -74 -64 -107q-50 -80 -127 -80z" />
    <glyph glyph-name="w" unicode="w" horiz-adv-x="798" 
d="M23 154q-18 0 -39 6q-48 9 -64 57q-14 43 -14 90q3 158 37 305q11 32 22 41q12 12 37 15h12q30 0 56 -13q22 -16 30 -34q4 -16 4 -27q0 -21 -2 -31q-4 -20 -4 -31l-4 -40q-4 -40 -4 -64v-22q1 2 19 32q4 7 12 19.5t8 13.5q2 3 12 23q10 17 52 81q27 37 69 37q13 0 33 -4
q49 -12 49 -65v-62q0 -38 6 -78q6 3 10 11l7 12q1 2 2 5.5t2 4.5q5 9 15 26.5t15 26.5q77 145 189 299q34 37 76 37q25 0 49 -12q24 -15 24 -37q0 -11 -8 -24q-100 -173 -223 -414q-28 -55 -64 -102q-48 -60 -116 -60l-29 2q-48 9 -63 58q-10 30 -13 57l-12 55l-25 -51
q-21 -53 -61 -96q-47 -47 -102 -47z" />
    <glyph glyph-name="x" unicode="x" horiz-adv-x="649" 
d="M27 -27q-31 0 -54 23q-10 10 -10 22q0 13 6 25l86 211l4 16q0 7 -8 15q-63 51 -86 110q-26 56 -26 129q0 24 4 70q9 42 14 59q15 58 66 58q10 0 30 -4q70 -18 82 -93l8 -55q6 -28 9 -53v-4q38 84 86 143q35 35 69 35q40 0 70 -35q10 -13 10 -27q0 -13 -10 -30
q-23 -44 -69 -130t-66 -124q2 2 8 2q31 7 45 14q160 57 293 172q28 25 61 25q22 0 41 -8q31 -15 31 -35q0 -17 -16 -33q-42 -45 -119 -100q-133 -97 -297 -144q-24 -6 -49 -6l-33 2q-21 0 -27 -20q-58 -125 -90 -191q-23 -39 -63 -39z" />
    <glyph glyph-name="y" unicode="y" horiz-adv-x="694" 
d="M-260 -768q8 0 22 14q36 31 66 82q62 110 98 234q41 141 60 243l4 17l-8 4q-9 -15 -29.5 -42t-24.5 -32q-27 -36 -37 -51q-111 -147 -165 -332q-11 -42 -11 -65q0 -24 6 -45q6 -27 19 -27zM-262 -868q-137 0 -158 143l-2 37q0 116 51 221q108 237 281 434l104 127
q13 76 13 174q1 17 2 50.5t2 48.5l-58 -88q-18 -27 -39 -48t-55 -30l-31 -4q-85 0 -112 102q-4 54 -4 78q0 112 32 207q20 57 66 57q27 0 57 -23q21 -15 21 -36l-2 -15q-21 -89 -21 -184l33 45l55 80q11 14 27 41q40 49 88 49q36 0 72 -31q32 -32 35 -78v-182q12 4 16 8
q5 5 8 11q2 0 2 2l23 22q100 109 219 191q21 12 43 12q34 0 63 -29q13 -16 13 -26q0 -14 -19 -27q-55 -44 -123 -109q-91 -84 -153 -157q-73 -81 -94 -135q-15 -43 -21 -97q-27 -319 -168 -612q-49 -100 -125 -170q-59 -59 -141 -59z" />
    <glyph glyph-name="z" unicode="z" horiz-adv-x="679" 
d="M-23 27q-66 0 -112 61q-17 27 -17 43q0 31 33 51q152 122 271 281q2 2 6 10l8 12q-10 -1 -27 -4t-22 -4q-29 -5 -99 -14l-14 -2q-36 0 -65 26q-31 22 -41 62l-2 14q0 35 32 49q58 28 115 31q57 8 127 8q50 0 115 -10q40 -9 67 -33q45 -39 45 -88q0 -32 -14 -57
q-33 -61 -90 -109q-49 -46 -96 -102q-5 -5 -14.5 -15.5t-14.5 -15.5q57 0 143 -4q57 -5 123 -29q42 -19 62 -57q6 -12 6 -22q-3 -31 -37 -31h-14q-39 8 -93 8q-173 0 -344 -53q-18 -6 -37 -6z" />
    <glyph glyph-name="braceleft" unicode="{" horiz-adv-x="522" 
d="M311 -299q-66 0 -112 49q-48 45 -76 115q-28 67 -31 129v26q0 77 19 170q14 86 36 170q9 36 15 64l2 14q0 9 -4 13q-2 2 -17 6q-34 9 -55 39q-14 17 -14 34q0 22 24 43l33 29q71 56 115 139q18 41 18 84l-2 19q-2 23 -6 63q-10 72 -10 127l2 39q9 114 61 207q16 32 43 53
q31 25 66 25q28 0 57 -19q24 -21 33 -57l2 -16q0 -16 -16 -29q-80 -55 -103 -143q-20 -56 -20 -119q0 -49 10 -111q12 -52 12 -108q0 -15 -4 -51q-19 -65 -70 -119l-6 -6q-10 -10 -10 -21q0 -8 10 -18q25 -25 25 -56l-4 -26q-2 -2 -2 -10q-16 -61 -41 -189
q-21 -108 -21 -215q0 -71 15 -129q15 -61 49 -104q3 -5 10 -9q2 -1 5.5 -2t4.5 -2q9 0 11 -2q13 -3 28 -10q12 -9 15 -27v-4q0 -15 -11 -26q-19 -14 -26 -17q-30 -12 -60 -12z" />
    <glyph glyph-name="bar" unicode="|" horiz-adv-x="403" 
d="M162 -244h-15q-55 0 -61 54q-4 78 -4 112v115q14 322 43 698q16 226 65 418q6 20 19 59q18 52 27 105q3 15 18 24q12 9 29 9q33 0 67 -27q33 -26 33 -70v-6q-14 -147 -43 -321q-32 -187 -49 -348q-4 -39 -12 -121q-17 -156 -25 -271l-6 -86q-15 -138 -15 -274v-4
q0 -57 -71 -66z" />
    <glyph glyph-name="braceright" unicode="}" horiz-adv-x="512" 
d="M158 -289q-32 0 -56 21q-25 17 -34 55l-2 16q0 16 16 29q78 54 102 141q21 59 21 121q0 49 -10 111q-13 57 -13 108q0 16 4 52q19 64 70 118l6 6q10 10 10 21q0 8 -10 18q-24 24 -24 56l4 26q2 2 2 11q17 64 41 188q20 103 20 215q0 74 -14 131q-15 59 -49 102
q-2 5 -11 9q-2 1 -5.5 2t-4.5 2q-8 0 -10 2q-18 4 -29 12q-11 5 -14 25v4q0 27 25 39q24 12 57 12q58 0 108 -33q76 -63 101 -131q28 -76 28 -156q0 -70 -16 -155q-14 -75 -37 -160q-3 -16 -10.5 -44.5t-9.5 -39.5l-2 -14q0 -9 4 -13q3 -3 16 -6q32 -8 55 -41q15 -18 15 -32
q0 -21 -25 -43q-11 -11 -31 -27q-72 -57 -116 -141q-19 -43 -19 -84l2 -19q2 -23 6 -63q11 -79 11 -129l-2 -39q-9 -107 -62 -207q-14 -29 -43 -51q-36 -25 -65 -25z" />
    <glyph glyph-name="asciitilde" unicode="~" horiz-adv-x="710" 
d="M502 430q-42 0 -84 25q-38 20 -66 45q-36 28 -65 28q-24 0 -60 -22q-22 -12 -47 -41q-13 -16 -28 -16l-11 2q-27 6 -41 26t-14 45q0 23 14 43q21 27 70 49q51 23 80 23q77 -3 129 -55q36 -31 67 -31q24 0 48 12l116 47q15 6 27 6q21 0 37 -16q28 -22 28 -55l-2 -17
q-4 -8 -6 -10q-2 -4 -8 -10h-2q-70 -46 -152 -74q-20 -4 -30 -4z" />
    <glyph glyph-name="exclamdown" unicode="&#xa1;" horiz-adv-x="454" 
d="M244 1024q58 0 67 -68q11 -97 15 -260v-49q0 -69 -4 -213q-12 -364 -33 -563q-5 -43 -41 -164q-8 -28 -39 -31h-8q-37 0 -68 25t-37 61q-6 40 -6 78q0 39 8 113q22 165 27 223q3 36 13.5 143t13.5 166q14 254 14 328q0 73 -6 143v7q0 25 22 41q10 9 43 18zM227 1329
q30 0 53 -19.5t23 -49.5v-60l2 -61q0 -27 -26 -37q-16 -4 -27 -4q-25 0 -50 11t-38 28q-10 13 -10 24l2 10q4 17 7 37t6 44.5t5 37.5q7 24 21 31q13 8 32 8z" />
    <glyph glyph-name="sterling" unicode="&#xa3;" horiz-adv-x="1021" 
d="M422 -221h-39q-119 8 -182 33q-107 43 -107 127q0 21 10 59q61 219 228 459q1 3 4.5 8t3.5 6q-31 1 -45.5 11.5t-22.5 33.5q-6 15 -6 27q0 32 41 47q59 21 121 24q23 3 23 23v8q-8 37 -27 76q-57 111 -57 223v23q12 210 163 346q69 63 170 63q118 0 197 -88
q92 -106 92 -231q0 -54 -14 -103q-6 -26 -31 -26l-10 2q-29 6 -47.5 30t-18.5 54q-4 96 -14 143l-6 19q-38 86 -100 86q-29 0 -72 -19q-130 -60 -172 -231q-12 -50 -12 -99q0 -87 40 -168q34 -62 43 -104q6 -20 29 -20q86 -4 133 -17q63 -18 66 -76q0 -36 -27 -36l-16 2
q-53 14 -135 14h-56q-10 0 -12 -6q-11 -14 -86.5 -102.5t-105.5 -141.5q-111 -190 -132 -313l-2 -27q0 -16 8.5 -23t32.5 -10q85 -10 156 -10l285 10q39 0 65 -20q17 -14 17 -29q0 -20 -27 -29q-26 -10 -100 -14q-196 -14 -246 -14z" />
    <glyph glyph-name="currency" unicode="&#xa4;" horiz-adv-x="921" 
d="M371 365q151 9 256 108q64 55 88 135q6 21 6 35q0 38 -47 53q-65 22 -127 25h-8h-9q-1 -1 -4 -3t-4 -3q-6 -6 -18 -10q-9 -3 -21 -3h-6q-92 0 -162 -79q-73 -86 -82 -168q0 -12 3 -21q4 -16 10 -22q47 -47 110 -47h15zM131 182q-11 0 -35 17q-26 20 -26 47q0 15 8 28
q40 58 76 91q8 5 8 14q0 4 -4 12q-27 47 -27 90q0 41 19 90q44 100 126 164q13 10 13 17q0 8 -8 16q-31 44 -41 72l-2 12q0 25 28 25h6q38 -3 60 -39q14 -39 53 -39q7 0 27 4q49 14 104 14q74 0 156 -29l8 -2q5 0 10 5q1 1 4 3t4 3q35 35 74 61q14 14 33 14q13 0 24 -8
q38 -18 41 -59v-4q0 -9 -4 -13l-12 -12l-59 -55q-9 -6 -9 -14l5 -11q30 -52 30 -100q0 -68 -49 -129q-10 -17 -10 -29q0 -8 6 -20l20 -37q11 -25 41 -74q13 -16 13 -31q0 -7 -6 -16q-10 -10 -25 -10q-13 0 -25 6q-28 9 -47 35q-25 32 -41 59q-10 17 -16 17q-9 0 -18 -9
q-102 -72 -218 -84l-43 -4q-63 0 -124 27l-17 4q-14 0 -22 -14l-74 -84q-15 -21 -35 -21z" />
    <glyph glyph-name="yen" unicode="&#xa5;" horiz-adv-x="811" 
d="M365 -254q-32 0 -52 14q-9 9 -12 21q-4 12 -4 22v62q0 121 2 180q2 27 2 80v18q0 11 -2 17q-4 -2 -14 -2q-43 -8 -95 -15l-16 -2q-40 0 -61 43q-11 26 -11 39q0 36 52 51q67 14 118 19h9q6 0 18 4q5 3 8 14v11q0 10 -14 10h-6q-9 0 -15 -2q-36 -4 -57 -4q-11 0 -39 4
q-31 9 -51 32q-21 24 -21 56v4q3 31 31 43q67 28 133 31h31q8 0 12 2q5 0 8 6q9 18 9 37t-9 34q-33 67 -49 146q-55 224 -106 502q-4 54 -4 82q3 45 47 45h10q77 -12 105 -84q27 -62 30 -129q11 -91 41 -248l19 -111q7 5 14 15q4 8 6 14l35 70q83 176 182 346q11 19 53 77
q15 21 37 21q19 0 41 -16q25 -22 25 -41q0 -16 -10 -33q-166 -268 -269 -555q-7 -18 -10 -35q-22 -52 -22 -102v-13q3 -15 6 -18q3 -6 18 -6q55 0 125 -13q33 -6 51 -30q19 -25 19 -53l-4 -25q-10 -29 -41 -29l-158 2q-20 0 -23 -6q-4 -12 -4 -20v-11q0 -9 6 -12q2 -2 13 -2
h8q52 0 72 -14q21 -15 24 -53v-17q0 -35 -41 -35l-76 -2q-18 0 -18 -22v-39q0 -74 -2 -111q-2 -16 -2 -51q-3 -71 -16 -152q-5 -31 -31 -47q-25 -14 -55 -14z" />
    <glyph glyph-name="brokenbar" unicode="&#xa6;" horiz-adv-x="452" 
d="M369 676h-7q-67 6 -67 63v60l4 49q8 153 39 364q5 26 8 33l4 12q9 26 23 37q15 11 33 11h10q59 -9 71 -62q5 -45 5 -53q0 -40 -9 -84q-33 -181 -55 -375q-3 -55 -59 -55zM268 -166h-6q-69 3 -69 64v59l4 45q7 156 39 371q3 19 14 45q9 24 20 35q8 8 27 8h14q62 -3 74 -60
q4 -36 4 -53q0 -47 -8 -86q-33 -176 -55 -373q-3 -55 -58 -55z" />
    <glyph glyph-name="dieresis" unicode="&#xa8;" horiz-adv-x="399" 
d="M176 1155q-31 3 -51 23q-23 20 -23 45v4q0 28 19 53q16 25 37 25q31 -3 53 -25q18 -21 18 -55q0 -70 -53 -70zM342 1153q-31 3 -51 23q-23 20 -23 45v4q0 28 19 53q16 25 37 25q31 -3 53 -25q18 -21 18 -55q0 -70 -53 -70z" />
    <glyph glyph-name="copyright" unicode="&#xa9;" horiz-adv-x="1075" 
d="M537 340q95 0 186 61q217 150 223 428q-5 82 -10 105q-7 42 -16 67q-41 113 -118.5 173.5t-176.5 60.5q-95 0 -187 -51q-113 -62 -179 -183t-66 -256q0 -160 92 -274q107 -131 252 -131zM541 250q-74 0 -144 22.5t-132 65.5t-109 115t-68 163q-18 85 -18 144
q23 385 325 526q89 45 187 45q86 0 170 -35q241 -101 301 -364q12 -52 12 -109q0 -79 -21.5 -158.5t-64 -154.5t-113.5 -136.5t-161 -94.5q-82 -29 -164 -29zM504 436q-93 0 -143 89t-50 218q0 97 26.5 187t83 154t130.5 71l24 2q94 0 162 -65q39 -39 39 -97q0 -38 -20 -71
q-6 -12 -21 -15l-18 -2q-25 0 -43.5 18t-18.5 44l2 28q0 15 -8 39q-8 19 -26 19l-17 -2q-35 -7 -67 -43q-40 -44 -61 -125t-21 -164q0 -76 15 -127t40 -51l12 4q116 65 199 192q21 33 59 33q22 0 47 -14q21 -14 21 -31q0 -9 -6 -18q-109 -175 -240 -244q-44 -25 -78 -27z
" />
    <glyph glyph-name="guillemotleft" unicode="&#xab;" horiz-adv-x="909" 
d="M834 209q-14 0 -25 8h-2q-9 3 -14 8q-147 79 -285 174q-48 29 -86 76q-25 40 -29 66q0 30 15 45q12 15 30 30q45 35 135 101l218 172q22 16 34 16q16 0 31 -18q18 -21 18 -45t-18 -39q-164 -126 -246 -187q-30 -21 -61 -49l-31 -24q-20 -11 -20 -21q0 -9 22 -18l285 -182
q38 -20 53 -60l4 -20q0 -15 -10 -25q-8 -8 -18 -8zM522 205q-12 0 -18 2l-23 12q-144 79 -282 174q-46 28 -88 76q-29 40 -29 68q0 40 45 73q162 119 360 281q13 10 25 10q15 0 27 -12q24 -24 24 -51q0 -28 -28 -50l-314 -239l-39 -33l68 -45q123 -79 246 -156
q44 -21 53 -69l2 -13q-3 -28 -29 -28z" />
    <glyph glyph-name="logicalnot" unicode="&#xac;" horiz-adv-x="872" 
d="M758 1020q-13 0 -21 8q-6 4 -18 16q-23 30 -23 62v10q0 19 2 29q0 23 4 59v4q-3 17 -20 17l-94 2q-136 0 -295 -13q-33 0 -51 -2l-64 -2h-76q-50 0 -53 56v10q0 43 47 49q253 10 457 10q123 0 186 -2q39 -3 54 -41q12 -40 12 -86q0 -59 -10 -121q0 -14 -2 -20v-4
q-2 -8 -7 -23q-3 -13 -16 -16z" />
    <glyph glyph-name="registered" unicode="&#xae;" horiz-adv-x="1216" 
d="M725 760q25 25 37 39q67 78 86 143q2 6 2 14q0 13 -14 13q-1 0 -5 -1t-6 -1q-24 -3 -82 -29q-8 -5 -8 -12q0 -4 2 -8q8 -11 8 -25q0 -10 -6 -25q-16 -58 -16 -88q0 -3 1 -10t1 -10zM567 786q-76 -67 -116 -161q-11 -29 -11 -54v-16q0 -31 -26 -31q-7 0 -19 4
q-51 19 -51 76v10q4 33 12 58q62 183 222 315q98 84 192 96q8 2 27 2q64 0 108.5 -45t44.5 -108q0 -30 -8 -51q-22 -67 -88 -144l-117 -141q-22 -28 -22 -61q0 -17 6 -35q54 -130 143 -207q5 -4 15.5 -12.5t16.5 -14t13.5 -15t12.5 -18.5q9 12 14 17q145 224 145 463
q0 71 -16 159q-30 155 -82 234q-74 108 -203 108q-36 0 -67 -8q-134 -36 -230 -153q-217 -255 -217 -564q0 -84 19 -184q28 -159 116 -242q71 -65 154 -65h18q172 13 318 190q-39 16 -71 39t-63.5 60t-47 59t-48.5 72l-12 18q-4 -28 -12.5 -82.5t-13.5 -96t-7 -79.5
q-3 -34 -38 -37h-11q-32 0 -50.5 19.5t-18.5 54.5v4q4 88 28 264q9 71 41 303zM989 115q-88 -105 -188 -160q-101 -55 -209 -55q-98 0 -187 46t-151 132q-119 166 -119 366v13q0 346 189 606q73 100 178.5 168.5t218.5 83.5q40 4 59 4q167 0 283 -133q143 -170 143 -438
q0 -172 -59 -343t-158 -290z" />
    <glyph glyph-name="macron" unicode="&#xaf;" horiz-adv-x="778" 
d="M219 1186h-43q-29 0 -43 2q-28 6 -45.5 27t-17.5 49l2 14q6 28 32 31h35q90 8 267 12q118 0 286 -14q26 -4 43 -28t17 -50l-2 -17q-7 -22 -33 -22h-10q-55 6 -164 6h-82q-42 0 -242 -10z" />
    <glyph glyph-name="degree" unicode="&#xb0;" horiz-adv-x="512" 
d="M223 688q6 0 15 6q52 38 81 101q58 128 58 270v20q0 53 -12 99q-3 18 -13 18q-6 0 -16 -10q-45 -45 -82 -111q-12 -15 -12 -34l2 -17q0 -19 -17 -29q-4 -2 -8 -6q-1 -1 -2 -4t-2 -4l-12 -43q-15 -44 -17 -65l-2 -50q0 -56 23 -127q6 -14 16 -14zM229 594q-22 0 -43 6
q-97 26 -106 148q-2 23 -2 65q3 75 16 166q9 78 45 158q44 83 97 139q42 45 92 45q42 0 86 -35q76 -70 88 -172q6 -50 6 -98q0 -127 -51 -238q-39 -89 -127 -149q-47 -35 -101 -35z" />
    <glyph glyph-name="twosuperior" unicode="&#xb2;" horiz-adv-x="540" 
d="M188 721h-12q-30 0 -57 18q-28 15 -41 45q-4 16 -4 23q0 23 20 37l25 18q47 31 94 78q105 112 174 240q2 2 2 6t2 6q-58 -25 -102 -76q-10 -17 -10 -31q-3 -26 -25 -26h-10q-27 3 -43 26q-19 22 -19 48l2 16q2 8 11 27q65 109 184 139q8 2 24 2q42 0 78 -31
q33 -33 33 -80l-2 -18q-14 -71 -66 -139q-73 -101 -147 -177l131 11q47 0 68 -43q10 -20 10 -31q0 -24 -37 -33z" />
    <glyph glyph-name="threesuperior" unicode="&#xb3;" horiz-adv-x="534" 
d="M207 707q-31 0 -45 2q-73 9 -96 75q-5 20 -5 23q0 17 13 27q11 8 22 8q12 0 27 -11q21 -18 45 -18q11 0 31 4q109 21 186 101l4 4q1 1 2 4t2 4q2 2 2 6v4l-6 6h-8l-68 6q-38 6 -61 29t-23 53q0 20 17 51q13 23 26 41q22 33 37 58q-3 -1 -8 -3t-8 -3q-7 -3 -39 -19
q-17 -10 -35 -35q-11 -14 -29 -14h-8q-24 6 -37 25q-14 17 -14 41q0 22 21 43q82 79 192 100l16 2q77 0 101 -88l2 -12q0 -29 -17 -56l-32 -55l-39 -53q59 -15 94 -62q27 -41 27 -82q0 -40 -29 -90q-26 -41 -72 -67q-88 -49 -188 -49z" />
    <glyph glyph-name="acute" unicode="&#xb4;" horiz-adv-x="258" 
d="M53 1087q-20 9 -20 25q0 9 4 21l4 12q19 73 51 121q27 44 74 47q4 2 12 2t12 -2q1 -1 5 -2t6 -2q1 -1 6 -11q6 -9 6 -16v-4q-2 -10 -10 -21q-29 -47 -45 -88q-10 -20 -11 -24q-4 -18 -8 -27q-23 -33 -61 -33q-17 0 -25 2z" />
    <glyph glyph-name="mu" unicode="&#xb5;" horiz-adv-x="833" 
d="M250 -270q-24 0 -43 16q-22 16 -25 43q-47 370 -47 731q0 143 8 258q15 272 70 529q0 6 4 18q10 31 21 39q13 10 32 10q53 0 74 -49q14 -35 14 -78v-10q0 -25 2 -37q15 -222 86 -442q39 -115 113 -201q22 -25 33 -25q14 0 29 37q27 73 30 152q2 6 2 16q15 152 21 310
q4 120 8 178q3 64 16 108q9 33 43 33l17 -2q51 -15 51 -47v-4q-14 -132 -14 -285v-49q0 -96 -4 -145q-8 -116 -31 -246q-15 -70 -58 -107q-45 -39 -100 -39q-59 0 -117 43q-133 115 -186 289q-2 2 -2 8q-3 17 -16 33q0 -35 -2 -51q-3 -21 -3 -45l-2 -283q0 -165 7 -405
q6 -210 26 -254q2 -2 2 -10q0 -5 -4 -13q-3 -7 -10 -10q-20 -14 -45 -14z" />
    <glyph glyph-name="paragraph" unicode="&#xb6;" horiz-adv-x="1368" 
d="M817 -330h-12q-61 0 -70 54q-6 49 -6 98q-2 57 -2 174q0 301 21 606v16q0 12 -3 15q-2 2 -8 2l-24 -2q-72 -18 -125 -25q-64 -12 -127 -12q-35 0 -53 2q-135 9 -248 70q-119 64 -131 198v13q0 45 18 86q10 26 45 75q131 180 340 254q164 57 336 88l32 4q31 4 52 5
q15 1 44 2t42 2l59 2q89 0 174 -21q36 -9 82 -35q39 -20 39 -61l-45 -373q-22 -209 -22 -403q-2 -318 -27 -766q0 -54 -59 -57h-6q-61 0 -64 53v6q-4 94 -4 137l-2 223q0 208 12 422q9 277 51 549q5 33 27 125v4q0 15 -18 21t-45 6q-34 0 -76 -10q-40 -9 -43 -25
q-2 -21 -10 -72q-14 -84 -17 -108q-12 -104 -16 -160q-1 -13 -4 -40t-4 -40q-1 -5 -5 -65q-1 -11 -2 -33.5t-2 -32.5q-17 -221 -20 -475q-3 -195 -12 -391q-2 -12 -2 -41q0 -61 -60 -64z" />
    <glyph glyph-name="periodcentered" unicode="&#xb7;" horiz-adv-x="317" 
d="M281 465q-14 0 -27 8q-41 25 -41 70q0 2 0.5 7.5t0.5 7t1 6.5t1.5 6.5t1 5.5t2 5.5t3 4.5t3.5 4.5t5 3.5l17 4q14 0 35 -14q36 -25 36 -70l-2 -14q-9 -35 -36 -35z" />
    <glyph glyph-name="periodcentered" unicode="&#x2219;" horiz-adv-x="317" 
d="M281 465q-14 0 -27 8q-41 25 -41 70q0 2 0.5 7.5t0.5 7t1 6.5t1.5 6.5t1 5.5t2 5.5t3 4.5t3.5 4.5t5 3.5l17 4q14 0 35 -14q36 -25 36 -70l-2 -14q-9 -35 -36 -35z" />
    <glyph glyph-name="cedilla" unicode="&#xb8;" horiz-adv-x="434" 
d="M293 -33q-60 0 -105 39q-44 35 -53 96v13q3 43 39 43q5 0 21 -4q23 -10 36 -23q13 -16 13 -43t16 -27l21 7q38 11 53 49l2 12v2q0 6 -17 6q-94 9 -94 82q0 19 6 43l31 76q9 22 33 22h8q19 -5 39 -22q17 -21 20 -39l3 -8q0 -12 -13 -25q-14 -14 -14 -26q0 -13 24 -25
q78 -47 78 -119q0 -16 -2 -24q-9 -44 -51 -72q-44 -30 -94 -33z" />
    <glyph glyph-name="onesuperior" unicode="&#xb9;" horiz-adv-x="333" 
d="M182 569h-12q-50 0 -59 45q-5 62 -5 72v92q1 20 4.5 57.5t4.5 55.5q6 167 26 307q6 47 31 96q14 33 49 33q7 0 27 -4q45 -12 45 -53l-43 -451q-8 -71 -8 -160v-34q0 -53 -60 -56z" />
    <glyph glyph-name="ordmasculine" unicode="&#xba;" horiz-adv-x="512" 
d="M223 688q6 0 15 6q52 38 81 101q58 128 58 270v20q0 53 -12 99q-3 18 -13 18q-6 0 -16 -10q-45 -45 -82 -111q-12 -15 -12 -34l2 -17q0 -19 -17 -29q-4 -2 -8 -6q-1 -1 -2 -4t-2 -4l-12 -43q-15 -44 -17 -65l-2 -50q0 -56 23 -127q6 -14 16 -14zM229 594q-22 0 -43 6
q-97 26 -106 148q-2 23 -2 65q3 75 16 166q9 78 45 158q44 83 97 139q42 45 92 45q42 0 86 -35q76 -70 88 -172q6 -50 6 -98q0 -127 -51 -238q-39 -89 -127 -149q-47 -35 -101 -35z" />
    <glyph glyph-name="guillemotright" unicode="&#xbb;" horiz-adv-x="909" 
d="M123 209q-11 0 -19 8q-10 10 -10 25l4 20q15 40 54 60l284 182q23 10 23 18q0 9 -21 21l-30 24q-28 25 -62 49q-82 61 -246 187q-18 15 -18 39t18 45q15 18 31 18q13 0 35 -16l217 -172q90 -66 135 -101q18 -15 33 -30q12 -15 12 -45q-5 -28 -28 -66q-38 -47 -86 -76
q-138 -95 -285 -174q-5 -5 -14 -8h-3q-11 -8 -24 -8zM434 205q-25 0 -28 28l2 13q9 48 53 69q123 77 246 156l67 45l-39 33l-313 239q-29 23 -29 50q0 26 25 51q12 12 26 12q12 0 25 -10q198 -162 360 -281q45 -33 45 -73q0 -29 -28 -68q-42 -48 -88 -76q-134 -92 -283 -174
l-22 -12q-6 -2 -19 -2z" />
    <glyph glyph-name="questiondown" unicode="&#xbf;" horiz-adv-x="831" 
d="M457 1073h12q66 0 106 -61q9 -34 9 -78q0 -134 -56 -344q-56 -211 -129 -385q-37 -85 -80 -156q-53 -86 -88 -176l-2 -4q-6 -6 -6 -16l2 -9q28 3 49 15q268 124 388 393q18 40 18 86l-2 35q3 26 31 26h8q62 -10 82 -63q18 -46 18 -96q0 -45 -16 -95q-66 -178 -193 -299
q-122 -116 -315 -163q-35 -5 -43 -5q-76 0 -129 56q-51 51 -51 131q0 23 2 35q16 85 47 143q40 74 76 123q26 38 63 102q53 97 115 316q55 204 55 346q0 56 -12 90l-4 16q0 31 45 37zM481 1321h11q79 -12 79 -102v-7l-4 -32q-9 -58 -53 -58h-4q-22 0 -49 17q-25 15 -33 35
l-2 8l2 8q18 67 23 115q0 11 10 14q6 2 20 2z" />
    <glyph glyph-name="Agrave" unicode="&#xc0;" horiz-adv-x="950" 
d="M379 514q7 2 24.5 7.5t26.5 8.5q77 27 133 43q14 3 21 13q4 8 4 18v41q0 79 6 158q10 103 35 254q-165 -264 -250 -543zM698 -301h-8q-47 0 -59 41q-24 82 -27 147q-16 282 -16 525l-2 24l-166 -67q-36 -14 -66 -31q-20 -14 -26 -35q-9 -20 -15 -70q-2 -2 -2 -6
q-40 -196 -49 -403q-3 -59 -20 -82q-22 -25 -43 -25q-24 0 -47 23t-23 45v2q1 15 2 45.5t2 46.5q3 162 35 344q2 6 2 17l-8 2q-7 0 -15 -4l-10 -5q-18 -6 -35 -6q-24 0 -51 17q-39 23 -39 53q0 25 31 53q71 58 147 84q32 11 41 47q94 361 301 674q1 1 2.5 3t2.5 3
q53 73 98 121q20 24 39 37q20 14 45 14q19 0 35 -8q75 -37 75 -119l2 -39q0 -64 -8 -116l-6 -54l-26 -278l-7 -94q0 -18 23 -21q57 -9 72 -72l2 -12q0 -28 -35 -31q-12 0 -21 3q-6 2 -22 2q-14 0 -25 -11q-8 -8 -8 -24l2 -41q-6 -170 -6 -336l2 -238q2 -21 10 -77
q0 -13 -2 -23q-7 -20 -26 -31q-20 -14 -52 -14zM868 1362q-8 -2 -24 -2q-39 0 -62 33q-5 9 -8 26q-2 10 -10 25q-16 41 -45 88q-8 12 -10 20v4q0 8 6 17q4 8 8 10q1 1 4 2t4 2q4 2 12 2q9 0 13 -2q46 -3 73 -47q33 -51 52 -121l4 -12q4 -12 4 -21q0 -15 -21 -24z" />
    <glyph glyph-name="Aacute" unicode="&#xc1;" horiz-adv-x="950" 
d="M379 514q7 2 24.5 7.5t26.5 8.5q77 27 133 43q14 3 21 13q4 8 4 18v41q0 79 6 158q10 103 35 254q-165 -264 -250 -543zM698 -301h-8q-47 0 -59 41q-24 82 -27 147q-16 282 -16 525l-2 24l-166 -67q-36 -14 -66 -31q-20 -14 -26 -35q-9 -20 -15 -70q-2 -2 -2 -6
q-40 -196 -49 -403q-3 -59 -20 -82q-22 -25 -43 -25q-24 0 -47 23t-23 45v2q1 15 2 45.5t2 46.5q3 162 35 344q2 6 2 17l-8 2q-7 0 -15 -4l-10 -5q-18 -6 -35 -6q-24 0 -51 17q-39 23 -39 53q0 25 31 53q71 58 147 84q32 11 41 47q94 361 301 674q1 1 2.5 3t2.5 3
q53 73 98 121q20 24 39 37q20 14 45 14q19 0 35 -8q75 -37 75 -119l2 -39q0 -64 -8 -116l-6 -54l-26 -278l-7 -94q0 -18 23 -21q57 -9 72 -72l2 -12q0 -28 -35 -31q-12 0 -21 3q-6 2 -22 2q-14 0 -25 -11q-8 -8 -8 -24l2 -41q-6 -170 -6 -336l2 -238q2 -21 10 -77
q0 -13 -2 -23q-7 -20 -26 -31q-20 -14 -52 -14zM729 1362q-20 9 -20 24q0 9 4 21l4 12q19 73 51 121q27 44 74 47q4 2 12 2t12 -2q1 -1 5 -2t6 -2q2 -2 6 -10q6 -9 6 -17v-4q-2 -8 -10 -20q-29 -47 -45 -88q-10 -19 -11 -25q-3 -17 -8 -26q-23 -33 -61 -33q-17 0 -25 2z" />
    <glyph glyph-name="Acircumflex" unicode="&#xc2;" horiz-adv-x="950" 
d="M379 514q7 2 24.5 7.5t26.5 8.5q77 27 133 43q14 3 21 13q4 8 4 18v41q0 81 6 158q10 103 35 254q-165 -264 -250 -543zM698 -301h-8q-47 0 -59 41q-24 82 -27 147q-16 282 -16 525l-2 24l-166 -67q-36 -14 -66 -31q-20 -14 -26 -35q-9 -20 -15 -70q-2 -2 -2 -6
q-40 -196 -49 -403q-3 -59 -20 -82q-22 -25 -43 -25q-24 0 -47 23t-23 45v2q1 15 2 45.5t2 46.5q3 162 35 344q2 6 2 17l-8 2q-7 0 -15 -4l-10 -5q-18 -6 -35 -6q-24 0 -51 17q-39 23 -39 53q0 25 31 53q71 58 147 84q32 11 41 47q94 361 301 674q1 1 2.5 3t2.5 3
q53 73 98 121q20 24 39 37q20 14 45 14q19 0 35 -8q75 -37 75 -119l2 -39q0 -64 -8 -116l-6 -54l-26 -278l-7 -94q0 -18 23 -21q57 -9 72 -72l2 -12q0 -28 -35 -31q-12 0 -21 3q-6 2 -22 2q-14 0 -25 -11q-8 -8 -8 -24l2 -41q-6 -170 -6 -336l2 -238q2 -21 10 -77
q0 -13 -2 -23q-7 -20 -26 -31q-20 -14 -52 -14zM893 1391q-11 0 -23 6q-41 21 -65 65q-1 2 -9 17.5t-12 23.5q0 1 -3.5 6t-4.5 9q-36 -33 -65 -80l-9 -13q-15 -18 -32 -18q-7 0 -23 4q-45 20 -45 55q0 20 19 45q40 50 79 86q6 6 17.5 17t20.5 20t16 17q10 10 22 10
q14 0 25 -8q45 -21 55 -70q12 -77 55 -141q11 -11 11 -25q0 -9 -9 -18q-8 -8 -20 -8z" />
    <glyph glyph-name="Atilde" unicode="&#xc3;" horiz-adv-x="950" 
d="M379 514q7 2 24.5 7.5t26.5 8.5q77 27 133 43q14 3 21 13q4 8 4 18v41q0 81 6 158q10 103 35 254q-165 -264 -250 -543zM698 -301h-8q-47 0 -59 41q-24 82 -27 147q-16 282 -16 525l-2 24l-166 -67q-36 -14 -66 -31q-20 -14 -26 -35q-9 -20 -15 -70q-2 -2 -2 -6
q-40 -196 -49 -403q-3 -59 -20 -82q-22 -25 -43 -25q-24 0 -47 23t-23 45v2q1 15 2 45.5t2 46.5q3 162 35 344q2 6 2 17l-8 2q-7 0 -15 -4l-10 -5q-18 -6 -35 -6q-24 0 -51 17q-39 23 -39 53q0 25 31 53q71 58 147 84q32 11 41 47q94 361 301 674q1 1 2.5 3t2.5 3
q53 73 98 121q20 24 39 37q20 14 45 14q19 0 35 -8q75 -37 75 -119l2 -39q0 -64 -8 -116l-6 -54l-26 -278l-7 -94q0 -18 23 -21q57 -9 72 -72l2 -12q0 -28 -35 -31q-12 0 -21 3q-6 2 -22 2q-14 0 -25 -11q-8 -8 -8 -24l2 -41q-6 -170 -6 -336l2 -238q2 -21 10 -77
q0 -13 -2 -23q-7 -20 -26 -31q-20 -14 -52 -14zM799 1370q-29 0 -58 16q-20 12 -43 31q-22 19 -45 19q-20 0 -41 -15q-13 -8 -30 -28q-11 -11 -19 -11l-8 2q-17 3 -27 19q-10 13 -10 29q0 15 10 28q19 23 47 35q28 14 54 14q53 -3 86 -36q21 -21 45 -21q20 0 33 8l77 31
q12 4 19 4q14 0 24 -10q21 -15 21 -37l-2 -12q-1 -1 -2 -3t-2 -3l-6 -7q-44 -31 -103 -51q-8 -2 -20 -2z" />
    <glyph glyph-name="Adieresis" unicode="&#xc4;" horiz-adv-x="950" 
d="M379 514q7 2 24.5 7.5t26.5 8.5q77 27 133 43q14 3 21 13q4 8 4 18v41q0 81 6 158q10 103 35 254q-165 -264 -250 -543zM698 -301h-8q-47 0 -59 41q-24 82 -27 147q-16 282 -16 525l-2 24l-166 -67q-36 -14 -66 -31q-20 -14 -26 -35q-9 -20 -15 -70q-2 -2 -2 -6
q-40 -196 -49 -403q-3 -59 -20 -82q-22 -25 -43 -25q-24 0 -47 23t-23 45v2q1 15 2 45.5t2 46.5q3 162 35 344q2 6 2 17l-8 2q-7 0 -15 -4l-10 -5q-18 -6 -35 -6q-24 0 -51 17q-39 23 -39 53q0 25 31 53q71 58 147 84q32 11 41 47q94 361 301 674q1 1 2.5 3t2.5 3
q53 73 98 121q20 24 39 37q20 14 45 14q19 0 35 -8q75 -37 75 -119l2 -39q0 -64 -8 -116l-6 -54l-26 -278l-7 -94q0 -18 23 -21q57 -9 72 -72l2 -12q0 -28 -35 -31q-12 0 -21 3q-6 2 -22 2q-14 0 -25 -11q-8 -8 -8 -24l2 -41q-6 -170 -6 -336l2 -238q2 -21 10 -77
q0 -13 -2 -23q-7 -20 -26 -31q-20 -14 -52 -14zM850 1393q-32 3 -51 22q-23 20 -23 45v4q0 29 19 54q15 24 36 24q33 -3 54 -24q18 -21 18 -56q0 -69 -53 -69zM684 1395q-32 3 -51 22q-23 20 -23 45v4q0 29 19 54q15 24 37 24q32 -3 53 -24q18 -21 18 -56q0 -69 -53 -69z
" />
    <glyph glyph-name="Aring" unicode="&#xc5;" horiz-adv-x="950" 
d="M379 514q7 2 24.5 7.5t26.5 8.5q77 27 133 43q14 3 21 13q4 8 4 18v41q0 81 6 158q10 103 35 254q-165 -264 -250 -543zM780 1425q3 0 8 5q32 22 46 55q32 68 32 153v11q0 28 -6 55q-3 10 -8 10l-8 -4q-30 -30 -47 -63q-6 -9 -6 -19l2 -10q0 -9 -11 -16q-4 0 -4 -3
q-2 -2 -2 -6l-8 -24q-4 -11 -8 -37l-2 -27q0 -37 12 -71q3 -9 10 -9zM698 -301h-8q-47 0 -59 41q-24 82 -27 147q-16 282 -16 525l-2 24l-166 -67q-36 -14 -66 -31q-20 -14 -26 -35q-9 -20 -15 -70q-2 -2 -2 -6q-40 -196 -49 -403q-3 -59 -20 -82q-22 -25 -43 -25
q-24 0 -47 23t-23 45v2q1 15 2 45.5t2 46.5q3 162 35 344q2 6 2 17l-8 2q-7 0 -15 -4l-10 -5q-18 -6 -35 -6q-24 0 -51 17q-39 23 -39 53q0 25 31 53q71 58 147 84q32 11 41 47q94 361 301 674q1 1 2.5 3t2.5 3q53 73 98 121q20 24 39 37q20 14 45 14q19 0 35 -8
q75 -37 75 -119l2 -39q0 -64 -8 -116l-6 -54l-26 -278l-7 -94q0 -18 23 -21q57 -9 72 -72l2 -12q0 -28 -35 -31q-12 0 -21 3q-6 2 -22 2q-14 0 -25 -11q-8 -8 -8 -24l2 -41q-6 -170 -6 -336l2 -238q2 -21 10 -77q0 -13 -2 -23q-7 -20 -26 -31q-20 -14 -52 -14zM784 1372
q-8 0 -24 4q-57 15 -60 82q-2 12 -2 37q3 48 9 94q6 47 26 88q18 40 53 80q25 25 54 25q26 0 47 -21q42 -39 51 -96q2 -18 2 -55q0 -64 -29 -133q-22 -54 -71 -84q-27 -21 -56 -21z" />
    <glyph glyph-name="AE" unicode="&#xc6;" horiz-adv-x="1708" 
d="M379 514q7 2 24.5 7.5t26.5 8.5q77 27 133 43q14 3 21 13q4 8 4 18v41q0 81 6 158q10 103 35 254q-165 -264 -250 -543zM829 492h-4q-6 2 -22 2q-14 0 -25 -11q-8 -8 -8 -24l2 -41q-6 -170 -6 -336l2 -238q2 -21 10 -77q0 -13 -2 -23q-7 -20 -26 -31q-20 -14 -52 -14h-8
q-47 0 -59 41q-24 82 -27 147q-16 282 -16 525l-2 24l-166 -67q-36 -14 -66 -31q-20 -14 -26 -35q-9 -20 -15 -70q-2 -2 -2 -6q-40 -196 -49 -403q-3 -59 -20 -82q-22 -25 -43 -25q-24 0 -47 23t-23 45v2q1 15 2 45.5t2 46.5q3 162 35 344q2 6 2 17l-8 2q-7 0 -15 -4l-10 -5
q-18 -6 -35 -6q-24 0 -51 17q-39 23 -39 53q0 25 31 53q71 58 147 84q32 11 41 47q94 361 301 674q1 1 2.5 3t2.5 3q53 73 98 121q20 24 39 37q20 14 45 14q19 0 35 -8q75 -37 75 -119l2 -39q0 -64 -8 -116l-6 -54l-26 -278l-7 -94q0 -18 23 -21q21 -3 41 -16
q43 225 104 422l33 90l4 8q12 21 12 47q0 16 -8 29q-4 12 -4 18q0 25 25 41q26 17 53 41l2 2q19 19 37 19l12 -2q21 -7 39 -7q24 0 66 11l24 6q4 2 13 2q94 20 196 20q52 0 96 -8q94 -18 103 -94l2 -16q0 -37 -33 -37q-5 0 -25 4q-43 14 -90 14q-65 0 -120 -14l-93 -19
q-46 -12 -71 -16q-23 -3 -33 -29l-37 -106q-85 -238 -141 -465l-4 -25l-4 -12q3 -8 10 -8l10 2q64 18 127 18l29 -2q64 0 102 -53q14 -14 14 -37l-4 -16q-7 -11 -14 -13q-12 -4 -18 -4h-37q-43 0 -95 -10q-52 -13 -94 -27q-9 -3 -26.5 -8.5t-24.5 -7.5q-3 -1 -10 -8
q-1 -2 -2 -6.5t-2 -7.5q-21 -105 -21 -265q0 -7 4 -61q3 -34 19 -82q30 -93 129 -102h41q88 0 178 22q92 23 164 72q27 18 55 18q18 0 33 -6q28 -6 37 -33v-4q0 -9 -6 -18q-11 -11 -17 -15l-2 -2q-95 -71 -213 -98q-112 -31 -219 -31q-51 0 -104 9q-218 35 -252 254
q-11 86 -11 141q0 100 19 211q23 154 24 158z" />
    <glyph glyph-name="Egrave" unicode="&#xc8;" horiz-adv-x="702" 
d="M412 -229q-58 0 -105 8q-218 35 -252 254q-10 78 -10 141q0 106 18 211q47 348 148 676l33 90l4 8q12 21 12 47q0 16 -8 29q-4 12 -4 18q0 26 24 41q30 20 54 41l2 2q19 19 37 19l12 -2q18 -6 39 -6q27 0 65 10l25 6q4 2 12 2q94 20 197 20q52 0 96 -8q93 -18 102 -94
l2 -16q0 -37 -32 -37q-5 0 -25 4q-43 14 -90 14q-66 0 -121 -14l-92 -18q-54 -14 -72 -17q-22 -3 -32 -29l-37 -106q-88 -247 -142 -465l-4 -25l-4 -12q3 -8 10 -8l11 2q65 18 127 18l28 -2q65 0 103 -53q14 -14 14 -37l-4 -16q-6 -9 -14 -12q-12 -4 -19 -4h-37
q-37 0 -94 -11q-67 -17 -94 -26q-7 -3 -15.5 -5.5t-19 -6l-16.5 -5.5q-4 -1 -11 -8q-1 -2 -2 -6.5t-2 -7.5q-20 -100 -20 -264q0 -8 4 -62q3 -38 18 -82q30 -93 129 -102h41q89 0 179 22t163 72q27 18 56 18q17 0 32 -6q28 -6 37 -32v-5q0 -9 -6 -18q-10 -10 -16 -14l-2 -2
q-97 -72 -213 -99q-108 -30 -219 -30zM674 1430q-12 -3 -25 -3q-38 0 -61 33q-4 9 -8 27q-1 4 -11 24q-16 41 -45 88q-8 11 -10 21v4q0 7 6 16q5 9 8 11q1 1 4.5 2t4.5 2q4 2 12 2t12 -2q47 -3 74 -47q32 -48 51 -121l4 -12q4 -12 4 -21q0 -15 -20 -24z" />
    <glyph glyph-name="Eacute" unicode="&#xc9;" horiz-adv-x="702" 
d="M412 -229q-58 0 -105 8q-218 35 -252 254q-10 78 -10 141q0 106 18 211q47 348 148 676l33 90l4 8q12 21 12 47q0 16 -8 29q-4 12 -4 18q0 26 24 41q30 20 54 41l2 2q19 19 37 19l12 -2q18 -6 39 -6q27 0 65 10l25 6q4 2 12 2q94 20 197 20q52 0 96 -8q93 -18 102 -94
l2 -16q0 -37 -32 -37q-5 0 -25 4q-43 14 -90 14q-66 0 -121 -14l-92 -18q-54 -14 -72 -17q-22 -3 -32 -29l-37 -106q-88 -247 -142 -465l-4 -25l-4 -12q3 -8 10 -8l11 2q65 18 127 18l28 -2q65 0 103 -53q14 -14 14 -37l-4 -16q-6 -9 -14 -12q-12 -4 -19 -4h-37
q-37 0 -94 -11q-67 -17 -94 -26q-7 -3 -15.5 -5.5t-19 -6l-16.5 -5.5q-4 -1 -11 -8q-1 -2 -2 -6.5t-2 -7.5q-20 -100 -20 -264q0 -8 4 -62q3 -38 18 -82q30 -93 129 -102h41q89 0 179 22t163 72q27 18 56 18q17 0 32 -6q28 -6 37 -32v-5q0 -9 -6 -18q-10 -10 -16 -14l-2 -2
q-97 -72 -213 -99q-108 -30 -219 -30zM535 1430q-21 9 -21 24q0 9 4 21l4 12q19 73 51 121q27 44 74 47q4 2 12 2q9 0 13 -2q1 -1 4.5 -2t5.5 -2q1 -1 6 -11q6 -9 6 -16v-4q-2 -10 -10 -21q-29 -47 -45 -88q-8 -16 -10 -24q-4 -18 -8 -27q-23 -33 -62 -33q-12 0 -24 3z" />
    <glyph glyph-name="Ecircumflex" unicode="&#xca;" horiz-adv-x="702" 
d="M412 -229q-58 0 -105 8q-218 35 -252 254q-10 78 -10 141q0 106 18 211q47 348 148 676l33 90l4 8q12 21 12 47q0 16 -8 29q-4 12 -4 18q0 26 24 41q30 20 54 41l2 2q19 19 37 19l12 -2q18 -6 39 -6q27 0 65 10l25 6q4 2 12 2q94 20 197 20q52 0 96 -8q93 -18 102 -94
l2 -16q0 -37 -32 -37q-5 0 -25 4q-43 14 -90 14q-66 0 -121 -14l-92 -18q-54 -14 -72 -17q-22 -3 -32 -29l-37 -106q-88 -247 -142 -465l-4 -25l-4 -12q3 -8 10 -8l11 2q65 18 127 18l28 -2q65 0 103 -53q14 -14 14 -37l-4 -16q-6 -9 -14 -12q-12 -4 -19 -4h-37
q-37 0 -94 -11q-67 -17 -94 -26q-7 -3 -15.5 -5.5t-19 -6l-16.5 -5.5q-4 -1 -11 -8q-1 -2 -2 -6.5t-2 -7.5q-20 -100 -20 -264q0 -8 4 -62q3 -38 18 -82q30 -93 129 -102h41q89 0 179 22t163 72q27 18 56 18q17 0 32 -6q28 -6 37 -32v-5q0 -9 -6 -18q-10 -10 -16 -14l-2 -2
q-97 -72 -213 -99q-108 -30 -219 -30zM666 1481q-11 0 -23 6q-41 21 -65 65q-1 2 -9 17.5t-12 23.5l-3 5q-4 6 -5 10q-38 -36 -66 -80l-8 -12q-16 -19 -33 -19q-6 0 -22 4q-45 20 -45 55q0 22 18 46q37 46 80 86q6 6 17 16.5t20 19.5t16 17q10 10 23 10t24 -8q47 -21 56 -70
q12 -77 55 -141q10 -10 10 -25q0 -10 -8 -18t-20 -8z" />
    <glyph glyph-name="Edieresis" unicode="&#xcb;" horiz-adv-x="702" 
d="M412 -229q-58 0 -105 8q-218 35 -252 254q-10 78 -10 141q0 106 18 211q47 348 148 676l33 90l4 8q12 21 12 47q0 16 -8 29q-4 12 -4 18q0 26 24 41q30 20 54 41l2 2q19 19 37 19l12 -2q18 -6 39 -6q27 0 65 10l25 6q4 2 12 2q94 20 197 20q52 0 96 -8q93 -18 102 -94
l2 -16q0 -37 -32 -37q-5 0 -25 4q-43 14 -90 14q-66 0 -121 -14l-92 -18q-54 -14 -72 -17q-22 -3 -32 -29l-37 -106q-88 -247 -142 -465l-4 -25l-4 -12q3 -8 10 -8l11 2q65 18 127 18l28 -2q65 0 103 -53q14 -14 14 -37l-4 -16q-6 -9 -14 -12q-12 -4 -19 -4h-37
q-37 0 -94 -11q-67 -17 -94 -26q-7 -3 -15.5 -5.5t-19 -6l-16.5 -5.5q-4 -1 -11 -8q-1 -2 -2 -6.5t-2 -7.5q-20 -100 -20 -264q0 -8 4 -62q3 -38 18 -82q30 -93 129 -102h41q89 0 179 22t163 72q27 18 56 18q17 0 32 -6q28 -6 37 -32v-5q0 -9 -6 -18q-10 -10 -16 -14l-2 -2
q-97 -72 -213 -99q-108 -30 -219 -30zM530 1454q-31 3 -51 23q-22 19 -22 45v4q0 29 18 53q16 25 37 25q31 -3 53 -25q19 -22 19 -55q0 -70 -54 -70zM696 1452q-31 3 -51 23q-22 19 -22 45v4q0 29 18 53q16 25 37 25q31 -3 53 -25q19 -22 19 -55q0 -70 -54 -70z" />
    <glyph glyph-name="Igrave" unicode="&#xcc;" horiz-adv-x="366" 
d="M139 -266q-18 0 -33 6q-31 9 -34 51q-15 111 -15 223q6 531 72 1082q12 119 59 225q24 59 60 59l18 -4q30 -6 51 -33q23 -34 25 -65q0 -3 1 -10.5t1 -10.5q2 -12 2 -36v-11q-8 -110 -31 -227l-6 -31q-24 -156 -37 -278q0 -6 -1 -19t-1 -20q-11 -91 -32 -289
q-25 -277 -27 -475q0 -45 2 -70v-6q0 -30 -23 -43q-24 -18 -51 -18zM397 1425q-8 -2 -24 -2q-39 0 -62 33q-4 9 -8 27q-2 8 -10 24q-16 41 -45 88q-8 11 -10 21v4q0 7 6 16q5 9 8 11q1 1 4 2t4 2q4 2 12 2q9 0 13 -2q46 -3 73 -47q33 -51 52 -121l4 -13q4 -12 4 -20
q0 -16 -21 -25z" />
    <glyph glyph-name="Iacute" unicode="&#xcd;" horiz-adv-x="366" 
d="M139 -266q-18 0 -33 6q-31 9 -34 51q-15 111 -15 223q6 531 72 1082q12 119 59 225q24 59 60 59l18 -4q30 -6 51 -33q23 -34 25 -65q0 -3 1 -10.5t1 -10.5q2 -12 2 -36v-11q-8 -110 -31 -227l-6 -31q-24 -156 -37 -278q0 -6 -1 -19t-1 -20q-11 -91 -32 -289
q-25 -277 -27 -475q0 -45 2 -70v-6q0 -30 -23 -43q-24 -18 -51 -18zM258 1425q-20 9 -20 25q0 8 4 20l4 13q19 73 51 121q27 44 74 47q4 2 12 2t12 -2q1 -1 5 -2t6 -2q1 -1 6 -11q6 -9 6 -16v-4q-2 -10 -10 -21q-32 -51 -46 -88q-8 -16 -10 -24q-4 -18 -8 -27
q-23 -33 -61 -33q-17 0 -25 2z" />
    <glyph glyph-name="Icircumflex" unicode="&#xce;" horiz-adv-x="366" 
d="M139 -266q-18 0 -33 6q-31 9 -34 51q-15 111 -15 223q6 531 72 1082q16 128 59 225q24 59 60 59l18 -4q31 -7 51 -33q22 -28 25 -65q0 -15 2 -21q2 -12 2 -36v-11q-8 -110 -31 -227l-6 -31q-24 -156 -37 -278q-2 -12 -2 -39q-11 -91 -32 -289q-25 -277 -27 -475
q0 -45 2 -70v-6q0 -30 -23 -43q-21 -18 -51 -18zM422 1448q-11 0 -23 6q-40 21 -65 66q-1 2 -9 17.5t-12 23.5q-1 1 -4 5.5t-4 8.5q-36 -33 -65 -80l-9 -12q-16 -19 -32 -19q-7 0 -23 4q-45 20 -45 56q0 20 19 45q40 50 79 86q5 5 25 24t29 29q10 10 22 10q14 0 25 -8
q45 -21 55 -70q12 -77 55 -141q11 -11 11 -24q0 -10 -9 -19q-8 -8 -20 -8z" />
    <glyph glyph-name="Idieresis" unicode="&#xcf;" horiz-adv-x="366" 
d="M139 -266q-18 0 -33 6q-31 9 -34 51q-15 111 -15 223q6 531 72 1082q16 128 59 225q24 59 60 59l18 -4q31 -7 51 -33q22 -28 25 -65q0 -15 2 -21q2 -12 2 -36v-11q-8 -110 -31 -227l-6 -31q-24 -156 -37 -278q-2 -12 -2 -39q-11 -91 -32 -289q-25 -277 -27 -475
q0 -45 2 -70v-6q0 -30 -23 -43q-21 -18 -51 -18zM375 1466q-31 3 -51 23q-23 20 -23 45v4q0 29 18 53q16 25 37 25q32 -3 54 -25q18 -21 18 -55q0 -70 -53 -70zM209 1468q-31 3 -51 23q-23 20 -23 45v4q0 28 19 53q16 25 36 25q32 -3 54 -25q18 -21 18 -55q0 -70 -53 -70z
" />
    <glyph glyph-name="Ograve" unicode="&#xd2;" horiz-adv-x="1032" 
d="M340 -135q65 0 143 90q74 86 138 201q58 102 88 180q94 260 94 455q0 179 -62 288q-64 107 -153 107q-73 0 -154 -84q-79 -79 -151 -268q-87 -241 -93 -492v-47q0 -155 33 -293q20 -65 53 -104q26 -33 64 -33zM307 -299q-106 0 -176 98q-75 123 -90 260q-13 96 -16 236
q0 389 180 733q65 131 170 219l14 13q100 71 197 71q114 0 209 -80q80 -68 123 -174q43 -107 43 -219v-14q0 -117 -27 -264q-27 -146 -80 -295q-74 -206 -195 -367q-120 -159 -290 -209q-27 -8 -62 -8zM717 1405q-8 -2 -25 -2q-38 0 -61 33q-5 9 -8 26q-1 6 -11 25
q-16 41 -45 88q-8 12 -10 20v4q0 8 6 17q4 8 8 10q1 1 4.5 2t4.5 2q4 2 12 2t12 -2q47 -3 74 -47q32 -48 51 -121l4 -12q4 -12 4 -20q0 -16 -20 -25z" />
    <glyph glyph-name="Oacute" unicode="&#xd3;" horiz-adv-x="1032" 
d="M340 -135q65 0 143 90q74 86 138 201q58 102 88 180q94 260 94 455q0 179 -62 288q-64 107 -153 107q-73 0 -154 -84q-79 -79 -151 -268q-87 -241 -93 -492v-47q0 -155 33 -293q20 -65 53 -104q26 -33 64 -33zM307 -299q-106 0 -176 98q-75 123 -90 260q-13 96 -16 236
q0 389 180 733q65 131 170 219l14 13q100 71 197 71q114 0 209 -80q80 -68 123 -174q43 -107 43 -219v-14q0 -117 -27 -264q-27 -146 -80 -295q-74 -206 -195 -367q-120 -159 -290 -209q-27 -8 -62 -8zM578 1405q-21 9 -21 25q0 8 4 20l4 12q19 73 51 121q27 44 74 47
q4 2 12 2q9 0 13 -2q1 -1 4.5 -2t5.5 -2q2 -2 6 -10q6 -9 6 -17v-4q-2 -8 -10 -20q-29 -47 -45 -88q-8 -15 -10 -25q-3 -17 -8 -26q-23 -33 -62 -33q-16 0 -24 2z" />
    <glyph glyph-name="Ocircumflex" unicode="&#xd4;" horiz-adv-x="1032" 
d="M340 -135q65 0 143 90q74 86 138 201q58 102 88 180q94 260 94 455q0 179 -62 288q-64 107 -153 107q-73 0 -154 -84q-79 -79 -151 -268q-87 -241 -93 -492v-47q0 -155 33 -293q20 -65 53 -104q26 -33 64 -33zM307 -299q-106 0 -176 98q-75 123 -90 260q-13 96 -16 236
q0 389 180 733q65 131 170 219l14 13q100 71 197 71q114 0 209 -80q80 -68 123 -174q43 -107 43 -219v-14q0 -117 -27 -264q-27 -146 -80 -295q-74 -206 -195 -367q-120 -159 -290 -209q-27 -8 -62 -8zM799 1411q-11 0 -23 6q-40 21 -65 66q-1 2 -9 17.5t-12 23.5
q0 1 -3.5 6t-4.5 8q-38 -36 -66 -80l-8 -12q-16 -19 -33 -19q-2 0 -22 5q-45 20 -45 55q0 21 18 45q37 46 80 86q6 6 17 16.5t20 19.5t16 17q10 10 23 10q14 0 25 -8q46 -21 55 -69q12 -79 55 -142q10 -10 10 -24q0 -11 -8 -19t-20 -8z" />
    <glyph glyph-name="Otilde" unicode="&#xd5;" horiz-adv-x="1032" 
d="M340 -135q65 0 143 90q74 86 138 201q58 102 88 180q94 260 94 455q0 179 -62 288q-64 107 -153 107q-73 0 -154 -84q-79 -79 -151 -268q-87 -241 -93 -492v-47q0 -155 33 -293q20 -65 53 -104q26 -33 64 -33zM307 -299q-106 0 -176 98q-75 123 -90 260q-13 96 -16 236
q0 389 180 733q65 131 170 219l14 13q100 71 197 71q114 0 209 -80q80 -68 123 -174q43 -107 43 -219v-14q0 -117 -27 -264q-27 -146 -80 -295q-74 -206 -195 -367q-120 -159 -290 -209q-27 -8 -62 -8zM739 1393q-28 0 -57 16q-21 12 -43 31q-21 18 -45 18q-21 0 -41 -14
q-14 -8 -31 -29q-10 -10 -18 -10l-8 2q-18 3 -27 18q-10 13 -10 29t10 29q19 23 47 35q28 14 53 14q52 -3 86 -37q20 -20 45 -20q20 0 33 8l78 30q15 5 18 5q14 0 25 -11q20 -14 20 -37l-2 -12q-1 -1 -2 -3t-2 -3l-6 -6q-45 -32 -102 -51q-8 -2 -21 -2z" />
    <glyph glyph-name="Odieresis" unicode="&#xd6;" horiz-adv-x="1032" 
d="M340 -135q65 0 143 90q74 86 138 201q58 102 88 180q94 260 94 455q0 179 -62 288q-64 107 -153 107q-73 0 -154 -84q-79 -79 -151 -268q-87 -241 -93 -492v-47q0 -155 33 -293q20 -65 53 -104q26 -33 64 -33zM307 -299q-106 0 -176 98q-75 123 -90 260q-13 96 -16 236
q0 389 180 733q65 131 170 219l14 13q100 71 197 71q114 0 209 -80q80 -68 123 -174q43 -107 43 -219v-14q0 -117 -27 -264q-27 -146 -80 -295q-74 -206 -195 -367q-120 -159 -290 -209q-27 -8 -62 -8zM727 1425q-31 3 -51 23q-23 20 -23 45v4q0 28 19 53q16 25 37 25
q31 -3 53 -25q18 -21 18 -55q0 -70 -53 -70zM561 1427q-31 3 -51 23q-23 20 -23 45v4q0 28 19 53q16 25 37 25q31 -3 53 -25q18 -21 18 -55q0 -70 -53 -70z" />
    <glyph glyph-name="multiply" unicode="&#xd7;" horiz-adv-x="540" 
d="M121 326q-17 0 -39 16q-21 18 -21 37q0 13 13 29q56 68 114 135q11 11 11 20q0 5 -4 17q-38 78 -54 143l-2 16q0 33 41 33q44 0 72 -31q1 -2 4 -6t4 -6q4 -8 4 -12l-2 -4q-6 -9 -6 -21q0 -13 10 -30q1 -2 4 -9t4 -12q34 40 35 41q12 13 33.5 36.5t26.5 29.5q27 24 53 24
q35 0 59 -37q8 -11 8 -24q0 -14 -14 -25q-68 -63 -137 -141q-10 -13 -10 -23q0 -4 4 -16q1 -4 4.5 -8.5t3.5 -5.5q24 -50 59 -91q17 -14 17 -28q0 -7 -4 -15q-8 -14 -25 -14l-22 4q-30 8 -54 35q-27 27 -39 49q-10 17 -18 17q-7 0 -16 -15q-20 -25 -64 -69q-11 -11 -20 -23
q-16 -16 -33 -16z" />
    <glyph glyph-name="Oslash" unicode="&#xd8;" horiz-adv-x="1032" 
d="M340 -135q65 0 143 90q74 86 138 201q58 102 88 180q94 260 94 455q0 179 -62 288q-64 107 -153 107q-73 0 -154 -84q-79 -79 -151 -268q-87 -241 -93 -492v-47q0 -155 33 -293q20 -65 53 -104q26 -33 64 -33zM307 -299q-106 0 -176 98q-75 123 -90 260q-13 96 -16 236
q0 389 180 733q65 131 170 219l14 13q100 71 197 71q114 0 209 -80q80 -68 123 -174q43 -107 43 -219v-14q0 -117 -27 -264q-27 -146 -80 -295q-74 -206 -195 -367q-120 -159 -290 -209q-27 -8 -62 -8z" />
    <glyph glyph-name="Ugrave" unicode="&#xd9;" horiz-adv-x="1212" 
d="M887 -254q-35 0 -56 21q-5 5 -8 14q-1 3 -3 8t-3 8q-4 66 -4 99q0 70 6 141q2 25 2 72q13 233 47 544q4 52 35 355q0 6 2 8q0 4 2 6q-2 2 -4 2h-4l-68 -123q-87 -161 -159 -328l-80 -172q-61 -136 -148 -290q-40 -76 -116 -119q-38 -15 -72 -15q-74 0 -121 78
q-56 103 -65 232q-17 163 -17 288q0 298 70 588q14 69 57 144q47 59 113 59q59 0 104 -45q15 -18 15 -33t-17 -35q-15 -12 -18 -28q-2 -2 -2 -4q-79 -205 -105 -412q-16 -154 -16 -289q0 -103 6 -205q3 -84 31 -176q33 53 55 111q247 544 549 1038q23 34 39 55q14 17 22 31
q23 29 54 29q6 0 26 -4q80 -27 86 -117v-16q0 -85 -14 -156q-5 -40 -6 -47q-1 -6 -2 -19t-2 -20q-22 -139 -39 -260l-39 -305l-29 -297q-18 -156 -24 -312v-43q0 -38 -37 -53q-19 -8 -43 -8zM731 1405q-8 -2 -24 -2q-39 0 -62 33q-5 9 -8 26q-3 10 -10 25q-16 41 -45 88
q-10 14 -11 20v4q0 7 7 17q4 8 8 10q1 1 4 2t4 2q4 2 12 2t12 -2q47 -3 74 -47q32 -48 51 -121l5 -12q4 -12 4 -20q0 -16 -21 -25z" />
    <glyph glyph-name="Uacute" unicode="&#xda;" horiz-adv-x="1212" 
d="M887 -254q-35 0 -56 21q-5 5 -8 14q-1 3 -3 8t-3 8q-4 66 -4 99q0 70 6 141q2 25 2 72q13 233 47 544q4 52 35 355q0 6 2 8q0 4 2 6q-2 2 -4 2h-4l-68 -123q-87 -161 -159 -328l-80 -172q-61 -136 -148 -290q-40 -76 -116 -119q-38 -15 -72 -15q-74 0 -121 78
q-56 103 -65 232q-17 163 -17 288q0 298 70 588q14 69 57 144q47 59 113 59q59 0 104 -45q15 -18 15 -33t-17 -35q-15 -12 -18 -28q-2 -2 -2 -4q-79 -205 -105 -412q-16 -154 -16 -289q0 -103 6 -205q3 -84 31 -176q33 53 55 111q247 544 549 1038q23 34 39 55q14 17 22 31
q23 29 54 29q6 0 26 -4q80 -27 86 -117v-16q0 -85 -14 -156q-5 -40 -6 -47q-1 -6 -2 -19t-2 -20q-22 -139 -39 -260l-39 -305l-29 -297q-18 -156 -24 -312v-43q0 -38 -37 -53q-19 -8 -43 -8zM592 1405q-21 9 -21 25q0 8 4 20l5 12q19 73 51 121q27 44 74 47q4 2 12 2t12 -2
q1 -1 4.5 -2t5.5 -2q2 -2 6 -10q7 -10 7 -17v-4q-1 -6 -11 -20q-29 -47 -45 -88q-8 -15 -10 -25q-3 -17 -8 -26q-23 -33 -62 -33q-16 0 -24 2z" />
    <glyph glyph-name="Ucircumflex" unicode="&#xdb;" horiz-adv-x="1212" 
d="M887 -254q-35 0 -56 21q-5 5 -8 14q-1 3 -3 8t-3 8q-4 66 -4 99q0 70 6 141q2 25 2 72q13 233 47 544q4 52 35 355q0 6 2 8q0 4 2 6q-2 2 -4 2h-4l-68 -123q-87 -161 -159 -328l-80 -172q-61 -136 -148 -290q-40 -76 -116 -119q-38 -15 -72 -15q-74 0 -121 78
q-56 103 -65 232q-17 163 -17 288q0 298 70 588q14 69 57 144q47 59 113 59q59 0 104 -45q15 -18 15 -33t-17 -35q-15 -12 -18 -28q-2 -2 -2 -4q-79 -205 -105 -412q-16 -154 -16 -289q0 -103 6 -205q3 -84 31 -176q33 53 55 111q247 544 549 1038q23 34 39 55q14 17 22 31
q23 29 54 29q6 0 26 -4q80 -27 86 -117v-16q0 -85 -14 -156q-5 -40 -6 -47q-1 -6 -2 -19t-2 -20q-22 -139 -39 -260l-39 -305l-29 -297q-18 -156 -24 -312v-43q0 -38 -37 -53q-19 -8 -43 -8zM813 1430q-10 0 -22 6q-42 22 -66 65q-17 34 -20 41q-1 1 -4.5 6t-4.5 8
q-38 -35 -65 -79l-8 -13q-15 -18 -33 -18q-7 0 -23 4q-45 20 -45 55q0 20 19 45q37 46 80 86q45 45 53 54q10 10 22 10q14 0 25 -8q45 -21 55 -70q12 -77 55 -141q11 -11 11 -25q0 -10 -8 -18t-21 -8z" />
    <glyph glyph-name="Udieresis" unicode="&#xdc;" horiz-adv-x="1212" 
d="M887 -254q-35 0 -56 21q-5 5 -8 14q-1 3 -3 8t-3 8q-4 66 -4 99q0 70 6 141q2 25 2 72q13 233 47 544q4 52 35 355q0 6 2 8q0 4 2 6q-2 2 -4 2h-4l-68 -123q-87 -161 -159 -328l-80 -172q-61 -136 -148 -290q-40 -76 -116 -119q-38 -15 -72 -15q-74 0 -121 78
q-56 103 -65 232q-17 163 -17 288q0 298 70 588q14 69 57 144q47 59 113 59q59 0 104 -45q15 -18 15 -33t-17 -35q-15 -12 -18 -28q-2 -2 -2 -4q-79 -205 -105 -412q-16 -154 -16 -289q0 -103 6 -205q3 -84 31 -176q33 53 55 111q247 544 549 1038q23 34 39 55q14 17 22 31
q23 29 54 29q6 0 26 -4q80 -27 86 -117v-16q0 -85 -14 -156q-5 -40 -6 -47q-1 -6 -2 -19t-2 -20q-22 -139 -39 -260l-39 -305l-29 -297q-18 -156 -24 -312v-43q0 -38 -37 -53q-19 -8 -43 -8zM741 1444q-32 3 -51 22q-22 19 -22 45v5q0 29 18 53q15 24 37 24q32 -3 53 -24
q19 -22 19 -56q0 -69 -54 -69zM575 1446q-32 3 -51 22q-22 19 -22 45v5q0 29 18 53q15 24 37 24q32 -3 53 -24q19 -22 19 -55q0 -70 -54 -70z" />
    <glyph glyph-name="Yacute" unicode="&#xdd;" horiz-adv-x="1280" 
d="M629 -672q-18 0 -39 6q-42 12 -51 56v8q0 35 36 49l17 8q83 21 178 301q97 284 166 629q70 347 70 547q0 56 -11 106q-12 39 -34 39q-12 0 -27 -12q-38 -46 -143 -182q-68 -90 -146 -185q-52 -67 -113 -123q-66 -63 -157 -63h-21q-110 15 -157 117q-45 105 -45 223l-2 61
q0 251 81 484q30 77 66 108t70 31q44 0 79 -41t35 -84q0 -14 -6 -29q-32 -89 -45 -196l-12 -66q-25 -131 -25 -256l2 -63q0 -47 17 -113l49 72q121 189 282 370q77 86 175 150q46 27 96 27q46 0 100 -31q57 -35 72 -100q35 -122 35 -250l-2 -56q-12 -355 -105 -731
q-89 -363 -293 -674q-47 -77 -125 -120q-39 -17 -67 -17zM641 1405q-20 9 -20 25q0 8 4 20l4 12q19 73 51 121q27 44 74 47q4 2 12 2t12 -2q1 -1 4.5 -2t5.5 -2q4 -4 7 -10q6 -9 6 -17v-4q-2 -8 -10 -20q-32 -51 -46 -88q-7 -15 -10 -25q-3 -17 -8 -26q-23 -33 -61 -33
q-17 0 -25 2z" />
    <glyph glyph-name="Thorn" unicode="&#xde;" horiz-adv-x="735" 
d="M211 492l12 20q59 96 248 412q58 92 102 219q18 49 23 84v6q0 14 -10 14l-13 -4q-49 -23 -102 -72q-100 -100 -156 -239q-92 -210 -104 -440zM158 -244q-17 0 -35 6q-9 3 -19 13q-8 5 -8 20q-2 33 -10 113q-12 86 -12 174v16q0 53 2 80v21q-4 12 -10 18q-9 9 -9 21
q0 13 9 22q16 26 16 55l4 78q6 202 45 387q51 232 201 426q75 99 192 137q25 7 43 7q60 0 101 -41q42 -45 45 -111v-16q0 -56 -15 -109q-9 -31 -39 -102q-88 -200 -204 -369l-47 -76q-79 -129 -205 -303q-10 -10 -10 -26v-125q0 -124 12 -250l2 -15q-6 -51 -49 -51z" />
    <glyph glyph-name="germandbls" unicode="&#xdf;" horiz-adv-x="1165" 
d="M414 668q165 125 307 252q151 138 254 303q-80 -19 -199 -117q-126 -107 -225 -223q-106 -124 -137 -215zM266 -70q266 37 475 207q118 86 158 223q8 31 8 68q0 54 -28 96q-29 43 -93 58q-27 8 -65 8q-123 -3 -238 -62q-27 -12 -51 -12q-31 0 -67 25l-13 6q-4 0 -6 -2
t-6 -10q-44 -101 -72 -218q-26 -107 -26 -225v-145q0 -17 16 -17h8zM201 -219q-25 0 -49 12q-15 12 -39 12q-49 3 -78 37q-15 12 -15 31l3 10q3 13 14 17q6 2 20 2l23 2q14 0 14 12v6q-18 89 -18 176q0 119 30 236q26 109 74 227q173 446 578 701q83 56 178 71l22 2
q66 0 105 -39q41 -41 41 -98q0 -26 -12 -61q-48 -111 -131 -191q-97 -103 -218 -203q-14 -14 -22 -20q-2 -2 -4 -2l-8 -8q-6 -3 -9 -13q76 -3 140 -30q175 -61 209 -242q4 -36 4 -55q0 -120 -80 -223q-186 -245 -486 -300q-88 -17 -188 -30q-12 0 -29 -10q-32 -29 -69 -29z
" />
    <glyph glyph-name="agrave" unicode="&#xe0;" horiz-adv-x="794" 
d="M-61 350q22 19 71 72q39 45 74 98q34 49 37 86q-59 -20 -119 -102q-57 -80 -63 -154zM287 195q-31 0 -66 12q-91 30 -94 127v33q-25 -25 -37 -35q-26 -26 -76 -72q-35 -35 -77 -35l-17 2q-108 27 -108 117q0 17 2 27q35 207 215 311q44 23 77 23q74 0 121 -87
q7 -10 19 -16q51 -17 51 -61l-4 -31l-17 -61q-11 -34 -22 -95l-2 -26v-6q0 -25 18 -25q14 0 41 12q188 82 346 221l25 23q22 16 43 16q36 0 61 -32q9 -9 9 -21t-13 -22q-185 -179 -417 -283q-43 -16 -78 -16zM256 758q-8 -2 -25 -2q-39 0 -61 32q-4 9 -8 27q-2 10 -10 25
q-14 37 -46 88q-8 12 -10 20v4q0 8 6 17q4 7 9 10q1 1 4 2t4 2q4 2 12 2t12 -2q47 -3 74 -47q32 -48 51 -121l4 -12q4 -12 4 -21q0 -15 -20 -24z" />
    <glyph glyph-name="aacute" unicode="&#xe1;" horiz-adv-x="794" 
d="M-61 350q22 19 71 72q39 45 74 98q34 49 37 86q-59 -20 -119 -102q-57 -80 -63 -154zM287 195q-31 0 -66 12q-91 30 -94 127v33q-25 -25 -37 -35q-26 -26 -76 -72q-35 -35 -77 -35l-17 2q-108 27 -108 117q0 17 2 27q35 207 215 311q44 23 77 23q74 0 121 -87
q7 -10 19 -16q51 -17 51 -61l-4 -31l-17 -61q-11 -34 -22 -95l-2 -26v-6q0 -25 18 -25q14 0 41 12q188 82 346 221l25 23q22 16 43 16q36 0 61 -32q9 -9 9 -21t-13 -22q-185 -179 -417 -283q-43 -16 -78 -16zM117 758q-21 9 -21 24q0 9 4 21l4 12q19 70 52 121q27 44 73 47
q4 2 13 2q8 0 12 -2q1 -1 4.5 -2t5.5 -2q2 -2 6 -10q6 -9 6 -17v-4q-2 -8 -10 -20q-29 -47 -45 -88q-7 -15 -10 -25q-4 -18 -8 -27q-22 -32 -62 -32q-16 0 -24 2z" />
    <glyph glyph-name="acircumflex" unicode="&#xe2;" horiz-adv-x="794" 
d="M-61 350q22 19 71 72q39 45 74 98q34 49 37 86q-59 -20 -119 -102q-57 -80 -63 -154zM287 195q-31 0 -66 12q-91 30 -94 127v33q-25 -25 -37 -35q-26 -26 -76 -72q-35 -35 -77 -35l-17 2q-108 27 -108 117q0 17 2 27q35 207 215 311q44 23 77 23q74 0 121 -87
q7 -10 19 -16q51 -17 51 -61l-4 -31l-17 -61q-11 -34 -22 -95l-2 -26v-6q0 -25 18 -25q14 0 41 12q188 82 346 221l25 23q22 16 43 16q36 0 61 -32q9 -9 9 -21t-13 -22q-185 -179 -417 -283q-43 -16 -78 -16zM285 754q-7 0 -19 4q-31 19 -53 55q-9 15 -18 33l-7 12
q-34 -34 -53 -65l-8 -11q-8 -14 -27 -14q-12 0 -18 2q-37 18 -37 47q0 17 14 37q23 28 68 70q7 7 21.5 22.5t21.5 22.5q8 8 18 8q12 0 21 -6q39 -17 45 -58q9 -62 47 -116q8 -8 8 -21q0 -7 -6 -16q-9 -6 -18 -6z" />
    <glyph glyph-name="atilde" unicode="&#xe3;" horiz-adv-x="794" 
d="M-61 350q22 19 71 72q39 45 74 98q34 49 37 86q-59 -20 -119 -102q-57 -80 -63 -154zM287 195q-31 0 -66 12q-91 30 -94 127v33q-25 -25 -37 -35q-26 -26 -76 -72q-35 -35 -77 -35l-17 2q-108 27 -108 117q0 17 2 27q35 207 215 311q44 23 77 23q74 0 121 -87
q7 -10 19 -16q51 -17 51 -61l-4 -31l-17 -61q-11 -34 -22 -95l-2 -26v-6q0 -25 18 -25q14 0 41 12q188 82 346 221l25 23q22 16 43 16q36 0 61 -32q9 -9 9 -21t-13 -22q-185 -179 -417 -283q-43 -16 -78 -16zM233 795q-28 0 -57 16q-20 12 -43 31q-21 18 -45 18
q-21 0 -41 -14q-14 -8 -31 -29q-10 -10 -18 -10l-8 2q-18 3 -27 18q-10 13 -10 29t10 29q19 23 47 35q28 14 53 14q53 -3 87 -37q20 -20 45 -20q19 0 32 8l78 30q15 5 19 5q13 0 24 -11q21 -15 21 -37l-2 -12q-1 -1 -2.5 -3t-2.5 -3l-6 -6q-45 -32 -102 -51q-8 -2 -21 -2z
" />
    <glyph glyph-name="adieresis" unicode="&#xe4;" horiz-adv-x="794" 
d="M-61 350q22 19 71 72q39 45 74 98q34 49 37 86q-59 -20 -119 -102q-57 -80 -63 -154zM287 195q-31 0 -66 12q-91 30 -94 127v33q-25 -25 -37 -35q-26 -26 -76 -72q-35 -35 -77 -35l-17 2q-108 27 -108 117q0 17 2 27q35 207 215 311q44 23 77 23q74 0 121 -87
q7 -10 19 -16q51 -17 51 -61l-4 -31l-17 -61q-11 -34 -22 -95l-2 -26v-6q0 -25 18 -25q14 0 41 12q188 82 346 221l25 23q22 16 43 16q36 0 61 -32q9 -9 9 -21t-13 -22q-185 -179 -417 -283q-43 -16 -78 -16zM248 801q-25 3 -37 16q-16 13 -16 33v2q0 21 12 39q13 16 26 16
q23 0 39 -16q13 -16 13 -41q0 -49 -37 -49zM129 803q-23 0 -37 14q-16 16 -16 33v4q0 21 12 39q13 16 27 16q26 -3 39 -16q12 -15 12 -41q0 -49 -37 -49z" />
    <glyph glyph-name="aring" unicode="&#xe5;" horiz-adv-x="794" 
d="M-61 350q22 19 71 72q39 45 74 98q34 49 37 86q-59 -20 -119 -102q-57 -80 -63 -154zM287 195q-31 0 -66 12q-91 30 -94 127v33q-25 -25 -37 -35q-26 -26 -76 -72q-35 -35 -77 -35l-17 2q-108 27 -108 117q0 17 2 27q35 207 215 311q44 23 77 23q74 0 121 -87
q7 -10 19 -16q51 -17 51 -61l-4 -31l-17 -61q-11 -34 -22 -95l-2 -26v-6q0 -25 18 -25q14 0 41 12q188 82 346 221l25 23q22 16 43 16q36 0 61 -32q9 -9 9 -21t-13 -22q-185 -179 -417 -283q-43 -16 -78 -16zM143 791q1 0 9 4q34 27 47 57q32 68 32 156v12q0 34 -8 55
q0 12 -6 12q-4 0 -10 -6q-22 -22 -47 -63q-6 -9 -6 -21l2 -10q0 -9 -11 -16l-4 -2q-2 -2 -2 -6l-8 -25q-8 -23 -10 -37v-29q0 -36 12 -73q4 -8 10 -8zM147 737q-6 0 -26 4q-57 15 -60 84q-2 12 -2 37q3 50 9 96q5 41 26 91q19 36 56 79q24 27 53 27q26 0 49 -20
q45 -42 51 -99q4 -36 4 -57q0 -68 -31 -135q-21 -56 -71 -86q-27 -21 -58 -21z" />
    <glyph glyph-name="ae" unicode="&#xe6;" horiz-adv-x="1396" 
d="M-61 350q22 19 71 72q39 45 74 98q34 49 37 86q-59 -20 -119 -102q-57 -80 -63 -154zM797 473q56 38 71 105q-71 -21 -71 -105zM641 373q-129 -95 -276 -162q-43 -16 -78 -16q-31 0 -66 12q-91 30 -94 127v33q-25 -25 -37 -35q-26 -26 -76 -72q-35 -35 -77 -35l-17 2
q-108 27 -108 117q0 17 2 27q35 207 215 311q44 23 77 23q74 0 121 -87q7 -10 19 -16q51 -17 51 -61l-4 -31l-17 -61q-11 -34 -22 -95l-2 -26v-6q0 -25 18 -25q14 0 41 12q188 82 346 221l25 23q12 8 18 10q38 62 101 113q43 29 80 29q35 0 69 -27q33 -26 39 -82
q-21 -128 -127 -217q-41 -29 -84 -35q-14 0 -14 -16q0 -99 65 -99q55 0 123 45q88 58 144 107q85 70 127 108q38 35 59 50q22 16 43 16q23 0 41 -12q16 -13 16 -33q0 -40 -348 -317q-88 -76 -190 -76q-82 0 -133 51q-57 51 -66 135l-4 53v17z" />
    <glyph glyph-name="egrave" unicode="&#xe8;" horiz-adv-x="604" 
d="M45 469q58 39 72 104q-72 -21 -72 -104zM92 113q-82 0 -133 51q-56 50 -65 135l-5 53q3 193 160 320q42 28 80 28q37 0 70 -26t39 -82q-21 -128 -127 -217q-41 -29 -84 -35q-15 0 -15 -16q0 -99 66 -99q55 0 123 45q83 55 143 107q85 70 127 108q38 35 59 50q22 16 43 16
q23 0 41 -12q17 -14 17 -33q0 -41 -348 -318q-87 -75 -191 -75zM295 758q-8 -2 -25 -2q-39 0 -61 32q-4 9 -8 27q-1 6 -11 25q-16 41 -45 88q-8 12 -10 20v4q0 8 6 17q4 7 9 10q1 1 4 2t4 2q4 2 12 2t12 -2q47 -3 74 -47q32 -48 51 -121l4 -12q4 -12 4 -21q0 -15 -20 -24z
" />
    <glyph glyph-name="eacute" unicode="&#xe9;" horiz-adv-x="604" 
d="M45 469q58 39 72 104q-72 -21 -72 -104zM92 113q-82 0 -133 51q-56 50 -65 135l-5 53q3 193 160 320q42 28 80 28q37 0 70 -26t39 -82q-21 -128 -127 -217q-41 -29 -84 -35q-15 0 -15 -16q0 -99 66 -99q55 0 123 45q83 55 143 107q85 70 127 108q38 35 59 50q22 16 43 16
q23 0 41 -12q17 -14 17 -33q0 -41 -348 -318q-87 -75 -191 -75zM156 758q-21 9 -21 24q0 9 4 21l4 12q19 70 52 121q27 44 73 47q4 2 13 2q8 0 12 -2q1 -1 4.5 -2t5.5 -2q2 -2 6 -10q6 -9 6 -17v-4q-2 -8 -10 -20q-29 -47 -45 -88q-8 -15 -10 -25q-4 -18 -8 -27
q-22 -32 -62 -32q-16 0 -24 2z" />
    <glyph glyph-name="ecircumflex" unicode="&#xea;" horiz-adv-x="604" 
d="M45 469q58 39 72 104q-72 -21 -72 -104zM92 113q-82 0 -133 51q-56 50 -65 135l-5 53q3 193 160 320q42 28 80 28q37 0 70 -26t39 -82q-21 -128 -127 -217q-41 -29 -84 -35q-15 0 -15 -16q0 -99 66 -99q55 0 123 45q83 55 143 107q85 70 127 108q38 35 59 50q22 16 43 16
q23 0 41 -12q17 -14 17 -33q0 -41 -348 -318q-87 -75 -191 -75zM260 748q-6 0 -18 4q-33 20 -54 55q-9 15 -18 33l-6 12q-33 -33 -53 -66l-9 -10q-8 -14 -26 -14q-13 0 -19 2q-37 18 -37 47q0 16 15 37q25 32 67 70q7 7 21.5 22.5t21.5 22.5q8 8 19 8t20 -6q39 -17 45 -58
q9 -62 47 -116q9 -9 9 -21q0 -7 -6 -16q-9 -6 -19 -6z" />
    <glyph glyph-name="edieresis" unicode="&#xeb;" horiz-adv-x="604" 
d="M45 469q58 39 72 104q-72 -21 -72 -104zM92 113q-82 0 -133 51q-56 50 -65 135l-5 53q3 193 160 320q42 28 80 28q37 0 70 -26t39 -82q-21 -128 -127 -217q-41 -29 -84 -35q-15 0 -15 -16q0 -99 66 -99q55 0 123 45q83 55 143 107q85 70 127 108q38 35 59 50q22 16 43 16
q23 0 41 -12q17 -14 17 -33q0 -41 -348 -318q-87 -75 -191 -75zM111 772q-23 0 -37 14q-17 17 -17 33v4q0 19 13 39q14 17 26 17q25 -3 39 -17q12 -15 12 -41q0 -49 -36 -49zM229 770q-23 3 -36 16q-17 14 -17 33v2q0 21 12 39q14 17 27 17q22 0 39 -17q12 -15 12 -41
q0 -49 -37 -49z" />
    <glyph glyph-name="igrave" unicode="&#xec;" horiz-adv-x="649" 
d="M41 233q-32 0 -59 9q-109 27 -109 129v10q6 100 47 190q23 45 64 45q24 0 49 -14q35 -18 35 -49q0 -10 -7 -31l-18 -49q-23 -48 -31 -88l-6 -37q0 -22 21 -22l36 8q132 38 252 96q14 6 61 26.5t73 30.5l131 58q16 8 36 8q34 0 56 -25q12 -12 12 -24q0 -16 -18 -25
l-144 -69q-191 -106 -409 -166q-28 -7 -70 -11h-2zM252 877q-12 -3 -25 -3q-38 0 -61 33q-4 9 -8 27q-1 4 -11 24q-17 44 -45 89q-8 12 -10 20v4q0 7 6 16q5 9 8 11q1 1 4.5 2t4.5 2q4 2 12 2t12 -2q47 -3 74 -47q32 -48 51 -121l4 -12q4 -12 4 -21q0 -15 -20 -24zM68 707
h-11q-61 9 -61 59v4q1 3 2 11t2 12q4 28 4 47q0 25 25 28l12 2q28 0 55 -18q27 -21 27 -49q0 -9 -4 -21q-2 -8 -6 -28q-2 -2 -2 -6q-9 -41 -43 -41z" />
    <glyph glyph-name="iacute" unicode="&#xed;" horiz-adv-x="649" 
d="M41 233q-32 0 -59 9q-109 27 -109 129v10q6 100 47 190q23 45 64 45q24 0 49 -14q35 -18 35 -49q0 -10 -7 -31l-18 -49q-23 -48 -31 -88l-6 -37q0 -22 21 -22l36 8q132 38 252 96q14 6 61 26.5t73 30.5l131 58q16 8 36 8q34 0 56 -25q12 -12 12 -24q0 -16 -18 -25
l-144 -69q-191 -106 -409 -166q-28 -7 -70 -11h-2zM68 707h-11q-61 9 -61 59v4q1 3 2 11t2 12q4 28 4 47q0 25 25 28l12 2q28 0 55 -18q27 -21 27 -49q0 -9 -4 -21q-2 -8 -6 -28q-2 -2 -2 -6q-9 -41 -43 -41zM113 877q-21 9 -21 24q0 9 4 21l4 12q19 70 52 121q27 44 73 47
q4 2 13 2q8 0 12 -2q1 -1 4.5 -2t5.5 -2q1 -1 6 -11q6 -9 6 -16v-4q-2 -8 -10 -20q-28 -45 -45 -89q-8 -16 -10 -24q-4 -18 -8 -27q-23 -33 -62 -33q-12 0 -24 3z" />
    <glyph glyph-name="icircumflex" unicode="&#xee;" horiz-adv-x="649" 
d="M41 233q-32 0 -59 9q-109 27 -109 129v10q6 100 47 190q23 45 64 45q24 0 49 -14q35 -18 35 -49q0 -10 -7 -31l-18 -49q-23 -48 -31 -88l-6 -37q0 -22 21 -22l36 8q132 38 252 96q14 6 61 26.5t73 30.5l131 58q16 8 36 8q34 0 56 -25q12 -12 12 -24q0 -16 -18 -25
l-144 -69q-191 -106 -409 -166q-28 -7 -70 -11h-2zM201 928q-7 0 -19 4q-31 19 -53 55q-9 15 -18 33l-7 12q-34 -34 -53 -65l-8 -11q-8 -14 -27 -14q-12 0 -18 2q-37 18 -37 47q0 17 14 37q23 28 68 70q7 7 21.5 22.5t21.5 22.5q8 8 18 8q12 0 21 -6q39 -17 45 -58
q9 -62 47 -116q8 -8 8 -21q0 -7 -6 -16q-9 -6 -18 -6zM68 707h-11q-61 9 -61 59v4q1 3 2 11t2 12q4 28 4 47q0 25 25 28l12 2q28 0 55 -18q27 -21 27 -49q0 -9 -4 -21q-2 -8 -6 -28q-2 -2 -2 -6q-9 -41 -43 -41z" />
    <glyph glyph-name="idieresis" unicode="&#xef;" horiz-adv-x="649" 
d="M41 233q-32 0 -59 9q-109 27 -109 129v10q6 100 47 190q23 45 64 45q24 0 49 -14q35 -18 35 -49q0 -10 -7 -31l-18 -49q-23 -48 -31 -88l-6 -37q0 -22 21 -22l36 8q132 38 252 96q14 6 61 26.5t73 30.5l131 58q16 8 36 8q34 0 56 -25q12 -12 12 -24q0 -16 -18 -25
l-144 -69q-191 -106 -409 -166q-28 -7 -70 -11h-2zM43 946q-22 0 -37 15q-16 16 -16 32v4q0 21 12 39q14 17 27 17q25 -3 39 -17q12 -15 12 -41q0 -49 -37 -49zM162 944q-23 3 -37 17q-16 13 -16 32v2q0 21 12 39q14 17 26 17q22 0 39 -17q13 -16 13 -41q0 -49 -37 -49z
M68 707h-11q-61 9 -61 59v4q1 3 2 11t2 12q4 28 4 47q0 25 25 28l12 2q28 0 55 -18q27 -21 27 -49q0 -9 -4 -21q-2 -8 -6 -28q-2 -2 -2 -6q-9 -41 -43 -41z" />
    <glyph glyph-name="ograve" unicode="&#xf2;" horiz-adv-x="389" 
d="M-23 295q62 78 95 160l4 12q0 7 -8 10l-39 17l-4 2q-2 0 -2 -2l-5 -5q-41 -90 -41 -182v-12zM-35 164q-28 0 -53 14q-34 15 -43 43q-12 27 -12 58v14q9 151 73 285q11 22 23 34q9 9 22 9q4 0 19 -5q8 -2 26 -2q13 0 19 2q24 7 41 7q66 0 100 -76q6 -27 6 -53
q0 -75 -36 -146q-38 -74 -84 -129t-101 -55zM168 709q-8 -2 -25 -2q-39 0 -61 32q-4 9 -8 27q-2 6 -11 25q-16 41 -45 88q-8 12 -10 20v4q0 8 6 17q4 7 9 10q1 1 4 2t4 2q4 2 12 2t12 -2q47 -3 74 -47q32 -48 51 -121l4 -12q4 -12 4 -21q0 -15 -20 -24z" />
    <glyph glyph-name="oacute" unicode="&#xf3;" horiz-adv-x="389" 
d="M-23 295q62 78 95 160l4 12q0 7 -8 10l-39 17l-4 2q-2 0 -2 -2l-5 -5q-41 -90 -41 -182v-12zM-35 164q-28 0 -53 14q-34 15 -43 43q-12 27 -12 58v14q9 151 73 285q11 22 23 34q9 9 22 9q4 0 19 -5q8 -2 26 -2q13 0 19 2q24 7 41 7q66 0 100 -76q6 -27 6 -53
q0 -75 -36 -146q-38 -74 -84 -129t-101 -55zM29 709q-21 9 -21 24q0 9 4 21l4 12q19 70 52 121q27 44 73 47q4 2 13 2q8 0 12 -2q1 -1 4.5 -2t5.5 -2q2 -2 6 -10q6 -9 6 -17v-4q-2 -8 -10 -20q-29 -47 -45 -88q-7 -15 -10 -25q-4 -18 -8 -27q-22 -32 -62 -32q-16 0 -24 2z
" />
    <glyph glyph-name="ocircumflex" unicode="&#xf4;" horiz-adv-x="389" 
d="M-23 295q62 78 95 160l4 12q0 7 -8 10l-39 17l-4 2q-2 0 -2 -2l-5 -5q-41 -90 -41 -182v-12zM-35 164q-28 0 -53 14q-34 15 -43 43q-12 27 -12 58v14q9 151 73 285q11 22 23 34q9 9 22 9q4 0 19 -5q8 -2 26 -2q13 0 19 2q24 7 41 7q66 0 100 -76q6 -27 6 -53
q0 -75 -36 -146q-38 -74 -84 -129t-101 -55zM193 733q-7 0 -19 4q-30 18 -53 56q-18 30 -19 32l-6 13q-33 -33 -53 -66l-8 -10q-8 -14 -27 -14q-12 0 -18 2q-37 18 -37 47q0 17 14 37q20 24 68 69q7 7 21.5 22.5t21.5 22.5q8 8 18 8q12 0 21 -6q39 -17 45 -57q9 -64 47 -117
q8 -8 8 -20q0 -8 -6 -17q-9 -6 -18 -6z" />
    <glyph glyph-name="otilde" unicode="&#xf5;" horiz-adv-x="389" 
d="M-23 295q62 78 95 160l4 12q0 7 -8 10l-39 17l-4 2q-2 0 -2 -2l-5 -5q-41 -90 -41 -182v-12zM-35 164q-28 0 -53 14q-34 15 -43 43q-12 27 -12 58v14q9 151 73 285q11 22 23 34q9 9 22 9q4 0 19 -5q8 -2 26 -2q13 0 19 2q24 7 41 7q66 0 100 -76q6 -27 6 -53
q0 -75 -36 -146q-38 -74 -84 -129t-101 -55zM164 723q-29 0 -58 16q-20 12 -43 31q-21 18 -45 18q-21 0 -41 -14q-12 -7 -30 -29q-10 -10 -19 -10l-8 2q-16 3 -26 19q-11 15 -11 28q0 14 11 29q19 23 47 35q28 14 53 14q52 -3 86 -37q20 -20 45 -20q20 0 33 8l78 31
q12 4 18 4q15 0 25 -10q20 -14 20 -37l-2 -13q-1 -1 -2 -3t-2 -3l-6 -6q-44 -31 -103 -51q-8 -2 -20 -2z" />
    <glyph glyph-name="odieresis" unicode="&#xf6;" horiz-adv-x="389" 
d="M-23 295q62 78 95 160l4 12q0 7 -8 10l-39 17l-4 2q-2 0 -2 -2l-5 -5q-41 -90 -41 -182v-12zM-35 164q-28 0 -53 14q-34 15 -43 43q-12 27 -12 58v14q9 151 73 285q11 22 23 34q9 9 22 9q4 0 19 -5q8 -2 26 -2q13 0 19 2q24 7 41 7q66 0 100 -76q6 -27 6 -53
q0 -75 -36 -146q-38 -74 -84 -129t-101 -55zM20 743q-21 0 -36 15q-17 17 -17 33v4q0 19 13 39q13 16 26 16q26 -3 39 -16q12 -15 12 -41q0 -50 -37 -50zM139 741q-23 3 -37 17q-16 13 -16 33v2q0 20 12 38q14 17 27 17q22 0 39 -17q12 -15 12 -40q0 -50 -37 -50z" />
    <glyph glyph-name="oslash" unicode="&#xf8;" horiz-adv-x="389" 
d="M-23 295q62 78 95 160l4 12q0 7 -8 10l-39 17l-4 2q-2 0 -2 -2l-5 -5q-41 -90 -41 -182v-12zM-35 164q-28 0 -53 14q-34 15 -43 43q-12 27 -12 58v14q9 151 73 285q11 22 23 34q9 9 22 9q4 0 19 -5q8 -2 26 -2q13 0 19 2q24 7 41 7q66 0 100 -76q6 -27 6 -53
q0 -75 -36 -146q-38 -74 -84 -129t-101 -55z" />
    <glyph glyph-name="ugrave" unicode="&#xf9;" horiz-adv-x="755" 
d="M41 205h-6q-83 3 -98 84q-7 40 -7 69q0 84 21 166q16 90 26 135q8 32 31 48q20 14 47 14q32 0 54 -14q22 -16 22 -41q0 -16 -10 -33q-12 -35 -21 -86q-5 -30 -14 -103q-2 -17 -5.5 -42t-4.5 -33l43 63q9 13 10 17q54 83 102 135q39 39 84 39q25 0 54 -13q43 -18 43 -63
v-41q0 -62 12 -123q6 -51 25 -51q13 0 43 24q91 68 192 166q29 29 64 29q17 0 32 -6q27 -12 27 -31q0 -10 -12 -25q-116 -137 -265 -231q-47 -29 -92 -29h-10q-88 9 -123 95q-14 37 -20 92q-19 -27 -43 -58q-28 -45 -60 -77q-25 -32 -61 -54t-80 -22zM326 748q-12 -3 -25 -3
q-38 0 -61 33q-6 12 -9 27q-2 8 -10 24q-17 44 -45 89q-8 12 -10 20v4q0 7 6 16q5 9 8 11q1 1 4 2t4 2q4 2 13 2q8 0 12 -2q47 -3 74 -47q32 -48 51 -121l4 -12q4 -12 4 -21q0 -15 -20 -24z" />
    <glyph glyph-name="uacute" unicode="&#xfa;" horiz-adv-x="755" 
d="M41 205h-6q-83 3 -98 84q-7 40 -7 69q0 84 21 166q16 90 26 135q8 32 31 48q20 14 47 14q32 0 54 -14q22 -16 22 -41q0 -16 -10 -33q-12 -35 -21 -86q-5 -30 -14 -103q-2 -17 -5.5 -42t-4.5 -33l43 63q9 13 10 17q54 83 102 135q39 39 84 39q25 0 54 -13q43 -18 43 -63
v-41q0 -62 12 -123q6 -51 25 -51q13 0 43 24q91 68 192 166q29 29 64 29q17 0 32 -6q27 -12 27 -31q0 -10 -12 -25q-116 -137 -265 -231q-47 -29 -92 -29h-10q-88 9 -123 95q-14 37 -20 92q-19 -27 -43 -58q-28 -45 -60 -77q-25 -32 -61 -54t-80 -22zM186 748q-20 9 -20 24
q0 9 4 21l4 12q19 73 51 121q27 44 74 47q4 2 12 2q9 0 13 -2q1 -1 4.5 -2t5.5 -2q1 -1 6 -11q6 -9 6 -16v-4q-2 -8 -10 -20q-28 -45 -45 -89q-8 -16 -10 -24q-3 -15 -9 -27q-23 -33 -61 -33q-13 0 -25 3z" />
    <glyph glyph-name="ucircumflex" unicode="&#xfb;" horiz-adv-x="755" 
d="M41 205h-6q-83 3 -98 84q-7 40 -7 69q0 84 21 166q16 90 26 135q8 32 31 48q20 14 47 14q32 0 54 -14q22 -16 22 -41q0 -16 -10 -33q-12 -35 -21 -86q-5 -30 -14 -103q-2 -17 -5.5 -42t-4.5 -33l43 63q9 13 10 17q54 83 102 135q39 39 84 39q25 0 54 -13q43 -18 43 -63
v-41q0 -62 12 -123q6 -51 25 -51q13 0 43 24q91 68 192 166q29 29 64 29q17 0 32 -6q27 -12 27 -31q0 -10 -12 -25q-116 -137 -265 -231q-47 -29 -92 -29h-10q-88 9 -123 95q-14 37 -20 92q-19 -27 -43 -58q-28 -45 -60 -77q-25 -32 -61 -54t-80 -22zM344 754q-6 0 -18 4
q-33 20 -54 55q-9 15 -18 33l-6 12q-34 -34 -53 -65l-9 -11q-8 -14 -26 -14q-13 0 -19 2q-37 18 -37 47q0 16 15 37q25 32 67 70q7 7 21.5 22.5t21.5 22.5q8 8 19 8t20 -6q39 -17 45 -58q9 -62 47 -116q9 -9 9 -21q0 -6 -7 -16q-9 -6 -18 -6z" />
    <glyph glyph-name="udieresis" unicode="&#xfc;" horiz-adv-x="755" 
d="M41 205h-6q-83 3 -98 84q-7 40 -7 69q0 84 21 166q16 90 26 135q8 32 31 48q20 14 47 14q32 0 54 -14q22 -16 22 -41q0 -16 -10 -33q-12 -35 -21 -86q-5 -30 -14 -103q-2 -17 -5.5 -42t-4.5 -33l43 63q9 13 10 17q54 83 102 135q39 39 84 39q25 0 54 -13q43 -18 43 -63
v-41q0 -62 12 -123q6 -51 25 -51q13 0 43 24q91 68 192 166q29 29 64 29q17 0 32 -6q27 -12 27 -31q0 -10 -12 -25q-116 -137 -265 -231q-47 -29 -92 -29h-10q-88 9 -123 95q-14 37 -20 92q-19 -27 -43 -58q-28 -45 -60 -77q-25 -32 -61 -54t-80 -22zM188 803q-22 0 -36 14
q-17 17 -17 33v4q0 21 12 39q13 16 27 16q26 -3 39 -16q12 -15 12 -41q0 -49 -37 -49zM307 801q-25 3 -37 16q-16 13 -16 33v2q0 21 12 39q13 16 27 16q23 0 39 -16q12 -15 12 -41q0 -49 -37 -49z" />
    <glyph glyph-name="yacute" unicode="&#xfd;" horiz-adv-x="694" 
d="M-260 -768q8 0 22 14q36 31 66 82q62 110 98 234q41 141 60 243l4 17l-8 4q-9 -15 -29.5 -42t-24.5 -32q-27 -36 -37 -51q-111 -147 -165 -332q-11 -42 -11 -65q0 -24 6 -45q6 -27 19 -27zM-262 -868q-137 0 -158 143l-2 37q0 116 51 221q108 237 281 434l104 127
q13 76 13 174q1 17 2 50.5t2 48.5l-58 -88q-18 -27 -39 -48t-55 -30l-31 -4q-85 0 -112 102q-4 54 -4 78q0 112 32 207q20 57 66 57q27 0 57 -23q21 -15 21 -36l-2 -15q-21 -89 -21 -184l33 45l55 80q11 14 27 41q40 49 88 49q36 0 72 -31q32 -32 35 -78v-182q12 4 16 8
q5 5 8 11q2 0 2 2l23 22q100 109 219 191q21 12 43 12q34 0 63 -29q13 -16 13 -26q0 -14 -19 -27q-55 -44 -123 -109q-91 -84 -153 -157q-73 -81 -94 -135q-15 -43 -21 -97q-27 -319 -168 -612q-49 -100 -125 -170q-59 -59 -141 -59zM10 748q-20 9 -20 24q0 9 4 21l4 12
q19 73 51 121q27 44 74 47q4 2 12 2t12 -2q1 -1 5 -2t6 -2q1 -1 6 -11q6 -9 6 -16v-4q-2 -8 -10 -20q-28 -45 -45 -89q-10 -20 -11 -24q-4 -18 -8 -27q-23 -33 -61 -33q-13 0 -25 3z" />
    <glyph glyph-name="thorn" unicode="&#xfe;" horiz-adv-x="735" 
d="M211 492l12 20q59 96 248 412q58 92 102 219q18 49 23 84v6q0 14 -10 14l-13 -4q-49 -23 -102 -72q-100 -100 -156 -239q-92 -210 -104 -440zM158 -244q-17 0 -35 6q-9 3 -19 13q-8 5 -8 20q-2 33 -10 113q-12 86 -12 174v16q0 53 2 80v21q-4 12 -10 18q-9 9 -9 21
q0 13 9 22q16 26 16 55l4 78q6 202 45 387q51 232 201 426q75 99 192 137q25 7 43 7q60 0 101 -41q42 -45 45 -111v-16q0 -56 -15 -109q-9 -31 -39 -102q-88 -200 -204 -369l-47 -76q-79 -129 -205 -303q-10 -10 -10 -26v-125q0 -124 12 -250l2 -15q-6 -51 -49 -51z" />
    <glyph glyph-name="ydieresis" unicode="&#xff;" horiz-adv-x="694" 
d="M-260 -768q8 0 22 14q36 31 66 82q62 110 98 234q41 141 60 243l4 17l-8 4q-9 -15 -29.5 -42t-24.5 -32q-27 -36 -37 -51q-111 -147 -165 -332q-11 -42 -11 -65q0 -24 6 -45q6 -27 19 -27zM-262 -868q-137 0 -158 143l-2 37q0 116 51 221q108 237 281 434l104 127
q13 76 13 174q1 17 2 50.5t2 48.5l-58 -88q-18 -27 -39 -48t-55 -30l-31 -4q-85 0 -112 102q-4 54 -4 78q0 112 32 207q20 57 66 57q27 0 57 -23q21 -15 21 -36l-2 -15q-21 -89 -21 -184l33 45l55 80q11 14 27 41q40 49 88 49q36 0 72 -31q32 -32 35 -78v-182q12 4 16 8
q5 5 8 11q2 0 2 2l23 22q100 109 219 191q21 12 43 12q34 0 63 -29q13 -16 13 -26q0 -14 -19 -27q-55 -44 -123 -109q-91 -84 -153 -157q-73 -81 -94 -135q-15 -43 -21 -97q-27 -319 -168 -612q-49 -100 -125 -170q-59 -59 -141 -59zM-41 739q-22 0 -37 15q-16 16 -16 32v5
q0 20 12 38q14 17 27 17q25 -3 39 -17q12 -15 12 -41q0 -49 -37 -49zM78 737q-23 3 -37 17q-16 13 -16 32v2q0 21 12 39q14 17 26 17q22 0 39 -17q13 -16 13 -41q0 -49 -37 -49z" />
    <glyph glyph-name="dotlessi" unicode="&#x131;" horiz-adv-x="403" 
d="M162 -244h-15q-55 0 -61 54q-4 78 -4 112v115q14 322 43 698q16 226 65 418q6 20 19 59q18 52 27 105q3 15 18 24q12 9 29 9q33 0 67 -27q33 -26 33 -70v-6q-14 -147 -43 -321q-32 -187 -49 -348q-4 -39 -12 -121q-17 -156 -25 -271l-6 -86q-15 -138 -15 -274v-4
q0 -57 -71 -66z" />
    <glyph glyph-name="Ydieresis" unicode="&#x178;" horiz-adv-x="1280" 
d="M629 -672q-18 0 -39 6q-42 12 -51 56v8q0 35 36 49l17 8q83 21 178 301q97 284 166 629q70 347 70 547q0 56 -11 106q-12 39 -34 39q-12 0 -27 -12q-38 -46 -143 -182q-68 -90 -146 -185q-52 -67 -113 -123q-66 -63 -157 -63h-21q-110 15 -157 117q-45 105 -45 223l-2 61
q0 251 81 484q30 77 66 108t70 31q44 0 79 -41t35 -84q0 -14 -6 -29q-32 -89 -45 -196l-12 -66q-25 -131 -25 -256l2 -63q0 -47 17 -113l49 72q121 189 282 370q77 86 175 150q46 27 96 27q46 0 100 -31q57 -35 72 -100q35 -122 35 -250l-2 -56q-12 -355 -105 -731
q-89 -363 -293 -674q-47 -77 -125 -120q-39 -17 -67 -17zM852 1466q-31 3 -51 23q-23 20 -23 45v4q0 28 19 53q16 25 37 25q31 -3 53 -25q18 -21 18 -55q0 -70 -53 -70zM686 1468q-31 3 -51 23q-23 20 -23 45v4q0 28 19 53q16 25 37 25q31 -3 53 -25q18 -21 18 -55
q0 -70 -53 -70z" />
    <glyph glyph-name="circumflex" unicode="&#x2c6;" horiz-adv-x="559" 
d="M203 1071q-17 0 -37 14q-31 22 -31 45q0 14 10 31q54 85 125 150q16 16 39 16h4q50 -3 80 -43q50 -61 117 -119q29 -29 29 -49q0 -9 -7 -16q-13 -10 -22 -10q-20 0 -39 16q-2 0 -4 2q-64 42 -113 94q-10 10 -16 10t-16 -10q-39 -47 -82 -106q-16 -25 -37 -25z" />
    <glyph glyph-name="caron" unicode="&#x2c7;" horiz-adv-x="495" 
d="M252 1057q-20 0 -39 16q-81 71 -131 156q-8 11 -8 24q0 28 32 47q18 15 35 15q19 0 35 -23q2 -2 10.5 -12t12.5 -16q34 -46 63 -80q10 -10 17 -10q6 0 14 8l94 84q19 17 53 28l11 2q10 0 20 -10q8 -8 8 -16l-6 -19q-7 -14 -27 -34q-61 -49 -110 -113q-35 -41 -84 -47z
" />
    <glyph glyph-name="uni02C9" unicode="&#x2c9;" horiz-adv-x="464" 
d="M137 1188h-4q-45 0 -51 53v12q0 44 43 50l55 4l94 -7h129q30 0 46 -28q6 -15 6 -33t-9 -33q-5 -7 -14 -10q-6 -2 -20 -2h-201q-17 0 -49 -4q-17 0 -25 -2z" />
    <glyph glyph-name="breve" unicode="&#x2d8;" horiz-adv-x="581" 
d="M141 1106h-8q-40 9 -55 49l-4 19q0 20 18 38q95 103 215 115q104 0 162 -55q49 -43 86 -98l3 -6q4 -5 5 -9q2 -6 2 -16q0 -13 -8 -21t-20 -8q-8 0 -17 6q-9 3 -16 10q-41 37 -60 58q-36 39 -82 39q-21 0 -40 -8q-96 -20 -160 -103q-10 -10 -21 -10z" />
    <glyph glyph-name="dotaccent" unicode="&#x2d9;" horiz-adv-x="264" 
d="M242 1196q-27 3 -49 25q-26 23 -29 47v8q3 33 35 33q24 0 51 -27q24 -27 24 -55v-2q-3 -29 -32 -29z" />
    <glyph glyph-name="ring" unicode="&#x2da;" horiz-adv-x="380" 
d="M248 1067q24 41 24 86q0 24 -6 45q-20 -50 -20 -104zM256 944q-18 0 -39 6q-61 21 -70 88q-2 6 -2 19q0 12 -2 16q3 113 39 203q5 13 23 24q15 9 37 9l14 -2q47 -12 82 -47q34 -34 43 -84q4 -28 4 -46q0 -82 -55 -149q-34 -37 -74 -37z" />
    <glyph glyph-name="ogonek" unicode="&#x2db;" horiz-adv-x="333" 
d="M295 358q-61 0 -96 66q-19 62 -19 121v33q0 15 6 30q3 12 23 19q16 4 22 4q33 0 54 -27q18 -15 18 -41q0 -6 -4 -22q-10 -30 -10 -52v-4q0 -17 6 -32q7 -17 31 -23q16 -4 22 -10q8 -8 8 -21v-4q-3 -14 -12 -20q-10 -10 -22 -13q-20 -4 -27 -4z" />
    <glyph glyph-name="tilde" unicode="&#x2dc;" horiz-adv-x="565" 
d="M129 1153h-4q-41 9 -55 47l-4 21q0 21 18 36q62 56 139 56q24 0 62 -10q44 -15 88 -15q51 0 104 21l17 4q28 0 49 -41q6 -12 6 -23q0 -22 -29 -35q-61 -22 -123 -22q-52 0 -108 16q-21 6 -41 6q-54 0 -98 -47q-1 -2 -9 -10q-8 -4 -12 -4z" />
    <glyph glyph-name="hungarumlaut" unicode="&#x2dd;" 
d="M104 1073q-17 0 -23.5 11.5t-6.5 39.5q0 52 20 133q10 32 30 47t56 21q12 0 21.5 -10t9.5 -21q-5 -24 -17.5 -65.5t-15.5 -87.5q-1 -26 -22.5 -47t-44.5 -21h-7zM236 1073q-13 2 -19 9t-7 13.5t-1 18.5v12q3 77 22 131q15 46 60 62q12 6 24 6q13 0 21 -10q10 -7 10 -19
q0 -5 -3 -12.5t-3 -9.5q-18 -56 -23 -96q-2 -8 -3 -26.5t-3 -27.5q-15 -51 -75 -51z" />
    <glyph glyph-name="quoteleft" unicode="&#x2018;" 
d="M221 1307h4q25 0 47 -21t23 -47q2 -35 6.5 -56.5t12 -46t12.5 -51.5q0 -12 -9.5 -21t-21.5 -9q-37 6 -56 21t-28 46q-19 69 -23 131q0 54 33 54z" />
    <glyph glyph-name="quoteright" unicode="&#x2019;" 
d="M295 1307q17 0 24 -12.5t7 -41.5q0 -56 -21 -131q-10 -31 -30 -46t-56 -21q-12 0 -21.5 9t-9.5 21q4 23 17 65.5t16 88.5q1 26 22.5 47t45.5 21h6z" />
    <glyph glyph-name="quotesinglbase" unicode="&#x201a;" 
d="M295 672q17 0 24 -12.5t7 -41.5q0 -56 -21 -131q-10 -31 -30 -46t-56 -21q-12 0 -21.5 9.5t-9.5 21.5q5 24 17.5 65.5t15.5 87.5q1 26 22.5 47t45.5 21h6z" />
    <glyph glyph-name="quotedblleft" unicode="&#x201c;" 
d="M104 1325h7q23 0 44.5 -21t22.5 -47q3 -46 15.5 -87.5t17.5 -65.5q0 -12 -9.5 -21.5t-21.5 -9.5q-36 6 -56 21t-30 47q-20 81 -20 131q0 30 6.5 41.5t23.5 11.5zM236 1325q60 0 75 -51q2 -9 3 -27t3 -26q5 -41 23 -97q0 -2 3 -9.5t3 -12.5q0 -12 -10 -19q-8 -10 -21 -10
q-12 0 -24 6q-45 16 -60 62q-19 54 -22 131v12q0 12 1 18t7 13t19 10z" />
    <glyph glyph-name="quotedblright" unicode="&#x201d;" 
d="M315 1325q17 0 24 -12t7 -41q0 -60 -20 -131q-10 -32 -30 -47t-56 -21q-12 0 -21.5 9.5t-9.5 21.5q5 24 17.5 65.5t15.5 87.5q1 26 22.5 47t44.5 21h6zM184 1325q13 -3 19 -10t7 -13t1 -18v-12q-3 -73 -23 -131q-15 -47 -59 -62q-12 -6 -25 -6q-12 0 -20 10q-10 7 -10 19
q0 5 3 12.5t3 9.5q16 51 22 97q2 8 3.5 26t3.5 27q15 51 75 51z" />
    <glyph glyph-name="quotedblbase" unicode="&#x201e;" 
d="M315 629q17 0 24 -12.5t7 -41.5q0 -60 -20 -131q-10 -31 -30 -46t-56 -21q-12 0 -21.5 9.5t-9.5 21.5q5 24 17.5 65.5t15.5 87.5q1 26 22.5 47t44.5 21h6zM184 629q13 -3 19 -10t7 -13t1 -18v-13q-3 -73 -23 -131q-15 -46 -59 -61q-12 -6 -25 -6q-12 0 -20 10
q-10 7 -10 19q0 5 3 12.5t3 9.5q17 51 22 96q2 8 3.5 26.5t3.5 27.5q15 51 75 51z" />
    <glyph glyph-name="dagger" unicode="&#x2020;" horiz-adv-x="681" 
d="M283 -260q-16 0 -31 6q-16 10 -19 21q-4 16 -6 26v4q-8 185 -10 273v278h-8q-2 27 -2 82q-8 117 -8 264q0 92 6 180l10 111q0 10 -2 12t-6 2h-8q-26 -4 -74 -8l-37 -4h-6q-27 0 -43 23q-19 22 -19 47l3 16q13 30 40 33q76 24 138 29q14 3 22 8q5 5 8 22l19 125
q9 48 57 51h15q92 -3 92 -96l-4 -67l-2 -11q0 -12 16 -12h55q55 0 123 -10q31 -7 45 -27q15 -21 15 -49v-12q-3 -33 -35 -33h-11q-36 8 -79 8q-26 0 -72 -4q-16 -2 -49 -2q-6 0 -10 -4q-5 -5 -5 -12v-6q-4 -36 -4 -58q-3 -192 -12 -383q-6 -127 -10 -381q0 -122 -4 -372
q-3 -37 -31 -52q-27 -18 -57 -18z" />
    <glyph glyph-name="daggerdbl" unicode="&#x2021;" horiz-adv-x="759" 
d="M369 -268q-18 0 -33 6q-19 8 -23 33q-2 23 -2 65q0 21 -2 27q-3 6 -12 6l-111 -10q-51 0 -63 55l-2 14q0 34 43 49q52 21 108 21q20 0 25 8q6 6 6 25q-12 310 -18 610l-2 59q0 130 16 271v6q0 10 -2 12q-4 4 -8 4l-10 -2q-50 -9 -101 -12h-6q-54 0 -66 57v15q0 20 13 30
q10 10 37 19q61 20 127 26q34 0 34 29v4q5 51 19 123q6 45 51 51l19 2q92 -9 92 -96q0 -22 -4 -68v-10q0 -14 16 -14h57q54 0 119 -10q59 -15 59 -74v-10q-3 -39 -32 -39l-15 2q-41 6 -80 6q-48 0 -71 -2q-14 -2 -45 -2q-9 0 -13 -4q-4 -8 -4 -13v-6q-6 -62 -6 -125v-30
q0 -64 -2 -97l-6 -141q-9 -144 -12 -285v-290q0 -15 6 -21q3 -6 18 -6q49 -3 107 -16q58 -15 61 -78v-4q0 -37 -30 -37l-17 2q-44 8 -98 8q-8 2 -25 2h-8q-16 0 -16 -20l-2 -56v-4q0 -33 -29 -49t-57 -16z" />
    <glyph glyph-name="bullet" unicode="&#x2022;" horiz-adv-x="456" 
d="M285 334q-69 0 -115 82q-23 57 -23 104q0 53 25 111q1 3 4 9t4 9q16 22 19 49q4 12 12 17q44 29 88 35h10q41 0 68 -35q66 -72 69 -170q-3 -98 -67 -168q-46 -43 -94 -43z" />
    <glyph glyph-name="guilsinglleft" unicode="&#x2039;" horiz-adv-x="761" 
d="M684 231q-11 0 -25 7l-65 24q-63 20 -131 49q-66 26 -101 37q-70 23 -161 64q-73 30 -107 100q-8 19 -8 39q0 38 41 59q13 5 39 23q227 130 463 223q12 4 18 4q16 0 31 -12q44 -30 47 -82v-12q0 -34 -39 -43h-6q-1 -1 -4 -3t-4 -3q-144 -87 -301 -156l-70 -33l-14 -8
q28 -13 221 -96l82 -37l69 -35q35 -15 50 -53q6 -12 6 -25q0 -12 -10 -22q-9 -9 -21 -9z" />
    <glyph glyph-name="guilsinglright" unicode="&#x203a;" horiz-adv-x="761" 
d="M127 231q-12 0 -21 9q-10 10 -10 22q0 13 6 25q15 38 50 53l69 35l82 37q193 83 221 96l-14 8l-70 33q-157 69 -301 156q-1 1 -4 3t-4 3h-6q-39 9 -39 43v12q3 52 47 82q15 12 31 12q6 0 18 -4q236 -93 463 -223q26 -18 39 -23q41 -21 41 -59q0 -20 -8 -39
q-34 -70 -107 -100q-91 -41 -161 -64q-35 -11 -101 -37q-68 -29 -131 -49l-65 -24q-14 -7 -25 -7z" />
    <glyph glyph-name="franc" unicode="&#x20a3;" horiz-adv-x="1140" 
d="M289 -276l-15 2q-30 6 -30 38l-2 136q0 20 -11 20q-8 0 -14 -2q-18 -6 -35 -6q-50 0 -59 65l-2 13q0 27 24 45q-37 22 -45 57l-2 19q0 37 39 51q11 4 24 6.5t31 4.5t25 3q19 0 19 19l-5 178q0 10 -8 10l-26 -2q-29 0 -48 19t-22 53v6q0 27 25 43q24 15 53 18
q18 1 25.5 10.5t9.5 28.5q16 308 63 588v14q-13 -5 -36.5 -10.5t-40.5 -12t-31 -16.5q-8 -8 -23 -8q-11 0 -20 6q-44 22 -50 76v10q0 40 35 58q59 39 176 65q25 7 39 21q13 16 37 16q16 0 31 -6q18 -6 37 -6l30 2q200 16 301 16q116 0 195 -12q53 -10 92 -31q41 -24 41 -76
q0 -20 -8 -36q-10 -21 -27 -21q-10 0 -14 2q-76 31 -188 31l-76 -2q-138 -6 -297 -25q-15 -1 -21 -7.5t-8 -20.5q-2 -16 -21.5 -150t-27.5 -205q-6 -46 -12.5 -130.5t-9.5 -113.5v-6q0 -12 12 -12h10q40 6 80 6q30 0 65 -6q26 -6 42 -25.5t16 -44.5v-8q0 -30 -25 -30h-8
q-16 2 -45 2q-36 0 -129 -13q-18 -1 -24.5 -9t-6.5 -26q-2 -62 -10 -196v-6q0 -17 20 -17q76 0 113 -12q50 -14 53 -68v-10q0 -31 -26 -31l-17 3q-30 6 -63 6l-76 -2q-8 0 -8 -9q2 -6 12 -6h6q57 0 84 -2q47 -3 60 -49l4 -24q0 -35 -49 -35h-86q-21 0 -30 -8t-9 -29v-31
q0 -30 -4 -84q-4 -30 -27 -49.5t-51 -19.5z" />
    <glyph glyph-name="lira" unicode="&#x20a4;" horiz-adv-x="954" 
d="M274 -254h-41q-43 0 -98 10q-27 6 -51 23q-43 24 -43 63q0 19 12 43q18 40 56 88q122 162 213 336l2 4q2 1 6 15h-8q-19 0 -27 -2q-2 -2 -10 -2h-9q-42 0 -57 51l-2 20q0 40 43 49q44 11 76 13q16 0 24 2q13 0 19 2q14 3 14 14q0 4 -2 6t-4 2l-127 -18h-10q-47 0 -62 51
l-2 21q0 39 45 51q46 15 97 18q18 0 45 6q-17 17 -37 33q-73 59 -109 135q-34 69 -34 146q0 126 77 241q100 166 291 213q34 6 64 6q119 0 198 -79q80 -83 80 -201q0 -38 -8 -74q-19 -76 -51 -135q-14 -33 -41 -33q-18 0 -31 8q-43 18 -43 54q0 12 2 18q29 89 29 166l-4 84
q-3 77 -80 80h-19q-52 0 -108 -29q-203 -113 -230 -336l-2 -30q0 -78 58 -142q31 -31 47 -45q39 -34 63 -67q3 -7 11 -7q4 -2 12 -2h8q32 0 102 -4q44 -5 99 -22q49 -24 49 -74v-10q-3 -37 -31 -37l-18 4q-74 19 -139 19h-37q-3 0 -6 -3q-5 -5 -5 -10v-4q0 -5 5 -10
q2 -2 8 -2l88 -10q20 -3 37 -23q14 -20 14 -45q0 -15 -6 -27q-10 -16 -29 -16h-8q-62 4 -92 4h-35q-10 0 -12 -2q-9 -5 -11 -10q-112 -225 -247 -404q-27 -35 -43 -61q-14 -19 -19 -27q78 0 109 2l102 4q172 7 293 7q32 0 61 -19q15 -10 17 -12q6 -9 6 -21v-6
q-3 -15 -12 -18l-25 -6q-73 -6 -139 -9z" />
    <glyph glyph-name="Euro" unicode="&#x20ac;" horiz-adv-x="1132" 
d="M666 -236q-41 0 -105 11q-130 27 -209 135q-109 155 -127 340q0 8 -2 14q-4 20 -4 31v10q0 19 -14 19l-21 -5q-28 -4 -37 -4q-56 0 -71 62q-2 6 -2 20q0 33 39 47q59 19 88 25q20 3 20 18v7q-3 6 -8 6q-6 0 -8 -2t-8 -2l-9 -4q-2 -2 -12 -5q-18 -6 -33 -6q-36 0 -51 47
q-6 18 -6 33q0 40 45 57q41 16 74 19q25 3 35 16q9 12 12 33q62 274 246 485q104 131 254 177q45 10 82 10q83 0 145 -39q65 -41 94 -109q23 -58 23 -106q0 -50 -17 -109q-14 -52 -47 -131q-14 -33 -47 -33l-14 3q-25 4 -39 12q-20 10 -29 31l-2 8q0 18 12 33q4 4 7 10
q34 69 34 143q0 45 -12 88q-21 90 -74 90q-28 0 -77 -22q-55 -24 -101 -70q-97 -94 -158 -219q-60 -123 -94 -256l107 6q29 0 49 -20q18 -21 18 -47q0 -9 -4 -25q-3 -14 -14 -18q-10 -7 -25 -7l-131 -18q-28 -6 -28 -33v-12q3 -8 10 -8l10 2l16 2q28 0 48 -23q19 -22 22 -55
v-6q0 -35 -37 -41l-33 -6q-21 -3 -30 -6q-8 -3 -8 -19l2 -18q12 -136 63 -252q28 -71 90 -133q74 -68 164 -68l43 4q49 8 84 56q31 39 43 75q12 23 37 39q21 15 49 15h12q37 -6 37 -33l-4 -21q-69 -208 -293 -243q-57 -5 -69 -5z" />
    <glyph glyph-name="partialdiff" unicode="&#x2202;" horiz-adv-x="1069" 
d="M211 -139l20 4q43 13 88 43q91 66 154 147q135 154 227 324l-22 -12q-123 -73 -240 -156q-109 -75 -192 -184q-40 -57 -49 -133v-15q0 -18 14 -18zM248 -240q-62 0 -105 43q-46 40 -49 111v10q0 68 31 135q74 157 219 252q212 156 457 258q12 5 22 21q49 99 74 192
q27 95 27 203q0 41 -11 102q-21 109 -114 109l-39 -4q-143 -29 -258 -127q-108 -89 -191 -197q-49 -69 -75 -141q-9 -31 -29 -31q-10 0 -25 9q-43 27 -43 71q0 17 2 23q126 375 504 495q56 17 96 17q98 0 168 -64q75 -68 101 -180q15 -67 18 -152q-9 -173 -80 -350
q-163 -398 -479 -696q-76 -73 -174 -102q-28 -7 -47 -7z" />
    <glyph glyph-name="Delta" unicode="&#x2206;" horiz-adv-x="1132" 
d="M248 -133q316 27 631 27q10 0 18 4q4 4 4 10v8q-12 132 -16 195l-4 110q-3 141 -17 262l-12 123q-24 229 -29 406l-8 123l-6 2l-25 -35q-111 -173 -229 -404q-204 -385 -319 -809l-7 -18q0 -4 11 -4h8zM172 -264q-37 0 -51 39q-4 10 -8 30q-4 29 -17 48q-2 2 -2 4v4
q0 2 4 14q2 6 6 14q86 373 248 711q151 321 373 653l12 19q13 19 33 35q14 14 43 14l14 -2q70 -12 95 -84q11 -44 14 -102v-3q19 -354 61 -686q9 -56 15 -118q21 -190 30 -385v-86q0 -23 -8 -31q-10 -13 -26 -23q-25 -14 -54 -14l-43 2q-195 -3 -395 -18q-11 -1 -32 -2
t-31 -2q-45 -3 -195 -17q-22 -2 -61 -10z" />
    <glyph glyph-name="product" unicode="&#x220f;" horiz-adv-x="790" 
d="M205 -283q-44 0 -53 39q-5 62 -5 70v215q0 149 17 344q12 139 37 342l16 147q2 31 10 93q13 114 21 200q3 95 94 107q59 12 121 12l51 -2q70 -2 215 -10h10q33 0 62 -19q28 -19 28 -51v-8q-17 -106 -38 -184l-25 -105q-62 -312 -82 -590q-14 -216 -43 -475
q-3 -27 -27 -41q-20 -14 -47 -14q-20 0 -37 10q-14 11 -14 31v6q12 314 47 637q48 369 150 707l4 16v2q0 12 -27 12h-149q-63 0 -127 -6q-35 -3 -41 -39q-29 -117 -37 -227q-17 -141 -33 -305q-9 -75 -12 -156l-6 -80q-12 -147 -21 -301q-4 -110 -4 -162l2 -163
q0 -44 -41 -50z" />
    <glyph glyph-name="summation" unicode="&#x2211;" horiz-adv-x="1085" 
d="M506 -246l-53 2q-190 12 -318 158q-65 80 -65 172q0 54 18 109q46 143 148 254q199 224 460 382q5 3 14.5 9.5t14.5 9.5q42 28 57 37q-19 12 -34 14q-7 0 -9 2l-45 12q-91 21 -184 56q-67 23 -119 84q-22 36 -22 61q0 43 45 72q116 72 241 98q76 21 158 21q78 0 164 -25
q60 -15 88 -72q6 -12 6 -22q0 -13 -8 -21t-19 -8t-20 6q-70 37 -141 37q-43 0 -86 -6q-144 -18 -271 -86l-24 -14l-2 -2l-3 -4q-3 -4 -5 -5q79 -32 170 -55l45 -12q20 -8 30 -10q46 -14 113 -41q52 -21 76 -68q8 -13 8 -31q0 -22 -21 -43q-40 -36 -67 -51q-4 -1 -9 -4.5
t-6 -3.5q-249 -144 -442 -352q-97 -103 -153 -242q-21 -56 -21 -102q0 -103 76 -158q75 -57 164 -57h4q194 0 389 59q21 6 39 6q29 0 49 -14l18 -12q9 -9 9 -21v-4q0 -15 -9 -21q-8 -8 -20 -12q-89 -39 -195 -55q-117 -27 -233 -27z" />
    <glyph glyph-name="minus" unicode="&#x2212;" horiz-adv-x="860" 
d="M178 471h-4q-20 0 -35 18q-17 17 -20 43v7q0 40 43 43q123 18 246 24q24 0 38 2h86q19 0 29 2q78 4 117 4q46 0 96 -6q76 -12 76 -76v-4q-3 -36 -35 -36h-6q-58 6 -119 6q-88 0 -176 -9q-33 0 -51 -2q-11 0 -17 -2q-86 -6 -268 -14z" />
    <glyph glyph-name="radical" unicode="&#x221a;" horiz-adv-x="845" 
d="M467 -240q-49 0 -86 37q-39 47 -57 107q-67 226 -93 448q-1 8 -2 24t-2 23q0 70 -20 131l-2 11q0 22 33 28h8q55 0 78 -63q15 -66 24 -139l8 -62q27 -188 74 -371l19 -53q40 81 43 170q10 168 53 803q9 160 43 307l12 43q21 64 62 88q42 25 88 25q34 0 61 -8
q23 -3 39 -25q12 -9 12 -22l-2 -11q-3 -9 -12 -12q-6 -2 -21 -2l-16 2q-8 2 -25 2q-52 0 -73 -55q-30 -88 -39 -182q-35 -294 -45 -625q-6 -257 -51 -494q-6 -32 -21 -61q-15 -34 -39 -49t-51 -15z" />
    <glyph glyph-name="infinity" unicode="&#x221e;" horiz-adv-x="960" 
d="M217 485q102 18 174 84q18 12 21 15q-21 12 -47 12q-41 0 -86 -31q-44 -30 -62 -80zM725 514q71 0 127 59q14 14 14 23q0 12 -24 18q-26 11 -47 11t-50 -11q-77 -26 -141 -63q32 -20 68 -29q24 -8 53 -8zM268 389q-56 0 -100 41q-41 41 -41 88q0 29 14 57q29 56 82 91
q49 30 105 30q64 0 125 -43q15 -12 30 -12q14 0 31 10q101 67 225 82h15q104 0 170 -84q26 -36 26 -78q0 -60 -59 -110q-61 -40 -139 -43q-115 6 -207 71q-15 11 -21 11q-9 0 -20 -11q-9 -6 -17 -14q-27 -18 -49 -43q-13 -16 -26 -16l-11 2q-12 4 -18 4q-14 0 -31 -10
q-51 -23 -84 -23z" />
    <glyph glyph-name="integral" unicode="&#x222b;" horiz-adv-x="837" 
d="M438 -219q-57 0 -114 47q-83 70 -131 215q-74 218 -74 459v20q0 17 4 49q6 37 39 37h10q33 -3 51.5 -25.5t18.5 -56.5v-22q0 -304 100 -522q21 -46 51 -84q16 -19 21 -19q4 0 16 21q31 61 31 153l2 174l-2 344q0 265 31 447q20 142 92 237q13 23 30 37q36 33 78 33
q33 0 60 -21.5t39 -60.5q6 -20 10 -41.5t7.5 -54t4.5 -41.5l10 -113q0 -28 -26 -28l-13 2q-25 5 -41.5 24.5t-19.5 48.5l-12 129l-9 64q-5 -4 -10 -8.5t-8.5 -7.5t-8 -9t-6.5 -9t-6 -10.5t-5 -9t-5.5 -10.5t-5.5 -10q-55 -112 -65 -282q-7 -126 -7 -218q0 -77 15 -487l2 -59
q0 -108 -27 -213q-18 -60 -51.5 -89.5t-75.5 -29.5z" />
    </font>
</defs>
</svg>
