<svg xmlns="http://www.w3.org/2000/svg" width="197.47" height="109.257" viewBox="0 0 197.47 109.257">
  <path id="Path_113" data-name="Path 113" d="M113.972,437.714a2.454,2.454,0,0,0,4.527,1.9c.229-.552,23.831-55.628,76.94-76.844,31.455-12.564,66.928-10.9,105.505,4.907l-35.565,3.637a2.455,2.455,0,0,0,.5,4.885l43.168-4.416a2.454,2.454,0,0,0,1.927-3.576L292.7,333.178a2.449,2.449,0,0,0-.441-.6h0a2.454,2.454,0,0,0-3.912,2.871l14.439,27.668C263,346.815,226.293,345.15,193.624,358.2,138.624,380.178,114.211,437.141,113.972,437.714Z" transform="translate(-113.78 -331.859)" fill="#bfd5c2"/>
</svg>
