<svg xmlns="http://www.w3.org/2000/svg" width="104.98" height="141.03" viewBox="0 0 104.98 141.03">
  <path id="Path_115" data-name="Path 115" d="M.122,2.166A1.562,1.562,0,0,1,3,.959c.146.351,15.169,35.408,48.973,48.912,20.021,8,42.6,6.941,67.155-3.123L96.494,44.432a1.563,1.563,0,0,1,.317-3.109l27.477,2.811a1.562,1.562,0,0,1,1.227,2.276L113.881,68.7a1.558,1.558,0,0,1-.281.382h0a1.562,1.562,0,0,1-2.49-1.827L120.3,49.647c-25.324,10.376-48.685,11.436-69.48,3.126C15.813,38.788.274,2.53.122,2.166Z" transform="matrix(0.309, 0.951, -0.951, 0.309, 66.14, 0)" fill="#bfd5c2"/>
</svg>
