<svg xmlns="http://www.w3.org/2000/svg" width="180.712" height="171.841" viewBox="0 0 180.712 171.841">
  <path id="Path_125" data-name="Path 125" d="M.157,2.776A2,2,0,0,1,3.85,1.229c.187.45,19.443,45.384,62.772,62.694,25.663,10.25,54.6,8.9,86.077-4l-29.016-2.967a2,2,0,0,1,.406-3.985l35.219,3.6a2,2,0,0,1,1.572,2.917L145.969,88.062a2,2,0,0,1-.36.49h0a2,2,0,0,1-3.192-2.342L154.2,63.636c-32.459,13.3-62.4,14.658-89.056,4.007C20.269,49.717.352,3.243.157,2.776Z" transform="matrix(-0.766, 0.643, -0.643, -0.766, 180.712, 68.284)" fill="#bfd5c2"/>
</svg>
