<svg id="Capa_1" data-name="Capa 1" xmlns="http://www.w3.org/2000/svg" viewBox="0 0 685.9 181.88"><defs><style>.cls-1{fill:#3c3c3b;}.cls-2{fill:#c2d4c3;}.cls-3{fill:#3a3a3a;}</style></defs><path class="cls-1" d="M35.81,121.4v2.84H1.66V121.4c6.33-1.83,6.67-8.82,6.67-17.32V19.82C8.33,14,6.66,11.49,0,9V6.16L29.14,0V104.08C29.14,113.24,30,119.91,35.81,121.4Z"/><path class="cls-1" d="M220.65,86.43c0,26.81-17.66,39.3-41,39.3-7.66,0-14.66-1.83-19.82-5.16v28.81c0,9.33,1,27.85,6.83,29.35v2.83H132.55v-2.83c6.33-1.83,6.66-20.85,6.66-29.35V64.62c0-5.67-1.66-6.83-8.33-9.33V52.46l29-6.66V59.29c5.33-9.83,17.49-13.49,25.31-13.49C204,45.8,220.65,60.29,220.65,86.43Zm-23.82,1.5c0-26.81-6.33-36-19.82-36-10,0-16,8-17.15,18v30.47c1.5,17,11,22.48,19.49,22.48C191.5,122.9,196.83,113.24,196.83,87.93Z"/><path class="cls-1" d="M451,124.24H416.64V121.4c6.33-1.83,6.66-9,6.66-17.48V71.61c0-9.32-4.66-13.82-12.16-13.82C405,57.79,398,65.28,398,71.94v32c0,9.16.83,16,6.83,17.48v2.84H370.51V121.4c6.33-1.83,6.66-9,6.66-17.48V71.61c0-9.32-4.49-13.82-12-13.82-6.16,0-13.32,7.66-13.32,13.65v32.81c0,9.16,1,15.49,6.83,17.15v2.84H324.55V121.4c6.32-1.83,6.49-8.65,6.49-17.15V67.78c0-5.83-1.5-8.83-8.33-12.49V52.46l29.15-6.66V63c4.5-9.66,14.65-17.15,25.15-17.15,11.65,0,18.81,5.33,20.81,17.65,3.5-10.16,14.82-17.65,25.32-17.65,13,0,21,5.16,21,25.31v32.81c0,9.16.83,16,6.83,17.48Z"/><path class="cls-1" d="M533.87,84.27h-53c1.33,16.32,9.66,24.81,20.82,27.31,9,2,22.31-1.33,26.48-9.16l2.83,1.5c-2.67,8.66-12.49,21.81-34.81,21.81-21.81,0-36.8-20.15-36.8-39.63,0-23.48,16-40.3,39-40.3C522.55,45.8,533.87,58.29,533.87,84.27Zm-20.32-2.83c0-21-6.82-32.81-16-32.81-9.83,0-16.66,16.82-16.66,32.81Z"/><path class="cls-1" d="M595.48,108.08l2.5,1.5c-3.33,7.83-13.49,16.15-24.65,16.15-13.15,0-21-5.32-21-25.48V50.13H544l-.5-2.83h8.83V25l20.81-3.5V47.3H593l-.66,2.83H573.16V99.76c0,9.32,4,14.15,12.33,14.15A12.23,12.23,0,0,0,595.48,108.08Z"/><path class="cls-1" d="M683.07,112.75l2.83,1.16c-1.33,5.33-9,11.82-19.48,11.82,0,0-14.82,0-16.66-13.48-2.49,7.32-12.32,13.48-24.14,13.48,0,0-19.16,0-19.16-17,0-18.15,14-19.82,43.14-27.15V71.28c0-17.32-9.66-26-21.15-20-5.33,2.67-6,5.5-4.83,5.67a8.57,8.57,0,0,1,6.16,3.66,9.43,9.43,0,0,1-2.5,13.16,9.56,9.56,0,0,1-13.15-2.5,9.81,9.81,0,0,1-.5-10c1.66-2.84,3.83-7.33,13-12.16,7.49-4,16.15-3.33,16.15-3.33,21.82,0,27.81,13.65,27.81,33.3v24.82s-.17,11.66,8,11.66C678.57,115.58,682.07,115.58,683.07,112.75ZM649.6,84.6c-16.32,3.66-21.82,11.49-21.82,20,0,0,0,11,10.83,11,5.66,0,9.49-4.5,11-8.5Z"/><path class="cls-2" d="M244.69,18.59c-.05.41-1.07,10.25,3.4,16.7,4.68,6.76,12.59,6.18,12.92,6.15a1.38,1.38,0,0,0,1.15-.8c.14-.3,3.47-7.5-1.21-14.25-4.48-6.46-14-9-14.45-9.06a1.43,1.43,0,0,0-1.81,1.26Zm0,0"/><path class="cls-1" d="M268.86,122c-7-2.7-9.09-12-9.09-36.2,0-23.63,2-33,8.56-36l-2.15-3.2c-19.84,3.67-30.89,19.88-30.89,39.19S246.62,121.61,266.9,125Z"/><path class="cls-1" d="M285.36,47,283,50.63c5.35,3.73,6.91,13.43,6.91,35.14,0,22.75-1.71,32.31-7.71,35.63l2.28,3.38c19.42-4,30.07-20.11,30.07-39S304.22,51.2,285.36,47Z"/><path class="cls-1" d="M123.73,112.75c-1,2.83-4.49,2.83-4.49,2.83-8.16,0-8-11.66-8-11.66V79.1c0-19.65-6-33.3-27.81-33.3A34.81,34.81,0,0,0,72,47.2l1,2.6C82.72,47.46,90.26,56,90.26,71.28V81.6c-29.14,7.33-43.13,9-43.13,27.15,0,17,19.15,17,19.15,17,11.82,0,21.65-6.16,24.14-13.48,1.84,13.48,16.66,13.48,16.66,13.48,10.49,0,18.15-6.49,19.48-11.82Zm-33.47-5.67c-1.5,4-5.33,8.5-11,8.5-10.83,0-10.83-11-10.83-11,0-8.5,5.5-16.33,21.82-20Z"/><path class="cls-1" d="M67.94,73.78a9.43,9.43,0,0,0,2.5-13.16A8.57,8.57,0,0,0,64.28,57c-1.11-.16-.51-4.19,4.12-6.73l-1-1.16-.11.06C58.12,54,56,58.45,54.29,61.29a9.81,9.81,0,0,0,.5,10A9.56,9.56,0,0,0,67.94,73.78Z"/><path class="cls-3" d="M322.31,173.48a15.47,15.47,0,0,1-6.19-1.15,12,12,0,0,1-4.42-3.17,13.37,13.37,0,0,1-2.64-4.83,20.54,20.54,0,0,1-.88-6.17,19.15,19.15,0,0,1,.93-6.09,13.67,13.67,0,0,1,2.72-4.84,12.83,12.83,0,0,1,4.43-3.21,14.68,14.68,0,0,1,6.05-1.17,19.13,19.13,0,0,1,4.22.42,14.93,14.93,0,0,1,3.56,1.3l-1.18,3.74a14.34,14.34,0,0,0-6.34-1.41,8.82,8.82,0,0,0-7.15,2.95c-1.66,2-2.49,4.74-2.49,8.31s.82,6.32,2.47,8.3,4,3,7.17,3a15.34,15.34,0,0,0,3.26-.38,13.29,13.29,0,0,0,3.34-1.21l1.14,3.79a15.55,15.55,0,0,1-3.67,1.36A18.06,18.06,0,0,1,322.31,173.48Z"/><path class="cls-3" d="M343.82,155.13c.27-.44.57-.9.9-1.36a7,7,0,0,1,1.17-1.26,5.6,5.6,0,0,1,1.52-.9,4.89,4.89,0,0,1,1.91-.35,4.52,4.52,0,0,1,1.94.35,7.17,7.17,0,0,1,1.05.57l-1.14,4.4a4,4,0,0,0-2.68-.88,5.16,5.16,0,0,0-2.75.73,5,5,0,0,0-1.92,2.18V173h-4.66V151.74h4Z"/><path class="cls-3" d="M363.09,164.15a6.43,6.43,0,0,0,2.09,4.29,6.66,6.66,0,0,0,4.34,1.39,13.44,13.44,0,0,0,2.81-.31,12.4,12.4,0,0,0,2.69-.93l1.05,3.35a14.75,14.75,0,0,1-7,1.54,12.78,12.78,0,0,1-4.62-.77,8.65,8.65,0,0,1-3.3-2.23,9.45,9.45,0,0,1-2-3.53,15.18,15.18,0,0,1-.66-4.63A15.88,15.88,0,0,1,359,158a10.14,10.14,0,0,1,1.78-3.55,8.39,8.39,0,0,1,3.1-2.38,10.85,10.85,0,0,1,4.52-.86,10,10,0,0,1,3.8.67,7.75,7.75,0,0,1,2.76,1.85,7.52,7.52,0,0,1,1.67,2.87,11.61,11.61,0,0,1,.55,3.66,13,13,0,0,1-.16,2.08,14.37,14.37,0,0,1-.37,1.81Zm5.42-9.42a4.73,4.73,0,0,0-4,1.76,8.7,8.7,0,0,0-1.56,4.67h10v-.79a7.16,7.16,0,0,0-1-4.16A3.8,3.8,0,0,0,368.51,154.73Z"/><path class="cls-3" d="M384.7,167q0-3.81,2.55-5.55a12.26,12.26,0,0,1,6.95-1.73h3.7V159a3.91,3.91,0,0,0-1.15-3.13,4.69,4.69,0,0,0-3.21-1,12.94,12.94,0,0,0-3.43.44,14.46,14.46,0,0,0-3,1.19l-1.06-3.26a13.87,13.87,0,0,1,3.35-1.41,15.76,15.76,0,0,1,4.53-.61q4.31,0,6.38,2.11a7.94,7.94,0,0,1,2.07,5.81V173h-3.83l-.66-3.16a15.66,15.66,0,0,1-1,1.36,6.21,6.21,0,0,1-1.32,1.17,7.17,7.17,0,0,1-1.83.81,9.2,9.2,0,0,1-2.51.31,7.58,7.58,0,0,1-2.55-.42,5.91,5.91,0,0,1-2.09-1.25,5.82,5.82,0,0,1-1.41-2A7.16,7.16,0,0,1,384.7,167Zm13.2-4.11h-3.74a5.76,5.76,0,0,0-3.72,1.05,3.54,3.54,0,0,0-1.3,2.93,3,3,0,0,0,.86,2.23,3,3,0,0,0,2.18.83,5.55,5.55,0,0,0,2.33-.48,5.74,5.74,0,0,0,1.8-1.27,5.8,5.8,0,0,0,1.17-1.82,5.39,5.39,0,0,0,.42-2.07Z"/><path class="cls-3" d="M418.05,166.79a3.91,3.91,0,0,0,.51,2.2,2.09,2.09,0,0,0,1.87.75,5.83,5.83,0,0,0,3.12-.88l1,3.39a8.26,8.26,0,0,1-2.18.92,11,11,0,0,1-2.75.31,6,6,0,0,1-4.64-1.61q-1.47-1.6-1.47-5.08V155.22h-3.26V151.7h3.3l1.1-6h3.39v6h6.29v3.52h-6.29Z"/><path class="cls-3" d="M435.56,148.44a2.75,2.75,0,0,1-2.95-2.82,2.74,2.74,0,0,1,.77-2,3.31,3.31,0,0,1,4.36,0,2.74,2.74,0,0,1,.77,2,2.75,2.75,0,0,1-2.95,2.82ZM437.89,173h-4.66V151.74h4.66Z"/><path class="cls-3" d="M453.64,173,446,151.74h4.71l3.34,9.77L456,168.9h.09l1.89-7.39,3.39-9.77h4.71L458.49,173Z"/><path class="cls-3" d="M477.14,164.15a6.43,6.43,0,0,0,2.09,4.29,6.66,6.66,0,0,0,4.34,1.39,13.51,13.51,0,0,0,2.81-.31,12.59,12.59,0,0,0,2.69-.93l1.05,3.35a14.77,14.77,0,0,1-7,1.54,12.78,12.78,0,0,1-4.62-.77,8.65,8.65,0,0,1-3.3-2.23,9.45,9.45,0,0,1-2-3.53,15.18,15.18,0,0,1-.66-4.63,15.88,15.88,0,0,1,.57-4.32,10.14,10.14,0,0,1,1.78-3.55,8.35,8.35,0,0,1,3.09-2.38,10.93,10.93,0,0,1,4.53-.86,9.9,9.9,0,0,1,3.79.67,7.37,7.37,0,0,1,4.44,4.72,11.9,11.9,0,0,1,.55,3.66,14.24,14.24,0,0,1-.16,2.08,16.39,16.39,0,0,1-.37,1.81Zm5.41-9.42a4.71,4.71,0,0,0-4,1.76,8.7,8.7,0,0,0-1.56,4.67H487v-.79a7.16,7.16,0,0,0-1-4.16A3.81,3.81,0,0,0,482.55,154.73Z"/><path class="cls-3" d="M539.27,173h-4.93l-2.59-7.3H520.26l-2.55,7.3h-4.93l10.82-29.65h4.85ZM528.09,155.3l-2-7H526l-2,7-2.2,6.3h8.53Z"/><path class="cls-3" d="M560.83,169.34a8.29,8.29,0,0,1-2.46,2.53,6.75,6.75,0,0,1-3.92,1.12,8.61,8.61,0,0,1-3.57-.74,8.13,8.13,0,0,1-2.81-2.14,10.06,10.06,0,0,1-1.87-3.41,15.27,15.27,0,0,1-.09-8.71,10.93,10.93,0,0,1,1.74-3.48,8.46,8.46,0,0,1,2.81-2.37,8.19,8.19,0,0,1,3.88-.88,6.89,6.89,0,0,1,2.15.31,6.63,6.63,0,0,1,1.74.81,8,8,0,0,1,1.36,1.12,8.31,8.31,0,0,1,1,1.23l.61-3h4.05v19.49a14,14,0,0,1-.77,4.93,8.51,8.51,0,0,1-2.16,3.3,8.27,8.27,0,0,1-3.27,1.85,14.21,14.21,0,0,1-4.1.57,16.92,16.92,0,0,1-4.6-.61,13.39,13.39,0,0,1-3.54-1.5l1.19-3.65a11.6,11.6,0,0,0,3.08,1.32,13.27,13.27,0,0,0,3.34.44,9.64,9.64,0,0,0,2.49-.31,5.05,5.05,0,0,0,2-1,4.76,4.76,0,0,0,1.3-2,9.47,9.47,0,0,0,.46-3.18Zm0-11a7.64,7.64,0,0,0-2.18-2.28,5.12,5.12,0,0,0-3-.93,5,5,0,0,0-3.92,1.74,7.57,7.57,0,0,0-1.54,5.17,10.89,10.89,0,0,0,.42,3.26,6,6,0,0,0,1.14,2.15,4.31,4.31,0,0,0,1.67,1.21,5.4,5.4,0,0,0,2,.38,4.86,4.86,0,0,0,3.87-1.76,7.31,7.31,0,0,0,1.5-4.89Z"/><path class="cls-3" d="M579.26,164.15a6.48,6.48,0,0,0,2.09,4.29,6.66,6.66,0,0,0,4.34,1.39,13.36,13.36,0,0,0,2.81-.31,12.4,12.4,0,0,0,2.69-.93l1.06,3.35a14.82,14.82,0,0,1-7,1.54,12.78,12.78,0,0,1-4.62-.77,8.54,8.54,0,0,1-3.29-2.23,9.47,9.47,0,0,1-2-3.53,16.48,16.48,0,0,1-.08-8.95,10.12,10.12,0,0,1,1.77-3.55,8.39,8.39,0,0,1,3.1-2.38,10.88,10.88,0,0,1,4.52-.86,10,10,0,0,1,3.8.67,7.75,7.75,0,0,1,2.76,1.85,7.52,7.52,0,0,1,1.67,2.87,11.61,11.61,0,0,1,.55,3.66,13,13,0,0,1-.16,2.08,14.37,14.37,0,0,1-.37,1.81Zm5.42-9.42a4.73,4.73,0,0,0-4,1.76,8.7,8.7,0,0,0-1.56,4.67h10v-.79a7.16,7.16,0,0,0-1-4.16A3.8,3.8,0,0,0,584.68,154.73Z"/><path class="cls-3" d="M607.2,173h-4.66V151.74h4.05l.61,3a9.64,9.64,0,0,1,1.15-1.19,9.16,9.16,0,0,1,1.63-1.12,10.81,10.81,0,0,1,2-.83,8.25,8.25,0,0,1,2.38-.33,6.45,6.45,0,0,1,5.19,2.22,9.32,9.32,0,0,1,1.89,6.22V173H616.8v-13.2a5.57,5.57,0,0,0-.91-3.41,3.21,3.21,0,0,0-2.75-1.21,6.39,6.39,0,0,0-3.38.93,9,9,0,0,0-2.56,2.24Z"/><path class="cls-3" d="M641.3,169.83a12.92,12.92,0,0,0,2.82-.33,10.42,10.42,0,0,0,2.68-1l1.06,3.34a13.55,13.55,0,0,1-6.82,1.68,11.58,11.58,0,0,1-4.62-.86,9.1,9.1,0,0,1-3.3-2.38,10.07,10.07,0,0,1-2-3.54,14.57,14.57,0,0,1,0-8.67,10.07,10.07,0,0,1,2-3.54,9.06,9.06,0,0,1,3.32-2.37,11.82,11.82,0,0,1,4.73-.86,15.12,15.12,0,0,1,3.39.37,11.41,11.41,0,0,1,3,1.17l-1,3.34a11.2,11.2,0,0,0-5.23-1.23,5.4,5.4,0,0,0-4.73,2.07,10.49,10.49,0,0,0,0,10.78A5.36,5.36,0,0,0,641.3,169.83Z"/><path class="cls-3" d="M670.48,169.34a8.61,8.61,0,0,1-1,1.28A7.38,7.38,0,0,1,668,171.8a8.19,8.19,0,0,1-1.92.86,7.76,7.76,0,0,1-2.33.33,7,7,0,0,1-5.24-2q-1.94-2-1.93-6.24v-13h4.62v12.94a4.92,4.92,0,0,0,1,3.34,3.39,3.39,0,0,0,2.68,1.1,5.34,5.34,0,0,0,3.28-1,10.69,10.69,0,0,0,2.35-2.4V151.74h4.67v19.49a13.82,13.82,0,0,1-.75,4.8,8.78,8.78,0,0,1-2.09,3.32,8.42,8.42,0,0,1-3.21,1.92,13.31,13.31,0,0,1-4.16.61,16.54,16.54,0,0,1-4.38-.57,11.93,11.93,0,0,1-3.41-1.45l1.14-3.66A11.49,11.49,0,0,0,664.4,178a6.41,6.41,0,0,0,4.47-1.45q1.61-1.45,1.61-5.14Z"/></svg>