<svg id="Capa_1" data-name="Capa 1" xmlns="http://www.w3.org/2000/svg" viewBox="0 0 102.93 83.61"><defs><style>.cls-1{fill:#fff;}</style></defs><path class="cls-1" d="M99.45,37.94c-4.06-3.13-10.55-2.33-14-1.6,0-.72,0-1.43,0-2.18v-.33c0-3.75-4-5.88-4.51-6.11a1.84,1.84,0,0,0-.82-.2H17.94a1.84,1.84,0,0,0-.82.2c-.46.23-4.5,2.36-4.5,6.11v.45c-.3,12.45,3.18,23.09,9.8,30a29.26,29.26,0,0,0,8.66,6.15H1.83A1.83,1.83,0,0,0,.16,71.49a1.81,1.81,0,0,0,.32,2c.84.93,8.37,9.1,13,10.11a1.72,1.72,0,0,0,.39,0H84.23a1.72,1.72,0,0,0,.39,0c4.62-1,12.15-9.18,13-10.1a1.86,1.86,0,0,0,.32-2,1.84,1.84,0,0,0-1.68-1.09H66.33a30.15,30.15,0,0,0,7.33-4.82c5-.37,28.53-4.47,29.24-18.79C103.1,42.84,101.94,39.86,99.45,37.94ZM84,80H14.08c-1.9-.53-5.16-3.24-7.91-5.89H91.92C89.18,76.71,85.92,79.42,84,80ZM49,70.38l-.21,0h-.27l-.2,0c-10.05-.13-17.88-3-23.3-8.67-5.93-6.17-9-15.88-8.77-27.34,0-.24,0-.42,0-.54,0-1,1.28-2.12,2.14-2.65H79.67c.74.47,2.15,1.55,2.15,2.65v.38A43.91,43.91,0,0,1,77.9,53.93C72.74,64.66,63,70.2,49,70.38ZM99.25,46.61c-.45,9-14.16,13.23-21.61,14.7a33.19,33.19,0,0,0,3.56-5.79,45.26,45.26,0,0,0,4-15.38c3-.77,9-1.62,12,.7C98.72,42,99.38,43.89,99.25,46.61Z"/><path class="cls-1" d="M65.79,1.17A1.28,1.28,0,0,0,64.17,0c-.36.1-8.9,2.33-12.9,8.1-4.18,6-1.21,12.46-1.08,12.73a1.22,1.22,0,0,0,1,.71c.3,0,7.36.54,11.54-5.49,4-5.77,3.09-14.55,3-14.92Zm0,0"/></svg>