<svg id="Capa_1" data-name="Capa 1" xmlns="http://www.w3.org/2000/svg" viewBox="0 0 480 200"><defs><style>.cls-1,.cls-2{fill:#1d1d1b;}.cls-1,.cls-3{fill-rule:evenodd;}.cls-3,.cls-4{fill:#ee081b;}.cls-5{fill:none;stroke:#ee081b;stroke-width:2.43px;}</style></defs><path class="cls-1" d="M93.12,169.94l1.58-4.48h8.36l1.53,4.48h4.56l-7.34-21.13H96.42l-7.63,21.13Zm2.75-8,3.1-9H99l2.89,9Z"/><path class="cls-1" d="M115.82,155.25h-4.39v15.68a1.77,1.77,0,0,1-1.93,1.85v2.78a6.8,6.8,0,0,0,1.49.11c3.72,0,4.8-1.66,4.83-5.18Zm-4.54-6.44v3.78H116v-3.78Z"/><path class="cls-1" d="M128.72,169.94h4.39c-.09-.88-.15-1.76-.17-2.64V155.25h-4.39v8.81c-.06,2.13-1.26,3.39-2.64,3.39-2.16,0-2.6-1.82-2.63-3.39v-8.81h-4.39v9.54a10.26,10.26,0,0,0,.29,2.34c.53,2.14,3.37,3.25,4.83,3.25a5.11,5.11,0,0,0,4.54-2.26Z"/><path class="cls-1" d="M141.83,155.25h-4.36v14.69h4.39V161.1c.06-2.14,1.26-3.36,2.63-3.36,2.17,0,2.61,1.78,2.63,3.36v8.84h4.39v-9.57a9.72,9.72,0,0,0-.29-2.34c-.52-2.14-3.36-3.22-4.83-3.22a5,5,0,0,0-4.5,2.22l-.06-.08Z"/><path class="cls-1" d="M153.44,155.25v2.93h3v7.22c0,3.19.73,5,4.15,5a16.71,16.71,0,0,0,3.46-.44v-2.58c-.47,0-.94.09-1.41.09-1.52,0-1.81-.53-1.81-2.46v-6.81h3.3v-2.93h-3.3v-4.48l-4.39,1.58v2.9Z"/><path class="cls-1" d="M175.45,163c0,1.73-.09,4.42-2.52,4.42a2.06,2.06,0,0,1-2.14-2.11C170.79,163,173.92,163,175.45,163Zm-4-3.63a2,2,0,0,1,2-2.1,1.88,1.88,0,0,1,2,1.81v1.38a13.93,13.93,0,0,0-5.74.79,5.1,5.1,0,0,0-3.13,4.65c0,2.87,2,4.45,4.8,4.45a4.79,4.79,0,0,0,4.5-2.4h.06a15.13,15.13,0,0,0,.15,2H180a11.45,11.45,0,0,1-.2-1.61v-8c0-4.42-3.31-5.5-6.27-5.5a8.58,8.58,0,0,0-4.33.94,4,4,0,0,0-2,3.65Z"/><path class="cls-1" d="M188.55,155.25h-4.36v14.69h4.39V161.1c.06-2.14,1.26-3.36,2.64-3.36,2.16,0,2.6,1.78,2.63,3.36v8.84h4.39V161.1c.06-2.14,1.26-3.36,2.63-3.36,2.17,0,2.61,1.78,2.64,3.36v8.84h4.39V161.1a9.08,9.08,0,0,0-.44-3.51c-.62-1.61-3.05-2.78-4.69-2.78-2.22,0-3.6.88-5,2.78-.61-1.61-3-2.78-4.68-2.78a5.1,5.1,0,0,0-4.51,2.17h-.06Z"/><path class="cls-1" d="M225.83,163.76a21.63,21.63,0,0,0-.12-2.81,7.86,7.86,0,0,0-.73-2.63c-1.23-2.57-3.51-3.51-6.26-3.51-4.48,0-7.05,3.39-7.05,7.81,0,4.92,2,7.76,7.05,7.76,3.42,0,6.26-1.2,6.64-4.83h-4a2.41,2.41,0,0,1-2.69,1.9c-2.25,0-2.52-1.78-2.52-3.69Zm-9.63-2.92c.06-1.61.5-3.1,2.52-3.1s2.58,1.49,2.58,3.1Z"/><path class="cls-1" d="M233.58,155.25h-4.36v14.69h4.39V161.1c.06-2.14,1.26-3.36,2.64-3.36,2.16,0,2.6,1.78,2.63,3.36v8.84h4.39v-9.57A10.26,10.26,0,0,0,243,158c-.53-2.14-3.37-3.22-4.83-3.22a5,5,0,0,0-4.51,2.22l-.06-.08Z"/><path class="cls-1" d="M245.2,155.25v2.93h3v7.22c0,3.19.73,5,4.16,5a16.7,16.7,0,0,0,3.45-.44v-2.58c-.47,0-.94.09-1.41.09-1.52,0-1.81-.53-1.81-2.46v-6.81h3.31v-2.93h-3.31v-4.48l-4.39,1.58v2.9Z"/><path class="cls-1" d="M270.38,162.59c0-2.25.35-4.85,3.16-4.85,2.37,0,3.16,2.83,3.16,4.85s-.79,4.86-3.16,4.86C270.73,167.45,270.38,164.85,270.38,162.59ZM276.7,157h-.06a5,5,0,0,0-3.92-2.14c-4.56,0-6.88,3.83-6.88,7.78,0,3.78,2,7.79,6.32,7.79a4.88,4.88,0,0,0,4.51-2.52h.06c0,.7.06,1.37.12,2.08h4.39c-.06-1-.15-2-.15-2.93v-18.2H276.7Z"/><path class="cls-1" d="M298.53,163.76a23.58,23.58,0,0,0-.11-2.81,8.35,8.35,0,0,0-.73-2.63c-1.24-2.57-3.52-3.51-6.27-3.51-4.47,0-7.05,3.39-7.05,7.81,0,4.92,2,7.76,7.05,7.76,3.42,0,6.27-1.2,6.64-4.83h-3.95a2.41,2.41,0,0,1-2.69,1.9c-2.25,0-2.51-1.78-2.51-3.69Zm-9.62-2.92c0-1.61.49-3.1,2.51-3.1s2.58,1.49,2.58,3.1Z"/><polygon class="cls-1" points="323.25 169.94 323.25 166.43 314.09 166.43 314.09 148.81 309.56 148.81 309.56 169.94 323.25 169.94"/><rect class="cls-2" x="325.67" y="148.81" width="4.39" height="21.13"/><path class="cls-1" d="M347.92,163.76a21.63,21.63,0,0,0-.12-2.81,8.1,8.1,0,0,0-.73-2.63c-1.23-2.57-3.51-3.51-6.26-3.51-4.48,0-7.06,3.39-7.06,7.81,0,4.92,2,7.76,7.06,7.76,3.42,0,6.26-1.2,6.64-4.83H343.5a2.41,2.41,0,0,1-2.69,1.9c-2.26,0-2.52-1.78-2.52-3.69Zm-9.63-2.92c.06-1.61.5-3.1,2.52-3.1s2.57,1.49,2.57,3.1Z"/><path class="cls-1" d="M351.25,155.25v14.69h4.39V155.25Zm-.14-6.44v3.78h4.67v-3.78Z"/><path class="cls-1" d="M363.8,162.59c0-2.25.35-4.85,3.16-4.85,2.37,0,3.16,2.83,3.16,4.85s-.79,4.86-3.16,4.86C364.15,167.45,363.8,164.85,363.8,162.59Zm6.32-5.64h-.06a5,5,0,0,0-3.92-2.14c-4.56,0-6.88,3.83-6.88,7.78,0,3.78,2,7.79,6.32,7.79a4.89,4.89,0,0,0,4.51-2.52h.06c0,.7.06,1.37.12,2.08h4.39c-.06-1-.15-2-.15-2.93v-18.2h-4.39Z"/><path class="cls-1" d="M386.62,163c0,1.73-.09,4.42-2.52,4.42a2,2,0,0,1-2.13-2.11C382,163,385.1,163,386.62,163Zm-4-3.63a2,2,0,0,1,2-2.1,1.88,1.88,0,0,1,2,1.81v1.38a13.93,13.93,0,0,0-5.74.79,5.1,5.1,0,0,0-3.13,4.65c0,2.87,2.05,4.45,4.8,4.45a4.81,4.81,0,0,0,4.51-2.4h.06a17,17,0,0,0,.14,2h3.95a13.17,13.17,0,0,1-.2-1.61v-8c0-4.42-3.31-5.5-6.26-5.5a8.58,8.58,0,0,0-4.33.94,4,4,0,0,0-2,3.65Z"/><polygon class="cls-3" points="204.82 35.04 204.82 32.96 200.41 32.96 200.41 24.33 197.71 24.33 197.71 35.04 204.82 35.04"/><path class="cls-3" d="M208.69,35l.66-2.09h4.13l.67,2.09h3.19l-4-10.71h-3.44l-4,10.71Zm1.38-4.17,1.38-4.45h0l1.3,4.45Z"/><path class="cls-3" d="M227.31,35V31.21h1.84c2.47,0,4.09-.84,4.09-3.44s-1.62-3.44-4.09-3.44h-4.62V35Zm0-5.9V26.4h1.44c1.1.05,1.56.58,1.56,1.37s-.46,1.32-1.56,1.37Z"/><path class="cls-3" d="M236.19,35l.66-2.09H241l.68,2.09h3.18l-4-10.71h-3.44l-4,10.71Zm1.38-4.17L239,26.42h0l1.3,4.45Z"/><polygon class="cls-3" points="254.44 35.04 254.44 32.96 249.56 32.96 249.56 30.69 254.06 30.69 254.06 28.62 249.56 28.62 249.56 26.41 254.44 26.41 254.44 24.33 246.77 24.33 246.77 35.04 254.44 35.04"/><path class="cls-3" d="M259.93,28.87V26.4H261c.9,0,1.76.14,1.76,1.24s-.86,1.23-1.76,1.23Zm0,2.07h1c1.43,0,1.48.54,1.59,1.83a21.36,21.36,0,0,0,.31,2.27h3a14.29,14.29,0,0,1-.45-2.6c-.19-1.66-.52-2.62-2.31-2.67v-.06a2.61,2.61,0,0,0,2.57-2.62c0-2.27-2.2-2.76-3.9-2.76h-4.66V35h2.79Z"/><rect class="cls-4" x="268.35" y="24.33" width="2.79" height="10.71"/><path class="cls-3" d="M275.64,35l.67-2.09h4.13l.67,2.09h3.19l-4-10.71h-3.44l-4,10.71ZM277,30.87l1.38-4.45h0l1.3,4.45Z"/><path class="cls-4" d="M223.86,87h0A15.09,15.09,0,0,1,231.25,91s.32-2.66,2-3.07c0,0,.84-.32,2.24.7a3,3,0,0,1,1.05,2.18l.23,2.42s-2.11-1.58-3.62-.46a5.27,5.27,0,0,0,.85,2.34l5.39,5.39V84.91a3.62,3.62,0,0,0-1-2.45s-1.74.1-2.23,2.89A13.89,13.89,0,0,1,234,82.41a2.72,2.72,0,0,1,.2-2.43A1.79,1.79,0,0,1,236,78.87a4.76,4.76,0,0,1,2.41,1,22.31,22.31,0,0,1,.68-4.41,12.35,12.35,0,0,1,1.61-3.66,12.19,12.19,0,0,1,1.66,3.77,20.62,20.62,0,0,1,.63,4.3,4.76,4.76,0,0,1,2.81-1s1.45-.12,1.85,2.38a3,3,0,0,1-.81,2.24s-.59.74-1.55,1.86a4.17,4.17,0,0,0-1-2.26,2.55,2.55,0,0,0-1.19-.63,5.33,5.33,0,0,0-1,2.46V100.6l5.39-5.38a3.81,3.81,0,0,0,.85-2.41s-1.27-1.19-3.62.46a15.27,15.27,0,0,1,.51-3.54,2.63,2.63,0,0,1,1.85-1.64,1.83,1.83,0,0,1,2.18.56,4.94,4.94,0,0,1,.94,2.39s4-3.71,7.38-4c0,0-.16,2.86-4.08,7.34,0,0,2.73.42,3,1.9a2.84,2.84,0,0,1-1.31,2.85s-.74.63-4,.73c0,0,1.57-2,.46-3.63a5.23,5.23,0,0,0-2.37.93l-7.29,7.29v8.89h-2.69v-9l-7.28-7.26a3.6,3.6,0,0,0-2.35-.89s-1.17,1.25.44,3.61c0,0-3-.08-3.88-.66a3,3,0,0,1-1.44-2.71,2,2,0,0,1,1.2-1.47,6.11,6.11,0,0,1,1.89-.64s-3.42-3.63-4.07-7.32v0"/><polyline class="cls-3" points="224.88 102.56 224.88 117.7 235.39 128.2 235.39 113.05"/><polyline class="cls-3" points="235.22 71.2 235.22 56.41 224.49 67.11 224.49 81.85"/><polyline class="cls-3" points="245.88 112.97 245.88 128.2 256.36 117.71 256.36 102.46"/><polyline class="cls-3" points="256.66 81.92 256.66 67 245.93 56.28 245.93 71.16"/><polygon class="cls-4" points="278.07 95.99 278.07 88.43 267.34 77.67 267.34 106.72 278.07 95.99"/><polygon class="cls-4" points="203.04 95.99 203.04 88.43 213.77 77.67 213.77 106.72 203.04 95.99"/><rect class="cls-5" x="222.03" y="73.49" width="37.07" height="37.07" transform="translate(5.39 197.06) rotate(-45)"/><rect class="cls-5" x="205.25" y="56.8" width="70.78" height="70.78" transform="translate(5.29 197.15) rotate(-45)"/></svg>