<svg id="Capa_1" data-name="Capa 1" xmlns="http://www.w3.org/2000/svg" xmlns:xlink="http://www.w3.org/1999/xlink" viewBox="0 0 480 200"><defs><style>.cls-1,.cls-3{fill:none;}.cls-2{fill:#fff;}.cls-3{stroke:#fff;stroke-miterlimit:10;stroke-width:4.67px;}.cls-4{fill:#b12535;}.cls-5{clip-path:url(#clip-path);}.cls-6{fill:#1d1d1b;}.cls-7{fill:#f6e233;}</style><clipPath id="clip-path"><rect class="cls-1" x="128.15" y="78.07" width="221.72" height="54.75"/></clipPath></defs><path class="cls-2" d="M357.48,73.25c-1-3-5.19-5.26-9.61-6-18.89-2.25-38.39-3.94-58.38-5C275.69,53,258.27,47.75,240,47.76S204.32,53,190.51,62.24c-20,1.07-39.49,2.76-58.37,5-4.42.75-8.65,3-9.61,6L122,77l-.84,5.8-9.42,65.75c.48,3.73,4.75,4.15,12.92,3.44,36.69-3.16,75.39-5,115.34-5s78.65,1.81,115.35,5c8.17.71,12.43.29,12.91-3.44Z"/><path class="cls-3" d="M357.48,73.25c-1-3-5.19-5.26-9.61-6-18.89-2.25-38.39-3.94-58.38-5C275.69,53,258.27,47.75,240,47.76S204.32,53,190.51,62.24c-20,1.07-39.49,2.76-58.37,5-4.42.75-8.65,3-9.61,6L122,77l-.84,5.8-9.42,65.75c.48,3.73,4.75,4.15,12.92,3.44,36.69-3.16,75.39-5,115.34-5s78.65,1.81,115.35,5c8.17.71,12.43.29,12.91-3.44Z"/><path class="cls-2" d="M357.48,73.25c-1-3-5.19-5.26-9.61-6-18.89-2.25-38.39-3.94-58.38-5C275.69,53,258.27,47.75,240,47.76S204.32,53,190.51,62.24c-20,1.07-39.49,2.76-58.37,5-4.42.75-8.65,3-9.61,6L122,77l-.84,5.8-9.42,65.75c.48,3.73,4.75,4.15,12.92,3.44,36.69-3.16,75.39-5,115.34-5s78.65,1.81,115.35,5c8.17.71,12.43.29,12.91-3.44Z"/><path class="cls-4" d="M240,53.14c18.11,0,34.55,5.62,46.68,14.49,24.26,1.08,47.92,3,70.8,5.63-1-3-5.19-5.27-9.61-6-18.89-2.25-38.39-3.94-58.38-5C275.69,53,258.27,47.75,240,47.76S204.32,53,190.51,62.24c-20,1.07-39.49,2.76-58.37,5-4.42.75-8.66,3-9.61,6,22.87-2.64,46.53-4.55,70.79-5.63,12.13-8.87,28.57-14.5,46.68-14.49m0,87.41a1027.65,1027.65,0,0,0-128.26,8c.48,3.73,4.75,4.15,12.92,3.44,36.69-3.16,75.39-5,115.34-5s78.65,1.81,115.35,5c8.17.71,12.43.29,12.91-3.44a1029.32,1029.32,0,0,0-128.26-8m127.7,4.06C364.43,122,358,77,358,77l-1.14-.12c-22.87-2.61-46.51-4.5-70.26-5.56l-1.16-.06-.89-.64c-12.1-8.85-27.92-13.79-44.54-13.79s-32.47,4.94-44.57,13.79l-.89.64-1.16.06c-23.75,1.06-47.4,3-70.27,5.56l-.28,0L122,77s-9.48,66.16-9.7,67.64a1034.76,1034.76,0,0,1,255.4,0"/><g class="cls-5"><path class="cls-6" d="M211,92.5c0-.22,0-.45,0-.67a13.23,13.23,0,0,1-7.72,10.49c.26.67.59,1.48,1,2.35C208.68,102,211,98,211,92.5m36,10.38a1.72,1.72,0,0,0-.53.71,2.34,2.34,0,0,0,.76,2.38,4,4,0,0,1,.95,2v-1.44a4.73,4.73,0,0,0-1.06-3.49l-.12-.15m-50.66-11c0-.29,0-.57,0-.87,0-5.63-2.6-7.53-4.82-7.44a12.22,12.22,0,0,0-1.71.16,10.33,10.33,0,0,0-.08,1.57v1.34a10.24,10.24,0,0,1,1.79-.18c2-.08,4.23,1.35,4.81,5.42m-49.4,10.48c.54,1.6,1.2,3.55,1.76,5.23l.86-.07c-.54-1.57-1.71-5.06-2.62-7.75l-2.58,8.17.84-.07,1.74-5.51m28.79-16.26V85c0-1.85-.18-2.53-.89-3.33a0,0,0,0,1,0,0,1.63,1.63,0,0,0-.56.75,2.11,2.11,0,0,0,.68,2.21,3,3,0,0,1,.79,1.51m155.53-2a1.75,1.75,0,0,0-.56-.77l0,0c-.7.77-.88,1.46-.88,3.31v1.11a3,3,0,0,1,.78-1.49,2.06,2.06,0,0,0,.68-2.19M315,86.72V85.61c0-1.85-.18-2.56-.88-3.44l0,0a1.4,1.4,0,0,0-.55.69,2.31,2.31,0,0,0,.68,2.29,3.48,3.48,0,0,1,.78,1.6m-175,42a2.8,2.8,0,0,1-1.31.39l-.26,0-8,.74a3.11,3.11,0,0,1-1.54-.14,2.13,2.13,0,0,0-.69,2c.34,1.23,1.52,1.11,2.23,1,2.67-.26,5.36-.5,8-.73l.26,0a2,2,0,0,0,1.89-1.24,2,2,0,0,0-.47-1.87l-.11-.17M285.63,99.51l1.77,5.43.85,0c-.87-2.69-1.75-5.37-2.62-8.06L283,104.77l.84,0c.56-1.7,1.21-3.68,1.75-5.3M245.4,81c6,0,10.15,3.1,12.3,9.08.37,1,1.21,3.35,3.52,3.38a2.5,2.5,0,0,0,.47,0c1.92-.24,2.79-1.62,2.58-4.12l-.06-.71a2.77,2.77,0,0,1-2.5,1.94l-.49,0c-2.41-.05-3.31-2.54-3.64-3.48-2.14-5.92-6.23-9-12.18-9a12.23,12.23,0,0,0-9.92,5.39c-2.81,3.8-4.31,9.09-4.34,15.29a24.1,24.1,0,0,1,4.23-12.34,12.37,12.37,0,0,1,10-5.45M349.7,120.6c-.62,3.09-1.4,6.7-1.83,8.15-.1.32-.19.64-.29,1q-16-1.49-32.08-2.52a2.78,2.78,0,0,1-1.33-.39,1.92,1.92,0,0,0-.59,2.08,2,2,0,0,0,1.92,1.19q16,1.05,32,2.52c.09-.29.17-.58.26-.87.48-1.63,1.42-6,2.05-9.29a3.59,3.59,0,0,0-.09-1.83m-56.59-1.14s-2.32-6.63-2.57-7.37l0,0-.21,0c-3.05-.13-6.12-.26-9.18-.36a.42.42,0,0,0-.16,0h0l-2,6.26c-.1.31-.19.61-.29.91-.53,1.65-.43,2-.05,2.71l.21-.64c.75-2.35,1.78-5.57,2-6.25a.54.54,0,0,0,0-.1h.27c3.06.1,6.13.23,9.18.36a1,1,0,0,1,.31,0,.61.61,0,0,1,.05.11c.22.65,2,5.76,2.47,7.07.39-.67.52-1.09,0-2.69m-14.34,5.64a2.6,2.6,0,0,1-1.31.24h-.26c-2.69-.09-5.37-.16-8.06-.23a3.28,3.28,0,0,1-1.54-.32,1.91,1.91,0,0,0-.7,1.9c.35,1.26,1.53,1.29,2.24,1.31,2.69.07,5.37.14,8.06.23h.26c.39,0,1.55.05,1.9-1a2.21,2.21,0,0,0-.47-1.93l-.12-.18M309,126.78q-7.34-.44-14.67-.78a2.82,2.82,0,0,1-1.31-.33l-.11.16a2.1,2.1,0,0,0-.47,1.9,1.87,1.87,0,0,0,1.89,1.16q7.33.35,14.67.78c.71,0,1.89.11,2.24-1.13a2,2,0,0,0-.7-1.95,3.28,3.28,0,0,1-1.54.19m-42.67-22.91a1.66,1.66,0,0,0-.52-.72l-.13.15c-.84,1-1.06,1.79-1.06,4v1a3.84,3.84,0,0,1,1-2,2.27,2.27,0,0,0,.75-2.36M219,129.78h0a15.63,15.63,0,0,1-2.75-.28,34,34,0,0,1-17.75-9.62,51.88,51.88,0,0,1-7.53-12.08c-.37-.83-.81-1.77-1.24-2.62v2.71c.47.93,1,2,1.36,2.87a51.88,51.88,0,0,0,7.51,12,33.82,33.82,0,0,0,17.67,9.58,15.44,15.44,0,0,0,2.73.28c2,0,2.45-1.08,2.55-1.7a2.08,2.08,0,0,0-.6-1.76,3.14,3.14,0,0,1-1.95.57m45.62-5.36a2.42,2.42,0,0,1-1.78,1.49c-4.29,1.08-10.77,2.74-17.32,2.72-18.58-.08-30.55-9.24-31.95-24.77.05,17.26,12.28,27.58,31.95,27.66,6.52,0,13-1.63,17.28-2.71,2.15-.54,2-2.63,1.88-3.64l-.06-.75m-75.35,1.42h-.14q-6.48.27-13,.64a2.58,2.58,0,0,1-1.33-.23,2.12,2.12,0,0,0-.59,2.15,1.77,1.77,0,0,0,1.92,1q6.48-.36,13-.64h.14a1.82,1.82,0,0,0,1.34-3.25,2.7,2.7,0,0,1-1.34.36m-19,1q-7.33.45-14.67,1a2.64,2.64,0,0,1-1.3-.18,1.74,1.74,0,0,0-.11.18,2.27,2.27,0,0,0-.48,2c.35,1.05,1.51,1,1.89.94q7.33-.54,14.67-1c.71,0,1.89-.1,2.23-1.38a1.82,1.82,0,0,0-.69-1.87,3.36,3.36,0,0,1-1.54.36m-15.86-5.41s-2.32-6.36-2.57-7.07a0,0,0,0,1,0,0h-.22c-3.05.24-6.11.48-9.16.74l-.17,0h0c-.23.77-1.42,4.63-2.17,7.1,0,.11-.07.23-.11.35-.52,1.7-.43,2.06,0,2.71a.19.19,0,0,1,0-.07l2.17-7.09,0-.09a1,1,0,0,1,.27,0c3-.26,6.11-.51,9.16-.74a1.17,1.17,0,0,1,.31,0,.61.61,0,0,1,0,.11l2.46,6.77c.39-.72.53-1.16,0-2.68"/></g><path class="cls-7" d="M170,123.41a13.31,13.31,0,0,1-2.3-4.25c-2.57-6.78-6.9-18.21-9.92-26.36l-3.7-10c-1.62-4.38-5.93-1.58-5.93-1.58S133.77,119.73,133,121.83a19.85,19.85,0,0,1-2.3,4.61c-.78,1-1.41,1.41-1.3,1.83s.38.31,1.25.23l7.83-.71c.46,0,.89-.05,1-.3s-.26-.68-.63-1.29c-.59-1-.92-1.56-.18-4s2-6.64,2.28-7.44a1.42,1.42,0,0,1,1.48-1.11c3-.26,6.11-.5,9.16-.73.81-.06,1.27.13,1.53.85s2.57,7.07,2.57,7.07c.77,2.14.41,2.94-.18,4-.38.68-.75,1.07-.64,1.39s.51.19,1,.15q7.1-.51,14.19-.94c.87,0,1.15,0,1.25-.42s-.52-.69-1.3-1.63m-19.73-14.59-6.63.53c-.86.07-1.12-.11-.86-.93l4-12.76.22,0s3.81,11.3,4.09,12.12-.2,1-.85,1.06M218,125.54a28.23,28.23,0,0,1-4.22-3.37,42.09,42.09,0,0,1-7.49-9.79,86,86,0,0,1-4.82-10.75c5.21-2.21,8.24-5.93,8.24-12.12,0-3.7-1.68-7.21-4.49-8.88s-6-2.28-11.5-2.06q-8.73.34-17.46.83c-.44,0-.79,0-.91.33s0,.41.48,1c1,1.16,1.22,2.27,1.22,4.2v34.63c0,1.93-.19,3.06-1.22,4.34-.49.6-.56.81-.48,1s.47.26.91.25c0,0,11.08-.58,12.82-.64.45,0,.8,0,.92-.33s0-.4-.48-1c-1-1.17-1.22-2.28-1.22-4.21V85.34c0-2.82.21-3,3.17-3.16,2.74-.12,6.19,2,6.19,8.76,0,3.44-.25,6.35-3,8.86a27.51,27.51,0,0,1-3.32,2.39,1.33,1.33,0,0,0-.5,2.06c.48,1,1,2,1.38,2.93a49.89,49.89,0,0,0,7.32,11.76,32.88,32.88,0,0,0,17,9.2c2.92.51,3.72.23,3.81-.38s-.9-1.36-2.27-2.22m90.71-2.21a15.81,15.81,0,0,1-2.3-4.53c-2.56-7.08-6.9-19-9.93-27.55,0,0-2.07-5.87-3.69-10.43s-5.95-2.3-5.95-2.3-14.37,36.81-15.15,38.82a16.57,16.57,0,0,1-2.3,4.33c-.78,1-1.42,1.25-1.3,1.68s.38.36,1.25.38c2.62.06,5.23.14,7.85.22.47,0,.9.06,1-.18s-.26-.71-.64-1.37c-.59-1-.92-1.67-.17-4s2-6.4,2.28-7.17.71-1,1.48-.93c3.06.11,6.13.23,9.19.36a1.44,1.44,0,0,1,1.52,1c.25.74,2.57,7.37,2.57,7.38.77,2.24.41,3-.18,4-.37.64-.74,1-.63,1.32s.51.24,1,.27q7.1.33,14.2.75c.87,0,1.14.09,1.24-.27s-.52-.76-1.3-1.79m-19.74-17-6.65-.25c-.86,0-1.11-.25-.85-1l4-12.27h.22l4.1,12.61c.28.85-.2,1-.85.95m58.27,10.4c-1.26-.37-1.76.45-2.05,1.15a14,14,0,0,1-2.58,4.26c-1.48,1.69-5.09,1.6-7.34,1.41s-4.38-.42-5.51-1.07-1.4-2.49-1.4-6.15V86.55c0-1.94.18-3,1.21-4.18.49-.54.56-.74.48-1s-.47-.32-.91-.35c-1.74-.16-13.51-1-13.51-1-.44,0-.79-.07-.92.22s0,.41.49,1c1,1.29,1.21,2.42,1.21,4.35v34.63c0,1.93-.18,3-1.21,4.19-.49.54-.56.75-.49,1s.48.32.92.35q15.47,1,30.91,2.42c.47-1.58,1.41-6,2-9.19a1.77,1.77,0,0,0-1.33-2.27m-83.14-15.86c-2-.06-15.49-.24-15.49-.22-.51,0-.91,0-1,.32s0,.47.54,1.13c1.19,1.41,1.39,2.69,1.4,4.9h0v11.61c0,3.79-1.29,4.42-3.3,4.41-11.13,0-16.45-11.64-16.45-24.12,0-13.77,7.09-22.29,15.64-22.25,4.7,0,10.56,1.83,13.47,9.9.33.93,1,2.75,2.64,2.54s1.61-1.83,1.52-2.81c-.49-5.78-.65-7.58-.89-10.09a2.17,2.17,0,0,0-1.77-1.87,63.55,63.55,0,0,0-13.76-1.86c-17.17-.1-31.84,9.77-31.84,28.19,0,16.45,11.44,26.48,30.71,26.55,6.14,0,12.14-1.46,17-2.67.84-.21,1.12-.73,1-2.35s-.18-3.35-.18-5.31v-9.68c0-2.2.21-3.48,1.39-4.86.56-.64.64-.88.55-1.11s-.54-.34-1.05-.35"/></svg>