<svg id="Capa_1" data-name="Capa 1" xmlns="http://www.w3.org/2000/svg" viewBox="0 0 480 200"><defs><style>.cls-1{fill:#ffc425;}.cls-2{fill:#ef4135;}.cls-3{fill:#1c3e94;}.cls-4{fill:#00a160;}</style></defs><path d="M164.24,98.3v9.89H169a5.8,5.8,0,0,0,3.43-.84,5.54,5.54,0,0,0,1.89-4.26,4.63,4.63,0,0,0-2.68-4.48,7.72,7.72,0,0,0-2.85-.31Zm-.11-14.47v8.42h4.37a6.15,6.15,0,0,0,3.16-.48A4.74,4.74,0,0,0,173.55,88a4.18,4.18,0,0,0-2.1-3.68,7.49,7.49,0,0,0-3.06-.47Zm-7.26-6.26h12.37c4.47,0,6.78.68,9,2.63a8.17,8.17,0,0,1,3,6.52,8.48,8.48,0,0,1-2.47,6.16,7,7,0,0,1-3.37,1.89c4.89,1.48,7.26,4.42,7.26,9.21,0,5-3.15,9.68-9.57,10.1-1.16.06-2.69.11-4.69.11H156.87Z"/><path d="M199.76,102.4h-.32c-4.89,0-6.58.9-6.58,4.11,0,2.1,1.32,3.52,3.11,3.52a5.09,5.09,0,0,0,3.68-1.84ZM185.92,90.46a19.87,19.87,0,0,1,4.36-2.21,18.21,18.21,0,0,1,7.37-1.58c4.52,0,7.63,1.68,8.68,4.68.37,1.11.48,2,.48,4.84l-.16,9v.48c0,2.89.47,4,2.52,5.52l-3.73,4.32a7.56,7.56,0,0,1-3.79-3.27,12.28,12.28,0,0,1-1.63,1.43,9.37,9.37,0,0,1-5.42,1.47c-6,0-9.26-3-9.26-8.42,0-6.31,4.37-9.26,12.94-9.26.53,0,.85,0,1.58,0v-1.1c0-3-.58-4-3.16-4-2.26,0-4.89,1.1-7.78,3.05Z"/><path d="M212.54,88.3l6.32-1.68a8.7,8.7,0,0,1,1.1,3.84A12.11,12.11,0,0,1,224,87a6.34,6.34,0,0,1,2.31-.42,5.36,5.36,0,0,1,2.63.58L227,93.41a4,4,0,0,0-2.05-.53,5.62,5.62,0,0,0-4.32,2.26v19h-7.05v-18a24.38,24.38,0,0,0-1-7.89"/><path d="M249,89.56l-3.41,4.63a6.81,6.81,0,0,0-4.27-2.1c-3.15,0-4.58,2.74-4.58,9,0,3.52.43,5.63,1.37,6.79a4.1,4.1,0,0,0,3.16,1.52c1.63,0,3.1-.68,4.84-2.21l.42-.37,3.21,4.27a11.11,11.11,0,0,1-2.47,2,12.64,12.64,0,0,1-6.58,1.68c-7.42,0-11.73-5.16-11.73-13.89,0-6.21,2.37-10.31,5.52-12.47a12.77,12.77,0,0,1,6.68-2,12.34,12.34,0,0,1,5.21,1.21A12.18,12.18,0,0,1,249,89.56"/><path d="M258.9,97.82h8.15v-.31a7,7,0,0,0-.84-4.05,3.39,3.39,0,0,0-3.1-1.58c-2.69,0-4.21,2.1-4.21,5.84ZM271.32,107l2.73,4.21A15.43,15.43,0,0,1,263.9,115c-7.74,0-12.74-5.47-12.74-14,0-4.84,1-8,3.37-10.68A10.6,10.6,0,0,1,263,86.72a11,11,0,0,1,7.79,2.84c2.47,2.53,3.58,6.16,3.58,11.79V103H258.79v.21c0,4.16,2,6.53,5.69,6.53a10.56,10.56,0,0,0,6.84-2.69"/><path d="M286,75.25a39.4,39.4,0,0,1,.37,7v21c0,4.63,0,5.27.48,6a1.6,1.6,0,0,0,1.42.74,2.25,2.25,0,0,0,.79-.11l1.21,4.21a11.65,11.65,0,0,1-4.21.74c-3,0-5.42-1.42-6.26-3.68-.53-1.37-.63-2.21-.63-6V85a70.13,70.13,0,0,0-.37-8.11Z"/><path d="M303.78,91.93a3.79,3.79,0,0,0-3.63,2.74,19,19,0,0,0-.74,6,18.7,18.7,0,0,0,.9,6.78,3.86,3.86,0,0,0,3.57,2.21c3.05,0,4.37-2.73,4.37-9.1,0-3.63-.47-6-1.42-7.21a3.78,3.78,0,0,0-3.05-1.42m-.11-5.21a11.3,11.3,0,0,1,9.16,4.06c2.16,2.52,3.1,5.47,3.1,9.83,0,4.63-1.05,7.79-3.36,10.42a11,11,0,0,1-8.9,3.74c-7.32,0-12.11-5.47-12.11-14s4.85-14.1,12.11-14.1"/><path d="M319.88,88.35l6.26-1.79a6.94,6.94,0,0,1,1,3.37,26,26,0,0,1,3.11-2,11.18,11.18,0,0,1,4.84-1.15c3,0,5.63,1.57,6.47,3.89a10.83,10.83,0,0,1,.53,3.84v19.68h-6.94V96.67c0-3-.53-4-2.37-4a8.25,8.25,0,0,0-4.9,2.42v19h-7.05V94.67a19.49,19.49,0,0,0-.94-6.32"/><path d="M361.5,102.4h-.32c-4.89,0-6.58.9-6.58,4.11,0,2.1,1.32,3.52,3.11,3.52a5.09,5.09,0,0,0,3.68-1.84ZM347.66,90.46A19.72,19.72,0,0,1,352,88.25a18.1,18.1,0,0,1,7.36-1.58c4.52,0,7.63,1.68,8.69,4.68.36,1.11.46,2,.46,4.84l-.15,9v.48c0,2.89.47,4,2.52,5.52l-3.73,4.32a7.56,7.56,0,0,1-3.79-3.27,11.66,11.66,0,0,1-1.63,1.43,9.37,9.37,0,0,1-5.42,1.47c-6,0-9.26-3-9.26-8.42,0-6.31,4.37-9.26,12.94-9.26.53,0,.84,0,1.58,0v-1.1c0-3-.58-4-3.16-4-2.26,0-4.89,1.1-7.78,3.05Z"/><polygon points="154.45 129.42 178.34 129.42 178.07 133.05 168.29 133.05 168.29 165.51 164.13 165.51 164.13 133.05 154.45 133.05 154.45 129.42"/><path d="M180.18,139.52l4-.79v18.84c0,2.57.32,3.52,1.53,4.31a6.09,6.09,0,0,0,3.26,1c2.58,0,5.26-1.89,6.68-4.74V139.57l4.06-.68v18.57c0,3,.1,3.9.62,4.89a4.12,4.12,0,0,0,1.16,1.48l-2.63,2.79a6.82,6.82,0,0,1-2.84-4.21,9.72,9.72,0,0,1-8.31,4c-3.32,0-5.89-1.37-6.9-3.74a9.45,9.45,0,0,1-.68-3.89Z"/><path d="M207.54,139.73l4.1-1.1a7.61,7.61,0,0,1,.9,3.89v.37c1.89-2.69,4.68-4.37,7.36-4.37a5,5,0,0,1,1.43.26l-1.69,4.47a3.32,3.32,0,0,0-1.16-.21,6.25,6.25,0,0,0-4.36,1.9c-1.21,1.21-1.53,2-1.53,4.15v16.42h-4.1v-20c0-3-.21-4.11-1-5.79"/><path d="M225.11,139.41l4.37-.68v26.78h-4.37ZM227.32,128a3.21,3.21,0,1,1-3.2,3.26,3.23,3.23,0,0,1,3.2-3.26"/><path d="M253.74,140.36l-1.53,3a14.92,14.92,0,0,0-6.58-1.89c-3,0-4.94,1.74-4.94,4.31a3.56,3.56,0,0,0,.74,2.32,4.74,4.74,0,0,0,3,1.47l3.48.74c4.74,1,7,3.42,7,7.31,0,5.11-4,8.58-9.89,8.58a19.4,19.4,0,0,1-9.63-2.63l1.58-3.05a15.71,15.71,0,0,0,8.31,2.47c3.21,0,5.31-1.74,5.31-4.53,0-2.36-1.31-3.68-4.31-4.31l-3.26-.69a8.28,8.28,0,0,1-4.95-2.63,6.84,6.84,0,0,1-1.68-4.57c0-4.74,3.84-8.06,9.31-8.06a17.11,17.11,0,0,1,8,2.11"/><path d="M260.84,139.62l4-.94a9.21,9.21,0,0,1,1,3.68v.21A12.46,12.46,0,0,1,269,140a8.33,8.33,0,0,1,4.42-1.42,6.64,6.64,0,0,1,5.21,2.63,6.33,6.33,0,0,1,.89,1.74c2.53-2.68,5.73-4.37,8.42-4.37,3.89,0,6.57,2.95,6.57,7.11v19.78H290.3V146.15c0-2.53-1.16-3.84-3.36-3.84a6.61,6.61,0,0,0-3.84,1.42,27.58,27.58,0,0,0-2.64,2.21l-.46.42v19.15h-4.16V146.88c0-2.26-.06-2.63-.74-3.36a3.24,3.24,0,0,0-2.68-1.06c-2,0-3.95,1-6.69,3.48v19.57h-3.94V146c0-3.63-.11-4.21-1-6.37"/><path d="M306,150h12c-.05-2.84-.42-4.58-1.21-5.84a5.58,5.58,0,0,0-4.74-2.32c-3.73,0-5.84,2.74-6,8.16m14.15,10.21,1.57,2.63a13.09,13.09,0,0,1-8.83,3.26c-7.27,0-11.63-5.26-11.63-13.94,0-4.42.89-7.32,3.15-9.9a9.84,9.84,0,0,1,7.85-3.68,9.42,9.42,0,0,1,7.1,2.9c2.26,2.31,2.9,4.78,3,11.05v.57H306v.63c0,2.48.31,4.37,1.2,5.74a7.44,7.44,0,0,0,6.53,3.21,9.06,9.06,0,0,0,6.42-2.47"/><polygon class="cls-1" points="215.34 48.04 200.66 62.72 215.34 77.4 230.02 62.72 215.34 48.04"/><rect class="cls-2" x="176.72" y="37.68" width="20.76" height="20.76" transform="translate(20.8 146.36) rotate(-44.99)"/><rect class="cls-3" x="141.57" y="37.68" width="20.76" height="20.76" transform="translate(10.52 121.52) rotate(-45)"/><rect class="cls-4" x="113.39" y="52.45" width="20.76" height="20.76" transform="translate(-8.17 105.94) rotate(-45.01)"/></svg>