<svg id="Capa_1" data-name="Capa 1" xmlns="http://www.w3.org/2000/svg" viewBox="0 0 480 200"><defs><style>.cls-1{fill:#c54d2f;}.cls-2,.cls-3{fill:#1f110e;}.cls-3{stroke:#1f110e;stroke-miterlimit:10;stroke-width:0.25px;}</style></defs><path class="cls-1" d="M254.13,69.23h-3.27v32.86h3.27Zm-63,8v3.19H196v21.63h3.27V80.46h4.83V77.27h-4.83v-8H196v8Zm39,12.25a10.1,10.1,0,0,1-9.68,10.26,9.8,9.8,0,0,1-9.77-9.85,9.73,9.73,0,1,1,19.45-.41m-9.49-12.8a12.89,12.89,0,0,0-13.32,13.07,12.73,12.73,0,0,0,13,12.94,12,12,0,0,0,9.77-4.57v3.93h3.17V77.27h-3.17v4a11.51,11.51,0,0,0-9.49-4.52m23.05-7.49h-3.27v32.86h3.27Zm39.17,20.29a10.1,10.1,0,0,1-9.68,10.26,9.79,9.79,0,0,1-9.76-9.85,9.73,9.73,0,1,1,19.44-.41m-9.49-12.8A12.89,12.89,0,0,0,260,89.79a12.73,12.73,0,0,0,13,12.94,12,12,0,0,0,9.77-4.57v3.93H286V77.27h-3.17v4a11.51,11.51,0,0,0-9.49-4.52m-89.86,12.8a10.09,10.09,0,0,1-9.67,10.26A9.8,9.8,0,0,1,164,89.93a9.73,9.73,0,1,1,19.44-.41M174,76.72a12.89,12.89,0,0,0-13.33,13.07,12.73,12.73,0,0,0,13,12.94,12,12,0,0,0,9.77-4.57v3.93h3.18V77.27h-3.18v4A11.51,11.51,0,0,0,174,76.72M143.07,80a9.68,9.68,0,1,1,0,19.35h-5.35V80Zm-8.88,22.79h8.88a13.12,13.12,0,1,0,0-26.23h-5.35v-8h-3.53Z"/><path class="cls-2" d="M315.23,78.63a4.48,4.48,0,0,1,2.31,3.71A2.49,2.49,0,0,1,315,85a2.45,2.45,0,0,1-2.72-2.42A2.67,2.67,0,0,1,314.29,80c-.64-1.15-2.54-2-4.42-2-3.25,0-7.05,2.7-7.05,11.77,0,8.52,3.3,11.4,7.1,11.4,2.55,0,5.41-1.31,7.14-5l.94.33a9.24,9.24,0,0,1-9.07,6.69c-6.11,0-10.9-4.81-10.9-12.74s4.74-13.34,11.48-13.34a10.89,10.89,0,0,1,5.72,1.52"/><path class="cls-2" d="M335.48,87.85c-.53.77-1.61,1.26-4.72,2.74-2.16,1-4.78,2.4-4.78,6.1,0,2.89,1.68,4.22,3.94,4.22,2,0,3.9-1,5.56-3.63ZM338,78.91c1.56,1.55,2,3.33,2,6.74V99c0,1.55.39,2.28,1.52,2.28a3.39,3.39,0,0,0,2.21-1l.56.82a6.71,6.71,0,0,1-4.51,1.76c-3.44,0-4.23-2-4.23-4.27a8.66,8.66,0,0,1-7.58,4.27c-3.3,0-6.26-1.62-6.26-5.38s3-5.48,7.94-7.5c3.3-1.34,5.9-2.16,5.9-4.08v-3c0-4-2-4.83-4.57-4.83-1.69,0-3.76.33-4.89,1.71a3,3,0,0,1,2.31,2.93c0,1.65-1.13,2.61-2.88,2.61a2.66,2.66,0,0,1-2.68-3c0-1.41.94-2.51,2.31-3.43a13,13,0,0,1,6.91-1.8c2.77,0,4.84.7,6,1.8"/><path class="cls-2" d="M362.15,66.25a3.75,3.75,0,0,1,1.54,3,2.47,2.47,0,0,1-2.62,2.53,2.54,2.54,0,0,1-2.7-2.58,2.38,2.38,0,0,1,2.07-2.46c-.19-.57-1-1.06-2.43-1.06a3.52,3.52,0,0,0-3.2,1.78c-.77,1.34-.89,3.66-.89,9.13v1.24h5.29v1h-5.29V97.56c0,3.12,2,3.94,5.22,3.94v1c-1.51-.05-4.52-.19-7.58-.19-2.26,0-4.67.14-5.82.19v-1c2.72,0,3.75-.77,3.75-3.45V78.77h-3.95v-1h3.95c0-5.65.65-8.3,2.53-10.46a7.64,7.64,0,0,1,5.84-2.41,7,7,0,0,1,4.29,1.31"/><path class="cls-2" d="M370.62,73.73l-.52-.42c3-4.67,3.9-7.25,5.36-9.12a2.41,2.41,0,0,1,1.88-1.08,1.71,1.71,0,0,1,1.75,1.68,2.74,2.74,0,0,1-.67,1.65c-1.51,1.87-3.9,3.26-7.8,7.29m-3.68,13h10.74c.17-4.69-1.37-8.73-4.67-8.73-2.94,0-5.54,2.68-6.07,8.73m15.67,10a9.62,9.62,0,0,1-9.22,6.45c-7.14,0-11.33-5.09-11.33-12.45,0-8.45,4.38-13.63,11.14-13.63,5.78,0,9.22,3.3,9.22,10.55H367a24.87,24.87,0,0,0-.17,3.08c0,6.58,3.75,10.43,7.53,10.43,3,0,5.54-1.22,7.24-4.81Z"/><path class="cls-2" d="M400.3,78.87a1.57,1.57,0,0,0,.87.4c.58,0,.94-.68,1.11-2.11h1.13c-.15,1.75-.2,4-.2,8.16h-1.12c-.61-3.57-2.27-7.3-6.72-7.3-2.31,0-4,1.29-4,3.68,0,2.89,3,4.23,6.33,6.36,3.73,2.35,6.74,4.46,6.74,8.4,0,4.41-3.95,6.73-8.43,6.73a10.36,10.36,0,0,1-3.89-.68,10.82,10.82,0,0,1-2-1.29.64.64,0,0,0-.45-.19c-.44,0-.83.61-1,1.81h-1.13c.15-2.07.2-4.74.2-9.6h1.12c.66,5.38,1.93,9,6.86,9A4.2,4.2,0,0,0,400,97.65c0-2.79-2.36-4.31-5.59-6.28-3.58-2.21-6.78-4.08-6.78-8.07,0-4.27,3.39-6.19,7.29-6.19a8.72,8.72,0,0,1,5.36,1.76"/><path class="cls-1" d="M75.6,103.19h37.6V99.64H75.6Zm31.57-24.08a13.06,13.06,0,0,1-26.11,0v-7h26.11ZM77.42,68.52V79.11a16.7,16.7,0,0,0,33.39,0v-7H119V68.52Z"/><path class="cls-3" d="M184.51,119.93v15.8c0,.22.13.34.39.34h2.4v.49h-7.85v-.49h2.41c.25,0,.38-.12.38-.34v-15.8h-3.56c-.48,0-.74.2-.77.61l-.42,3.23h-.63v-1.3a18.67,18.67,0,0,0-.25-3.56,12.61,12.61,0,0,0,3.06.25h7.41a12.56,12.56,0,0,0,3.06-.25,18.86,18.86,0,0,0-.24,3.56v1.3h-.64l-.41-3.23c0-.41-.3-.61-.78-.61Z"/><path class="cls-3" d="M203.47,135.68v-7.43h-8.06v7.43a.34.34,0,0,0,.38.39h1.3v.49h-5.63v-.49h1.3a.34.34,0,0,0,.38-.39V120c0-.22-.13-.34-.38-.34h-1.3v-.49h5.63v.49h-1.3a.34.34,0,0,0-.38.39v7.43h8.06V120c0-.26-.12-.39-.38-.39h-1.3v-.49h5.64v.49h-1.3c-.26,0-.39.12-.39.34v15.69a.34.34,0,0,0,.39.39h1.3v.49h-5.64v-.49h1.3C203.35,136.07,203.47,135.94,203.47,135.68Z"/><path class="cls-3" d="M209.13,136.56v-.49h1.3a.34.34,0,0,0,.39-.39V120c0-.22-.13-.34-.39-.34h-1.3v-.49h8.76a12.71,12.71,0,0,0,3.07-.25,15.09,15.09,0,0,0-.25,3.15v1.3h-.64l-.41-2.82c0-.41-.3-.61-.78-.61h-5.8v7.54h5.56c.22,0,.35-.13.38-.38l.14-1.72h.5v5h-.5l-.14-1.72c0-.25-.16-.38-.38-.38h-5.56v7.54h6.19c.48,0,.74-.2.77-.61l.42-3.23h.63v1.3a18.67,18.67,0,0,0,.25,3.56,13.16,13.16,0,0,0-3.06-.25Z"/><path class="cls-3" d="M245.27,136.56H239.6v-.49h1.8l-1.93-5.34h-6.08l-1.94,5.34h1.8v.49h-4.17v-.49h1a.53.53,0,0,0,.53-.39l6.07-16.52h.94l6.08,16.52a.52.52,0,0,0,.52.39h1Zm-8.82-14.14L233.69,130h5.5Z"/><path class="cls-3" d="M258.76,136a.82.82,0,0,0,.68-.34,1.37,1.37,0,0,0,.26-.83,5.11,5.11,0,0,0-.08-.9l.52-.08a3.24,3.24,0,0,1,.11.91,2,2,0,0,1-2.12,2.15c-1.57,0-2.35-.94-2.35-2.84a9.27,9.27,0,0,0-.72-4.19c-.48-.89-1.46-1.34-2.93-1.34h-1.8v7.16a.34.34,0,0,0,.39.39h1.85v.49h-6.19v-.49h1.3a.34.34,0,0,0,.39-.39V120c0-.22-.13-.34-.39-.34h-1.3v-.49h6.88a6.19,6.19,0,0,1,3.95,1.27,4.4,4.4,0,0,1,.57,6.28,5.42,5.42,0,0,1-2.8,1.62,3.58,3.58,0,0,1,2.48,2.38,11.71,11.71,0,0,1,.42,3.34C257.88,135.34,258.17,136,258.76,136Zm-5.64-16h-2.79v7.79h2.79a3.11,3.11,0,0,0,2.59-1.16,4.27,4.27,0,0,0,.92-2.73,4.32,4.32,0,0,0-.92-2.74A3.14,3.14,0,0,0,253.12,119.93Z"/><path class="cls-3" d="M268,119.93v15.8c0,.22.13.34.39.34h2.4v.49H263v-.49h2.4c.26,0,.39-.12.39-.34v-15.8h-3.57c-.48,0-.73.2-.77.61l-.41,3.23h-.64v-1.3a17.87,17.87,0,0,0-.25-3.56,12.65,12.65,0,0,0,3.07.25h7.4a12.65,12.65,0,0,0,3.07-.25,17.87,17.87,0,0,0-.25,3.56v1.3h-.64l-.41-3.23c0-.41-.29-.61-.77-.61Z"/><path class="cls-3" d="M283.89,134.49a11.09,11.09,0,0,1,0-13.26,8,8,0,0,1,11.43,0,11.09,11.09,0,0,1,0,13.26,8,8,0,0,1-11.43,0Zm1.74-12.71a12.42,12.42,0,0,0,0,12.16,4.64,4.64,0,0,0,7.94,0,12.35,12.35,0,0,0,0-12.16,4.64,4.64,0,0,0-7.94,0Z"/><path class="cls-3" d="M298.67,119.65v-.49h8.59a12.65,12.65,0,0,0,3.07-.25,15.09,15.09,0,0,0-.25,3.15v1.3h-.64l-.41-2.82c0-.41-.3-.61-.77-.61h-5.64v7.54h5.44c.19,0,.3-.13.33-.38l.14-1.72h.5v5h-.5l-.14-1.72c0-.25-.14-.38-.33-.38h-5.44v7.43a.34.34,0,0,0,.39.39h2.4v.49h-6.74v-.49H300c.26,0,.38-.13.38-.39V120c0-.22-.12-.34-.38-.34Z"/><path class="cls-3" d="M331.3,136.56l0-.38c0-.39-.17-.58-.44-.58a2.25,2.25,0,0,0-.81.3,7.63,7.63,0,0,1-9.32-1.41,9.38,9.38,0,0,1-2.22-6.62,9.54,9.54,0,0,1,2.19-6.63,7.4,7.4,0,0,1,5.74-2.41,7.87,7.87,0,0,1,3.59.91,2.14,2.14,0,0,0,.83.3c.27,0,.42-.19.44-.58l0-.47h.52v4.78h-.5a4.31,4.31,0,0,0-1.58-3.13,5.36,5.36,0,0,0-3.33-1,4.69,4.69,0,0,0-4.05,2.21,10.48,10.48,0,0,0-1.53,6,10.26,10.26,0,0,0,1.54,6,4.73,4.73,0,0,0,4,2.18,5.36,5.36,0,0,0,3.33-1,4.31,4.31,0,0,0,1.58-3.13h.5v4.61Z"/><path class="cls-3" d="M335.69,134.49a11.13,11.13,0,0,1,0-13.26,8,8,0,0,1,11.44,0,11.09,11.09,0,0,1,0,13.26,8,8,0,0,1-11.44,0Zm1.74-12.71a12.49,12.49,0,0,0,0,12.16,4.65,4.65,0,0,0,7.95,0,12.35,12.35,0,0,0,0-12.16,4.65,4.65,0,0,0-7.95,0Z"/><path class="cls-3" d="M350.48,119.65v-.49h8.59a12.61,12.61,0,0,0,3.06-.25,15.94,15.94,0,0,0-.24,3.15v1.3h-.64l-.41-2.82c0-.41-.3-.61-.78-.61h-5.63v7.54h5.44c.18,0,.29-.13.33-.38l.14-1.72h.5v5h-.5l-.14-1.72c0-.25-.15-.38-.33-.38h-5.44v7.43a.34.34,0,0,0,.38.39h2.41v.49h-6.74v-.49h1.29a.34.34,0,0,0,.39-.39V120c0-.22-.13-.34-.39-.34Z"/><path class="cls-3" d="M363.51,119.65v-.49h8.6a12.61,12.61,0,0,0,3.06-.25,15.81,15.81,0,0,0-.25,3.15v1.3h-.63l-.42-2.82c0-.41-.29-.61-.77-.61h-5.64v7.54h5.45c.18,0,.29-.13.33-.38l.14-1.72h.49v5h-.49l-.14-1.72c0-.25-.15-.38-.33-.38h-5.45v7.43a.34.34,0,0,0,.39.39h2.4v.49h-6.74v-.49h1.3a.34.34,0,0,0,.39-.39V120c0-.22-.13-.34-.39-.34Z"/><path class="cls-3" d="M376.55,136.56v-.49h1.3c.26,0,.38-.13.38-.39V120c0-.22-.12-.34-.38-.34h-1.3v-.49h8.76a12.61,12.61,0,0,0,3.06-.25,15.94,15.94,0,0,0-.24,3.15v1.3h-.64l-.41-2.82c0-.41-.3-.61-.78-.61h-5.8v7.54h5.55c.22,0,.35-.13.39-.38l.14-1.72h.5v5h-.5l-.14-1.72c0-.25-.17-.38-.39-.38H380.5v7.54h6.19c.48,0,.73-.2.77-.61l.42-3.23h.63v1.3a17.87,17.87,0,0,0,.25,3.56,13.2,13.2,0,0,0-3.07-.25Z"/><path class="cls-3" d="M390.53,136.56v-.49h1.3a.34.34,0,0,0,.39-.39V120c0-.22-.13-.34-.39-.34h-1.3v-.49h8.76a12.65,12.65,0,0,0,3.07-.25,15.09,15.09,0,0,0-.25,3.15v1.3h-.64l-.41-2.82c0-.41-.3-.61-.77-.61h-5.81v7.54H400c.22,0,.35-.13.38-.38l.14-1.72h.5v5h-.5l-.14-1.72c0-.25-.16-.38-.38-.38h-5.56v7.54h6.19c.48,0,.74-.2.78-.61l.41-3.23h.64v1.3a18.86,18.86,0,0,0,.24,3.56,13.1,13.1,0,0,0-3.06-.25Z"/></svg>