<svg id="Capa_1" data-name="Capa 1" xmlns="http://www.w3.org/2000/svg" xmlns:xlink="http://www.w3.org/1999/xlink" viewBox="0 0 480 200"><defs><style>.cls-1{fill:none;}.cls-2{clip-path:url(#clip-path);}</style><clipPath id="clip-path"><rect class="cls-1" x="103.79" y="59.28" width="272.42" height="81.43"/></clipPath></defs><g class="cls-2"><path d="M140.1,98c-2.69,8-9,13.91-17.24,13.91-12.06,0-19.07-10.6-19.07-23.43,0-11.67,6.54-25.85,19.2-25.85a18.22,18.22,0,0,1,4.92.68,18,18,0,0,0,3.84.74,15.08,15.08,0,0,0,4.92-1.42L140,77.24l-2.56.6c-3-5.8-7.35-12.55-13.75-12.55-8.21,0-11.65,9.59-11.65,17.62,0,10.53,3.91,23.42,14.28,23.42,5.39,0,9.77-4.25,11.59-9.18Z"/><path d="M145.09,110.85V109l3.7-.67V68.06c0-2.23-1.28-2.9-3.7-2.9V63.33l10.44-4v49.08l3.7.67v1.82Z"/><path d="M186,105c0,1.35.2,2.5,1.61,2.5a4.19,4.19,0,0,0,2.29-1L191,108c-.74,1.35-3.3,3.85-6.33,3.85-3.44,0-4.65-2.23-5.19-4.52-2.56,2.7-5.12,4.52-9,4.52a7.73,7.73,0,0,1-7.55-8c0-8.84,9.1-11.34,16.24-14.31v-3.3c0-3.58-2.69-6.28-5-6.28-1.22,0-1.76,4.52-5.33,4.52-2.62,0-3.84-1-3.84-3.17,0-2.84,3.17-3.71,5.73-3.71,5,0,15.16,3,15.16,10.73Zm-6.74-13c-5.73,1.55-9.23,4.59-9.23,9.65,0,2.77,2.43,5.4,4.45,5.4a6.53,6.53,0,0,0,4.78-2.16Z"/><path d="M200,77.58c2,1.68,2.83,6.88,3.23,10.32h.14c1.61-3.71,4-10.32,8.75-10.32,3,0,4.52,1.41,4.52,4,0,1.75-2,4-4.59,4a20.87,20.87,0,0,1-4-.74c-1.41,0-4,5.2-4,17.28a39.55,39.55,0,0,0,.4,6.28l3.7.67v1.82H193.66V109l3.7-.67V90.13c0-3.85-1.15-8.1-4.92-8.1V80.21Z"/><path d="M242.09,105c0,1.35.2,2.5,1.61,2.5a4.16,4.16,0,0,0,2.29-1l1.15,1.42c-.74,1.35-3.3,3.85-6.33,3.85-3.44,0-4.65-2.23-5.19-4.52-2.56,2.7-5.12,4.52-9,4.52a7.72,7.72,0,0,1-7.54-8c0-8.84,9.09-11.34,16.23-14.31v-3.3c0-3.58-2.69-6.28-5-6.28-1.22,0-1.75,4.52-5.33,4.52-2.62,0-3.83-1-3.83-3.17,0-2.84,3.16-3.71,5.72-3.71,5,0,15.16,3,15.16,10.73Zm-6.74-13c-5.72,1.55-9.23,4.59-9.23,9.65,0,2.77,2.43,5.4,4.45,5.4a6.52,6.52,0,0,0,4.78-2.16Z"/><path d="M282.57,97.29h.14V70.76c0-3.78-1.82-4.52-5.19-5V63.6h13.34v2.16c-3.37.48-5.19,2.57-5.19,5.81v40.29h-3.16l-25.4-38.6H257V103c0,3.64,2.55,5.4,5.72,5.73v2.16H248.29v-2.16a6.13,6.13,0,0,0,5.72-6.48V72.38c0-4-2.56-6.28-5.72-6.62V63.6h12.39Z"/><path d="M304.33,102.08c0,4.66,3.5,5.33,6.13,5.33,3.5,0,6.67-2.83,6.67-4.32V86.42c0-3-.54-3.58-3.23-3.85V80.75l10-3.17v26.19c0,3,.53,3.57,3.23,3.84v1.82l-7.28,2.37a11.52,11.52,0,0,1-2.35-5.2c-2.56,3.31-6,5.2-11.05,5.2a8.79,8.79,0,0,1-8.83-9.11V86.42c0-3-.53-3.58-3.23-3.85V80.75l10-3.17Z"/><path d="M331.41,81.56v-3h3.71V69.2l6.73-3.84V78.52h7.61v3h-7.61v22.68c0,2.16,1.69,3.17,3.57,3.17s3.24-1,4.78-2.23l1,1.83c-2,2.36-5.53,4.79-8.76,4.79-5.93,0-7.34-4.52-7.34-7.63V81.56Z"/><path d="M353.3,106.06a3.67,3.67,0,0,1,3.64-3.64c3.24,0,4.51,2.49,4.78,4.79.27,2,1.35,2.23,3,2.23,3.5,0,6.06-1.69,6.06-5.2,0-7.56-15.9-6.21-15.9-16.07,0-7,7.82-10.6,13.48-10.6,2.89,0,5.52,1.36,5.52,4.05a3.22,3.22,0,0,1-3.5,3.38c-3,0-4.65-2-5.32-5.06-2.9.34-5.33,2.36-5.33,5.2,0,6.81,16.51,4.32,16.51,16.33,0,7-5.53,10.33-12.2,10.33-4.24,0-10.71-1-10.71-5.74"/><polygon points="250.47 128.69 250.47 130.41 244.65 130.41 244.65 133.54 250.14 133.54 250.14 135.27 244.65 135.27 244.65 138.74 250.78 138.74 250.55 140.45 242.66 140.45 242.66 128.69 250.47 128.69"/><rect x="251.93" y="128.7" width="1.87" height="11.76"/><path d="M258,131.89h1.33v-.49a3.2,3.2,0,0,1,.2-1.21,2.4,2.4,0,0,1,.55-.88,2.27,2.27,0,0,1,.84-.53,3.21,3.21,0,0,1,1.05-.2h.43l.66.07a3,3,0,0,1,.67.15l-.28,1.39a3.56,3.56,0,0,0-1-.14,1.39,1.39,0,0,0-.9.29,1.24,1.24,0,0,0-.37,1v.54h2.07v1.48H261.2v7.08h-1.87v-7.08H258Z"/><path d="M266,137.28a2.2,2.2,0,0,0,.36,1.46,1.37,1.37,0,0,0,1.08.4,2.25,2.25,0,0,0,.79-.15,2.19,2.19,0,0,0,.72-.43,2.53,2.53,0,0,0,.51-.68,2,2,0,0,0,.19-.89v-5.1h1.88v8.56h-1.83V139.2a3.8,3.8,0,0,1-1.28,1.15,3,3,0,0,1-1.48.37,2.63,2.63,0,0,1-2.14-.78,3.57,3.57,0,0,1-.65-2.37v-5.68H266Z"/><path d="M272.43,131.89h1.35v-2.3h1.85v2.3h2.12v1.48h-2.12v4.48a1.41,1.41,0,0,0,.27,1,1.06,1.06,0,0,0,.8.29,4.63,4.63,0,0,0,.54,0,2.27,2.27,0,0,0,.5-.12l.28,1.41a5.57,5.57,0,0,1-1.71.26,2.36,2.36,0,0,1-2-.73,3.57,3.57,0,0,1-.56-2.2v-4.32h-1.35Z"/><path d="M280.61,137.28a2.2,2.2,0,0,0,.36,1.46,1.37,1.37,0,0,0,1.07.4,2.26,2.26,0,0,0,.8-.15,2,2,0,0,0,.71-.43,2.17,2.17,0,0,0,.51-.68,1.85,1.85,0,0,0,.2-.89v-5.1h1.87v8.56h-1.82V139.2a3.8,3.8,0,0,1-1.28,1.15,3,3,0,0,1-1.48.37,2.63,2.63,0,0,1-2.14-.78,3.57,3.57,0,0,1-.65-2.37v-5.68h1.85Z"/><path d="M289.65,133.16a3.3,3.3,0,0,1,1.07-1,2.63,2.63,0,0,1,1.33-.36h.47l.37,0-.21,1.72a1.67,1.67,0,0,0-.4-.07h-.44a2.19,2.19,0,0,0-.92.17,1.88,1.88,0,0,0-.67.45,2.14,2.14,0,0,0-.41.63,2,2,0,0,0-.14.72v5h-1.85v-8.56h1.8Z"/><path d="M294.25,139.53a4.77,4.77,0,0,1-1.1-3.36,5.76,5.76,0,0,1,.29-1.86,4,4,0,0,1,.83-1.43,3.69,3.69,0,0,1,1.33-.92,5.07,5.07,0,0,1,3.6,0,3.75,3.75,0,0,1,1.32.93,3.87,3.87,0,0,1,.81,1.43,5.84,5.84,0,0,1,.27,1.82,5.7,5.7,0,0,1-.31,2,4.06,4.06,0,0,1-.88,1.43,3.76,3.76,0,0,1-1.34.88,4.69,4.69,0,0,1-1.71.3,4,4,0,0,1-3.11-1.19m4.86-1.14a4,4,0,0,0,.55-2.24,3.83,3.83,0,0,0-.55-2.2,2.25,2.25,0,0,0-3.47,0,3.9,3.9,0,0,0-.55,2.19,4,4,0,0,0,.54,2.23,1.92,1.92,0,0,0,1.75.82,1.94,1.94,0,0,0,1.73-.81"/><path d="M312.76,140a4,4,0,0,1-2.6.74,4,4,0,0,1-3.09-1.18,4.78,4.78,0,0,1-1.06-3.32,5.93,5.93,0,0,1,.3-2,4,4,0,0,1,.86-1.44,3.51,3.51,0,0,1,1.31-.89,4.56,4.56,0,0,1,1.68-.3,4.43,4.43,0,0,1,1.71.3,3,3,0,0,1,1.2.86,3.46,3.46,0,0,1,.71,1.31,6.1,6.1,0,0,1,.23,1.71v.82h-6.13a3.21,3.21,0,0,0,.59,1.9,2,2,0,0,0,1.69.72,2.17,2.17,0,0,0,1.34-.34,1.75,1.75,0,0,0,.59-1h1.8a3.21,3.21,0,0,1-1.13,2.06m-1.07-6.31a1.9,1.9,0,0,0-1.58-.61,2,2,0,0,0-1.57.62,2.8,2.8,0,0,0-.63,1.65h4.28a2.55,2.55,0,0,0-.5-1.66"/><path d="M316.94,138.53a1.35,1.35,0,0,0,.45.44,1.57,1.57,0,0,0,.63.22,4.72,4.72,0,0,0,.77.06,2.43,2.43,0,0,0,1.35-.28.92.92,0,0,0,.41-.82,1.08,1.08,0,0,0-.25-.73,1.85,1.85,0,0,0-1.05-.43c-.68-.12-1.27-.23-1.79-.34a4.93,4.93,0,0,1-1.3-.45,2.1,2.1,0,0,1-.79-.74,2.53,2.53,0,0,1-.26-1.23,2.27,2.27,0,0,1,.26-1.08,2.41,2.41,0,0,1,.74-.82,3.35,3.35,0,0,1,1.11-.52,5.38,5.38,0,0,1,1.43-.18,5.91,5.91,0,0,1,1.64.19,3.17,3.17,0,0,1,1.07.55,2.34,2.34,0,0,1,.62.79,5,5,0,0,1,.33.94l-1.68.23a1.85,1.85,0,0,0-.6-1,2.18,2.18,0,0,0-1.34-.31,3.09,3.09,0,0,0-.88.1,1.77,1.77,0,0,0-.55.24.78.78,0,0,0-.28.33,1,1,0,0,0-.08.37,1.24,1.24,0,0,0,.07.46.52.52,0,0,0,.24.29,1.38,1.38,0,0,0,.47.2c.19.06.44.11.74.17l1.06.18a6.8,6.8,0,0,1,1.43.38,2.82,2.82,0,0,1,.9.56,1.94,1.94,0,0,1,.47.79,3.69,3.69,0,0,1,.13,1,2.32,2.32,0,0,1-.89,1.89,4.21,4.21,0,0,1-2.69.72,7.38,7.38,0,0,1-1.43-.14,4,4,0,0,1-1.22-.47,2.74,2.74,0,0,1-.88-.88,3.16,3.16,0,0,1-.39-1.4h1.8a1.52,1.52,0,0,0,.23.7"/><path d="M328.79,133.14a3.56,3.56,0,0,1,1.29-1.15,3.35,3.35,0,0,1,1.53-.36q2.86,0,2.86,3.16v5.66H332.6v-5.36a2.19,2.19,0,0,0-.38-1.46,1.42,1.42,0,0,0-1.12-.42,2.49,2.49,0,0,0-.91.17,2.1,2.1,0,0,0-.71.47,2.13,2.13,0,0,0-.47.68,1.91,1.91,0,0,0-.17.82v5.1H327v-8.56h1.81Z"/><path d="M340.13,140.29a3.48,3.48,0,0,1-1.68.38,3.77,3.77,0,0,1-1.13-.16,2.59,2.59,0,0,1-.92-.47,2.11,2.11,0,0,1-.6-.8,2.67,2.67,0,0,1-.22-1.14,2.43,2.43,0,0,1,.39-1.44,2.66,2.66,0,0,1,1-.87,4.72,4.72,0,0,1,1.42-.43,11.91,11.91,0,0,1,1.58-.16l1.26-.07v-.36a1.6,1.6,0,0,0-.47-1.34,1.89,1.89,0,0,0-1.22-.37,2.23,2.23,0,0,0-1.29.3,1.37,1.37,0,0,0-.55.85L336,134a2.62,2.62,0,0,1,1.13-1.83,4.65,4.65,0,0,1,2.48-.57,4.8,4.8,0,0,1,1.69.26,2.49,2.49,0,0,1,1.61,1.82,6,6,0,0,1,.15,1.39v5.35h-1.79v-1.12a3.75,3.75,0,0,1-1.16,1m-1.42-3.66a2.23,2.23,0,0,0-.8.34,1,1,0,0,0-.37.48,1.81,1.81,0,0,0-.09.58,1.13,1.13,0,0,0,.35.88,1.6,1.6,0,0,0,1.05.31,2.13,2.13,0,0,0,2.41-2.32v-.5l-1.2,0a7.77,7.77,0,0,0-1.35.18"/><path d="M343.89,131.89h1.35v-2.3h1.86v2.3h2.12v1.48H347.1v4.48a1.41,1.41,0,0,0,.27,1,1,1,0,0,0,.79.29,4.63,4.63,0,0,0,.54,0,2.15,2.15,0,0,0,.5-.12l.28,1.41a5.57,5.57,0,0,1-1.71.26,2.36,2.36,0,0,1-2-.73,3.57,3.57,0,0,1-.56-2.2v-4.32h-1.35Z"/><path d="M352.08,137.28a2.21,2.21,0,0,0,.35,1.46,1.39,1.39,0,0,0,1.08.4,2.25,2.25,0,0,0,.79-.15,2.18,2.18,0,0,0,1.23-1.11,2,2,0,0,0,.2-.89v-5.1h1.87v8.56h-1.83V139.2a3.8,3.8,0,0,1-1.28,1.15,3,3,0,0,1-1.48.37,2.64,2.64,0,0,1-2.14-.78,3.63,3.63,0,0,1-.65-2.37v-5.68h1.86Z"/><path d="M361.12,133.16a3.18,3.18,0,0,1,1.06-1,2.64,2.64,0,0,1,1.34-.36H364l.37,0-.21,1.72a1.59,1.59,0,0,0-.39-.07h-.45a2.19,2.19,0,0,0-.92.17,1.93,1.93,0,0,0-.66.45,2.17,2.17,0,0,0-.42.63,2,2,0,0,0-.13.72v5h-1.86v-8.56h1.81Z"/><path d="M368.87,140.29a3.46,3.46,0,0,1-1.67.38,3.79,3.79,0,0,1-1.14-.16,2.54,2.54,0,0,1-.91-.47,2.13,2.13,0,0,1-.61-.8,2.67,2.67,0,0,1-.22-1.14,2.36,2.36,0,0,1,.4-1.44,2.7,2.7,0,0,1,1-.87,4.81,4.81,0,0,1,1.42-.43,12.26,12.26,0,0,1,1.58-.16l1.27-.07v-.36a1.63,1.63,0,0,0-.47-1.34,1.9,1.9,0,0,0-1.23-.37,2.23,2.23,0,0,0-1.29.3,1.42,1.42,0,0,0-.55.85l-1.71-.18a2.66,2.66,0,0,1,1.14-1.83,4.62,4.62,0,0,1,2.48-.57,4.7,4.7,0,0,1,1.68.26,2.69,2.69,0,0,1,1.06.72,2.54,2.54,0,0,1,.55,1.1,5.53,5.53,0,0,1,.16,1.39v5.35H370v-1.12a3.91,3.91,0,0,1-1.17,1m-1.42-3.66a2.4,2.4,0,0,0-.8.34,1,1,0,0,0-.37.48,1.81,1.81,0,0,0-.09.58,1.1,1.1,0,0,0,.36.88,1.56,1.56,0,0,0,1,.31,2.38,2.38,0,0,0,1.82-.63,2.34,2.34,0,0,0,.6-1.69v-.5l-1.2,0a8.05,8.05,0,0,0-1.36.18"/><rect x="373.49" y="128.7" width="1.87" height="11.76"/></g></svg>