<svg id="Capa_1" data-name="Capa 1" xmlns="http://www.w3.org/2000/svg" viewBox="0 0 480 200"><defs><style>.cls-1{fill:#2b673c;}.cls-2{fill:#fff;}</style></defs><polyline class="cls-1" points="291.06 149.64 294.26 149.64 294.26 134.86 291.06 134.86 291.06 131.08 303.34 131.08 303.34 134.86 300.08 134.86 300.08 149.64 306.66 149.64 306.66 142.73 311.04 142.73 311.04 153.42 291.06 153.42 291.06 149.64"/><polyline class="cls-1" points="312.94 149.83 315.34 149.83 315.34 134.66 312.94 134.66 312.94 131.08 320.38 131.08 320.38 149.83 322.62 149.83 322.62 153.42 312.94 153.42 312.94 149.83"/><polyline class="cls-1" points="312.89 149.77 315.3 149.77 315.3 134.6 312.89 134.6 312.89 131.01 320.33 131.01 320.33 149.77 322.57 149.77 322.57 153.35 312.89 153.35 312.89 149.77"/><path class="cls-1" d="M339.8,150a8.59,8.59,0,0,1-7.64,3.82c-5.4,0-8.79-3-8.79-7.87a8.14,8.14,0,0,1,8.4-8.43c4.67,0,8.42,3.59,8,9.18H328.41a3.64,3.64,0,0,0,3.81,3.89c1.32,0,2.18-.43,3.63-1.81L339.8,150m-4.91-6.06a3.25,3.25,0,0,0-3.29-3.16c-1.81,0-2.9,1-3.19,3.16Z"/><path class="cls-1" d="M340.77,137.86h7.31v12h2.27v3.6h-9.58v-3.6H343v-8.39h-2.27v-3.58m7.57-4.45a2.72,2.72,0,0,1-2.73,2.73,2.69,2.69,0,0,1-2.7-2.73,2.66,2.66,0,0,1,2.7-2.69A2.69,2.69,0,0,1,348.34,133.41Z"/><path class="cls-1" d="M369.29,153.42h-7.44v-1.84a6,6,0,0,1-4.5,2.07c-3.83,0-6.72-3.49-6.72-8.09s2.93-8.07,6.75-8.07a5.88,5.88,0,0,1,4.47,2.08v-4.91h-2.4v-3.58h7.44v18.75h2.4v3.59m-10.54-11.84c-1.87,0-3,1.54-3,4.07s1.18,4.15,3.06,4.15c1.55,0,3.12-1.21,3.12-4.24C361.91,143.22,360.73,141.58,358.75,141.58Z"/><path class="cls-1" d="M386.52,153.42H379V152.2a6.83,6.83,0,0,1-4.22,1.45c-3.25,0-5.69-2.07-5.69-4.87,0-3,2.67-5.23,6.39-5.23a9.56,9.56,0,0,1,3.52.69v-.86a2.72,2.72,0,0,0-3-2.73,3.68,3.68,0,0,0-2.82,1.22l-4-.69c1.25-2.53,3.62-3.69,7.54-3.69,5.1,0,7.3,1.81,7.3,6v6.38h2.5v3.59m-10.4-6.88a2.06,2.06,0,0,0-2.26,1.94,2,2,0,0,0,2,2.08c1,0,1.78-.43,3.1-1.61v-1.29A5.51,5.51,0,0,0,376.12,146.54Z"/><path class="cls-1" d="M93.48,149.64h3.39V134.86H93.48v-3.78h11.68c4,0,6.84.75,9.12,3a11.27,11.27,0,0,1,3.19,8.19c0,5.79-3.59,11.12-10.7,11.12H93.48v-3.78m11.42,0c4.44,0,6.51-2.86,6.51-7.31,0-4.8-2.37-7.47-6.71-7.47h-2v14.78Z"/><path class="cls-1" d="M119,137.86h7.31v12h2.27v3.6H119v-3.6h2.27v-8.39H119v-3.58m7.57-4.45a2.72,2.72,0,0,1-2.73,2.73,2.69,2.69,0,0,1-2.7-2.73,2.66,2.66,0,0,1,2.7-2.69A2.69,2.69,0,0,1,126.52,133.41Z"/><path class="cls-1" d="M138.31,160.4H127.68v-3.59h2.63V141.44h-2.63v-3.58h7.67v2a5.67,5.67,0,0,1,4.5-2.2c3.76,0,6.62,3.49,6.62,8.09s-2.77,8.07-6.68,8.07a5.88,5.88,0,0,1-4.44-1.95v5h3v3.59m0-18.69c-1.91,0-3,1.51-3,4.08s1.19,4.15,3.06,4.15,3-1.59,3-4.22S140.22,141.71,138.31,141.71Z"/><path class="cls-1" d="M165.79,153.42h-7.44v-1.31a7.65,7.65,0,0,1-4.44,1.54c-3,0-4.77-1.84-4.77-4.84v-7.37h-2.28v-3.58h7.31v9.71c0,1.51.36,2,1.51,2a4.71,4.71,0,0,0,2.67-1.12v-7h-2.07v-3.58h7.1v12h2.41v3.59"/><path class="cls-1" d="M165.5,137.86h2v-2.44l5-3.55v6h2.79v3.58h-2.79v6.75c0,1.35.23,1.61,1.28,1.61a4,4,0,0,0,1.51-.29v3.35a9.49,9.49,0,0,1-3.71.79c-2,0-4.12-1-4.12-3.71v-8.5h-2v-3.58"/><path class="cls-1" d="M194.52,153.42H187V152.2a6.87,6.87,0,0,1-4.22,1.45c-3.26,0-5.69-2.07-5.69-4.87,0-3,2.66-5.23,6.38-5.23a9.61,9.61,0,0,1,3.53.69v-.86a2.72,2.72,0,0,0-3-2.73,3.71,3.71,0,0,0-2.83,1.22l-4-.69c1.25-2.53,3.62-3.69,7.53-3.69,5.11,0,7.31,1.81,7.31,6v6.38h2.5v3.59m-10.4-6.88a2.07,2.07,0,0,0-2.27,1.94,2,2,0,0,0,2,2.08c1,0,1.78-.43,3.1-1.61v-1.29A5.51,5.51,0,0,0,184.12,146.54Z"/><path class="cls-1" d="M210.71,144.18h-3.42a4,4,0,0,0-3.82-2.6c-2.24,0-3.65,1.57-3.65,4,0,2.7,1.32,4.35,3.52,4.35a4.64,4.64,0,0,0,3.95-2.57l3.85,1.71a7.66,7.66,0,0,1-7.54,4.71c-5.36,0-8.88-3.23-8.88-8.17a7.69,7.69,0,0,1,7.86-8,8.08,8.08,0,0,1,4.71,1.51v-1.28h3.42v6.32"/><path class="cls-1" d="M212.36,137.86h7.31v12h2.26v3.6h-9.57v-3.6h2.27v-8.39h-2.27v-3.58m7.57-4.45a2.72,2.72,0,0,1-2.73,2.73,2.69,2.69,0,0,1-2.7-2.73,2.66,2.66,0,0,1,2.7-2.69A2.69,2.69,0,0,1,219.93,133.41Z"/><path class="cls-1" d="M230.34,153.79c-4.6,0-8.16-3-8.16-8.17,0-5.46,3.95-8.13,8.16-8.13,4.55,0,8.2,2.9,8.2,8.13,0,4.91-3.32,8.17-8.2,8.17m-.69-23h5.93l-5.93,5.1h-2.56Zm.69,10.59c-2,0-3.06,1.59-3.06,4.38,0,2.63,1.16,4.22,3.06,4.22s3.1-1.59,3.1-4.32S232.32,141.34,230.34,141.34Z"/><path class="cls-1" d="M266.65,153.42h-7.43v-1.84a6.05,6.05,0,0,1-4.51,2.07c-3.82,0-6.71-3.49-6.71-8.09s2.93-8.07,6.74-8.07a5.88,5.88,0,0,1,4.48,2.08v-4.91h-2.4v-3.58h7.44v18.75h2.39v3.59m-10.53-11.84c-1.87,0-3,1.54-3,4.07s1.18,4.15,3.06,4.15c1.54,0,3.12-1.21,3.12-4.24C259.28,143.22,258.1,141.58,256.12,141.58Z"/><path class="cls-1" d="M282.82,150a8.57,8.57,0,0,1-7.63,3.82c-5.4,0-8.79-3-8.79-7.87a8.14,8.14,0,0,1,8.39-8.43c4.67,0,8.43,3.59,8,9.18H271.43a3.65,3.65,0,0,0,3.82,3.89c1.32,0,2.17-.43,3.62-1.81l3.95,1.22m-4.9-6.06a3.25,3.25,0,0,0-3.29-3.16c-1.81,0-2.9,1-3.2,3.16Z"/><path class="cls-1" d="M260.42,91.25V58.17h-6.26v46.65s6.26-1.46,6.26-13.57"/><path class="cls-1" d="M219.4,91.25V58.17h6.26v46.65s-6.26-1.46-6.26-13.57"/><path class="cls-1" d="M250.52,107.11V58.17h-6.25v50.39s3.95,0,6.25-1.45"/><path class="cls-1" d="M229.36,107.11V58.17h6.26v50.39s-4,0-6.26-1.45"/><rect class="cls-1" x="221.65" y="51.29" width="36.65" height="4.48"/><polyline class="cls-2" points="216.98 83.39 239.97 60.4 262.97 83.39 239.97 106.39 216.98 83.39"/><path class="cls-1" d="M240,58.42l-25,25,25,25,25-25-25-25m0,3.95,21,21-21,21-21-21Z"/><path class="cls-1" d="M250.19,83.93c3.81-2.33,2.72-5.28,2.72-5.28-3.42-.65-5.08,3.07-5.08,3.07a4,4,0,0,0-6-1.41c-1.42,1-.78,1.93-.78,1.93a7.28,7.28,0,0,1,6.41,1.53L240.53,91V73.32s2.82-.42,5.66,3.23c0,0,1.72-.62.2-3.35s-4.86-1.68-4.86-1.68,1.27-3.9-1.59-5.69c-2.86,1.79-1.59,5.69-1.59,5.69s-3.33-1-4.86,1.68.2,3.35.2,3.35c2.84-3.65,5.66-3.23,5.66-3.23V91l-6.89-7.22a7.26,7.26,0,0,1,6.4-1.53s.65-.89-.76-1.93a4,4,0,0,0-6,1.41S230.39,78,227,78.65c0,0-1.09,2.95,2.72,5.28a4,4,0,0,0-2.3,5s.82,2.37,2.3,1.83c0,0-.58-3.91,1.9-6.18l7.76,8v8.8l.05,0h1.08l.05,0v-8.8l7.76-8c2.48,2.27,1.9,6.18,1.9,6.18,1.48.54,2.3-1.83,2.3-1.83a4,4,0,0,0-2.3-5"/><path class="cls-1" d="M262.71,40.29a2.59,2.59,0,0,0-1-.57l-.08,0a1.74,1.74,0,0,0-.47-.08h-.1a1.88,1.88,0,0,0-1.42.76l-.74,1.24-.53.88h0l-1.47,2.42-.68,1.28s-.83,1.4,1,2.44,2.61-.38,2.61-.38L260.6,47l.53-.88h0l1.48-2.42.67-1.28a1.67,1.67,0,0,0-.58-2.14"/><path class="cls-1" d="M223.77,46.19l-.67-1.28-1.48-2.42h0l-.53-.88-.75-1.24a1.85,1.85,0,0,0-1.41-.76h-.11a1.87,1.87,0,0,0-.47.08l-.08,0a2.59,2.59,0,0,0-1,.57,1.67,1.67,0,0,0-.57,2.14l.67,1.28,1.48,2.42h0l.54.88.74,1.24s.75,1.42,2.61.38,1-2.44,1-2.44"/><path class="cls-1" d="M255.37,46.19l-.67-1.28-1.48-2.42h0l-.53-.88-.75-1.24a1.85,1.85,0,0,0-1.34-.75h-.34a1.89,1.89,0,0,0-1.35.75l-.74,1.24-.54.88h0l-1.48,2.42-.67,1.28s-.83,1.4,1,2.44,2.6-.38,2.6-.38l.75-1.24.53-.88h0l0-.07,0,.07h0L251,47l.75,1.24s.75,1.42,2.6.38,1-2.44,1-2.44"/><path class="cls-1" d="M244.89,46.19l-.66-1.28-1.48-2.42h0l-.53-.88-.74-1.24a1.89,1.89,0,0,0-1.35-.75h-.34a1.86,1.86,0,0,0-1.35.75l-.75,1.24-.53.88h0l-1.48,2.42L235,46.19s-.83,1.4,1,2.44,2.61-.38,2.61-.38l.75-1.24.53-.88h0l0-.07,0,.07h0l.54.88.74,1.24s.75,1.42,2.61.38,1-2.44,1-2.44"/><path class="cls-1" d="M234.47,46.19l-.67-1.28-1.48-2.42h0l-.53-.88L231,40.37a1.86,1.86,0,0,0-1.35-.75h-.33a1.86,1.86,0,0,0-1.35.75l-.75,1.24-.53.88h0l-1.48,2.42-.66,1.28s-.84,1.4,1,2.44,2.61-.38,2.61-.38l.74-1.24.53-.88h0l.05-.07,0,.07h0l.53.88.75,1.24s.75,1.42,2.61.38,1-2.44,1-2.44"/></svg>