<svg id="Capa_1" data-name="Capa 1" xmlns="http://www.w3.org/2000/svg" xmlns:xlink="http://www.w3.org/1999/xlink" viewBox="0 0 480 200"><defs><style>.cls-1,.cls-3{fill:none;}.cls-2{fill:#1a181b;}.cls-3{stroke:#1a181b;stroke-miterlimit:10;stroke-width:0.64px;}.cls-4{fill:#d4264f;}.cls-5{clip-path:url(#clip-path);}.cls-6{fill:#f9cece;}.cls-7{fill:#f09ea1;}.cls-8{fill:#fff;}</style><clipPath id="clip-path"><path class="cls-1" d="M52.22,100A36.81,36.81,0,1,0,89,63.15,36.8,36.8,0,0,0,52.22,100"/></clipPath></defs><path class="cls-2" d="M339.66,84.45h5.88c3.52,0,6.18,2.14,6.18,6.53,0,3.84-2,6.69-6.18,6.69h-5.88Zm3,10.77h2.67c1.73,0,3.39-1,3.39-4,0-2.67-1-4.37-3.93-4.37h-2.13Z"/><path class="cls-2" d="M356.54,86.61h-2.7V84.45h2.7Zm-2.7,1.48h2.7v9.58h-2.7Z"/><path class="cls-2" d="M359,88.09h2.58v1.22h0a3.31,3.31,0,0,1,2.94-1.48c3.09,0,4.49,2.43,4.49,5.15,0,2.56-1.46,5-4.34,5a3.54,3.54,0,0,1-3-1.45h0V101H359Zm7.34,4.82c0-1.52-.64-3.1-2.37-3.1s-2.35,1.54-2.35,3.1.61,3,2.37,3S366.36,94.46,366.36,92.91Z"/><path class="cls-2" d="M380.19,97.67h-2.58V96.33h-.06a3.52,3.52,0,0,1-3,1.6c-2.88,0-3.6-1.58-3.6-4V88.09h2.7V93.5c0,1.57.48,2.35,1.74,2.35,1.47,0,2.1-.79,2.1-2.74v-5h2.71Z"/><path class="cls-2" d="M386.11,88.09h2v1.76h-2v4.74c0,.89.24,1.12,1.15,1.12a4.08,4.08,0,0,0,.85-.08v2.05a10.1,10.1,0,0,1-1.6.1c-1.65,0-3.1-.37-3.1-2.28V89.85h-1.64V88.09h1.64V85.22h2.7Z"/><path class="cls-2" d="M390.19,91c.15-2.46,2.42-3.2,4.63-3.2,2,0,4.34.43,4.34,2.73v5a4.79,4.79,0,0,0,.34,2.13h-2.75a4.15,4.15,0,0,1-.19-.93,4.62,4.62,0,0,1-3.32,1.19c-1.87,0-3.35-.91-3.35-2.87,0-2.17,1.67-2.69,3.35-2.91s3.21-.19,3.21-1.26-.81-1.3-1.76-1.3S393,90,392.9,91Zm6.26,2a5.42,5.42,0,0,1-2.25.55c-.85.17-1.61.45-1.61,1.42s.78,1.22,1.67,1.22A2,2,0,0,0,396.45,94Z"/><path class="cls-2" d="M408,91.47a1.85,1.85,0,0,0-2-1.66c-1.74,0-2.31,1.71-2.31,3.11s.55,3,2.26,3A2.05,2.05,0,0,0,408.13,94h2.61c-.34,2.54-2.15,3.93-4.74,3.93A4.72,4.72,0,0,1,401,93c0-3,1.84-5.18,5-5.18,2.33,0,4.46,1.19,4.63,3.64Z"/><path class="cls-2" d="M415.58,86.61h-2.7V84.45h2.7Zm-2.7,1.48h2.7v9.58h-2.7Z"/><path class="cls-2" d="M422.66,87.83a5.05,5.05,0,1,1-5.09,5.06A4.78,4.78,0,0,1,422.66,87.83Zm0,8.11c1.86,0,2.4-1.54,2.4-3s-.54-3.08-2.4-3.08-2.38,1.54-2.38,3.08S420.83,95.94,422.66,95.94Zm.46-9h-1.88l1.82-2.64h3Z"/><path class="cls-2" d="M339.63,103.93h6.21c2.53,0,4.23.81,4.23,3.27a2.89,2.89,0,0,1-1.8,2.76,3.24,3.24,0,0,1,2.43,3.35c0,2.69-2.28,3.84-4.67,3.84h-6.4Zm2.9,5.34h3c1,0,1.78-.45,1.78-1.57s-1-1.52-2-1.52h-2.72Zm0,5.62h3.11c1.15,0,2.15-.37,2.15-1.74s-.85-1.89-2.09-1.89h-3.17Z"/><path class="cls-2" d="M352.31,110.52c.16-2.46,2.36-3.21,4.51-3.21,1.9,0,4.2.43,4.2,2.73v5a4.93,4.93,0,0,0,.33,2.13h-2.67a3.57,3.57,0,0,1-.18-.93,4.37,4.37,0,0,1-3.22,1.19c-1.82,0-3.26-.91-3.26-2.87,0-2.17,1.63-2.68,3.26-2.91s3.11-.19,3.11-1.26-.79-1.3-1.71-1.3-1.64.41-1.74,1.45Zm6.08,1.94a5.26,5.26,0,0,1-2.19.56c-.81.17-1.56.45-1.56,1.41s.76,1.22,1.62,1.22a2,2,0,0,0,2.13-2.21Z"/><path class="cls-2" d="M363.09,107.57h2.5v1.78h0a3.39,3.39,0,0,1,3.05-2,1.86,1.86,0,0,1,.58.1v2.44a5.26,5.26,0,0,0-.94-.09c-1.93,0-2.6,1.39-2.6,3.07v4.32h-2.63Z"/><path class="cls-2" d="M376.52,110.94a1.8,1.8,0,0,0-1.95-1.65c-1.68,0-2.23,1.71-2.23,3.12s.53,3,2.18,3a2,2,0,0,0,2.09-2h2.54a4.29,4.29,0,0,1-4.62,3.93,4.64,4.64,0,0,1-4.82-4.91c0-3,1.77-5.19,4.89-5.19,2.25,0,4.33,1.19,4.5,3.63Z"/><path class="cls-2" d="M382.84,113c.07,1.67.89,2.43,2.35,2.43a2.17,2.17,0,0,0,2.07-1.24h2.32a4.31,4.31,0,0,1-4.48,3.22,4.68,4.68,0,0,1-4.89-5,4.8,4.8,0,0,1,4.89-5.06c3.26,0,4.84,2.75,4.65,5.69Zm4.27-1.67c-.24-1.33-.81-2-2.1-2a2.07,2.07,0,0,0-2.17,2Z"/><path class="cls-2" d="M391.41,103.93H394v13.22h-2.63Z"/><path class="cls-2" d="M400.8,107.31a5.05,5.05,0,1,1-4.94,5.06A4.7,4.7,0,0,1,400.8,107.31Zm0,8.12c1.8,0,2.34-1.54,2.34-3.06s-.54-3.08-2.34-3.08-2.31,1.54-2.31,3.08S399,115.43,400.8,115.43Z"/><path class="cls-2" d="M407.5,107.57H410v1.34h.05a3.41,3.41,0,0,1,2.93-1.6c2.8,0,3.5,1.57,3.5,4v5.89h-2.63v-5.41c0-1.58-.46-2.35-1.69-2.35-1.43,0-2,.8-2,2.74v5H407.5Z"/><path class="cls-2" d="M418.41,110.52c.15-2.46,2.36-3.21,4.51-3.21,1.9,0,4.2.43,4.2,2.73v5a4.76,4.76,0,0,0,.34,2.13h-2.67a3.57,3.57,0,0,1-.19-.93,4.34,4.34,0,0,1-3.22,1.19c-1.82,0-3.26-.91-3.26-2.87,0-2.17,1.62-2.68,3.26-2.91s3.11-.19,3.11-1.26-.77-1.3-1.7-1.3-1.65.41-1.74,1.45Zm6.08,1.94a5.21,5.21,0,0,1-2.18.56c-.81.17-1.56.45-1.56,1.41s.76,1.22,1.61,1.22a2,2,0,0,0,2.13-2.21Z"/><path class="cls-2" d="M305.9,95.32l-1.56,1.57v6H298.4l-1.56,1.56L298.4,106h5.94v6l1.56,1.57,1.57-1.57v-6h5.94l1.58-1.56-1.58-1.56h-5.94v-6Zm0-19.11a24,24,0,1,0,24,24,24,24,0,0,0-24-24m8.76,9.14a.94.94,0,1,1-.94.93.94.94,0,0,1,.94-.93m-17.83,5h18.08V91H296.84Zm14.7,1.88v5.61L308.73,95V92.22Zm-8.45,0V95l-2.82,2.81V92.22Zm-5,0V100l-2.82,2.82V92.22Zm-1.24-4.07H315V89.4H296.84Zm16.89,4.07h2.81v10.61L313.73,100Zm-.63-5.94a.94.94,0,1,1-.94-.93.94.94,0,0,1,.94.93m-2.18-3.12a.94.94,0,1,1-.94.94.94.94,0,0,1,.94-.94m-1.24,2.19a.94.94,0,1,1-.95.93.93.93,0,0,1,.95-.93m-1.57.93a1,1,0,0,1-.94.94.94.94,0,1,1,0-1.87.94.94,0,0,1,.94.93m-2.2-3.12a.94.94,0,1,1,0,1.88.94.94,0,1,1,0-1.88m-1.26,2.19a.94.94,0,1,1-.94.93.94.94,0,0,1,.94-.93m-1.57.93a.94.94,0,1,1-.94-.93.94.94,0,0,1,.94.93m-2.18-3.12a.94.94,0,1,1,0,1.88.94.94,0,1,1,0-1.88m-1.25,2.19a.94.94,0,1,1-.94.93.94.94,0,0,1,.94-.93m-1.55.93a1,1,0,0,1-1,.94.94.94,0,0,1,0-1.87,1,1,0,0,1,1,.93m-2.21-3.12a.94.94,0,1,1,0,1.88.94.94,0,0,1,0-1.88m2.19,34.09h-2.82V106l2.82,2.81Zm5,0h-2.82V111l2.82,2.82Zm8.45,0h-2.81v-3.42l2.81-2.82Zm5,0h-2.81v-8.43l2.81-2.82Zm-10.63-2-10.83-10.83,10.83-10.83,10.84,10.83Zm10-30.21a.94.94,0,1,1,.94-.94.94.94,0,0,1-.94.94"/><line class="cls-3" x1="265.13" y1="138.48" x2="265.13" y2="61.52"/><path class="cls-4" d="M89,63.15A36.81,36.81,0,1,1,52.22,100,36.8,36.8,0,0,1,89,63.15"/><g class="cls-5"><path class="cls-6" d="M89,130.74c-19.23,0-35.27-13.56-36.92-30.87-.1,1,.11,2,.11,3,0,18.71,16.47,33.88,36.81,33.88s36.81-15.17,36.81-33.88A28.3,28.3,0,0,0,126,100c-1.65,17.3-17.74,30.75-37,30.75"/><path class="cls-7" d="M89,69.16c19.38,0,35.28,13.57,37,30.88a30,30,0,0,0,.14-3c0-18.71-16.61-33.88-37.09-33.88S51.91,78.32,51.91,97a30,30,0,0,0,.15,3C53.72,82.73,69.62,69.16,89,69.16"/></g><path class="cls-8" d="M121.49,100.88c-.13-.16-.33,0-.43.2l.34.16-.17.16.13.24-.27,0,.07-.21-.38-.08c.08-.6-.46-.69-.37-.08h-.07l0-.32c-.31,0-.52,0-.45.48h.61s.07.49.26.33v.08h-.33l-.13-.17c-.13,0-.37.17-.48,0-.26.41-.8,0-1.14.41-.1-.32-.58.28-.58-.32l.17-.21c-.17,0-.43-.07-.47-.28.3-.28.64-.16,1-.12l.2,0c-.48-.16,0-.65-.2-1-.14-.08-.47-.25-.58,0l.2.16c0,.17,0,.54.14.58-.14.12-.44.32-.61,0l0-.33-.27.65c.1.16-.1.21-.19.24l.23.2-.11.21H118V102c-.31.08-.64-.12-.94.16-.2-.49-.65.28-.74-.16l-.31.2-.16-.4h-.24l0-.08-.12.32-.3-.16c-.06.32-.36.12-.53,0-.21.21-.58,0-.65.42l.1.15c-.4.69-1.2-.2-1.52.69l-.26-.11,0,.08c.1.4.41,0,.62.15.12-.44.29-.28.59-.23l0,.11c.17.24.54.05.61.24l-.4.13.16.32-.2-.12c-.11,0,0-.2.07-.17a.73.73,0,0,1-.44-.08c-.07.25-.31-.27-.47.08.13.09.36.17.23.37h-.33l-.27-.12c0,.16.31-.08.31-.12-.29-.13-.85,0-.85-.41l.4-.12-.1-.5.51-.43a.33.33,0,0,0-.41-.08c-.13-.45-.58-.41-.88-.36-.27.28-.61-.09-.82.28l-.19-.37-.3.09-.24-.09v.2l-.14-.2c-.26.25-.6,0-.8.2l.06-.11c-.23-.12-.67.32-.7-.21-.11.16-.42,0-.45.21l0-.12c-.35.12-.78,0-1.15.23-.61-.39-.64-.11-1.28-.76h-.08c-.16-.36.62-.45.25-.81,0-.4.6-.89.2-1.17.24-.45.61-.09.91-.32.37.15.74.56,1.11.23h.17l0,.16c.47-.24,1.53-.2,1.49-.39.13.32.6.07.6.52,0-.15-.13-.45,0-.45.26.3.68-.4.88.12.3-.4.47.57.71-.12.2.12-.11,1,.33.61l.27.16.14-.47-.1-.05a.33.33,0,0,1,.41-.13c.32-.12.53-.56.9-.72l.07-.13-.18-.16c.28-.19-.12-.64.31-.6l.07-.4c-.71-.86.61-.9.34-1.42v-.2h0c-.13-.21.11-.57.17-.69l.14.24.16-.2c-.07-.24-.36-.44-.09-.72l.3.16c.2-.33-.44-1.22.44-1.47l-.14-.32c.81-.12-.3-.89.44-1,0-.42.65-.61.54-.16h-.07c.18.48.64-.09.82.35l.19,0c.21.17-.29.37,0,.49,0-.17.2-.45.34-.32-.3.4-.38.68.09.92-.47,0-.47,1-.26,1.43l-.21.2c-.13-.54-.26-.45-.67-.54l-.07.17c.92-.2.37,1.09.61,1.33-.3-.24-.61,1.14-.81.37l-.07-.16-.43.2,0,.36-.13.08c.13.21-.38.37,0,.53l.1-.16.16.08c-.26-.48.34-.48.57-.6l.18.27c-.21-.12-.48.21-.48.41-.4.16-.84.36-1.18,0-.57.21.71.45.71.68l-.44.37.48.21c-.34.11-.45.88-.85.8a.66.66,0,0,0-.06.53l.33-.09.17.37c.44.08.07-.45.44-.23l-.16.15c.09.32.43-.13.56.2h.27l-.06.25.09.07c.2-.36.42-.48.62,0-.1.05-.28.36,0,.41l.3-.48-.13-.25.36,0v.29a1.34,1.34,0,0,0,.79-.6l.19.15-.19.16c0,.2.19.41.35.2.28.16.69-.2.69.33.23,0,.17-.53.37-.37.06-.12.13-.47.3-.32l.14.2c-.38,0,0,.41-.06.68-.25.17-.08-.72-.41-.31.16.15.09.48.09.68l-.13.17c.24-.09.65-.17.67-.45.4.12.72-.89,1-.2-.38-.2-.52.2-.65.48l.23.21c0-.21.21-.49.35-.41l.36.37ZM110.82,99.3v.16l.21,0Zm1.26,8.9v-.28c-.34-.13,0,.28-.27.16l.1-.16-.1-.13h-.18l-.26-.21c-.21.21.2.34,0,.41a.18.18,0,0,1-.27-.16l.14-.07.06-.41.24.08c0,.12.11.33.27.21l.17-.29.27.57Zm-1,.45c0-.21.27-.29.37-.29-.17,0-.17.36-.37.29m.2.73h-.13a.88.88,0,0,1,.2-.49l.35.23c-.07.18-.48,0-.42.26m.2-2.92-.3,0,.17-.36.24.12Zm-.2-.45v-.11a.12.12,0,0,1,.11.11Zm.11,1,0,0,0-.11.06.11Zm.2,1.78h-.11v-.12l.15,0Zm1.41-3-.1-.12-.16.12c.13.12.3.36.47.19l.1,0c0,.32-.41.09-.57.32l.23.17-.12.37.12.15-.29.13-.11-.36h0l.32-.49c-.28-.13,0-.52-.32-.52l0-.54-.2.33v0h-.24l-.2-.24-.17.2c.34.09-.17.4.17.53l.3-.2c-.1.27.3.6,0,.89l.12.19c-.26-.36-.36.21-.63.09a.53.53,0,0,1,.37-.45c-.17-.08-.54-.32-.34-.61-.16-.29-.34-.4-.14-.77V105c.25,0,.58.13.68-.16l.31.16a1.1,1.1,0,0,0,.67-.28l0-.2c-.17.32-.42-.2-.63,0-.27-.29-.44.4-.71,0l-.14.2,0,0c.2-.2-.28-.89.34-.69.1,0,.17.24.27.37h0V104c.31.33.65-.2.88.29l.31-.13c.07.58-.58.73-.58,1.59m-.9-6.61-.27-.07c0-.25.3-.17.4,0Zm-.07,1.46-.1.25.34.24a.48.48,0,0,0-.24-.49m-.1,8.46,0-.12.07,0Zm0-6.68.07-.15c.07,0,.07.07.07.15Zm.31-2.06s-.07.08,0,.17l.16-.13Zm0,8.37v0l.14-.32,0,.29Zm.3-.43-.16-.09c0-.12.16-.28.27-.21Zm.15-3.61v.16c-.29,0-.11-.12,0-.16m-.15-5.06.11.13c.1-.09.36-.21.36-.41-.15-.17-.36.12-.47.28m.51,7.57,0-.12c.1,0,.14,0,.21.08Zm.1-3.2,0-.12h.17V104Zm.64-1h0v-.21l.1.16Zm0-5.63c0,.36.31.32.27.52h0c0-.2,0-.48-.31-.52m.1,7c-.1-.27.17-.36.17-.07Zm.34-1.69v-.11h.14v.1Zm.27-7.36.3-.17c-.1,0-.3-.12-.3.17m.2,2.22c-.07,0,0,.12.08.16l.06-.12Zm.86,3.24c-.12.16-.35.44-.48.32v.12c.13.08.36-.08.51-.16l.06,0-.06.2c.24.08.26-.24.5-.2Zm-.42-6.15h.1l0,0c-.07-.09,0,0-.14,0m.07.77.18.33,0-.37.15,0c-.07-.41-.24.23-.38,0m0,3.36c-.1-.21.32-.21.41-.21,0,.21-.3.21-.41.21m.28-5,.17.21c0-.21-.13-.17-.17-.21m.17.89v.2c.16-.2.33-.08.5,0-.1-.33-.34,0-.5-.2m.21,2.54-.05-.12c.05-.28.27-.24.45-.11,0,.23-.31,0-.4.23m0-1.41.09-.13,0,.13Zm0,2.1s0-.16,0-.16l0,.16Zm0-.36,0-.2.1.08Zm.43-6.6,0-.16.1.16Zm.71,9.8.08.08-.34.32.47-.16Zm1.53,1.12c.17,0,.17-.2.05-.39a.3.3,0,0,0-.05.39m.22-2.38.11-.31c.1,0,.31.19.2.35Zm.21.93a1.23,1.23,0,0,0,.54,0c-.2-.17-.6-.48-.54,0m.48.49-.48.08c.31.12.21.49.1.77.11-.28.21-.33.42-.33Zm.92-1.06,0-.2c.17,0,.24,0,.17.25Zm1.17.45-.14-.12c-.09-.2.14-.2.18,0Zm.34.69.1.28h-.27c-.31-.41.23-.28.23-.57l.24.21V101Z"/><path class="cls-8" d="M60.16,92.4h7.22C70,92.35,73,93.05,73,96.27a3.47,3.47,0,0,1-2,3.11A3.68,3.68,0,0,1,73.59,103c0,3.68-2.7,4.8-6,4.8H60.16Zm4,6.08H67.3A1.51,1.51,0,0,0,69,97c0-1.12-.81-1.48-1.65-1.48H64.18Zm0,6.14H67.4c1.28,0,2.16-.45,2.16-1.73s-.94-1.82-2.16-1.82H64.18Z"/><path class="cls-8" d="M85.27,97.91a2.82,2.82,0,0,0-3.12-2.38c-2.59,0-3.58,2.29-3.58,4.59s1,4.58,3.58,4.58a2.87,2.87,0,0,0,3.12-2.86h4c-.22,4-3.14,6.33-7.05,6.33-4.68,0-7.7-3.57-7.7-8s3-8.06,7.7-8.06c3.33,0,7,2.14,7.05,5.85Z"/><polygon class="cls-8" points="90.63 92.4 94.76 92.4 100.13 101.92 100.17 101.92 100.17 92.4 103.95 92.4 103.95 107.84 99.82 107.84 94.46 98.21 94.42 98.21 94.42 107.84 90.63 107.84 90.63 92.4"/><path class="cls-4" d="M136.57,113.14a8,8,0,0,0-.07,1,2.69,2.69,0,0,0,2.86,2.67,3.12,3.12,0,0,0,3.17-2.11h1.81a4.8,4.8,0,0,1-5,3.7c-3.63,0-4.67-2.51-4.67-4.41,0-4.22,2.65-7.09,5.66-7.09,3.25,0,4.67,1.76,4.67,4.86a7.11,7.11,0,0,1-.17,1.42Zm6.65-1.58c.13-1.56-.59-3.12-2.59-3.12a3.9,3.9,0,0,0-3.81,3.12Zm-1-9h2.4l-2.89,3h-1.5Z"/><path class="cls-4" d="M153.47,110.34c.09-1.25-1-1.9-2.27-1.9s-2.35.3-2.35,1.41,1.44,1.42,2.89,2,2.93,1.36,2.93,3.09c0,2.45-2.37,3.4-4.5,3.4-2.51,0-4.47-.91-4.45-3.72h1.82c-.1,1.63,1.3,2.13,2.79,2.13,1.18,0,2.52-.43,2.52-1.69,0-1-1.45-1.49-2.9-2.07s-2.91-1.33-2.91-3c0-2,2.05-3.17,4.09-3.17s4.15.91,4.15,3.49Z"/><path class="cls-4" d="M164.3,107.11H166l-.42,1.63.05.05a5,5,0,0,1,3.83-1.94,2.52,2.52,0,0,1,2.78,2,4.77,4.77,0,0,1,3.76-2c1.56,0,3.07.68,3.07,2.47a10.82,10.82,0,0,1-.32,2.19l-1.39,6.61h-1.8l1.52-7a5.72,5.72,0,0,0,.18-1.2,1.56,1.56,0,0,0-1.68-1.49A3.89,3.89,0,0,0,172.8,110a5.1,5.1,0,0,0-1,2.46l-1.22,5.7h-1.8l1.31-6.29a13.08,13.08,0,0,0,.34-1.94,1.36,1.36,0,0,0-1.52-1.45,3.93,3.93,0,0,0-2.71,1.41,4.21,4.21,0,0,0-1.17,2.49l-1.23,5.78H162Z"/><path class="cls-4" d="M186.73,106.85c2.93,0,4.57,1.61,4.57,4.55,0,3.6-2.24,7-6.09,7a4.36,4.36,0,0,1-4.65-4.6c0-3.59,2.31-6.91,6.17-6.91m-1.32,9.92c2.62,0,4.08-3,4.08-5.21,0-1.74-.92-3.12-2.9-3.12-2.77,0-4.21,3-4.21,5.31a2.78,2.78,0,0,0,3,3"/><polygon class="cls-4" points="195.53 102.91 197.33 102.91 194.13 118.11 192.32 118.11 195.53 102.91"/><path class="cls-4" d="M201.85,107.11h2.2l-.34,1.59h-2.2l-1.35,6.47c0,.26-.07.47-.07.73,0,.57.53.74,1.09.74a3.67,3.67,0,0,0,1-.19l-.31,1.67a8.15,8.15,0,0,1-1.29.12c-1.34,0-2.47-.39-2.47-1.79a4.91,4.91,0,0,1,.11-.91l1.45-6.84h-1.86l.35-1.59H200l.69-3.27h1.8Z"/><path class="cls-4" d="M212,107.11h1.67l-.41,1.63.05.05a5,5,0,0,1,3.84-1.94,2.51,2.51,0,0,1,2.76,2,4.77,4.77,0,0,1,3.77-2c1.55,0,3.06.68,3.06,2.47a11.56,11.56,0,0,1-.31,2.19l-1.39,6.61h-1.81l1.53-7a5.69,5.69,0,0,0,.17-1.2,1.56,1.56,0,0,0-1.67-1.49A3.93,3.93,0,0,0,220.5,110a5.1,5.1,0,0,0-1,2.46l-1.21,5.7h-1.8l1.31-6.29a15.21,15.21,0,0,0,.35-1.94,1.37,1.37,0,0,0-1.54-1.45,3.93,3.93,0,0,0-2.7,1.41,4.11,4.11,0,0,0-1.18,2.49l-1.24,5.78h-1.79Z"/><path class="cls-4" d="M230,113.14c0,.33-.05.65-.05,1a2.68,2.68,0,0,0,2.84,2.67,3.1,3.1,0,0,0,3.17-2.11h1.81a4.78,4.78,0,0,1-5,3.7c-3.63,0-4.66-2.51-4.66-4.41,0-4.22,2.64-7.09,5.67-7.09,3.23,0,4.65,1.76,4.65,4.86a8.3,8.3,0,0,1-.15,1.42Zm6.66-1.58c.12-1.56-.58-3.12-2.58-3.12a3.89,3.89,0,0,0-3.81,3.12Zm-1-9h2.41l-2.9,3h-1.5Z"/><path class="cls-4" d="M246.9,110.34c.09-1.25-1-1.9-2.28-1.9-1.1,0-2.34.3-2.34,1.41s1.45,1.42,2.89,2,2.93,1.36,2.93,3.09c0,2.45-2.37,3.4-4.49,3.4-2.53,0-4.48-.91-4.46-3.72H241c-.08,1.63,1.3,2.13,2.8,2.13,1.18,0,2.52-.43,2.52-1.69,0-1-1.44-1.49-2.89-2.07s-2.92-1.33-2.92-3c0-2,2.05-3.17,4.08-3.17s4.17.91,4.17,3.49Z"/><path class="cls-4" d="M135.7,81.4h7.42c3,0,5,1,5,3.91a3.46,3.46,0,0,1-2.13,3.3,3.86,3.86,0,0,1,2.9,4c0,3.2-2.73,4.58-5.57,4.58H135.7Zm3.47,6.39h3.51c1.21,0,2.12-.55,2.12-1.88,0-1.5-1.14-1.81-2.39-1.81h-3.24Zm0,6.7h3.71c1.37,0,2.56-.44,2.56-2.08s-1-2.26-2.5-2.26h-3.77Z"/><path class="cls-4" d="M150.64,89.27c.17-2.94,2.8-3.82,5.37-3.82,2.27,0,5,.5,5,3.25v5.94a5.86,5.86,0,0,0,.39,2.55h-3.19a5.88,5.88,0,0,1-.21-1.11,5.24,5.24,0,0,1-3.85,1.41c-2.17,0-3.89-1.08-3.89-3.42,0-2.59,1.95-3.2,3.89-3.46s3.72-.23,3.72-1.51-.93-1.55-2-1.55-2,.49-2.08,1.72Zm7.25,2.32c-.53.47-1.64.48-2.61.67s-1.86.52-1.86,1.67.91,1.46,1.93,1.46a2.33,2.33,0,0,0,2.54-2.62Z"/><path class="cls-4" d="M163.3,85.75h3v2.12h0A4,4,0,0,1,170,85.46a2.3,2.3,0,0,1,.69.1v2.91a6.45,6.45,0,0,0-1.14-.1c-2.29,0-3.09,1.65-3.09,3.67v5.15H163.3Z"/><path class="cls-4" d="M179.13,89.77a2.15,2.15,0,0,0-2.32-2c-2,0-2.68,2-2.68,3.71s.65,3.61,2.61,3.61a2.41,2.41,0,0,0,2.49-2.33h3c-.4,3-2.5,4.69-5.51,4.69A5.54,5.54,0,0,1,171,91.64c0-3.56,2.11-6.18,5.84-6.18,2.69,0,5.17,1.4,5.36,4.31Z"/><path class="cls-4" d="M186.48,92.23c.07,2,1.05,2.9,2.79,2.9a2.58,2.58,0,0,0,2.48-1.48h2.77a5.15,5.15,0,0,1-5.35,3.84c-3.61,0-5.84-2.47-5.84-6a5.72,5.72,0,0,1,5.84-6c3.9,0,5.77,3.26,5.56,6.78Zm5.1-2c-.3-1.59-1-2.43-2.5-2.43a2.45,2.45,0,0,0-2.6,2.43Z"/><rect class="cls-4" x="196.5" y="81.4" width="3.14" height="15.79"/><path class="cls-4" d="M207.51,85.46c3.61,0,5.93,2.38,5.93,6s-2.32,6-5.93,6-5.89-2.38-5.89-6,2.31-6,5.89-6m0,9.67c2.15,0,2.78-1.84,2.78-3.65s-.63-3.67-2.78-3.67-2.76,1.83-2.76,3.67.64,3.65,2.76,3.65"/><path class="cls-4" d="M215.31,85.75h3v1.6h.07a4,4,0,0,1,3.49-1.89c3.34,0,4.18,1.87,4.18,4.69v7H222.9V90.73c0-1.88-.55-2.8-2-2.8-1.71,0-2.43.94-2.43,3.27v6h-3.15Z"/><path class="cls-4" d="M228.14,89.27c.17-2.94,2.81-3.82,5.37-3.82,2.28,0,5,.5,5,3.25v5.94a5.84,5.84,0,0,0,.4,2.55h-3.19a5.9,5.9,0,0,1-.22-1.11,5.23,5.23,0,0,1-3.84,1.41c-2.16,0-3.89-1.08-3.89-3.42,0-2.59,1.94-3.2,3.89-3.46s3.7-.23,3.7-1.51-.92-1.55-2-1.55-2,.49-2.08,1.72Zm7.24,2.32c-.51.47-1.63.48-2.6.67s-1.86.52-1.86,1.67.91,1.46,1.92,1.46a2.32,2.32,0,0,0,2.54-2.62Z"/></svg>