<svg id="Capa_1" data-name="Capa 1" xmlns="http://www.w3.org/2000/svg" viewBox="0 0 480 200"><defs><style>.cls-1{fill:#d7282f;fill-rule:evenodd;}</style></defs><g id="Symbols"><g id="Logo-_-Red" data-name="Logo-/-Red"><path id="Shape" class="cls-1" d="M153.87,111.73a14.24,14.24,0,0,1,2.61.26,5.57,5.57,0,0,1,2.48,1.14,3.09,3.09,0,0,1,1.12,2.57,2.92,2.92,0,0,1-.91,2.16,6.76,6.76,0,0,1-3,1.49,8.18,8.18,0,0,1,2.46.83,4.15,4.15,0,0,1,1.59,1.48,3.77,3.77,0,0,1,.54,2,3.34,3.34,0,0,1-.7,2.2,4.51,4.51,0,0,1-1.76,1.29,8.91,8.91,0,0,1-2.08.58,15.09,15.09,0,0,1-2,.14h-8.16v-1.08a4.18,4.18,0,0,0,1.54-.21,1.08,1.08,0,0,0,.65-.6,3.08,3.08,0,0,0,.15-1.07v-10a2,2,0,0,0-.44-1.47,3,3,0,0,0-1.9-.41v-1.1l5.9-.13,1.29,0Zm19.91,0,4.86,12.33.32.78q.28.69.45,1a1.79,1.79,0,0,0,.68.71,2.45,2.45,0,0,0,1.23.26v1.07h-7.51V126.8a5,5,0,0,0,1.38-.14.59.59,0,0,0,.44-.63,2,2,0,0,0-.14-.72l-.75-1.86h-5.17l-.39,1a4.09,4.09,0,0,0-.33,1.25.83.83,0,0,0,.54.89,4.11,4.11,0,0,0,1.28.19v1.07h-5.49V126.8a2.05,2.05,0,0,0,2-1.18,12,12,0,0,0,.9-1.93l4.6-12Zm20.45,0c.81,0,1.57.07,2.28.14a11,11,0,0,1,1.67.27,5.62,5.62,0,0,1,1.71.74,3.94,3.94,0,0,1,1.33,1.36,3.68,3.68,0,0,1,.51,2,3.55,3.55,0,0,1-1.5,2.89,6.12,6.12,0,0,1-2.07.93,5.31,5.31,0,0,1,1.49,1.25l.22.28c.29.37.65.88,1.09,1.53l.61.92c.51.76.93,1.33,1.25,1.72a2.44,2.44,0,0,0,2,1.05v1.08h-4.37a8.06,8.06,0,0,1-.6-.75c-.18-.25-.36-.53-.57-.84l-.9-1.41-1.11-1.78-.35-.56a11.72,11.72,0,0,0-.77-1.08,1.7,1.7,0,0,0-.87-.56,6,6,0,0,0-1.37-.13H193v4.15a3.1,3.1,0,0,0,.15,1.06,1,1,0,0,0,.68.61,4.39,4.39,0,0,0,1.55.21v1.08h-8.18v-1.08a2.92,2.92,0,0,0,1.92-.42,2,2,0,0,0,.43-1.46v-10a2.08,2.08,0,0,0-.41-1.45,2.88,2.88,0,0,0-1.94-.43v-1.1l3.78-.12.64,0h1.7Zm106.22,0,9.17,10.76v-7.3a5.88,5.88,0,0,0-.12-1.37,1.16,1.16,0,0,0-.62-.74,3.57,3.57,0,0,0-1.56-.26v-1.09h6v1.09a4.31,4.31,0,0,0-1.65.23,1,1,0,0,0-.62.68,6.24,6.24,0,0,0-.12,1.46v12.68h-1.09l-10.54-12.43v8.81a6.36,6.36,0,0,0,.12,1.46,1.08,1.08,0,0,0,.64.69,4.15,4.15,0,0,0,1.65.24v1.09h-6v-1.09a3.7,3.7,0,0,0,1.55-.24,1,1,0,0,0,.59-.69,6.36,6.36,0,0,0,.12-1.46v-8.16a13.55,13.55,0,0,0-.06-1.49,2.33,2.33,0,0,0-.25-.87,1.55,1.55,0,0,0-.66-.6,4,4,0,0,0-1.27-.31v-1.09Zm-39,0v1.1a4.68,4.68,0,0,0-1.55.2,1.15,1.15,0,0,0-.69.59,3.18,3.18,0,0,0-.16,1.11v9.86a5.43,5.43,0,0,0,.1,1,1,1,0,0,0,.59.71,3.61,3.61,0,0,0,1.58.25,12.5,12.5,0,0,0,2.43-.21,3.76,3.76,0,0,0,1.93-1.11,4.6,4.6,0,0,0,1.1-2.75h1.11l-.11,5.39H253.19v-1.1a3,3,0,0,0,1.94-.42,2,2,0,0,0,.43-1.48V114.73a3.2,3.2,0,0,0-.14-1.09,1.15,1.15,0,0,0-.67-.6,4.42,4.42,0,0,0-1.56-.21v-1.1Zm19.57,0a10.26,10.26,0,0,1,4.29.82,7.32,7.32,0,0,1,2.75,2.06,8,8,0,0,1,1.42,2.6,8.74,8.74,0,0,1,.42,2.59,8.16,8.16,0,0,1-1,4,7.67,7.67,0,0,1-3,3,9.55,9.55,0,0,1-4.74,1.12,10.17,10.17,0,0,1-3.93-.71,7.68,7.68,0,0,1-4.36-4.53,8.2,8.2,0,0,1,.47-6.78,7.4,7.4,0,0,1,3-3A9.42,9.42,0,0,1,281,111.73Zm45.35,0,4.86,12.33.22.54c.24.58.42,1,.55,1.23a1.73,1.73,0,0,0,.68.71,2.45,2.45,0,0,0,1.23.26v1.07h-7.51V126.8a5,5,0,0,0,1.38-.14.59.59,0,0,0,.44-.63,2,2,0,0,0-.14-.72l-.76-1.86h-5.17l-.38,1a4.09,4.09,0,0,0-.33,1.25.83.83,0,0,0,.54.89,4.11,4.11,0,0,0,1.28.19v1.07h-5.49V126.8a2.41,2.41,0,0,0,1.12-.25,2.47,2.47,0,0,0,.87-.93,12,12,0,0,0,.9-1.93l4.6-12Zm-109.14,0a6.48,6.48,0,0,1,4.8,1.91,7.25,7.25,0,0,0,.49-1.43h1l.18,5.73H222.6a7,7,0,0,0-1.08-2.6,5.43,5.43,0,0,0-1.84-1.74,4.5,4.5,0,0,0-2.23-.6,4.05,4.05,0,0,0-2.35.72,4.6,4.6,0,0,0-1.62,2.18,9.8,9.8,0,0,0-.59,3.67,10.93,10.93,0,0,0,.49,3.55,5.58,5.58,0,0,0,1.21,2.14,4,4,0,0,0,1.46,1,4,4,0,0,0,1.37.26,4.38,4.38,0,0,0,2.53-.76,6.24,6.24,0,0,0,1.85-1.91,7.1,7.1,0,0,0,1-2.29h1.09v5.88h-1.07a5.08,5.08,0,0,0-.79-1.77,8.69,8.69,0,0,1-2,1.56,5.91,5.91,0,0,1-3,.66,7.68,7.68,0,0,1-6.73-3.88,8,8,0,0,1-1.06-4.13,8.62,8.62,0,0,1,.57-3.11,8.11,8.11,0,0,1,1.65-2.6,7.68,7.68,0,0,1,2.55-1.77A8,8,0,0,1,217.19,111.73Zm27.53,0,.22,4.19h-1.11a5.46,5.46,0,0,0-.85-2,2,2,0,0,0-1.1-.74,9,9,0,0,0-1.82-.14H237v5.7h1.66a4.52,4.52,0,0,0,1.28-.14,1,1,0,0,0,.59-.57,4.7,4.7,0,0,0,.22-1.31h1.16v5.37H240.8a3.83,3.83,0,0,0-.24-1.32,1,1,0,0,0-.61-.56,4,4,0,0,0-1.26-.14H237v3.79c0,.64,0,1.1.05,1.39a1.52,1.52,0,0,0,.26.74,1.24,1.24,0,0,0,.68.42,5.81,5.81,0,0,0,1.36.13h1.31a5.85,5.85,0,0,0,1.58-.21,3.11,3.11,0,0,0,1.47-1.07,5.49,5.49,0,0,0,1-2.71h1.14l-.14,5.31H231.19v-1.1a3,3,0,0,0,1.94-.42,2.09,2.09,0,0,0,.43-1.48V114.73a3.29,3.29,0,0,0-.14-1.07,1.09,1.09,0,0,0-.65-.61,4.18,4.18,0,0,0-1.58-.22v-1.1Zm-90.9,8.32h-1.94v4.14a6.72,6.72,0,0,0,.11,1.36,1.1,1.1,0,0,0,.54.75,2.66,2.66,0,0,0,1.37.27,3.6,3.6,0,0,0,2.22-.74,2.78,2.78,0,0,0,1-2.36,3.51,3.51,0,0,0-.86-2.52A3.18,3.18,0,0,0,153.82,120.05Zm127.25-7a4.61,4.61,0,0,0-3.12,1,4.87,4.87,0,0,0-1.52,2.46,12.14,12.14,0,0,0-.4,3.22,17.72,17.72,0,0,0,.12,2,7.48,7.48,0,0,0,.62,2.14,4.53,4.53,0,0,0,1.56,1.85,4.69,4.69,0,0,0,2.76.75,4.54,4.54,0,0,0,2.74-.77,4.69,4.69,0,0,0,1.54-1.9,7.69,7.69,0,0,0,.6-2.14,16.67,16.67,0,0,0,.12-1.94,13.15,13.15,0,0,0-.22-2.48,6.43,6.43,0,0,0-.8-2.12,4.16,4.16,0,0,0-1.56-1.5A4.92,4.92,0,0,0,281.07,113.09Zm43.59,3.69-2.09,5.52h4.29Zm-152.54,0L170,122.3h4.29Zm21.62-3.72H193v6.39h.76a7.25,7.25,0,0,0,3-.57c.82-.39,1.23-1.28,1.23-2.69a2.57,2.57,0,0,0-1.18-2.52A6.72,6.72,0,0,0,193.74,113.06Zm-40.6,0h-1.26v5.71h1a4.34,4.34,0,0,0,2.86-.8,2.69,2.69,0,0,0,.92-2.16,2.56,2.56,0,0,0-.4-1.44,2.59,2.59,0,0,0-1.18-1A4.66,4.66,0,0,0,153.14,113.05Zm77-40.92,8.07,20.09c.8,2,1.53,3.18,2.17,3.59a3.57,3.57,0,0,0,1.87.6v2.12H229.38V96.41a4.2,4.2,0,0,0,2.15-.33,1.06,1.06,0,0,0,.42-.86,3.12,3.12,0,0,0-.35-1.2l-.24-.6-.73-1.89h-7.95l-.5,1.28a6.2,6.2,0,0,0-.53,1.92,1.42,1.42,0,0,0,.62,1.31,4.36,4.36,0,0,0,2.06.37v2.12H215.8V96.41c1.62,0,3-1.39,4.09-4.17l8-20.11Zm100.34,0a11.26,11.26,0,0,1,8,3.06,15.53,15.53,0,0,0,.81-2.27h2.11l.27,9.39h-2.12a11.25,11.25,0,0,0-3.06-5.77,7.18,7.18,0,0,0-5-2,5.65,5.65,0,0,0-5.05,2.58c-1.13,1.73-1.69,4.42-1.69,8.09a24.3,24.3,0,0,0,.61,6.12,5.89,5.89,0,0,0,2.41,3.48,6.92,6.92,0,0,0,3.94,1.22,7.47,7.47,0,0,0,5-1.94,11.1,11.1,0,0,0,3.19-5.9h2.11v9.54h-2.11a6.36,6.36,0,0,0-1.09-2.43,11.6,11.6,0,0,1-8.51,3.18,12.52,12.52,0,0,1-9.62-3.86A13,13,0,0,1,317,85.5a13.68,13.68,0,0,1,3.56-9.3Q324.14,72.13,330.43,72.13Zm-126.38.21a10,10,0,0,1,3.84,1.18,6.56,6.56,0,0,1,2.63,2.56,7.14,7.14,0,0,1,.88,3.48A6.55,6.55,0,0,1,209.86,84,7.16,7.16,0,0,1,206,86.36a24.7,24.7,0,0,1-6,.59h-1.86v6.24a4.09,4.09,0,0,0,.58,2.5,3.18,3.18,0,0,0,2.45.7h.57v2.14H188.1V96.39h.44a3.05,3.05,0,0,0,2.44-.72,4.11,4.11,0,0,0,.57-2.48V77.71a4,4,0,0,0-.59-2.5,3.1,3.1,0,0,0-2.42-.7h-.61V72.36l10.21-.23Q202,72.13,204.05,72.34Zm92-.21,8.08,20.09c.8,2,1.52,3.18,2.17,3.59a3.57,3.57,0,0,0,1.87.6v2.12H295.39V96.41a4.22,4.22,0,0,0,2.15-.33,1.06,1.06,0,0,0,.42-.86,3.12,3.12,0,0,0-.35-1.2l-.24-.6-.73-1.89h-7.95l-.5,1.28a6.3,6.3,0,0,0-.54,1.92,1.4,1.4,0,0,0,.63,1.31,4.36,4.36,0,0,0,2.06.37v2.12H281.8V96.41c1.63,0,3-1.39,4.1-4.17l8-20.11Zm-171.52,0,.38,6.46h-2.09a11,11,0,0,0-1.26-2.7,3.43,3.43,0,0,0-1.4-1.29,7.12,7.12,0,0,0-2.39-.28h-4.76v8.61h2.37a3,3,0,0,0,2.26-.63,4.15,4.15,0,0,0,.63-2.46h2.13V88.3h-2.13l0-.27V88a4,4,0,0,0-.46-1.93q-.47-.87-2.37-.87h-2.45v6.16a8,8,0,0,0,.2,2.31,1.81,1.81,0,0,0,1.11.9,7.88,7.88,0,0,0,2.75.36,8.3,8.3,0,0,0,3.67-.61,5.45,5.45,0,0,0,2.11-2.13,11.36,11.36,0,0,0,1.35-3.26h2.08l-.17,8.19h-23.3V95h.47a3.25,3.25,0,0,0,2.48-.68,3.78,3.78,0,0,0,.57-2.37V77.19a3.66,3.66,0,0,0-.59-2.38,3.3,3.3,0,0,0-2.46-.68h-.47v-2Zm25.74,0v2h-.51a3.24,3.24,0,0,0-2.49.69,3.76,3.76,0,0,0-.57,2.36V91.46a7.27,7.27,0,0,0,.19,2.11,1.7,1.7,0,0,0,1,.89,7.07,7.07,0,0,0,2.8.38,6.91,6.91,0,0,0,5-1.64A8.72,8.72,0,0,0,158,88.77h2l-.11,8.3H136.59V95H137a3.27,3.27,0,0,0,2.5-.69,3.71,3.71,0,0,0,.58-2.37V77.22a3.56,3.56,0,0,0-.61-2.38,3.38,3.38,0,0,0-2.47-.67h-.38v-2Zm114.41,0v2h-.51a3.24,3.24,0,0,0-2.49.69,3.76,3.76,0,0,0-.57,2.36v14.9a5.1,5.1,0,0,0,.18,1.45,1.7,1.7,0,0,0,1,.89,7.07,7.07,0,0,0,2.8.38,6.91,6.91,0,0,0,5-1.64,8.64,8.64,0,0,0,2.27-4.43h2l-.11,8.3H251V95h.38a3.27,3.27,0,0,0,2.5-.69,3.71,3.71,0,0,0,.58-2.37V77.22a3.56,3.56,0,0,0-.61-2.38,3.36,3.36,0,0,0-2.47-.67H251v-2Zm110.68,0,.37,6.46h-2.08a10.66,10.66,0,0,0-1.27-2.7A3.37,3.37,0,0,0,371,74.6a7.05,7.05,0,0,0-2.38-.28h-4.77v8.61h2.38a3,3,0,0,0,2.25-.63,4.14,4.14,0,0,0,.64-2.46h2.12V88.3h-2.12V88a4,4,0,0,0-.46-1.93q-.46-.87-2.37-.87h-2.45v6.16a7.87,7.87,0,0,0,.21,2.31,1.76,1.76,0,0,0,1.11.9,7.81,7.81,0,0,0,2.74.36,8.35,8.35,0,0,0,3.68-.61,5.5,5.5,0,0,0,2.1-2.13,11.08,11.08,0,0,0,1.35-3.26h2.09L377,97.07h-23.3V95h.47a3.22,3.22,0,0,0,2.47-.68,3.78,3.78,0,0,0,.57-2.37V77.19a3.6,3.6,0,0,0-.59-2.38,3.26,3.26,0,0,0-2.45-.68h-.47v-2ZM226.55,81.58l-3.06,7.75h6.27Zm66,0-3.06,7.75h6.27Zm-94.42-7.11V84.64h1.23c2,0,3.28-.45,3.93-1.34a5.91,5.91,0,0,0,1-3.58,6.48,6.48,0,0,0-.73-3.26,3.37,3.37,0,0,0-1.84-1.62A12.26,12.26,0,0,0,198.14,74.47Z"/></g></g></svg>