<svg id="Capa_1" data-name="Capa 1" xmlns="http://www.w3.org/2000/svg" xmlns:xlink="http://www.w3.org/1999/xlink" viewBox="0 0 480 200"><defs><style>.cls-1,.cls-8{fill:#1d1d1b;}.cls-1,.cls-2,.cls-4{fill-rule:evenodd;}.cls-2,.cls-3{fill:#616160;}.cls-4,.cls-5{fill:#fff;}.cls-6{fill:#8eae9b;}.cls-7{fill:url(#linear-gradient);}</style><linearGradient id="linear-gradient" x1="204.21" y1="78.96" x2="275.51" y2="78.96" gradientUnits="userSpaceOnUse"><stop offset="0" stop-color="#a5a4a4"/><stop offset="1" stop-color="#fff"/></linearGradient></defs><path class="cls-1" d="M358,106.23c3.21.75,5.07,2.28,6,4.13a7.26,7.26,0,0,1,.7,2.44,12.77,12.77,0,0,1,0,1.55v33.23a12.72,12.72,0,0,1,0,1.55,7.13,7.13,0,0,1-.7,2.44c-.93,1.85-2.79,3.38-6,4.14-5.73,1.35-50.39,7.12-82.67,8.68a631.62,631.62,0,0,1-70.7,0c-32.28-1.55-76.95-7.33-82.67-8.68-3.21-.75-5.07-2.28-6-4.13a7.26,7.26,0,0,1-.7-2.44,15.22,15.22,0,0,1,0-1.55V114.36a15.15,15.15,0,0,1,0-1.55,7.19,7.19,0,0,1,.7-2.44c.93-1.85,2.79-3.38,6-4.14,5.73-1.35,50.39-7.12,82.68-8.67a626.7,626.7,0,0,1,70.69,0C307.63,99.1,352.29,104.88,358,106.23Z"/><path class="cls-2" d="M178.5,117.4h1v21.28c0,4.48-2.24,7-6.55,7a6.13,6.13,0,0,1-5.22-2.23,6.81,6.81,0,0,0,4.19,1.2c4.31,0,6.55-2.55,6.55-7Zm-8.71,0h1V139a4.11,4.11,0,0,0,.25,1.53c-.81-.32-1.28-1.09-1.28-2.56Z"/><polygon class="cls-3" points="187.47 117.4 188.51 117.4 188.51 145.35 184.11 145.35 184.11 144.32 187.47 144.32 187.47 117.4"/><path class="cls-2" d="M204.85,117.4h1v4h-4.59v24h-4.4v-1h3.36v-24h4.6Zm-12.55,4v-1h3.56v1Z"/><path class="cls-2" d="M214.85,133.57c-.89-.83-1.86-1.66-2.74-2.61C213.06,131.86,214,132.69,214.85,133.57Zm-2.62,3.16h1v2.19a4.11,4.11,0,0,0,.25,1.53c-.81-.31-1.28-1.09-1.28-2.56Zm6.07-6c2,1.9,3.91,4.13,3.91,7.88,0,4.48-2.24,7-6.55,7a6.15,6.15,0,0,1-5.22-2.23,6.81,6.81,0,0,0,4.19,1.2c4.31,0,6.55-2.55,6.55-7A9.48,9.48,0,0,0,218.3,130.76Zm-1.57-9.55a2.81,2.81,0,0,0-.91-.14c-1.4,0-2.2.76-2.2,2.76a6.16,6.16,0,0,0,1.94,4.31c-1.63-1.53-3-3.07-3-5.34,0-2,.8-2.76,2.2-2.76A1.86,1.86,0,0,1,216.73,121.21Zm3.08-2.95c1.56,1.16,2.36,3.16,2.36,5.85v1.08H218v-1h3.12v-1.07A7.9,7.9,0,0,0,219.81,118.26Z"/><path class="cls-3" d="M141.86,129.82h1v4h-5.67l.2,11.54H133l0-1h3.18V132.78h5.67Zm-4.64-8.43v7.4h-1v-8.43h7.22v-3h1v4Z"/><path class="cls-4" d="M164.36,115.33v21.29c0,4.47,2.24,7,6.55,7s6.55-2.56,6.55-7V115.33h-4.15V136.9c0,2-.88,2.72-2.28,2.72s-2.27-.72-2.27-2.72V115.33Z"/><rect class="cls-5" x="182.05" y="115.33" width="4.39" height="27.96"/><polygon class="cls-4" points="190.24 119.33 194.83 119.33 194.83 143.29 199.22 143.29 199.22 119.33 203.81 119.33 203.81 115.33 190.24 115.33 190.24 119.33"/><path class="cls-4" d="M207.17,122.05c0,8,8.58,9.06,8.58,14.81,0,2-.88,2.72-2.27,2.72s-2.28-.72-2.28-2.72v-2.2h-4.15v1.92c0,4.47,2.23,7,6.55,7s6.54-2.56,6.54-7c0-8-8.58-9.07-8.58-14.82,0-2,.8-2.75,2.19-2.75s2.2.76,2.2,2.75v1.36h4.16v-1.07c0-4.48-2.2-7-6.47-7S207.17,117.57,207.17,122.05Z"/><polygon class="cls-5" points="135.15 119.33 135.15 127.75 140.82 127.75 140.82 131.75 135.15 131.75 135.15 143.29 130.76 143.29 130.76 131.75 128.69 131.75 128.69 127.75 130.76 127.75 130.76 115.33 142.38 115.33 142.38 119.33 135.15 119.33"/><path class="cls-2" d="M289.85,117.4h.76l3.48,12.9v2.8Zm-.8,10.49v17.46h-4v-1H288V124.07Zm5.47,17.46-.28-1H298V117.4h1v27.95Z"/><path class="cls-2" d="M325.72,117.4h.75L330,130.3v2.8Zm-.81,10.49v17.46h-4v-1h2.92V124.07Zm5.47,17.46-.27-1h3.76V117.4h1v27.95Z"/><path class="cls-2" d="M351,117.4h1v4h-4.6v24h-4.39v-1h3.36v-24H351Zm-12.55,4v-1H342v1Z"/><path class="cls-3" d="M315.84,141.36h1v4h-12v-1h10.95Zm-1.56-12.18h1v4h-6v7.16h-1v-8.19h6Zm-5-7.79v6.76h-1v-7.79h7.59v-3h1v4Z"/><polygon class="cls-4" points="292.46 143.29 296.97 143.29 296.97 115.33 293.06 115.33 293.06 132.07 288.54 115.33 283.03 115.33 283.03 143.29 286.99 143.29 286.99 123.04 292.46 143.29"/><polygon class="cls-4" points="328.32 143.29 332.83 143.29 332.83 115.33 328.92 115.33 328.92 132.07 324.41 115.33 318.89 115.33 318.89 143.29 322.85 143.29 322.85 123.04 328.32 143.29"/><polygon class="cls-4" points="336.39 119.33 340.99 119.33 340.99 143.29 345.38 143.29 345.38 119.33 349.98 119.33 349.98 115.33 336.39 115.33 336.39 119.33"/><polygon class="cls-5" points="307.22 119.33 307.22 127.11 313.25 127.11 313.25 131.11 307.22 131.11 307.22 139.29 314.81 139.29 314.81 143.29 302.82 143.29 302.82 131.11 300.76 131.11 300.76 127.11 302.82 127.11 302.82 115.33 314.81 115.33 314.81 119.33 307.22 119.33"/><path class="cls-5" d="M240,163c-10.27,0-20.79-.29-35.2-1-33-1.58-77-7.39-82.24-8.61-2.23-.53-3.72-1.5-4.41-2.88a4.47,4.47,0,0,1-.46-1.63,7.51,7.51,0,0,1,0-1.11V114.18a7.68,7.68,0,0,1,0-1.12,4.48,4.48,0,0,1,.46-1.62c.69-1.39,2.18-2.36,4.41-2.88,5.19-1.22,49.25-7,82.24-8.61,14.49-.7,25.07-1,35.35-1s20.75.3,35.11,1c32.94,1.58,77,7.39,82.24,8.62,2.23.52,3.72,1.49,4.41,2.88a4.37,4.37,0,0,1,.46,1.62,7.6,7.6,0,0,1,0,1.12v33.59a7.51,7.51,0,0,1,0,1.11,4.37,4.37,0,0,1-.46,1.62c-.69,1.39-2.18,2.36-4.41,2.89-5.2,1.22-49.28,7-82.24,8.61-14.44.7-25,1-35.26,1Zm.15-61.85c-10.25,0-20.79.29-35.24,1-32.88,1.58-76.7,7.34-81.85,8.56-1.57.37-2.57,1-3,1.73a2.52,2.52,0,0,0-.24.88,6.36,6.36,0,0,0,0,.85v33.64a6.45,6.45,0,0,0,0,.86,2.52,2.52,0,0,0,.24.88c.39.78,1.39,1.36,3,1.73,5.16,1.22,49,7,81.84,8.56,14.38.69,24.87,1,35.1,1s20.75-.3,35.16-1c32.85-1.58,76.68-7.35,81.84-8.56,1.57-.37,2.57-1,3-1.74a2.27,2.27,0,0,0,.24-.87,6.41,6.41,0,0,0,0-.85V114.14a6.41,6.41,0,0,0,0-.85,2.27,2.27,0,0,0-.24-.87c-.39-.78-1.39-1.37-3-1.74-5.17-1.21-49-7-81.84-8.56-14.33-.69-24.8-1-35-1Z"/><path class="cls-6" d="M203.56,93.64a35.89,35.89,0,0,1,.65-6.84c10.7.26,23.31,1.37,34.16,4.54a170.45,170.45,0,0,1,37.14-4.78,36.71,36.71,0,0,1,.69,7.08c0,.67,0,1.33-.05,2l-.71,0a632.44,632.44,0,0,0-70.88,0l-.94,0Q203.56,94.66,203.56,93.64Z"/><path class="cls-1" d="M278.43,95.75c0-.74.06-1.48.06-2.23a38.35,38.35,0,0,0-9.22-25l2-1.63a40.88,40.88,0,0,1,9.82,26.63c0,.8,0,1.59-.07,2.37ZM211.67,67.47a38.32,38.32,0,0,0-10.16,26.05c0,.76,0,1.5.06,2.24l-2.57.15c0-.79-.07-1.59-.07-2.39A40.94,40.94,0,0,1,210,65.46Z"/><path class="cls-7" d="M204.21,86.8a36.16,36.16,0,0,1,9.33-18.17,1,1,0,0,0,.25,0l.08-.37c.06.32.14.5.28.5l.37-.13a1.09,1.09,0,0,0,.31.27l-.52-.11.09.33c0,.08,0,.14.14.37a6.58,6.58,0,0,1,1.51,1.62l.47-.46V71l-.47.59q0,.14.81.69l-.23.35.12.93c.69.13,1,.29,1,.46h-.46l.23.35c-.08,0-.12,0,0,.34a1,1,0,0,0-.93.47c0,.23.27.35.7.58v.58c.77.09,1.16.25,1.16.46a1,1,0,0,0,.34-.11l.47.23c.15,0,.23-.16.23-.47h.35l.34-.11a2.4,2.4,0,0,1,1.28.69c-.54,0-.81.23-.81.7l.23.46.58-.81.7.93.69-.58-.11-.58,1.15-1.62-.11-.47.11-.58h.47a1.31,1.31,0,0,0-.23.7v.58h.58l-.12.46a.84.84,0,0,0,.81.58c.16,0,.23-.08.23-.46,0-.16-.11-.23-.34-.23,0-.12.15-.24.46-.35,0-.16-.12-.23-.33-.49l.31.1,0-.42.46.23-.19.45a1,1,0,0,0,0,.36c.12.23.23.35.58.23a.66.66,0,0,0,.12.47c.23,0,.35-.16.35-.47l.58.23c-.24,0-.35.08-.35.24v.46c0,.15.08.23.35.23a5,5,0,0,0,.51-.3l-.07.37a13.82,13.82,0,0,1-1.47,1.58l.49-.24-.12.37c.22,0,.55-.21,1-.62-.25,1.06-.37,1.64-.37,1.72a3.47,3.47,0,0,0,1.1-.37l-.24.37.73.73v-.37l.49.25a1,1,0,0,0-.12-.37l.12-.61a2.74,2.74,0,0,1-1.1-2.32.79.79,0,0,1,.34-.65l.7-.12.28.14c.15.26.28.38.39.38a6.66,6.66,0,0,0-.33-1.21l-.11-.58h.58c.09,0,.29-.27.58-.82,0-.15-.12-.23-.35-.23l.12-.34a2.53,2.53,0,0,1,.73-.48c0,.16.29.24.86,0-.36,0-.56-.1-.44-.22a.91.91,0,0,0,.34-.15c.47.37.71.65.71.85a2.6,2.6,0,0,0-.61,0,1.25,1.25,0,0,0,1,.49c0,.25-.21.37-.61.37l.12.61v.49a1.3,1.3,0,0,1,.61.25l.85-.13a2.63,2.63,0,0,1,0,.61l-.61-.36L234,77c0,.16-.08.24-.37.24-.32-.2-.49-.37-.73-.37l.49.62c0,.16-.33.28-1,.36,0,.17.12.25.37.37,0,.24-.21.36-.62.36a1,1,0,0,0,.13.62,6.05,6.05,0,0,0,1.46-1.47,3.7,3.7,0,0,1,2.08,2,2,2,0,0,1,1.1-.49c0,.44.41.93,1.22,1.46a3.87,3.87,0,0,1,1.1,3.18c-.16,2.92-.24,4.5-.24,4.77a35.43,35.43,0,0,1-3.79,1l-3.15.18A154.43,154.43,0,0,0,204.21,86.8ZM266,68.36l.08.09c.17.4.28.6.44.6l0-.11a36.25,36.25,0,0,1,9,17.62,178.22,178.22,0,0,0-29.94,3.18c-1.06-.1-1.59-.2-1.59-.29q-2.21-.77-2.2-4.28V83.33a38.65,38.65,0,0,0-.24-4l1.34-3.18c.43,0,1.12,0,2.32,0,0,.12.17.25.62.12-.25,0-.37-.16-.37-.49a2,2,0,0,1,.37-1c.4.3.61.51.61.61v1.1l.49.24c0,.74.12,1.1.48,1.1a4.66,4.66,0,0,0-.24-1.1c.49-.38.73-.63.73-.73.37.35.61.71,1,.85a1.46,1.46,0,0,0-.24-.73l.61.12c.08,0,.2,0,.24-.36,0-.15.33-.35,1-.62,0,.27.45.68,1.47,1.23,0-.25.08-.37.24-.37a2.34,2.34,0,0,0,.74,1.35,1,1,0,0,0,.48-.13l.49.25a1,1,0,0,0,.37-.12c-.65-.55-1-1-.86-1.53l.28-.12a1.06,1.06,0,0,1,.29,0c0,.15.16.42.68.68a1.77,1.77,0,0,0,.47.52l.36-.25v.49h.37a1.92,1.92,0,0,1,1.47,1,.8.8,0,0,0,.85-.49,6.39,6.39,0,0,0,2.69,1.34c-.49-.57-.73-.89-.61-1l1.1,1.22h1.35l.85.12c0-.08.29-.16.73-.49l.13-.37a1.22,1.22,0,0,1,.36.13c.25-.33.41-.49.37-.74a1.11,1.11,0,0,1,.49.13l.37-.74-.62.37-.61-.86-.61.13-.12-.37-.49.24.74-.73h.36c.35,0,.67-.08.73-.49l-.62-.08a.61.61,0,0,0-.11-.29l.37-.12c-.19,0-.35-.24-.49-.73h.36c0,.24.17.37.49.37l.62-.37c-.23,0-.47-.08-.49-.25H266q.36-.18.36-.36h-.85l.49-.61-.62.24-.39-.32-.34,0c1-.32,1.47-.57,1.22-.73h-.36v-.49l-.75.33.38-.45.08-.35c0-.07-.23-.27-.94-.75H265a.9.9,0,0,0-.13-.37L263.43,70c.3-.06.5-.21.35-.71a1.12,1.12,0,0,0,1-.62c-.49,0-.73-.08-.73-.24a2,2,0,0,0,.85-.24c0,.08.13.16.37.24A4,4,0,0,0,266,68.36Z"/><path class="cls-8" d="M232.87,91.78c-9-.61-17.87,1.49-24.31,3.64l4.71-.2C224.73,91.67,232.87,91.78,232.87,91.78Z"/><path class="cls-8" d="M203.63,91.34c0,.54,0,1.09-.06,1.64,12.64-3,19.88-3,19.88-3A88.92,88.92,0,0,0,203.63,91.34Z"/><path class="cls-8" d="M226.1,94.78l5.57-.11a43.84,43.84,0,0,1,6.83-1A39.39,39.39,0,0,0,226.1,94.78Z"/><path class="cls-8" d="M276.18,92.31a55.46,55.46,0,0,0-18.64-2.73s7.36.42,18.66,4.5v-.44C276.2,93.2,276.19,92.75,276.18,92.31Z"/><path class="cls-8" d="M275.75,87.93c-.07-.46-.15-.91-.24-1.37a178.22,178.22,0,0,0-29.94,3.18c-1.06-.1-1.59-.2-1.59-.29q-2.21-.77-2.2-4.28V83.33a38.65,38.65,0,0,0-.24-4l1.34-3.18c.43,0,1.12,0,2.32,0,0,.12.17.25.62.12-.25,0-.37-.16-.37-.49a2,2,0,0,1,.37-1c.4.3.61.51.61.61v1.1l.49.24c0,.74.12,1.1.48,1.1a4.66,4.66,0,0,0-.24-1.1c.49-.38.73-.63.73-.73.37.35.61.71,1,.85a1.46,1.46,0,0,0-.24-.73l.61.12c.08,0,.2,0,.24-.36,0-.15.33-.35,1-.62,0,.27.45.68,1.47,1.23,0-.25.08-.37.24-.37a2.34,2.34,0,0,0,.74,1.35,1,1,0,0,0,.48-.13l.49.25a1,1,0,0,0,.37-.12c-.65-.55-1-1-.86-1.53l.28-.12a1.06,1.06,0,0,1,.29,0c0,.15.16.42.68.68a1.77,1.77,0,0,0,.47.52l.36-.25v.49h.37a1.92,1.92,0,0,1,1.47,1,.8.8,0,0,0,.85-.49,6.39,6.39,0,0,0,2.69,1.34c-.49-.57-.73-.89-.61-1l1.1,1.22h1.35l.85.12c0-.08.29-.16.73-.49l.13-.37a1.22,1.22,0,0,1,.36.13c.25-.33.41-.49.37-.74a1.11,1.11,0,0,1,.49.13l.37-.74-.62.37-.61-.86-.61.13-.12-.37-.49.24.74-.73h.36c.35,0,.67-.08.73-.49l-.62-.08a.61.61,0,0,0-.11-.29l.37-.12c-.19,0-.35-.24-.49-.73h.36c0,.24.17.37.49.37l.62-.37c-.23,0-.47-.08-.49-.25H266q.36-.18.36-.36h-.85l.49-.61-.62.24-.39-.32-.34,0c1-.32,1.47-.57,1.22-.73h-.36v-.49l-.75.33.38-.45.08-.35c0-.07-.23-.27-.94-.75H265a.9.9,0,0,0-.13-.37L263.43,70c.3-.06.5-.21.35-.71a1.12,1.12,0,0,0,1-.62c-.49,0-.73-.08-.73-.24a2,2,0,0,0,.85-.24c0,.08.13.16.37.24a3.54,3.54,0,0,0,.75-.07c.19.47.31.7.48.7l.19-.91a.94.94,0,0,1,.28.1.4.4,0,0,0,.26-.56l-.28,0a3.06,3.06,0,0,1-.52-.19.42.42,0,0,0,.19-.34L266,67a.77.77,0,0,0,.73-.49c.45,0,.89,0,1.34,0l-.61.12H267l.13.37a3.2,3.2,0,0,0,1.71-.73,2.29,2.29,0,0,1-1-.25l.61-.12-.12-.36c.24-.13.36-.25.24-.49a2.7,2.7,0,0,1-.73.49,6.89,6.89,0,0,1-.61-.49l-.12.49c0-.41-.29-.62-.86-.74a2.73,2.73,0,0,0,1.1-.24c0,.12.16.24.49.36a3.31,3.31,0,0,0,.73-.61h-.61a4.31,4.31,0,0,0-1.59-.49,7.41,7.41,0,0,1,1.47-.49h.37l-.13-.49h-.36c-.17,0-.25-.16-.25-.48l-.49.12-.12-.73c0,.32-.2.61-.73.85l.12-.36c-.16,0-.61.28-1.47.6,1.23-.73,1.84-1.18,1.84-1.46a4.69,4.69,0,0,1-1.35.73V61.7l-.61.49a2.73,2.73,0,0,0,0-.62c-.45.66-.73,1-.86.86.13-.24.25-.37.13-.61a.78.78,0,0,0-.49.73l-1.35-.24a.89.89,0,0,0,.25-.49h.73a9.25,9.25,0,0,0-.86-1l.47-.11c0-.16-.12-.24-.34-.24.12,0,.28-.2.49-.61a1.82,1.82,0,0,1,.73.25l-.12.36,1.1-.12c0-.1-.33-.34-1-.73a2.27,2.27,0,0,0,1-.49c0-.14-.08-.22-.49,0-.25-.12-.37-.25-.37-.37h1.22A11.27,11.27,0,0,1,266,57.17a1.39,1.39,0,0,0-.86.37l-.49-.25.49-.24a3.13,3.13,0,0,0-1,.24,2.38,2.38,0,0,0,.12.49l-.61-.24c-.12,0-.28.06-.56.1.13,0,.2-.17.2-.47h-.49l-.49-.12c0,.33-.53.57-1.59.73l.25-.42a.91.91,0,0,1,.29.1c.15,0,.23-.08.23-.46l-.53,0c-.07,0-.12,0-.4.06a7.12,7.12,0,0,1-.75-.3l.29-.16.46-.15a6.68,6.68,0,0,0,1.87-.43l.61.25-.12-.37h.37v.49a1.12,1.12,0,0,1,.61-.37v-.36c-.49,0-.74-.21-.74-.62-.44.49-.69.74-.73.62l.37-.49a1.39,1.39,0,0,0-.25-.74c0-.24.08-.36.25-.36l.12.36c.24-.12.37-.24.37-.36v-.49a10.63,10.63,0,0,1-1.71.61v-.37c0-.16.16-.24.48-.49l-.36-.12c1.16-.37,1.81-.65,2-1a4,4,0,0,0-.85.25l-.12-.49c.32,0,.65-.29.73-1l.36-.49V50h-.36a3.39,3.39,0,0,1-.86,1.47l-.36-.13-.13-.61c-.18,0-.3.21-.36.61l-.37-.12a2.18,2.18,0,0,1-.65,1.12,3.2,3.2,0,0,0-.05-.88l.21-.36a1,1,0,0,0-.12-.37,7.42,7.42,0,0,0,.61-2.07l-.37-.13c-.24,0-.36.37-.49,1.1l-.12-.85c-.16,0-.24.12-.36.24v-.61c0,.33-.25.49-.74.49-.22.65-.39,1-.49,1,0-.25-.08-.37-.24-.37a1,1,0,0,1-.12.49.92.92,0,0,1,.36.12,1.56,1.56,0,0,1-.73,1.47l-.37-.25-.49.25.37-.61h-.37l.37-1a4.53,4.53,0,0,0-.49.47l-.2-.39.47-.12-.6-.37c.47-.54.7-.86.7-1.06a1.55,1.55,0,0,0-.86.74c0-.33-.12-.49-.36-.49l-.39.14a4.71,4.71,0,0,1,.23-.93,4.23,4.23,0,0,1,.81.47c.1,0,.33-.27.7-.81l-.23-.59h-.82l-.81.12-.23-.46a4.24,4.24,0,0,0,1.16,0l-.93-.7c.5,0,.77-.11.81-.35s-.15-.31-.46-.46l.35-.58a.92.92,0,0,0-.35,0h-.35c0-.08.08-.46.23-1.16a.31.31,0,0,0-.34-.35v-.46l-.35.12-.23-.47c0,.06-.24.25-.7.58v.35h.35l-.23.35q-.7-.81-.81-.81c.15-1.3.23-2,.23-2.21s-.08-.21-.35-.23l-.58.93.12-.58a2.19,2.19,0,0,0-.58-.7l-.35-.23c-.1,0-.25.31-.47.93l.24.46a2.27,2.27,0,0,0-.93.23l-.12-2.2c-.19,0-.38.31-.58.81l-.35-.23a.89.89,0,0,1,.12-.35c-.12-.31-.23-.46-.46-.46l-.7.35c-.13,0-.25-.2-.58-.35l-.23,1a1.9,1.9,0,0,0-.81-1.16l.23-.58c0-.13-.08-.21-.35-.23s-.34.23-.34.35a.84.84,0,0,1-.35-.12l-.35.24-.35-.24h-.35l.12.58.35-.11-.35.58a2.11,2.11,0,0,1-1.16-1.39l.12.34h-.35v.7c-.23-.12-.35-.23-.35-.35l-.46.47h-.93c.46.4.7.67.7.81-.47.11-.7.23-.7.34s.23.35.35.35c-.16.25-.23.45-.47.58l.12-.46H242c0,.62-.15.93-.46.93a.9.9,0,0,0-.23-.47l-.58.12h-.35l.12-.35c0-.12-.35-.27-1.05-.46l.12-.35.34.11c.31-.19.47-.34.47-.46s-.16-.23-.47-.35h.47c0-.69-.16-1-.47-1a2.72,2.72,0,0,1,.35-.81l-.11-.35a4.7,4.7,0,0,0-1.51.58,3.19,3.19,0,0,0,.58-.81l-.47-.12-.46.23v-.34c.31,0,.46-.12.35-.47-.21,0-.45.08-.93.12l.58-1-.23-.47c-.15,0-.23.23-.35.7a1,1,0,0,0-.11-.35c-.62.08-.93.23-.93.46l.11.35h-.34a1.15,1.15,0,0,0-.24-.81l-.34.12c0-.26,0-.45-.35-.47l-.81-.23h-.12c0,.31-.27.5-.81.58L234,36c-.39,0-.62.12-.69.35-.31,0-.51-.23-.58-.7-.12,0-.27.23-.47.7v.58c0,.15-.08.23-.35.23l.24-.81a9.89,9.89,0,0,0-.47-1.62c-.23,0-.35.27-.46.69a1.35,1.35,0,0,0-.81.35l-.58-.12v.58l-.58-.35a1,1,0,0,0,.11.35c0,.08-.11.16-.34.23l-.35-.23c-.14,0-.22.08-.23.35l.23.35c-.7,0-1,.11-1,.46l.46.58c0,.08-.12.12-.35.35,0,.16.12.23.35.46a.92.92,0,0,0-.23.58c-1,.12-1.51.27-1.51.58.31.43.46.7.35,1,0-.18,0-.33-.35-.24v.47c.23,0,.35.08.35.23v.35a1.31,1.31,0,0,0-.7-.23h-.46c0,.6-.39,1.1-1.16,1.74.31,0,.46.31.23,1.16a3.44,3.44,0,0,1,.93,0,2,2,0,0,0-.93.34l-1,1.28c.23.19.34.35.34.46l.35.12c-.11.23-.23.34-.11.58l-.12.46c0,.1.19.25.58.47l-.2.57-.25-.39c-.08,0-.29.25-.73.73l-.37-1.59-.25.74c0-.22-.45-.71-1.34-1.47a2,2,0,0,0,.73,1.22c-.24,0-.37.09-.37.37a4.26,4.26,0,0,1,0,.73,1.41,1.41,0,0,0,.25.62,3.22,3.22,0,0,1-.37,1.1l-.36-.25.12-.36.24.36A1.3,1.3,0,0,1,222,50a4.8,4.8,0,0,0-.37-1.1c0-.12-.2-.29-.61-.49l-.49-.12c-.18,0-.3.28-.61.61v-.73h-.37l-.36.24.36.86H219l-.61.12-.73-1.59.12,1.47a2.84,2.84,0,0,0-1.22-1.84,10.84,10.84,0,0,0,1.1,3.06h-.49c0,.41.12.65.61.61.49.43.73.67.73.86a5.12,5.12,0,0,1-1.83-1.47c-.24,0-.37-.16-.61-.49a10.9,10.9,0,0,0,.24,1.34l.37-.24,2.43,1.69c-.11.06-.18.23-.2.48a2.49,2.49,0,0,0-.72-.66l-.21-.44c-.13,0-.21.07-.23.34l.12.58-.33-.28-.37.25c-.57-.41-.86-.7-1.1-.86l.12.49c.82.35,1.22.79,1.33,1.3l0,.44-.09-.27c-.16,0-.24.12-.36.36a2.4,2.4,0,0,0-.49-1,1.26,1.26,0,0,0-.37.13c-.12,0-.24-.17-.37-.49.09,0,.17-.12.25-.37a1,1,0,0,0-.12-.37c-.15,0-.27.25-.37.74v.49c-.35-.88-.59-1.33-1-1.23l.37.74c-.25-.12-.37-.25-.61-.25a5.1,5.1,0,0,1,1.42,1.79q-.69-.48-.69-.81c-.24.12-.37.25-.37.37.31.23.51.4.36.44a6.52,6.52,0,0,1-1.5.93c-.06.46-.29.69-.7.69a1.41,1.41,0,0,0,.23.7l-.46,1.16c0,.15.19.23.46.46,0,.14.27.25.7.58V60a.84.84,0,0,0-.35.12c0,.58-.19.89-.58.92,0,.16.08.24.35.24l.46-.35c.23.06.35.29.35.69l-.05.61a1.33,1.33,0,0,0-.76,1.25l.12.46.34-.11a1,1,0,0,1-.12.58c-.45-.23-.79-.44-1.17-.65a2.7,2.7,0,0,1,.37,1.34l.46.81a2,2,0,0,0,1,.18.85.85,0,0,0,.13.38.5.5,0,0,0-.33.14l.2.58-.74-.74-.61.25c0,.16.12.24.37.24a.54.54,0,0,0,.61.61l-.18.37a2.88,2.88,0,0,1-.92-.37l-.37.12c0,.33.2.5.61.5a.75.75,0,0,0,.74.48l.12-.54c0,.45.09.67.24.67l.37-.13a1.09,1.09,0,0,0,.31.27l-.52-.11.09.33c0,.08,0,.14.14.37a6.58,6.58,0,0,1,1.51,1.62l.47-.46V71l-.47.59q0,.14.81.69l-.23.35.12.93c.69.13,1,.29,1,.46h-.46l.23.35c-.08,0-.12,0,0,.34a1,1,0,0,0-.93.47c0,.23.27.35.7.58v.58c.77.09,1.16.25,1.16.46a1,1,0,0,0,.34-.11l.47.23c.15,0,.23-.16.23-.47h.35l.34-.11a2.4,2.4,0,0,1,1.28.69c-.54,0-.81.23-.81.7l.23.46.58-.81.7.93.69-.58-.11-.58,1.15-1.62-.11-.47.11-.58h.47a1.31,1.31,0,0,0-.23.7v.58h.58l-.12.46a.84.84,0,0,0,.81.58c.16,0,.23-.08.23-.46,0-.16-.11-.23-.34-.23,0-.12.15-.24.46-.35,0-.16-.12-.23-.33-.49l.31.1,0-.42.46.23-.19.45a1,1,0,0,0,0,.36c.12.23.23.35.58.23a.66.66,0,0,0,.12.47c.23,0,.35-.16.35-.47l.58.23c-.24,0-.35.08-.35.24v.46c0,.15.08.23.35.23a5,5,0,0,0,.51-.3l-.07.37a13.82,13.82,0,0,1-1.47,1.58l.49-.24-.12.37c.22,0,.55-.21,1-.62-.25,1.06-.37,1.64-.37,1.72a3.47,3.47,0,0,0,1.1-.37l-.24.37.73.73v-.37l.49.25a1,1,0,0,0-.12-.37l.12-.61a2.74,2.74,0,0,1-1.1-2.32.79.79,0,0,1,.34-.65l.7-.12.28.14c.15.26.28.38.39.38a6.66,6.66,0,0,0-.33-1.21l-.11-.58h.58c.09,0,.29-.27.58-.82,0-.15-.12-.23-.35-.23l.12-.34a2.53,2.53,0,0,1,.73-.48c0,.16.29.24.86,0-.36,0-.56-.1-.44-.22a.91.91,0,0,0,.34-.15c.47.37.71.65.71.85a2.6,2.6,0,0,0-.61,0,1.25,1.25,0,0,0,1,.49c0,.25-.21.37-.61.37l.12.61v.49a1.3,1.3,0,0,1,.61.25l.85-.13a2.63,2.63,0,0,1,0,.61l-.61-.36L234,77c0,.16-.08.24-.37.24-.32-.2-.49-.37-.73-.37l.49.62c0,.16-.33.28-1,.36,0,.17.12.25.37.37,0,.24-.21.36-.62.36a1,1,0,0,0,.13.62,6.05,6.05,0,0,0,1.46-1.47,3.7,3.7,0,0,1,2.08,2,2,2,0,0,1,1.1-.49c0,.44.41.93,1.22,1.46a3.87,3.87,0,0,1,1.1,3.18c-.16,2.92-.24,4.5-.24,4.77a35.43,35.43,0,0,1-3.79,1l-3.15.18a154.52,154.52,0,0,0-27.82-3c-.08.42-.16.85-.23,1.28,19.08.34,31.54,3.12,39.71,6.54l3.73,0a66.42,66.42,0,0,0-6.62-2.56A167.4,167.4,0,0,1,275.75,87.93Z"/><path class="cls-8" d="M246.66,91.44s5.36,0,14.19,3.54l4.44.17A45.68,45.68,0,0,0,246.66,91.44Z"/><path class="cls-2" d="M278.2,118.26c1.56,1.17,2.38,3.14,2.38,5.78v14.54c0,4.47-2.35,7-6.67,7a6.29,6.29,0,0,1-5.32-2.28,6.94,6.94,0,0,0,4.29,1.25c4.31,0,6.67-2.56,6.67-7V123A7.72,7.72,0,0,0,278.2,118.26Z"/><path class="cls-4" d="M269.57,121.7c0-2,.88-2.75,2.28-2.75s2.27.75,2.27,2.75v15.1c0,2-.88,2.75-2.27,2.75s-2.28-.76-2.28-2.75Zm-4.39,14.82c0,4.47,2.35,7,6.67,7s6.67-2.55,6.67-7V122c0-4.47-2.36-7-6.67-7s-6.67,2.56-6.67,7Z"/><path class="cls-3" d="M270.6,122.73c0-2,.88-2.75,2.28-2.75a2.76,2.76,0,0,1,1,.16,3.08,3.08,0,0,1,.22.87h-.17c-1.4,0-2.27.76-2.27,2.76v15.09a4.93,4.93,0,0,0,0,.69,2.84,2.84,0,0,1-.81-.16,3.83,3.83,0,0,1-.27-1.56Z"/><path class="cls-2" d="M261,118.57c1.54,1.14,2.3,3.08,2.3,5.74v3.63c0,4.47-2.16,6.91-6.55,6.91h-2.08v10.5h-4.39v-1h3.36v-10.5h2.08c4.39,0,6.55-2.44,6.55-6.91v-3.63A7.79,7.79,0,0,0,261,118.57Z"/><path class="cls-4" d="M256.73,121.39h-2.08v7.4c1.4,0,2.16-.63,2.16-2.63V122c0-.2,0-.39,0-.57Zm-2.07-2.06h-2.07v9.46h1v-8.43h2.08a2.86,2.86,0,0,1,.91.13A1.8,1.8,0,0,0,254.66,119.33Zm0-4c4.4,0,6.55,2.44,6.55,6.91v3.64c0,4.47-2.15,6.91-6.55,6.91h-2.07v10.5h-4.4v-10.5h-2.06v-4h2.06V115.33Z"/><path class="cls-2" d="M256.61,120.49a3.55,3.55,0,0,1,.19.9h-2.15v7.4h-1v-8.43h2.08A2.86,2.86,0,0,1,256.61,120.49Z"/><path class="cls-2" d="M159.87,118.51c1.46,1,2.12,2.8,2.12,5.32V126c0,2.72-.82,4.55-2.56,5.51a4.49,4.49,0,0,0-1.35-.87c2-.92,2.88-2.79,2.88-5.67V122.8A7.29,7.29,0,0,0,159.87,118.51Zm-3.65,15.72a3.5,3.5,0,0,0-1.46-.26h-1.51v11.38h-4.4v-1h3.36V132.94h1.52A2.41,2.41,0,0,1,156.22,134.23Zm6.29,11.12H158a5.85,5.85,0,0,1-.28-1h3.72a8.2,8.2,0,0,1-.48-3.39v-4.32a7.81,7.81,0,0,0-1.05-4.46c1.55,1.07,2.08,3,2.08,5.5V142A8.17,8.17,0,0,0,162.51,145.35Z"/><path class="cls-3" d="M154.33,120.36a2.75,2.75,0,0,1,.95.15,3.44,3.44,0,0,1,.21.88h-2.24v6.51h-1v-7.55Z"/><path class="cls-4" d="M160.45,143.29H156a8.81,8.81,0,0,1-.4-3.44v-4.39c0-2.59-.87-3.55-2.87-3.55h-1.52v11.38h-4.39V131.75h-2.07v-4h2.07V115.33h6.63c4.55,0,6.51,2.12,6.51,6.43V124c0,2.88-.92,4.75-2.88,5.67,2.2.92,2.92,3,2.92,6v4.32A8.22,8.22,0,0,0,160.45,143.29Zm-7.15-24c1.56,0,2.23.88,2.23,2.87V125c0,2.23-1,3-2.63,3h-1.72v-8.58Z"/><path class="cls-2" d="M231.74,136.08a3.32,3.32,0,0,1-2.53,1.87A2.24,2.24,0,0,1,227,137a2.3,2.3,0,0,0,1.81.45,3.41,3.41,0,0,0,2.66-2.11A2.4,2.4,0,0,0,231.74,136.08Z"/><path class="cls-2" d="M236.8,133.41l.59-.08c-.51,2.4-1.66,3.7-3.43,3.92a1.69,1.69,0,0,1-1.81-.75,1.91,1.91,0,0,0,1.36.26Q235.94,136.46,236.8,133.41Z"/><path class="cls-2" d="M234.79,123.57l.51-.14-.93,10.65a2.58,2.58,0,0,0,0,.68c-.26,0-.42-.18-.45-.49a2.58,2.58,0,0,1,0-.68Z"/><path class="cls-2" d="M242.36,126.74l.09.06a1.86,1.86,0,0,1,.64,1.27,3.61,3.61,0,0,1-1,3,5.16,5.16,0,0,1-2.94,1.64c0,.36,0,.62.05.77a2.84,2.84,0,0,0,.21.86.51.51,0,0,1-.16-.09,1.77,1.77,0,0,1-.51-1.26c0-.15,0-.41,0-.77a5.15,5.15,0,0,0,2.95-1.64,3.61,3.61,0,0,0,1-3A2.19,2.19,0,0,0,242.36,126.74Zm2.26,5.71q-1.73,3.81-4.85,4.2a3.22,3.22,0,0,1-2.27-.44,2,2,0,0,1-.55-.56l.1.07a3.21,3.21,0,0,0,2.27.44,5.75,5.75,0,0,0,4.33-3.21,4.56,4.56,0,0,0,.31-.42Z"/><path class="cls-4" d="M230.68,135A3.4,3.4,0,0,1,228,137.1a2.28,2.28,0,0,1-2.51-1.36,3.87,3.87,0,0,1-.38-1.31,8.67,8.67,0,0,1,0-1.53,8.36,8.36,0,0,1,.21-1.55,7.17,7.17,0,0,1,1.39-2.94,3.74,3.74,0,0,1,2.56-1.41,2,2,0,0,1,1.22.13.82.82,0,0,1,.45.65v.08l.4-4.54,2.79-.73-.93,10.64a2.66,2.66,0,0,0,0,.69c0,.44.34.62.87.56.72-.09,1.16-.72,1.34-1.89l.81-.1c-.52,2.39-1.66,3.7-3.43,3.91A1.72,1.72,0,0,1,230.68,135Zm-2.74-1.17c.11.93.49,1.36,1.13,1.28a1.49,1.49,0,0,0,.84-.49,2.19,2.19,0,0,0,.55-1.3l0-.1.4-4.52a.78.78,0,0,0-.87-.57,1.48,1.48,0,0,0-1,.71,7.22,7.22,0,0,0-1.05,4.15A6.15,6.15,0,0,0,227.94,133.81Z"/><path class="cls-4" d="M243.42,131.6c-1.14,2.55-2.76,4-4.84,4.21a3.28,3.28,0,0,1-2.27-.44,3,3,0,0,1-1.11-2.24,8.81,8.81,0,0,1,.6-4.39,5,5,0,0,1,2-2.52,3.77,3.77,0,0,1,1.53-.55,2.52,2.52,0,0,1,1.87.29,1.87,1.87,0,0,1,.65,1.27,3.65,3.65,0,0,1-1,3,5.22,5.22,0,0,1-2.94,1.64c0,.36,0,.62,0,.77a1.77,1.77,0,0,0,.51,1.26,1.43,1.43,0,0,0,1,.19,3.34,3.34,0,0,0,1.8-.72,7.83,7.83,0,0,0,1.42-1.65Zm-3-4.32q-.09-.69-.57-.63c-.46.07-.87.54-1.2,1.41a9.51,9.51,0,0,0-.62,2.83,2.81,2.81,0,0,0,1.82-1.27A3.35,3.35,0,0,0,240.4,127.28Z"/><path class="cls-3" d="M230.71,128.47a.57.57,0,0,1,.13.21l0,.38a1.58,1.58,0,0,0-.69.61,7.13,7.13,0,0,0-1,4.14,8.21,8.21,0,0,0,0,.84,3.73,3.73,0,0,0,.08.41l-.14,0H229a2.12,2.12,0,0,1-.3-.94,6.15,6.15,0,0,1-.06-.84,7.11,7.11,0,0,1,1-4.14A1.43,1.43,0,0,1,230.71,128.47Z"/><path class="cls-3" d="M240.4,127.28a3.54,3.54,0,0,1,0,.56,3.33,3.33,0,0,0-.6,1.06,9.15,9.15,0,0,0-.37,1.19,2.72,2.72,0,0,1-.63.5,9.05,9.05,0,0,1,.55-2.18,2.28,2.28,0,0,1,1-1.35C240.37,127.13,240.39,127.2,240.4,127.28Z"/></svg>