<svg id="Capa_1" data-name="Capa 1" xmlns="http://www.w3.org/2000/svg" xmlns:xlink="http://www.w3.org/1999/xlink" viewBox="0 0 480 200"><defs><style>.cls-1{fill:url(#linear-gradient);}.cls-2{fill:url(#linear-gradient-2);}.cls-3{fill:url(#linear-gradient-3);}.cls-4{fill:url(#linear-gradient-4);}.cls-5{fill:url(#linear-gradient-5);}.cls-6{fill:url(#linear-gradient-7);}.cls-7{fill:url(#linear-gradient-8);}.cls-8{fill:url(#linear-gradient-9);}.cls-9{fill:url(#linear-gradient-10);}.cls-10{fill:url(#linear-gradient-11);}.cls-11{fill:url(#linear-gradient-12);}.cls-12{fill:url(#linear-gradient-13);}.cls-13{fill:#3c3c3b;}.cls-14{fill:#9dbf43;}.cls-15{fill:#9f3a30;fill-rule:evenodd;}</style><linearGradient id="linear-gradient" x1="199.55" y1="61.08" x2="381.49" y2="61.08" gradientUnits="userSpaceOnUse"><stop offset="0" stop-color="#9d382e"/><stop offset="0.17" stop-color="#a66c34"/><stop offset="0.3" stop-color="#acac3c"/><stop offset="0.36" stop-color="#a6b740"/><stop offset="0.43" stop-color="#a3be42"/><stop offset="0.6" stop-color="#80b048"/><stop offset="0.67" stop-color="#42968b"/><stop offset="0.81" stop-color="#4da9d1"/><stop offset="0.91" stop-color="#3061a7"/><stop offset="1" stop-color="#373d8a"/></linearGradient><linearGradient id="linear-gradient-2" x1="199.55" y1="66.72" x2="381.49" y2="66.72" xlink:href="#linear-gradient"/><linearGradient id="linear-gradient-3" x1="199.55" y1="66.87" x2="381.49" y2="66.87" xlink:href="#linear-gradient"/><linearGradient id="linear-gradient-4" x1="199.55" y1="61.05" x2="381.49" y2="61.05" xlink:href="#linear-gradient"/><linearGradient id="linear-gradient-5" x1="199.55" y1="63" x2="381.49" y2="63" xlink:href="#linear-gradient"/><linearGradient id="linear-gradient-7" x1="199.55" y1="111.94" x2="381.49" y2="111.94" xlink:href="#linear-gradient"/><linearGradient id="linear-gradient-8" x1="199.55" y1="100.22" x2="381.49" y2="100.22" xlink:href="#linear-gradient"/><linearGradient id="linear-gradient-9" x1="199.55" y1="112.07" x2="381.49" y2="112.07" xlink:href="#linear-gradient"/><linearGradient id="linear-gradient-10" x1="199.55" y1="111.58" x2="381.49" y2="111.58" xlink:href="#linear-gradient"/><linearGradient id="linear-gradient-11" x1="199.55" y1="113.53" x2="381.49" y2="113.53" xlink:href="#linear-gradient"/><linearGradient id="linear-gradient-12" x1="199.55" y1="117.25" x2="381.49" y2="117.25" xlink:href="#linear-gradient"/><linearGradient id="linear-gradient-13" x1="199.55" y1="117.1" x2="381.49" y2="117.1" xlink:href="#linear-gradient"/></defs><path class="cls-1" d="M196.65,59h-4.2a11.79,11.79,0,0,1-.21-1.49c0-.45-.05-.91-.05-1.39s0-.87.05-1.28a10.12,10.12,0,0,1,.21-1.38h4.2V52.17a12,12,0,0,1,.75-4.38,8.56,8.56,0,0,1,2.13-3.24,9.29,9.29,0,0,1,3.31-2,12.43,12.43,0,0,1,4.23-.69,20.9,20.9,0,0,1,2.59.13,14.81,14.81,0,0,1,2.28.48,30.56,30.56,0,0,1-.33,3.06,14,14,0,0,1-.74,2.69c-.38-.07-.77-.14-1.18-.23a8.86,8.86,0,0,0-1.65-.13,4.71,4.71,0,0,0-2.92.85c-.75.56-1.16,1.77-1.23,3.62v1.13h6.16a13.25,13.25,0,0,1,.2,1.48c0,.45.05.91.05,1.39s0,.87-.05,1.28a12.22,12.22,0,0,1-.2,1.39h-6.16V80a21.33,21.33,0,0,1-3.59.31,21.68,21.68,0,0,1-3.65-.31Z"/><path class="cls-2" d="M215.23,53.46c.51-.11,1-.18,1.46-.24a14.19,14.19,0,0,1,1.51-.07,10.88,10.88,0,0,1,1.52.1c.49.07,1,.15,1.46.26a2.87,2.87,0,0,1,.28.74c.09.33.16.67.23,1s.13.72.18,1.07.1.66.13.9a13.33,13.33,0,0,1,2.77-2.85,6.61,6.61,0,0,1,4.11-1.25c.34,0,.73,0,1.18.05a4.1,4.1,0,0,1,1,.15,11.28,11.28,0,0,1,.16,1.18c0,.45.05.91.05,1.39s0,1.21-.08,1.9a14.76,14.76,0,0,1-.28,2,7,7,0,0,0-1.26-.11h-.85a12,12,0,0,0-2,.18,4.55,4.55,0,0,0-2,.95,5.74,5.74,0,0,0-1.62,2.31,11.75,11.75,0,0,0-.64,4.31V80a14.4,14.4,0,0,1-1.84.21c-.62,0-1.22.05-1.8.05s-1.17,0-1.77-.05a16,16,0,0,1-1.87-.21Z"/><path class="cls-3" d="M235.39,53.46a21.58,21.58,0,0,1,7.29,0V67.51A15.1,15.1,0,0,0,243,71a5,5,0,0,0,1,2.15,3.74,3.74,0,0,0,1.72,1.13,7.58,7.58,0,0,0,2.41.34,12,12,0,0,0,3.18-.36V53.46a21.33,21.33,0,0,1,3.59-.31,21.76,21.76,0,0,1,3.65.31V79a36.34,36.34,0,0,1-4.34,1.1,28.57,28.57,0,0,1-5.62.54,30.4,30.4,0,0,1-5-.41,9.76,9.76,0,0,1-4.23-1.75,8.87,8.87,0,0,1-2.9-3.9,17.86,17.86,0,0,1-1.08-6.82Z"/><path class="cls-4" d="M266.64,59H263.2a12.2,12.2,0,0,1-.23-1.41,14.19,14.19,0,0,1-.07-1.42,12.3,12.3,0,0,1,.3-2.71h10.57V80a21.33,21.33,0,0,1-3.59.31,21,21,0,0,1-3.54-.31Zm-1.08-10a20.25,20.25,0,0,1-.3-3.44,20.76,20.76,0,0,1,.3-3.43c.58-.11,1.21-.18,1.88-.24s1.27-.07,1.82-.07,1.21,0,1.9.07,1.31.13,1.89.24a12.87,12.87,0,0,1,.21,1.71c0,.57.05,1.14.05,1.72s0,1.12-.05,1.7a12.91,12.91,0,0,1-.21,1.74,16.94,16.94,0,0,1-1.87.21c-.67,0-1.29,0-1.87,0s-1.16,0-1.85,0A17.24,17.24,0,0,1,265.56,49Z"/><path class="cls-5" d="M281.67,59h-3.33l-.26-1,9.6-12.26h1.18v7.75h6.21a11.77,11.77,0,0,1,.2,1.38c0,.41.05.84.05,1.28s0,.94-.05,1.39a13.72,13.72,0,0,1-.2,1.49h-6.21V69.41a10.54,10.54,0,0,0,.25,2.57,3.89,3.89,0,0,0,.75,1.54,2.52,2.52,0,0,0,1.2.77,6.15,6.15,0,0,0,1.7.2,8.4,8.4,0,0,0,1.51-.13l1.31-.23a9.9,9.9,0,0,1,.51,2,12.2,12.2,0,0,1,.16,1.87c0,.38,0,.7,0,1s0,.51-.08.75a21.14,21.14,0,0,1-4.87.56c-3.11,0-5.49-.72-7.13-2.18s-2.47-3.82-2.47-7.11Z"/><path class="cls-2" d="M313.85,62.54a4.28,4.28,0,0,0-.41-2,3.07,3.07,0,0,0-1.13-1.21,4.68,4.68,0,0,0-1.77-.59,16.64,16.64,0,0,0-2.34-.15,18.41,18.41,0,0,0-5.9,1.07,13.75,13.75,0,0,1-1.08-2.51,9.76,9.76,0,0,1-.36-2.82,27.85,27.85,0,0,1,8.73-1.49c3.56,0,6.33.86,8.34,2.57s3,4.44,3,8.2V79a44.05,44.05,0,0,1-4.36,1.08,29.94,29.94,0,0,1-5.8.51,23,23,0,0,1-4.8-.46,10.4,10.4,0,0,1-3.75-1.54,7.32,7.32,0,0,1-2.41-2.77,9.32,9.32,0,0,1-.84-4.16,7.61,7.61,0,0,1,1-4.13,8.17,8.17,0,0,1,2.72-2.67,12.15,12.15,0,0,1,3.72-1.43,19.71,19.71,0,0,1,4.1-.44c1,0,2.09,0,3.29.15Zm0,5.28c-.41-.07-.86-.13-1.34-.18a12.28,12.28,0,0,0-1.28-.07,7.67,7.67,0,0,0-4,.89,3.16,3.16,0,0,0-1.46,2.9,3.26,3.26,0,0,0,.57,2.06,3.32,3.32,0,0,0,1.36,1,5.58,5.58,0,0,0,1.69.41c.6.05,1.12.08,1.56.08a9.9,9.9,0,0,0,1.54-.13l1.34-.23Z"/><path class="cls-6" d="M210.81,93q.93-.15,1.83-.21c.59,0,1.18,0,1.77,0s1.18,0,1.79,0,1.23.11,1.85.21v36.64a39,39,0,0,1-4.9,1.1,41.21,41.21,0,0,1-6,.38,18.33,18.33,0,0,1-5.21-.74,11.91,11.91,0,0,1-4.38-2.36,11.22,11.22,0,0,1-3-4.18,17.45,17.45,0,0,1-.15-11.78,12.72,12.72,0,0,1,7-7.49,13.72,13.72,0,0,1,5.6-1.1c.61,0,1.25,0,1.92.07a9.88,9.88,0,0,1,1.92.34Zm0,16.47a14,14,0,0,0-1.66-.33,12.28,12.28,0,0,0-1.62-.08,6,6,0,0,0-2.95.69,6.17,6.17,0,0,0-2.08,1.85,7.75,7.75,0,0,0-1.2,2.72,13.41,13.41,0,0,0-.39,3.26,10.85,10.85,0,0,0,.51,3.56,6,6,0,0,0,1.42,2.34,5.21,5.21,0,0,0,2.13,1.26,9.1,9.1,0,0,0,2.66.38,15.35,15.35,0,0,0,1.59-.08,9,9,0,0,0,1.59-.33Z"/><path class="cls-7" d="M227.44,93.68a11.7,11.7,0,0,1,1.74-.29c.59,0,1.15-.07,1.7-.07s1.14,0,1.79.07a11.73,11.73,0,0,1,1.85.29l-3.75,13.13a10.45,10.45,0,0,1-1.74.26c-.58,0-1.15.05-1.69.05s-1.09,0-1.62-.05a10.46,10.46,0,0,1-1.67-.26Z"/><path class="cls-8" d="M249.25,93.62c.71-.1,1.4-.18,2.05-.23s1.37-.07,2.15-.07,1.35,0,2,.07,1.37.13,2.16.23l11.54,36.9a29.05,29.05,0,0,1-4.1.31,23.67,23.67,0,0,1-3.8-.31l-2.05-7.39H247l-2.11,7.39a22.12,22.12,0,0,1-3.54.31,23.3,23.3,0,0,1-3.74-.31Zm8.21,23.3-4.26-15.5-4.47,15.5Z"/><path class="cls-9" d="M274.75,109.53h-3.44a11.53,11.53,0,0,1-.23-1.41c-.05-.5-.08-1-.08-1.41a11.82,11.82,0,0,1,.31-2.72h10.57v26.53a22.43,22.43,0,0,1-3.59.31,22.12,22.12,0,0,1-3.54-.31Zm-1.08-10a19.38,19.38,0,0,1-.31-3.44,19.89,19.89,0,0,1,.31-3.44c.58-.1,1.21-.18,1.87-.23s1.28-.08,1.82-.08,1.22,0,1.9.08,1.32.13,1.9.23a17.16,17.16,0,0,1,.21,1.72c0,.56.05,1.14.05,1.72s0,1.11-.05,1.69-.11,1.16-.21,1.75a14.89,14.89,0,0,1-1.87.2c-.67,0-1.29,0-1.87,0s-1.17,0-1.85,0A15,15,0,0,1,273.67,99.53Z"/><path class="cls-10" d="M289.78,109.53h-3.33l-.26-1,9.59-12.26H297V104h6.21a12,12,0,0,1,.21,1.38c0,.42.05.84.05,1.29s0,.94-.05,1.38a13.6,13.6,0,0,1-.21,1.49H297V120a10.39,10.39,0,0,0,.26,2.56,3.82,3.82,0,0,0,.74,1.54,2.41,2.41,0,0,0,1.21.77,6,6,0,0,0,1.69.21,9.54,9.54,0,0,0,1.52-.13l1.31-.23a9.8,9.8,0,0,1,.51,2,13.59,13.59,0,0,1,.15,1.88c0,.37,0,.69,0,1s-.05.5-.08.74a20.67,20.67,0,0,1-4.87.57c-3.12,0-5.49-.73-7.14-2.19s-2.46-3.82-2.46-7.1Z"/><path class="cls-11" d="M320,131.13a13.88,13.88,0,0,1-5.62-1,10.68,10.68,0,0,1-3.95-2.92,12.8,12.8,0,0,1-2.36-4.39,18,18,0,0,1-.79-5.44,18.45,18.45,0,0,1,.79-5.49,12.77,12.77,0,0,1,2.36-4.44,11,11,0,0,1,3.95-3,13.55,13.55,0,0,1,5.62-1.08,13.72,13.72,0,0,1,5.65,1.08,11.16,11.16,0,0,1,4,3,12.14,12.14,0,0,1,2.36,4.44,19.12,19.12,0,0,1,.77,5.49,18.63,18.63,0,0,1-.77,5.44,12.16,12.16,0,0,1-2.36,4.39,10.86,10.86,0,0,1-4,2.92A14.07,14.07,0,0,1,320,131.13Zm0-5.54a4.42,4.42,0,0,0,4.13-2.13,12.16,12.16,0,0,0,1.26-6.13,12.16,12.16,0,0,0-1.26-6.13,5,5,0,0,0-8.21,0,12.17,12.17,0,0,0-1.25,6.13,12.17,12.17,0,0,0,1.25,6.13A4.38,4.38,0,0,0,320,125.59Z"/><path class="cls-12" d="M338.47,104a14.37,14.37,0,0,1,1.44-.23,15.35,15.35,0,0,1,1.59-.08,13.81,13.81,0,0,1,1.54.08c.45,0,.91.13,1.39.23a3.3,3.3,0,0,1,.28.74c.08.33.16.67.23,1s.13.71.18,1,.09.63.13.87a12.56,12.56,0,0,1,1.23-1.54,8.77,8.77,0,0,1,1.67-1.38,9.09,9.09,0,0,1,2.13-1,8.22,8.22,0,0,1,2.61-.39q4.51,0,6.8,2.47c1.52,1.64,2.29,4.22,2.29,7.74v16.94a21.58,21.58,0,0,1-7.29,0v-15a8.63,8.63,0,0,0-.85-4.25,3.09,3.09,0,0,0-2.95-1.49,6.66,6.66,0,0,0-1.79.25,3.86,3.86,0,0,0-1.67,1,5.39,5.39,0,0,0-1.21,2.08,10.88,10.88,0,0,0-.46,3.49v13.91a21.58,21.58,0,0,1-7.29,0Z"/><path class="cls-11" d="M381.83,113.07a4.16,4.16,0,0,0-.41-2,3.13,3.13,0,0,0-1.13-1.21,4.86,4.86,0,0,0-1.77-.59,16.59,16.59,0,0,0-2.33-.15,18.07,18.07,0,0,0-5.9,1.08,13.83,13.83,0,0,1-1.08-2.52,9.67,9.67,0,0,1-.36-2.82,27.67,27.67,0,0,1,4.52-1.13,26.68,26.68,0,0,1,4.2-.36q5.34,0,8.34,2.57t3,8.21v15.39a40.79,40.79,0,0,1-4.36,1.08,29.87,29.87,0,0,1-5.8.51,23,23,0,0,1-4.79-.46,10.25,10.25,0,0,1-3.75-1.54,7.24,7.24,0,0,1-2.41-2.77,9.14,9.14,0,0,1-.85-4.15,7.64,7.64,0,0,1,1.05-4.14,8,8,0,0,1,2.72-2.66,11.91,11.91,0,0,1,3.72-1.44,19.8,19.8,0,0,1,4.11-.44c1,0,2.08,0,3.28.16Zm0,5.29c-.41-.07-.85-.13-1.33-.18a12.69,12.69,0,0,0-1.28-.08,7.54,7.54,0,0,0-4,.9,3.13,3.13,0,0,0-1.46,2.9,3.23,3.23,0,0,0,.56,2,3.36,3.36,0,0,0,1.36,1,5.58,5.58,0,0,0,1.69.41c.6,0,1.12.08,1.57.08a9,9,0,0,0,1.54-.13l1.33-.23Z"/><path class="cls-13" d="M194.79,143.76c.15-.72.25-1.34.31-1.88a12.3,12.3,0,0,0,.09-1.34c0-.15,0-.27,0-.37a2,2,0,0,0,0-.34,7.89,7.89,0,0,1,.79-.09l.77,0a8,8,0,0,1,1.3.12,2.72,2.72,0,0,1,.1.77,7.28,7.28,0,0,1-.08,1c-.06.37-.13.76-.21,1.19l-1.55,8.14a3.35,3.35,0,0,0-.06.56,1.16,1.16,0,0,0,.09.51.71.71,0,0,0,.23.28.7.7,0,0,0,.32.13,2.31,2.31,0,0,0,.37,0l.3,0a2.47,2.47,0,0,0,.41-.09c.06.23.12.48.17.75a5.69,5.69,0,0,1,.07.83c0,.11,0,.21,0,.3l0,.31a3.82,3.82,0,0,1-.79.19,7.12,7.12,0,0,1-1.07.07,3.24,3.24,0,0,1-2.17-.68,2.68,2.68,0,0,1-.79-2.13c0-.19,0-.39,0-.6s.06-.43.1-.66Z"/><path class="cls-13" d="M208.81,150.09q-.23,1.28-.33,2.25c-.06.66-.1,1.17-.1,1.53v.37c0,.11,0,.22,0,.34a6.94,6.94,0,0,1-2.57,0c0-.11-.05-.24-.08-.39a4.88,4.88,0,0,1,0-.66v-.39a4.3,4.3,0,0,1,0-.46,5.25,5.25,0,0,1-1.49,1.55,3.66,3.66,0,0,1-2.13.63,2.37,2.37,0,0,1-2-.85,3.48,3.48,0,0,1-.67-2.24,9.37,9.37,0,0,1,.46-2.94,7.37,7.37,0,0,1,1.35-2.5,6.57,6.57,0,0,1,2.24-1.75,7,7,0,0,1,3.11-.66,10.7,10.7,0,0,1,1.66.12,11.48,11.48,0,0,1,1.52.34Zm-2.09-3.76-.35-.06H206a2.78,2.78,0,0,0-1.65.49,4.05,4.05,0,0,0-1.12,1.21,5.27,5.27,0,0,0-.65,1.57,6.31,6.31,0,0,0-.2,1.53q0,1.5,1,1.5a2.31,2.31,0,0,0,1.8-1.19,8.52,8.52,0,0,0,1.21-3.33Z"/><path class="cls-13" d="M216.31,148.65c.15-.85.26-1.6.34-2.25s.11-1.17.11-1.53v-.38c0-.1,0-.21,0-.33a7.48,7.48,0,0,1,1.33-.12c.2,0,.41,0,.61,0l.65.09c0,.11,0,.24.08.39a4.88,4.88,0,0,1,0,.66c0,.12,0,.25,0,.37s0,.27-.05.44a4,4,0,0,1,1.38-1.47,3.59,3.59,0,0,1,2-.61,2.62,2.62,0,0,1,1.66.47,2.22,2.22,0,0,1,.72,1.57,4.27,4.27,0,0,1,1.42-1.45,3.72,3.72,0,0,1,2-.59,2.61,2.61,0,0,1,1.84.59,2.68,2.68,0,0,1,.63,2A8.35,8.35,0,0,1,231,148l-1.18,6.64a9.49,9.49,0,0,1-1.47.12,8.18,8.18,0,0,1-1.4-.12l1.13-6.41a4.59,4.59,0,0,0,.09-.87,1.06,1.06,0,0,0-.23-.77.91.91,0,0,0-.68-.22,1.49,1.49,0,0,0-.62.14,1.87,1.87,0,0,0-.68.54,4.53,4.53,0,0,0-.65,1.12,8.38,8.38,0,0,0-.5,1.84l-.81,4.63a9.62,9.62,0,0,1-1.48.12,8,8,0,0,1-1.39-.12l1.13-6.41a5.52,5.52,0,0,0,.08-.87,1.06,1.06,0,0,0-.22-.77.94.94,0,0,0-.69-.22,1.57,1.57,0,0,0-.63.14,1.73,1.73,0,0,0-.69.59,5.87,5.87,0,0,0-.66,1.29,11.44,11.44,0,0,0-.57,2.18l-.75,4.07a9.79,9.79,0,0,1-1.47.12,8.1,8.1,0,0,1-1.4-.12Z"/><path class="cls-13" d="M235.57,150.65a2.26,2.26,0,0,0,.65,1.45,2.19,2.19,0,0,0,1.53.48,5.13,5.13,0,0,0,1.43-.18,10.09,10.09,0,0,0,1.3-.45,2.15,2.15,0,0,1,.44,1,6.75,6.75,0,0,1,.11,1.22,5.19,5.19,0,0,1-.8.3c-.3.08-.62.16-.94.22s-.65.11-1,.14-.61.05-.87.05a6.54,6.54,0,0,1-2.11-.3,3.82,3.82,0,0,1-1.46-.86,3.35,3.35,0,0,1-.85-1.36,5.48,5.48,0,0,1-.27-1.77,7.2,7.2,0,0,1,1.63-4.56,6,6,0,0,1,1.9-1.52,5.5,5.5,0,0,1,2.52-.57,4.48,4.48,0,0,1,1.24.16,2.77,2.77,0,0,1,1,.5,2.39,2.39,0,0,1,.67.81,2.58,2.58,0,0,1,.24,1.14,2.94,2.94,0,0,1-.42,1.58,3.84,3.84,0,0,1-1.14,1.13,6.76,6.76,0,0,1-1.6.76,11.43,11.43,0,0,1-1.88.43Zm1.15-2.06a6.09,6.09,0,0,0,1.26-.31,2.89,2.89,0,0,0,.77-.43,1.34,1.34,0,0,0,.38-.47,1.23,1.23,0,0,0,.1-.49.85.85,0,0,0-.25-.63,1,1,0,0,0-.68-.24,2.06,2.06,0,0,0-1,.23,2.83,2.83,0,0,0-.76.62,4.56,4.56,0,0,0-.56.88,5.67,5.67,0,0,0-.35,1Zm2.07-8.52a12.34,12.34,0,0,1,1.82-.12q.52,0,.9,0l.78.09-2.86,2.49c-.17,0-.38.06-.62.08a6.4,6.4,0,0,1-.77,0,7.53,7.53,0,0,1-1.32-.12Z"/><path class="cls-13" d="M245.7,150a3.82,3.82,0,0,1-.64-.32,2.49,2.49,0,0,1-.6-.48,2.59,2.59,0,0,1-.45-.72,2.77,2.77,0,0,1-.17-1,3.2,3.2,0,0,1,.34-1.51,3.11,3.11,0,0,1,.93-1.11,4.13,4.13,0,0,1,1.39-.7,6,6,0,0,1,1.73-.24l.71,0,.78.09a6.6,6.6,0,0,1,.77.17,4.67,4.67,0,0,1,.67.27,4.73,4.73,0,0,1-.19,1.05,3.9,3.9,0,0,1-.49,1,4.74,4.74,0,0,0-1-.37,5.39,5.39,0,0,0-1.16-.14,4.6,4.6,0,0,0-.49,0,2.63,2.63,0,0,0-.52.14.94.94,0,0,0-.4.31.76.76,0,0,0-.17.5c0,.41.26.72.77.95l.79.35a6.53,6.53,0,0,1,.75.37,3,3,0,0,1,.65.52,2.26,2.26,0,0,1,.45.71,2.3,2.3,0,0,1,.18,1,3.62,3.62,0,0,1-.41,1.75,3.67,3.67,0,0,1-1.09,1.23,4.78,4.78,0,0,1-1.63.74,8,8,0,0,1-2,.24,8.63,8.63,0,0,1-1.44-.13,6.71,6.71,0,0,1-1.41-.39,5.15,5.15,0,0,1,.6-2.19,5.5,5.5,0,0,0,1.29.4,8,8,0,0,0,1.26.11,3.83,3.83,0,0,0,.65-.06,2.13,2.13,0,0,0,.63-.21,1.35,1.35,0,0,0,.47-.39,1,1,0,0,0,.19-.62.84.84,0,0,0-.28-.66,2.74,2.74,0,0,0-.79-.45Z"/><path class="cls-13" d="M265.61,150.09q-.23,1.28-.33,2.25c-.06.66-.1,1.17-.1,1.53v.37c0,.11,0,.22,0,.34a6.94,6.94,0,0,1-2.57,0c0-.11-.05-.24-.08-.39a4.88,4.88,0,0,1,0-.66c0-.13,0-.27,0-.43s0-.33.05-.5a5.53,5.53,0,0,1-.67.88,5.3,5.3,0,0,1-.87.71,4.24,4.24,0,0,1-1,.49,3.6,3.6,0,0,1-1.15.18,2.37,2.37,0,0,1-2-.85,3.48,3.48,0,0,1-.67-2.24,9.37,9.37,0,0,1,.46-2.94,7.37,7.37,0,0,1,1.35-2.5,6.57,6.57,0,0,1,2.24-1.75,7,7,0,0,1,3.11-.66h.51c.15-.8.25-1.47.31-2a13.45,13.45,0,0,0,.09-1.38c0-.15,0-.27,0-.37a2,2,0,0,0,0-.34,7.56,7.56,0,0,1,.79-.09l.77,0a7.74,7.74,0,0,1,1.29.12,2.37,2.37,0,0,1,.11.77,12,12,0,0,1-.25,2.16Zm-2.17-3.76-.35-.06h-.33a2.78,2.78,0,0,0-1.65.49A4.08,4.08,0,0,0,260,148a5.52,5.52,0,0,0-.64,1.57,6.36,6.36,0,0,0-.21,1.53c0,1,.33,1.5,1,1.5a2.31,2.31,0,0,0,1.8-1.19,8.52,8.52,0,0,0,1.21-3.33Z"/><path class="cls-13" d="M271.94,154.86a3.93,3.93,0,0,1-3.07-1.09,4.34,4.34,0,0,1-1-3,8.26,8.26,0,0,1,.37-2.44,6.92,6.92,0,0,1,1.09-2.21,6,6,0,0,1,1.83-1.6,5.24,5.24,0,0,1,2.58-.61,3.9,3.9,0,0,1,3.08,1.11,4.37,4.37,0,0,1,1,3,8.63,8.63,0,0,1-.36,2.47,6.79,6.79,0,0,1-1.08,2.19,5.57,5.57,0,0,1-1.84,1.56A5.41,5.41,0,0,1,271.94,154.86Zm.26-2.18a1.87,1.87,0,0,0,1.3-.49,3.84,3.84,0,0,0,.86-1.2,6.1,6.1,0,0,0,.47-1.52A7.78,7.78,0,0,0,275,148c0-1.24-.5-1.86-1.51-1.86a1.73,1.73,0,0,0-1.28.51,4.16,4.16,0,0,0-.83,1.23,6.21,6.21,0,0,0-.45,1.54,8.81,8.81,0,0,0-.13,1.44C270.77,152.08,271.24,152.68,272.2,152.68Z"/><path class="cls-13" d="M280.94,143.76c.15-.72.25-1.34.31-1.88a12.64,12.64,0,0,0,.1-1.34,3.57,3.57,0,0,0,0-.37,2,2,0,0,0,0-.34,7.89,7.89,0,0,1,.79-.09l.77,0a8,8,0,0,1,1.3.12,2.72,2.72,0,0,1,.1.77,7.28,7.28,0,0,1-.08,1c-.06.37-.12.76-.21,1.19l-1.55,8.14a3.35,3.35,0,0,0-.06.56,1.16,1.16,0,0,0,.09.51.81.81,0,0,0,.23.28.7.7,0,0,0,.32.13l.37,0,.3,0a2.47,2.47,0,0,0,.41-.09c.06.23.12.48.17.75a5.69,5.69,0,0,1,.07.83,2.81,2.81,0,0,1,0,.3l0,.31a3.82,3.82,0,0,1-.79.19,7,7,0,0,1-1.07.07,3.24,3.24,0,0,1-2.17-.68,2.68,2.68,0,0,1-.79-2.13c0-.19,0-.39,0-.6s.07-.43.11-.66Z"/><path class="cls-13" d="M288,156.88l1.09-2.1a3.64,3.64,0,0,1-2.55-1.32,4.59,4.59,0,0,1-.81-2.81,7.73,7.73,0,0,1,.4-2.39,6.77,6.77,0,0,1,1.16-2.17,6.15,6.15,0,0,1,1.89-1.57,5.45,5.45,0,0,1,2.6-.6,8.37,8.37,0,0,1,1.34.1,6.17,6.17,0,0,1,1.23.32,4.81,4.81,0,0,1-.18,1.13,4.44,4.44,0,0,1-.51,1.14,5,5,0,0,0-.88-.28,4.08,4.08,0,0,0-1-.11,2.57,2.57,0,0,0-1.37.36,3,3,0,0,0-1,.93,4,4,0,0,0-.59,1.32,6.17,6.17,0,0,0-.19,1.56,2.17,2.17,0,0,0,.56,1.64,2,2,0,0,0,1.44.53,4.31,4.31,0,0,0,.88-.09,5.16,5.16,0,0,0,1.08-.34,3.5,3.5,0,0,1,.37.87,5.33,5.33,0,0,1,.14,1.34,5.08,5.08,0,0,1-1.29.39,10.87,10.87,0,0,1-1.48.13l-.45.83a2,2,0,0,1,.49,0,1.8,1.8,0,0,1,1.25.42,1.58,1.58,0,0,1,.47,1.22,1.87,1.87,0,0,1-.28,1.07,2.07,2.07,0,0,1-.7.68,3.12,3.12,0,0,1-1,.35,5.85,5.85,0,0,1-1.1.1,4.6,4.6,0,0,1-1.08-.11,1.86,1.86,0,0,1-.68-.25q.09-.33.21-.66a3.15,3.15,0,0,1,.36-.64l.65.18a3.07,3.07,0,0,0,.6.07l.36,0a2.24,2.24,0,0,0,.39-.08.72.72,0,0,0,.31-.2.45.45,0,0,0,.14-.35A.48.48,0,0,0,290,157a1.87,1.87,0,0,0-.74-.12c-.18,0-.38,0-.59,0a2.93,2.93,0,0,0-.6.15Z"/><path class="cls-13" d="M304,150.09c-.15.85-.26,1.6-.32,2.25a15.25,15.25,0,0,0-.1,1.53v.37a2,2,0,0,0,0,.34,7.53,7.53,0,0,1-1.32.12,7.2,7.2,0,0,1-1.25-.12,3,3,0,0,1-.08-.39,3.64,3.64,0,0,1,0-.66v-.39a2.68,2.68,0,0,1,0-.46,5.28,5.28,0,0,1-1.5,1.55,3.66,3.66,0,0,1-2.13.63,2.38,2.38,0,0,1-2-.85,3.54,3.54,0,0,1-.67-2.24,9.67,9.67,0,0,1,.46-2.94,7.37,7.37,0,0,1,1.35-2.5,6.57,6.57,0,0,1,2.24-1.75,7,7,0,0,1,3.12-.66,10.66,10.66,0,0,1,1.65.12,11.14,11.14,0,0,1,1.52.34Zm-2.08-3.76a2.25,2.25,0,0,0-.36-.06h-.33a2.78,2.78,0,0,0-1.65.49,4.05,4.05,0,0,0-1.12,1.21,5.27,5.27,0,0,0-.65,1.57,6.85,6.85,0,0,0-.2,1.53q0,1.5,1,1.5a2.28,2.28,0,0,0,1.8-1.19,8.36,8.36,0,0,0,1.21-3.33Z"/><path class="cls-13" d="M319.78,150.09q-.22,1.28-.33,2.25c-.06.66-.1,1.17-.1,1.53v.37c0,.11,0,.22,0,.34a6.94,6.94,0,0,1-2.57,0c0-.11-.05-.24-.08-.39a4.88,4.88,0,0,1,0-.66c0-.13,0-.27,0-.43s0-.33.05-.5a5,5,0,0,1-.67.88,5.3,5.3,0,0,1-.87.71,4.35,4.35,0,0,1-1,.49,3.71,3.71,0,0,1-1.16.18,2.37,2.37,0,0,1-2-.85,3.48,3.48,0,0,1-.67-2.24,9.37,9.37,0,0,1,.46-2.94,7.37,7.37,0,0,1,1.35-2.5,6.57,6.57,0,0,1,2.24-1.75,7,7,0,0,1,3.11-.66H318c.15-.8.25-1.47.31-2a13.45,13.45,0,0,0,.09-1.38c0-.15,0-.27,0-.37a2,2,0,0,0,0-.34,7.56,7.56,0,0,1,.79-.09l.77,0a7.74,7.74,0,0,1,1.29.12,2.37,2.37,0,0,1,.11.77,11.18,11.18,0,0,1-.25,2.16Zm-2.17-3.76-.35-.06h-.33a2.78,2.78,0,0,0-1.65.49,4.22,4.22,0,0,0-1.13,1.21,5.52,5.52,0,0,0-.64,1.57,6.31,6.31,0,0,0-.2,1.53q0,1.5,1,1.5a2.31,2.31,0,0,0,1.8-1.19,8.52,8.52,0,0,0,1.21-3.33Z"/><path class="cls-13" d="M324.86,150.65a2.26,2.26,0,0,0,.64,1.45,2.22,2.22,0,0,0,1.54.48,5.18,5.18,0,0,0,1.43-.18,10.64,10.64,0,0,0,1.3-.45,2.26,2.26,0,0,1,.44,1,6.75,6.75,0,0,1,.11,1.22,5.61,5.61,0,0,1-.8.3c-.31.08-.62.16-.94.22s-.65.11-1,.14-.62.05-.87.05a6.6,6.6,0,0,1-2.12-.3,3.86,3.86,0,0,1-1.45-.86,3.25,3.25,0,0,1-.85-1.36,5.22,5.22,0,0,1-.28-1.77,7.22,7.22,0,0,1,.43-2.42,6.91,6.91,0,0,1,1.2-2.14,6.14,6.14,0,0,1,1.9-1.52,5.5,5.5,0,0,1,2.52-.57,4.55,4.55,0,0,1,1.25.16,2.85,2.85,0,0,1,1,.5,2.36,2.36,0,0,1,.66.81,2.45,2.45,0,0,1,.25,1.14,2.86,2.86,0,0,1-.43,1.58,3.8,3.8,0,0,1-1.13,1.13,6.84,6.84,0,0,1-1.61.76,11.31,11.31,0,0,1-1.87.43Zm1.15-2.06a5.82,5.82,0,0,0,1.25-.31,2.74,2.74,0,0,0,.77-.43,1.27,1.27,0,0,0,.39-.47,1.43,1.43,0,0,0,.1-.49.86.86,0,0,0-.26-.63.92.92,0,0,0-.67-.24,2.06,2.06,0,0,0-1,.23,2.69,2.69,0,0,0-.76.62,4.13,4.13,0,0,0-.56.88,5.67,5.67,0,0,0-.35,1Z"/><path class="cls-13" d="M334.12,143.76c.15-.72.25-1.34.31-1.88a12.3,12.3,0,0,0,.09-1.34c0-.15,0-.27,0-.37a2,2,0,0,0,0-.34,7.89,7.89,0,0,1,.79-.09l.77,0a8,8,0,0,1,1.3.12,2.72,2.72,0,0,1,.1.77,7.28,7.28,0,0,1-.08,1c-.06.37-.13.76-.21,1.19l-1.55,8.14a3.35,3.35,0,0,0-.06.56,1.16,1.16,0,0,0,.09.51.71.71,0,0,0,.23.28.7.7,0,0,0,.32.13,2.31,2.31,0,0,0,.37,0l.3,0a2.47,2.47,0,0,0,.41-.09c.06.23.12.48.17.75a5.69,5.69,0,0,1,.07.83c0,.11,0,.21,0,.3l0,.31a3.82,3.82,0,0,1-.79.19,7.12,7.12,0,0,1-1.07.07,3.24,3.24,0,0,1-2.17-.68,2.68,2.68,0,0,1-.79-2.13c0-.19,0-.39,0-.6s.06-.43.1-.66Z"/><path class="cls-13" d="M344.13,148.65c.15-.85.26-1.6.34-2.25s.11-1.17.11-1.53v-.38c0-.1,0-.21,0-.33a7.48,7.48,0,0,1,1.33-.12c.2,0,.41,0,.61,0l.65.09c0,.11.05.24.08.39a4.88,4.88,0,0,1,0,.66c0,.12,0,.25,0,.37s0,.27-.05.44a4,4,0,0,1,1.38-1.47,3.59,3.59,0,0,1,2-.61,2.62,2.62,0,0,1,1.66.47A2.22,2.22,0,0,1,353,146a4.27,4.27,0,0,1,1.42-1.45,3.72,3.72,0,0,1,2-.59,2.61,2.61,0,0,1,1.84.59,2.68,2.68,0,0,1,.63,2,8.35,8.35,0,0,1-.14,1.45l-1.18,6.64a9.49,9.49,0,0,1-1.47.12,8.18,8.18,0,0,1-1.4-.12l1.13-6.41a4.59,4.59,0,0,0,.09-.87,1.06,1.06,0,0,0-.23-.77.91.91,0,0,0-.68-.22,1.49,1.49,0,0,0-.62.14,1.87,1.87,0,0,0-.68.54,4.53,4.53,0,0,0-.65,1.12,8.38,8.38,0,0,0-.5,1.84l-.81,4.63a9.62,9.62,0,0,1-1.48.12,8,8,0,0,1-1.39-.12l1.13-6.41a5.52,5.52,0,0,0,.08-.87,1.06,1.06,0,0,0-.22-.77.94.94,0,0,0-.69-.22,1.57,1.57,0,0,0-.63.14,1.73,1.73,0,0,0-.69.59,5.87,5.87,0,0,0-.66,1.29,11.44,11.44,0,0,0-.57,2.18l-.75,4.07a9.79,9.79,0,0,1-1.47.12,8.1,8.1,0,0,1-1.4-.12Z"/><path class="cls-13" d="M364.64,154.86a3.9,3.9,0,0,1-3.06-1.09,4.29,4.29,0,0,1-1-3,8.58,8.58,0,0,1,.36-2.44,7.13,7.13,0,0,1,1.09-2.21,5.93,5.93,0,0,1,1.84-1.6,5.17,5.17,0,0,1,2.57-.61,3.92,3.92,0,0,1,3.09,1.11,4.41,4.41,0,0,1,1,3,9,9,0,0,1-.35,2.47,6.81,6.81,0,0,1-1.09,2.19,5.47,5.47,0,0,1-1.84,1.56A5.41,5.41,0,0,1,364.64,154.86Zm.27-2.18a1.85,1.85,0,0,0,1.29-.49,3.69,3.69,0,0,0,.86-1.2,6.56,6.56,0,0,0,.48-1.52,8.73,8.73,0,0,0,.14-1.45c0-1.24-.51-1.86-1.52-1.86a1.7,1.7,0,0,0-1.27.51,4,4,0,0,0-.83,1.23,6.23,6.23,0,0,0-.46,1.54,8.81,8.81,0,0,0-.13,1.44Q363.47,152.68,364.91,152.68Zm1.88-12.61a12.43,12.43,0,0,1,1.82-.12q.52,0,.9,0l.78.09-2.85,2.49c-.18,0-.39.06-.63.08a6.29,6.29,0,0,1-.77,0,7.53,7.53,0,0,1-1.32-.12Z"/><path class="cls-13" d="M372.88,148.65c.14-.85.26-1.6.33-2.25s.11-1.17.11-1.53v-.38c0-.1,0-.21,0-.33a7.59,7.59,0,0,1,1.34-.12l.6,0,.65.09c0,.11.05.24.08.39a3.64,3.64,0,0,1,0,.66c0,.12,0,.25,0,.37s0,.27-.05.44a4.53,4.53,0,0,1,.61-.81,3.83,3.83,0,0,1,.83-.66,4.31,4.31,0,0,1,1-.45,3.67,3.67,0,0,1,1.08-.16,2.29,2.29,0,0,1,2.57,2.67,5,5,0,0,1,0,.65c0,.23-.06.47-.1.72l-1.18,6.64a9.49,9.49,0,0,1-1.47.12,8.18,8.18,0,0,1-1.4-.12l1.14-6.41a4.29,4.29,0,0,0,.08-.77,1.1,1.1,0,0,0-.27-.85,1.06,1.06,0,0,0-.75-.24,1.61,1.61,0,0,0-.63.14,1.79,1.79,0,0,0-.72.59,5.77,5.77,0,0,0-.71,1.29,10.67,10.67,0,0,0-.58,2.18l-.75,4.07a9.92,9.92,0,0,1-1.48.12,8.18,8.18,0,0,1-1.4-.12Z"/><path class="cls-13" d="M384,151.67a5.8,5.8,0,0,1,.77-.12c.24,0,.49,0,.73,0l.72,0a4.75,4.75,0,0,1,.74.12,7.93,7.93,0,0,1-.14,1.49,10.78,10.78,0,0,1-.37,1.46c-.27,0-.53.09-.77.11s-.48,0-.73,0l-.71,0a6,6,0,0,1-.74-.11,8,8,0,0,1,.13-1.5A11.88,11.88,0,0,1,384,151.67Zm2-11.6c.28,0,.55-.08.8-.1l.77,0,.76,0a6.93,6.93,0,0,1,.78.1l-2,9.9-.71.09c-.22,0-.44,0-.67,0a7.53,7.53,0,0,1-1.35-.12Z"/><path class="cls-14" d="M148,89.65a24.92,24.92,0,0,1-8.22-1.43,3.48,3.48,0,0,1-2.48-3.84,12.23,12.23,0,0,1,2.83-7c3-3.66,7-5.53,10.2-6.75a36.33,36.33,0,0,0,12.38-7.83,30.07,30.07,0,0,0,9-16.52l1.1-5.76L176,46.36c.25.45.45.82.64,1.21C182.1,58.76,180,70.74,171,79.62a34.26,34.26,0,0,1-19.69,9.8A24.15,24.15,0,0,1,148,89.65Zm-6.53-5.25a20.18,20.18,0,0,0,9.24.9,30.17,30.17,0,0,0,17.34-8.63c6.87-6.79,9-15.36,6.2-23.92a34.49,34.49,0,0,1-8.65,13,40.57,40.57,0,0,1-13.78,8.73c-4.08,1.56-6.61,3.2-8.46,5.48A8,8,0,0,0,141.51,84.4Z"/><path class="cls-15" d="M166.14,107.34c-.7-.42-1.58-.62-1.88-1.53a23.64,23.64,0,0,0-10.5-10.45,18.3,18.3,0,0,0-18.69.9.82.82,0,0,1-.91,0,26,26,0,0,0-9.79-2.54c-8.93-.51-15.59,4-19.81,11.69-.51.52-.57,1.38-1.32,1.71-6,2.77-10.24,7-11.8,13.58-1.25,5.24-.72,10.28,2.68,14.71,3,3.93,7.13,6.33,11.65,8.13a4.29,4.29,0,0,1,2.33,1.7,22.69,22.69,0,0,0,11.42,8.36,62.48,62.48,0,0,0,7,1.43c2.9.58,5.77,1.28,7.85,3.66a5.69,5.69,0,0,1,2.91-2.19,26.38,26.38,0,0,1,6.85-1.66,23.16,23.16,0,0,0,16.43-9.45c.65-.66,1-1.6,2.05-1.86a1.24,1.24,0,0,0,.71-.31.6.6,0,0,0,.46-.2,29.06,29.06,0,0,0,5.78-3.25c4.93-3.55,7.81-8.16,8-14.43A19.17,19.17,0,0,0,166.14,107.34ZM160.28,109l.2,0a.37.37,0,0,0,.28.17,3.13,3.13,0,0,1,1.69.87h0a1.27,1.27,0,0,0-.13.19,2.24,2.24,0,0,0,.29.87,31,31,0,0,1,2.43,11.46,33.12,33.12,0,0,1-2.94,13.63c-.49,1.14-1.16,2.18-1.59,3.33a.61.61,0,0,0,0,.24,6.35,6.35,0,0,0-1.31,1.38l0,0a1,1,0,0,0-1,.29,1.26,1.26,0,0,1-.13.17,3.21,3.21,0,0,0-.8.24l-.49,0a5.22,5.22,0,0,0-1.23.28,25,25,0,0,1-6.75,1.38,19,19,0,0,1-7.52-1.32,19,19,0,0,0-13.58-.49c-.81.26-1.56.64-2.36.92a17.11,17.11,0,0,1-9.72.2,37.38,37.38,0,0,0-3.92-1,1.28,1.28,0,0,1-.32.06,24.81,24.81,0,0,0-2.71-1.28,1.89,1.89,0,0,0,.06-.18,1.19,1.19,0,0,0-.21-.55,30.49,30.49,0,0,1-2.68-5.51,30.84,30.84,0,0,1-1.3-18.84c.45-1.74,1.1-3.41,1.64-5.12l-.09-.18a3.68,3.68,0,0,0,1-1.08l.2.08a2.31,2.31,0,0,0,.83,0,22.78,22.78,0,0,1,5.47-.15,25.39,25.39,0,0,1,10.34,3.38,16.63,16.63,0,0,0,2,1,27.15,27.15,0,0,0,9.86,1.46,17.78,17.78,0,0,0,4.88-.88,52.94,52.94,0,0,0,6.22-2.59,26.28,26.28,0,0,1,11.45-2.42A8.29,8.29,0,0,0,160.28,109Zm-50.7,32.58.07,0,0,0s0,0,0,0Zm50-36.33c-.14.24-.35.08-.51.07a25.86,25.86,0,0,0-12,1.74c-.56.23-.84.24-1.15-.37a20,20,0,0,0-7.69-8.17C145.1,94.74,153.62,96.79,159.56,105.26Zm-50-.52A24.77,24.77,0,0,1,112,102c3.8-3.73,8.41-5,13.6-4.45a23.88,23.88,0,0,1,9.69,3.43,17.26,17.26,0,0,1,6.75,7.11c.4.79.36.9-.49,1.23a20,20,0,0,1-14.79.13c-1.9-.71-3.64-1.75-5.54-2.46a27.39,27.39,0,0,0-10.49-1.7c-.29,0-.64,0-.8.31,0,0,0,0,0,0h0a.31.31,0,0,0-.43,0C109.2,105.3,109.36,105,109.58,104.74Zm-15.1,21.91c-.67-6,2.42-12.41,7.31-15.15-3.1,9.36-2.06,18.33,2,27.05C100.1,137.86,95,131.37,94.48,126.65ZM153.56,148a22.35,22.35,0,0,1-10.51,4,23.86,23.86,0,0,0-6.11,1.5,4.93,4.93,0,0,0-2.56,2c-1.88-2.15-4.44-2.8-7-3.31a40.63,40.63,0,0,1-7-1.53,17.87,17.87,0,0,1-7-4.37c.07-.16.24-.15.38-.2,1.16.2,2.33.39,3.48.61a18.29,18.29,0,0,0,10.08-1.16,18.32,18.32,0,0,1,13.12-.13,23.74,23.74,0,0,0,14.48.64,1.15,1.15,0,0,1,.85,0A16.27,16.27,0,0,1,153.56,148ZM165,138.33a39.24,39.24,0,0,0,3.59-13.16A36,36,0,0,0,167,111.78a15.1,15.1,0,0,1,6.87,12C174.31,128.93,171.68,134.57,165,138.33Z"/></svg>