<svg id="Capa_1" data-name="Capa 1" xmlns="http://www.w3.org/2000/svg" viewBox="0 0 480 200"><defs><style>.cls-1{fill:#f06e75;}</style></defs><path class="cls-1" d="M265.36,32.5V54.82a35.3,35.3,0,0,1,0,54.94v22.32a54.33,54.33,0,0,0,0-99.58"/><path class="cls-1" d="M185.82,82.29a54.49,54.49,0,0,0,32.59,49.79V109.76a35.3,35.3,0,0,1,0-54.94V32.5a54.49,54.49,0,0,0-32.59,49.79"/><rect class="cls-1" x="224.3" y="54.89" width="14.88" height="54.77"/><rect class="cls-1" x="244.5" y="54.89" width="14.88" height="54.77"/><path class="cls-1" d="M161.33,155.48h5.09v1.09h-3.81v4h2.86v1.09h-2.86v5.64h-1.28Z"/><path class="cls-1" d="M169,155.48v8.7a4.64,4.64,0,0,0,.07.85,1.93,1.93,0,0,0,.27.72,1.4,1.4,0,0,0,.54.48,2.14,2.14,0,0,0,1.72,0,1.45,1.45,0,0,0,.53-.48,1.64,1.64,0,0,0,.27-.72,4.63,4.63,0,0,0,.08-.85v-8.7h1.28v8.74a5,5,0,0,1-.17,1.32,2.76,2.76,0,0,1-.55,1,2.39,2.39,0,0,1-.93.68,3.88,3.88,0,0,1-2.74,0,2.5,2.5,0,0,1-.94-.68,2.89,2.89,0,0,1-.54-1,5,5,0,0,1-.17-1.32v-8.74Z"/><path class="cls-1" d="M177.76,155.48l3.06,8.74h0v-8.74h1.28v11.85h-1.38L177.07,157h0v10.3h-1.28V155.48Z"/><path class="cls-1" d="M184.13,155.48h2.2a4.6,4.6,0,0,1,1.67.29,2.76,2.76,0,0,1,1.26,1,4.88,4.88,0,0,1,.8,1.82,14.64,14.64,0,0,1,0,5.7,5,5,0,0,1-.8,1.82,2.91,2.91,0,0,1-1.26,1,4.61,4.61,0,0,1-1.67.28h-2.2Zm1.28,10.77h.69a3.79,3.79,0,0,0,1.26-.19,1.85,1.85,0,0,0,.92-.71,3.73,3.73,0,0,0,.58-1.47,15.35,15.35,0,0,0,0-4.94,3.73,3.73,0,0,0-.58-1.47,1.85,1.85,0,0,0-.92-.71,3.79,3.79,0,0,0-1.26-.19h-.69Z"/><path class="cls-1" d="M195.78,155.48l2.61,11.85h-1.28l-.7-3.51h-3l-.71,3.51H191.4L194,155.48Zm-2.21,7.26h2.66l-1.32-6.37h0Z"/><path class="cls-1" d="M204.48,159.06a4.26,4.26,0,0,0-.56-2,1.38,1.38,0,0,0-1.19-.63,1.78,1.78,0,0,0-1,.26,1.82,1.82,0,0,0-.67.86,5.36,5.36,0,0,0-.39,1.55,22.87,22.87,0,0,0,0,4.68,5.45,5.45,0,0,0,.39,1.55,1.79,1.79,0,0,0,.67.85,1.7,1.7,0,0,0,1,.26,1.83,1.83,0,0,0,.79-.16,1.38,1.38,0,0,0,.6-.53,2.66,2.66,0,0,0,.38-.93,6.74,6.74,0,0,0,.15-1.4h1.28a5,5,0,0,1-.86,3.05,2.8,2.8,0,0,1-2.34,1.06,3.2,3.2,0,0,1-1.43-.32,2.68,2.68,0,0,1-1.08-1,5.94,5.94,0,0,1-.69-1.89,17.65,17.65,0,0,1,0-5.68,5.76,5.76,0,0,1,.69-1.89,2.62,2.62,0,0,1,1.08-1,3.2,3.2,0,0,1,1.43-.32,2.64,2.64,0,0,1,2.11.92,4.82,4.82,0,0,1,.92,2.82Z"/><path class="cls-1" d="M209.21,155.48v11.85h-1.28V155.48Z"/><path class="cls-1" d="M217.84,161.41a15,15,0,0,1-.23,2.81,5.94,5.94,0,0,1-.69,1.89,2.74,2.74,0,0,1-1,1.06,2.9,2.9,0,0,1-1.38.33,2.86,2.86,0,0,1-1.37-.33,2.74,2.74,0,0,1-1.05-1.06,5.94,5.94,0,0,1-.69-1.89,17.34,17.34,0,0,1,0-5.63,5.78,5.78,0,0,1,.69-1.88,2.74,2.74,0,0,1,1.05-1.06,2.86,2.86,0,0,1,1.37-.33,2.9,2.9,0,0,1,1.38.33,2.74,2.74,0,0,1,1,1.06,5.78,5.78,0,0,1,.69,1.88A15.06,15.06,0,0,1,217.84,161.41Zm-1.28,0a15.34,15.34,0,0,0-.16-2.48,6,6,0,0,0-.44-1.54,1.78,1.78,0,0,0-.66-.77,1.58,1.58,0,0,0-1.61,0,1.78,1.78,0,0,0-.66.77,6,6,0,0,0-.44,1.54,19.3,19.3,0,0,0,0,5,6,6,0,0,0,.44,1.53,1.75,1.75,0,0,0,.66.78,1.65,1.65,0,0,0,1.61,0,1.75,1.75,0,0,0,.66-.78,6,6,0,0,0,.44-1.53A15.34,15.34,0,0,0,216.56,161.41Zm-2.18-6.55h-.82l1.61-2.27h1.28Z"/><path class="cls-1" d="M223.23,158.36a3.62,3.62,0,0,1,.19-1.19,2.46,2.46,0,0,1,.57-1,2.67,2.67,0,0,1,1-.65,4.12,4.12,0,0,1,2.77,0,2.67,2.67,0,0,1,1,.65,2.6,2.6,0,0,1,.58,1,3.9,3.9,0,0,1,.18,1.19v6.1a3.79,3.79,0,0,1-.18,1.18,2.56,2.56,0,0,1-.58,1,2.8,2.8,0,0,1-1,.65,4.12,4.12,0,0,1-2.77,0,2.8,2.8,0,0,1-1-.65,2.42,2.42,0,0,1-.57-1,3.52,3.52,0,0,1-.19-1.18Zm2,6a1.72,1.72,0,0,0,.23,1,1.3,1.3,0,0,0,1.71,0,1.72,1.72,0,0,0,.23-1v-6a1.76,1.76,0,0,0-.23-1,1.3,1.3,0,0,0-1.71,0,1.76,1.76,0,0,0-.23,1Z"/><path class="cls-1" d="M233.47,167.33h-2V155.48h2.86a3.66,3.66,0,0,1,2.58.81,3.52,3.52,0,0,1,.87,2.69,5.39,5.39,0,0,1-.13,1.23,3,3,0,0,1-.33.86,1.92,1.92,0,0,1-.46.57,2.21,2.21,0,0,1-.51.33l1.72,5.36H236l-1.44-4.9-.49,0h-.56Zm0-6.53h.72a2.81,2.81,0,0,0,.7-.08.93.93,0,0,0,.47-.3,1.39,1.39,0,0,0,.26-.56,4.33,4.33,0,0,0,.08-.88,2.23,2.23,0,0,0-.34-1.44,1.54,1.54,0,0,0-1.17-.38h-.72Z"/><path class="cls-1" d="M239.64,167.33V155.48h5.68v1.78h-3.65v3.05h2.73v1.77h-2.73v5.25Z"/><path class="cls-1" d="M246.93,167.33V155.48h5.45v1.78H249v3.05h2.63v1.77H249v3.48h3.65v1.77Z"/><path class="cls-1" d="M254.21,158.36a3.9,3.9,0,0,1,.19-1.19,2.64,2.64,0,0,1,1.55-1.61,3.59,3.59,0,0,1,1.38-.24,3.64,3.64,0,0,1,1.39.24,2.67,2.67,0,0,1,1,.65,2.58,2.58,0,0,1,.57,1,3.62,3.62,0,0,1,.19,1.19v6.1a3.52,3.52,0,0,1-.19,1.18,2.54,2.54,0,0,1-.57,1,2.8,2.8,0,0,1-1,.65,3.64,3.64,0,0,1-1.39.24,3.59,3.59,0,0,1-1.38-.24,2.71,2.71,0,0,1-1-.65,2.56,2.56,0,0,1-.58-1,3.79,3.79,0,0,1-.19-1.18Zm3.32-3.5h-1.36l1.29-2.36h2.22Zm-1.28,9.55a1.72,1.72,0,0,0,.23,1,1,1,0,0,0,.85.32,1,1,0,0,0,.86-.32,1.72,1.72,0,0,0,.23-1v-6a1.76,1.76,0,0,0-.23-1,1,1,0,0,0-.86-.32,1,1,0,0,0-.85.32,1.76,1.76,0,0,0-.23,1Z"/><path class="cls-1" d="M266,167.33V155.48h2v10.08h3.2v1.77Z"/><path class="cls-1" d="M272.35,167.33V155.48h2v10.08h3.21v1.77Z"/><path class="cls-1" d="M278.83,167.33V155.48h5.45v1.78h-3.41v3.05h2.62v1.77h-2.62v3.48h3.64v1.77Z"/><path class="cls-1" d="M286.4,167.33V155.48h2v11.85Z"/><path class="cls-1" d="M290.68,155.48h3a3.15,3.15,0,0,1,2.41.87,3.88,3.88,0,0,1,.81,2.71v4.7a3.86,3.86,0,0,1-.81,2.7,3.15,3.15,0,0,1-2.41.87h-3Zm2,10.18h.7a1.47,1.47,0,0,0,1.14-.36,2,2,0,0,0,.32-1.3v-5.18a1.94,1.94,0,0,0-.32-1.3,1.47,1.47,0,0,0-1.14-.36h-.7Z"/><path class="cls-1" d="M300.07,167.33h-2l2.18-11.85h2.53L305,167.33h-2l-.37-2.62h-2.23Zm.66-4.4h1.64l-.81-5.08h0Z"/><path class="cls-1" d="M307.36,157.26h-2v-1.78h6v1.78h-2v10.07h-2Z"/><path class="cls-1" d="M313.74,167.33h-2L314,155.48h2.52l2.19,11.85h-2l-.36-2.62H314.1Zm-.87-14.83h2.22l1.29,2.36H315Zm1.53,10.43H316l-.8-5.08h0Z"/></svg>