<svg id="Capa_1" data-name="Capa 1" xmlns="http://www.w3.org/2000/svg" viewBox="0 0 480 200"><defs><style>.cls-1{fill-rule:evenodd;}</style></defs><path class="cls-1" d="M225.34,114.44h4.89l.64,17.15h17.75l-3.81-85.71H210.76L207,131.59h17.75Zm2.95-54.85,1.46,39.57h-3.93l1.5-39.57Z"/><path class="cls-1" d="M167.07,154.12c-15.58,0-27.69-3.69-27.69-12.66,0-5.83,5.61-9.31,12.22-9.31a12.88,12.88,0,0,1-10.31-12.78c0-6.83,4.7-11.65,11.21-14-6.51-3.25-10-8.74-10-15,0-10.2,9.3-18.27,25.67-18.27a36.28,36.28,0,0,1,13.9,2.46c3-4.82,6.73-9,12.78-9s10,3.58,10,9.52a11.35,11.35,0,0,1-3.93,8.52l-.67-.78a10.32,10.32,0,0,0,3.48-7.74c0-5.38-3.48-8.4-8.86-8.4s-9,3.81-11.77,8.29C190.16,78.12,194,83.84,194,90.34c0,10.2-9.3,18.27-25.78,18.27a34.83,34.83,0,0,1-14.57-2.8c-3.37,1.23-5.5,2.58-5.5,5,0,2.13,1.91,3.37,4.94,3.37h27.35c13.34,0,21.86,5.6,21.86,16.81C202.27,146.61,185,154.12,167.07,154.12Zm-14.24-21.18c-6.72,0-12.33,2.91-12.33,8.52,0,8.29,12,11.54,26.57,11.54,15.13,0,28-5.26,28-13.45,0-4.48-2.8-6.61-9.75-6.61Zm15.36-59.86c-4.26,0-6.28,3.25-6.28,17.26s2,17.26,6.28,17.26c4.48,0,6.5-3.14,6.5-17.26S172.67,73.08,168.19,73.08Z"/><path d="M271.37,115.08a26.53,26.53,0,0,0,18.95,7.29,25.66,25.66,0,0,0,12-2.58c-5.49,7.51-15.24,11.66-24.55,11.66a26.42,26.42,0,0,1-18.49-7.4c-5-4.82-7.63-11.1-7.63-18.84a22.77,22.77,0,0,1,5.05-14.57A24.42,24.42,0,0,1,268.91,82c-3.25,3.81-4.94,8.74-4.94,14.8A23.8,23.8,0,0,0,271.37,115.08Z"/><path d="M290.43,85.82A22,22,0,0,0,268.91,82a23.29,23.29,0,0,1,33.51-4.6Z"/><path d="M211,141.56l.16.5a1.48,1.48,0,0,0,0,.22c0,.11,0,.18,0,.22h1.7a3.42,3.42,0,0,0-.62-2.21,2.73,2.73,0,0,0-2.12-.77,2.82,2.82,0,0,0-1.44.33,1.92,1.92,0,0,0-.94.88,5,5,0,0,0-.46,1.49,13.07,13.07,0,0,0-.16,2.09c0,.83.06,1.55.11,2.15a5.83,5.83,0,0,0,.41,1.55,2,2,0,0,0,.83.93,2.44,2.44,0,0,0,1.34.33,2.22,2.22,0,0,0,1.09-.22,1.68,1.68,0,0,0,.77-.77v.88H213v-5.07h-2.9v1.38h1.19v1a2.18,2.18,0,0,1-.1.66,1.12,1.12,0,0,1-.26.5,1.76,1.76,0,0,1-.36.28l-.06,0-.06,0a.63.63,0,0,1-.25.07.84.84,0,0,1-.62-.28,2,2,0,0,1-.36-.72c-.05-.33-.1-.71-.15-1.15a15,15,0,0,1,0-1.55,7.34,7.34,0,0,1,.31-2.53c.2-.5.51-.77.93-.77a.6.6,0,0,1,.46.16A1.83,1.83,0,0,1,211,141.56Z"/><path class="cls-1" d="M214.1,144.15a2.16,2.16,0,0,1,.21-1.05,1.61,1.61,0,0,1,.52-.66,2.76,2.76,0,0,1,.72-.39h.1a4.19,4.19,0,0,1,.83-.1,3.77,3.77,0,0,1,1.24.17,1.49,1.49,0,0,1,1.09,1.16,4.63,4.63,0,0,1,.1.88v3.74a3.32,3.32,0,0,0,.05.78,5.1,5.1,0,0,1,.16.6h-1.66a3,3,0,0,1-.15-.38.65.65,0,0,1-.05-.2,1.05,1.05,0,0,0,0-.19,1.45,1.45,0,0,1-.68.72,2.72,2.72,0,0,1-1,.16,1.67,1.67,0,0,1-.78-.16,2.16,2.16,0,0,1-.51-.44.54.54,0,0,0-.07-.13,2,2,0,0,1-.19-.54l0-.13a3.25,3.25,0,0,1-.07-.58,4.63,4.63,0,0,1,.1-.88,1.32,1.32,0,0,1,.31-.61,2,2,0,0,1,.52-.44,5.36,5.36,0,0,1,.77-.33l1-.28a.91.91,0,0,0,.52-.27.88.88,0,0,0,.16-.55,1.24,1.24,0,0,0-.16-.66c-.1-.17-.31-.22-.62-.22a.85.85,0,0,0-.62.27,1,1,0,0,0-.21.66v.22h-1.55v-.16Zm2.74,1.76-.11,0a.68.68,0,0,1-.25.07,1,1,0,0,0-.72.39,1.58,1.58,0,0,0,0,1.48.48.48,0,0,0,.51.28.8.8,0,0,0,.37-.06l.18-.08L217,148a1.87,1.87,0,0,0,.26-.33,1.78,1.78,0,0,0,.1-.5v-1.37a1.48,1.48,0,0,0-.32.11Z"/><path d="M221.86,149.22V139.8h-1.71v9.42Z"/><path class="cls-1" d="M224.55,146.52a2.2,2.2,0,0,0,0,.6l0,.18a1.07,1.07,0,0,0,.12.37,1.11,1.11,0,0,0,.26.39.59.59,0,0,0,.42.17.62.62,0,0,0,.62-.33,2.53,2.53,0,0,0,.26-1h1.55a3.25,3.25,0,0,1-.62,1.88,2.26,2.26,0,0,1-1.81.66,2.73,2.73,0,0,1-1.45-.33,1.85,1.85,0,0,1-.78-.88,4.85,4.85,0,0,1-.31-1.22,11.65,11.65,0,0,1,0-1.32,11.93,11.93,0,0,1,.1-1.38,3.79,3.79,0,0,1,.37-1.15,2.26,2.26,0,0,1,.77-.83,2.66,2.66,0,0,1,1.4-.33,2.74,2.74,0,0,1,1.24.28,2.38,2.38,0,0,1,.77.71,2.83,2.83,0,0,1,.37,1.16,13,13,0,0,1,.1,1.49V146h-3.41Zm1.65-2.37a1,1,0,0,0-.15-.55.57.57,0,0,0-.26-.33.9.9,0,0,0-.42-.11.86.86,0,0,0-.41.11,1.5,1.5,0,0,0-.26.33,3.69,3.69,0,0,0-.15.44,1.63,1.63,0,0,0-.05.49v.28h1.75A2.94,2.94,0,0,0,226.2,144.15Z"/><path d="M230.44,143.05v-.94h-1.65v7.11h1.7v-4.3a1.89,1.89,0,0,1,.11-.61,2,2,0,0,1,.31-.38,1,1,0,0,1,.41-.22,1.27,1.27,0,0,1,.47-.06h.51v-1.76H232a1.39,1.39,0,0,0-.93.33A2.48,2.48,0,0,0,230.44,143.05Z"/><path d="M234.73,139.69v1.54H233v-1.54Z"/><path d="M234.73,142.11v7.11H233v-7.11Z"/><path class="cls-1" d="M237.42,147.12a2.2,2.2,0,0,1,0-.6V146h3.41v-.38a13,13,0,0,0-.1-1.49,2.83,2.83,0,0,0-.36-1.16,2.52,2.52,0,0,0-.78-.71,3,3,0,0,0-2.64.05,2.26,2.26,0,0,0-.77.83,3.53,3.53,0,0,0-.36,1.15,11.87,11.87,0,0,0-.11,1.38,9.72,9.72,0,0,0,.06,1.32,4.46,4.46,0,0,0,.31,1.22,1.78,1.78,0,0,0,.77.88,2.73,2.73,0,0,0,1.45.33,2.24,2.24,0,0,0,1.81-.66,3.18,3.18,0,0,0,.62-1.88h-1.55a2.37,2.37,0,0,1-.26,1,.61.61,0,0,1-.62.33.59.59,0,0,1-.42-.17,1,1,0,0,1-.25-.39.77.77,0,0,1-.12-.37C237.45,147.25,237.44,147.19,237.42,147.12Zm1.5-3.52a1,1,0,0,1,.16.55,2.94,2.94,0,0,1,0,.66h-1.76v-.28a1.63,1.63,0,0,1,0-.49,2.43,2.43,0,0,1,.16-.44,1.44,1.44,0,0,1,.25-.33.9.9,0,0,1,.42-.11.86.86,0,0,1,.41.11A.5.5,0,0,1,238.92,143.6Z"/><path d="M242.9,147.18a1.19,1.19,0,0,0,.21.77.85.85,0,0,0,.67.28.8.8,0,0,0,.62-.22.84.84,0,0,0,.26-.66.54.54,0,0,0-.21-.5,1.11,1.11,0,0,0-.41-.28l-1.19-.44a2.3,2.3,0,0,1-1.08-.77,1.84,1.84,0,0,1-.37-1.21,2.44,2.44,0,0,1,.16-.83,2.12,2.12,0,0,1,.41-.66,1.87,1.87,0,0,1,.78-.44,3.36,3.36,0,0,1,1.14-.16,2.21,2.21,0,0,1,1.7.55,1.92,1.92,0,0,1,.57,1.48v.28h-1.55a1.57,1.57,0,0,0-.16-.83.65.65,0,0,0-.56-.27,1,1,0,0,0-.57.16.68.68,0,0,0-.26.55,1,1,0,0,0,.15.5.84.84,0,0,0,.57.33l1,.39A2.37,2.37,0,0,1,246,146a2.22,2.22,0,0,1,.31,1.26,2.08,2.08,0,0,1-.2,1,2.36,2.36,0,0,1-.52.71,1.8,1.8,0,0,1-.78.39,5.87,5.87,0,0,1-1,.11,3.7,3.7,0,0,1-1.19-.17,1.77,1.77,0,0,1-.77-.44,2.05,2.05,0,0,1-.42-.71,5.42,5.42,0,0,1-.1-.94v-.28h1.55v.28Z"/><path class="cls-1" d="M252.93,149.22a2.69,2.69,0,0,0,.62-.72v.77h1.66v-9.42H253.5v3a2.35,2.35,0,0,0-.62-.66,1.33,1.33,0,0,0-.83-.22,1.58,1.58,0,0,0-1.55.88,5.77,5.77,0,0,0-.52,2.86,6.29,6.29,0,0,0,.52,2.87,1.6,1.6,0,0,0,1.55.88A2.11,2.11,0,0,0,252.93,149.22Zm-.36-1.16a.72.72,0,0,1-.72-.6,7.17,7.17,0,0,1-.16-1.77,7,7,0,0,1,.16-1.76.73.73,0,0,1,1.44,0,7,7,0,0,1,.16,1.76,7.17,7.17,0,0,1-.16,1.77A.72.72,0,0,1,252.57,148.06Z"/><path d="M258.16,142.5a4.09,4.09,0,0,1-.26.77,1.8,1.8,0,0,1-.52.55,2.45,2.45,0,0,1-.83.27v-.93a.7.7,0,0,0,.47-.39,1.58,1.58,0,0,0,.15-.66v-.22h-.62v-2h1.66v1.71A5.62,5.62,0,0,1,258.16,142.5Z"/><path class="cls-1" d="M265.91,149.22l-2.33-9.42h-2.27L259,149.22h1.86l.42-2h2.38l.41,2Zm-3.46-7.77.87,4.24h-1.75Z"/><path d="M268.13,142.11v.94a2.62,2.62,0,0,1,.62-.83,1.39,1.39,0,0,1,.93-.33H270v1.76h-.51a1.27,1.27,0,0,0-.47.06,1,1,0,0,0-.41.22,2.53,2.53,0,0,0-.31.38,2.21,2.21,0,0,0-.11.61v4.3h-1.7v-7.11Z"/><path d="M272.68,142.11v-2H271v2h-.88v1.26H271v4.08a4.58,4.58,0,0,0,0,.88,1,1,0,0,0,.21.55,1,1,0,0,0,.46.28,4.1,4.1,0,0,0,.83.05h1.14V148h-.42a.59.59,0,0,1-.46-.17,1.4,1.4,0,0,1-.11-.61v-3.85h1v-1.27Z"/><path class="cls-1" d="M280.65,148.5a2.89,2.89,0,0,1-.63.72,2,2,0,0,1-.87.22,1.61,1.61,0,0,1-1.56-.88,6.31,6.31,0,0,1-.51-2.87,5.78,5.78,0,0,1,.51-2.86,1.6,1.6,0,0,1,1.56-.88,1.28,1.28,0,0,1,.82.22,2.21,2.21,0,0,1,.62.66v-3h1.71v9.42h-1.65Zm-1.66-1a.74.74,0,0,0,1.45,0,7.82,7.82,0,0,0,.15-1.77,7.66,7.66,0,0,0-.15-1.76.74.74,0,0,0-1.45,0,7.66,7.66,0,0,0-.15,1.76A7.82,7.82,0,0,0,279,147.46Z"/><path class="cls-1" d="M285,147.12a2.2,2.2,0,0,1-.05-.6V146h3.41v-.38a10.93,10.93,0,0,0-.11-1.49,2.68,2.68,0,0,0-.36-1.16,2.38,2.38,0,0,0-.77-.71,2.74,2.74,0,0,0-1.24-.28,2.66,2.66,0,0,0-1.4.33,2.38,2.38,0,0,0-.78.83,3.79,3.79,0,0,0-.36,1.15,11.93,11.93,0,0,0-.1,1.38,11.65,11.65,0,0,0,0,1.32,4.85,4.85,0,0,0,.31,1.22,1.8,1.8,0,0,0,.78.88,2.69,2.69,0,0,0,1.44.33,2.24,2.24,0,0,0,1.81-.66,3.12,3.12,0,0,0,.62-1.88h-1.55a2.23,2.23,0,0,1-.26,1,.61.61,0,0,1-.62.33.57.57,0,0,1-.41-.17,1,1,0,0,1-.26-.39,1.07,1.07,0,0,1-.12-.37v0A.68.68,0,0,0,285,147.12Zm1.5-3.52a1,1,0,0,1,.15.55,1.84,1.84,0,0,0,0,.33c0,.11,0,.22,0,.33h-1.75v-.28A1.63,1.63,0,0,1,285,144a3.69,3.69,0,0,1,.15-.44,1.5,1.5,0,0,1,.26-.33.86.86,0,0,1,.41-.11.9.9,0,0,1,.42.11A.57.57,0,0,1,286.49,143.6Z"/><path d="M295.79,141.51a.8.8,0,0,0-.82-.5,1,1,0,0,0-.57.16,1.27,1.27,0,0,0-.36.61,3.12,3.12,0,0,0-.16,1.1c-.05.44-.05,1.05-.05,1.71a16.53,16.53,0,0,0,.05,1.71,4.21,4.21,0,0,0,.21,1,1.1,1.1,0,0,0,.36.49.81.81,0,0,0,.52.11,1.29,1.29,0,0,0,.46-.11.64.64,0,0,0,.36-.33,1.59,1.59,0,0,0,.16-.41c0-.1.06-.2.1-.31a7.48,7.48,0,0,0,.11-1.21H298a12.59,12.59,0,0,1-.11,1.43,2.94,2.94,0,0,1-.41,1.22,2.26,2.26,0,0,1-.88.82,2.76,2.76,0,0,1-1.45.28,3.34,3.34,0,0,1-1.6-.33,2.13,2.13,0,0,1-.93-1,4.56,4.56,0,0,1-.42-1.55c-.05-.6-.1-1.26-.1-2s.05-1.38.1-2a4.56,4.56,0,0,1,.42-1.55,2.13,2.13,0,0,1,.93-1,3.31,3.31,0,0,1,1.6-.38,2.93,2.93,0,0,1,1.5.33,2.5,2.5,0,0,1,.83.82,2.69,2.69,0,0,1,.36,1.11,8.48,8.48,0,0,1,.05,1.1h-1.81A4.09,4.09,0,0,0,295.79,141.51Z"/><path class="cls-1" d="M299.05,143.1a2.05,2.05,0,0,0-.21,1.05h0v.16h1.55v-.22a.91.91,0,0,1,.21-.66.83.83,0,0,1,.62-.27c.31,0,.52.05.62.22a1.24,1.24,0,0,1,.16.66.88.88,0,0,1-.16.55.91.91,0,0,1-.52.27l-1,.28a5.36,5.36,0,0,0-.77.33,2,2,0,0,0-.52.44,1.32,1.32,0,0,0-.31.61,4.6,4.6,0,0,0-.11.88,3.34,3.34,0,0,0,.08.58l0,.13a2,2,0,0,0,.19.54h0l.06.13a2.16,2.16,0,0,0,.51.44,1.67,1.67,0,0,0,.78.16,2.75,2.75,0,0,0,1-.16,1.45,1.45,0,0,0,.68-.72c0,.06,0,.12.05.19a.65.65,0,0,0,.05.2,3,3,0,0,0,.15.38h1.66c-.05-.22-.11-.44-.16-.6a3.32,3.32,0,0,1-.05-.78v-3.74a4.63,4.63,0,0,0-.1-.88,1.49,1.49,0,0,0-1.09-1.16,3.77,3.77,0,0,0-1.24-.17,4.19,4.19,0,0,0-.83.1h-.1a2.76,2.76,0,0,0-.72.39A1.61,1.61,0,0,0,299.05,143.1Zm2.42,2.85.11,0,.05,0h0l.07,0a1.48,1.48,0,0,1,.32-.11v1.37a1.78,1.78,0,0,1-.1.5,1.87,1.87,0,0,1-.26.33l-.11.05-.07,0-.05,0,0,0-.1,0a.74.74,0,0,1-.36.06.47.47,0,0,1-.51-.28,1.51,1.51,0,0,1-.16-.71,1.41,1.41,0,0,1,.21-.77,1,1,0,0,1,.72-.39A.68.68,0,0,0,301.47,146Z"/><path d="M306.91,140.13v2h1v1.27h-1v3.85a1.61,1.61,0,0,0,.1.61.63.63,0,0,0,.47.17h.41v1.26h-1.14a4,4,0,0,1-.82-.05,1.07,1.07,0,0,1-.47-.28,1,1,0,0,1-.21-.55,4.58,4.58,0,0,1-.05-.88v-4.08h-.88v-1.26h.88v-2Z"/><path class="cls-1" d="M308.67,143.1a2.05,2.05,0,0,0-.21,1.05h0v.16H310v-.22a.91.91,0,0,1,.21-.66.83.83,0,0,1,.62-.27c.31,0,.51.05.62.22a1.24,1.24,0,0,1,.15.66.88.88,0,0,1-.15.55.94.94,0,0,1-.52.27l-1,.28a6.1,6.1,0,0,0-.78.33,2.16,2.16,0,0,0-.51.44,1.32,1.32,0,0,0-.31.61,3.92,3.92,0,0,0-.11.88,3.34,3.34,0,0,0,.08.58l0,.13a2,2,0,0,0,.19.54l0,.06,0,.07a2.21,2.21,0,0,0,.52.44,1.67,1.67,0,0,0,.78.16,2.75,2.75,0,0,0,1-.16,1.4,1.4,0,0,0,.67-.72.59.59,0,0,1,.05.19,1.17,1.17,0,0,0,.06.2,3,3,0,0,0,.15.38h1.66c-.06-.22-.11-.44-.16-.6a3.32,3.32,0,0,1-.05-.78v-3.74a4.63,4.63,0,0,0-.1-.88,1.9,1.9,0,0,0-.37-.72,1.77,1.77,0,0,0-.72-.44,3.77,3.77,0,0,0-1.24-.17,4.19,4.19,0,0,0-.83.1h-.1a3,3,0,0,0-.73.39A1.68,1.68,0,0,0,308.67,143.1Zm2.47,2.85.07,0h0a2.5,2.5,0,0,1,.47-.16v1.37a1.5,1.5,0,0,1-.11.5,1.44,1.44,0,0,1-.25.33l-.05,0,0,0,0,0-.05,0-.18.08a.74.74,0,0,1-.36.06.49.49,0,0,1-.52-.28,1.64,1.64,0,0,1-.15-.71,1.41,1.41,0,0,1,.21-.77,1,1,0,0,1,.72-.39A.68.68,0,0,0,311.14,146Z"/><path d="M316.22,139.8v9.42h-1.71V139.8Z"/><path d="M320.09,149.16a2,2,0,0,0,.73-.77v.83h1.65v-7.11h-1.7v4.74c0,.77-.31,1.15-.93,1.15-.26,0-.47-.05-.57-.22a1.32,1.32,0,0,1-.16-.77v-4.9h-1.7v5.29a2.17,2.17,0,0,0,.46,1.54,1.62,1.62,0,0,0,1.24.44A1.93,1.93,0,0,0,320.09,149.16Z"/><path d="M325.26,142.94a2.12,2.12,0,0,1,.73-.78,2,2,0,0,1,1-.22,1.48,1.48,0,0,1,1.24.5,2.17,2.17,0,0,1,.47,1.54v5.29H327v-4.9a1.42,1.42,0,0,0-.15-.77.63.63,0,0,0-.57-.22c-.62,0-.93.38-.93,1.15v4.74h-1.71v-7.11h1.65Z"/><path d="M331.11,149.93a.88.88,0,0,1-.68.28c-.15,0-.31,0-.36-.11v1.38h.67a4.86,4.86,0,0,0,1-.11,1.29,1.29,0,0,0,.67-.39,2.77,2.77,0,0,0,.46-.83c.05-.15.1-.32.15-.5s.18-.57.27-.93l1.6-6.61h-1.71l-.88,4.9-1-4.9H329.5l1.86,7.11A1.26,1.26,0,0,1,331.11,149.93Z"/><path class="cls-1" d="M335.6,144.15a2.16,2.16,0,0,1,.21-1.05,1.61,1.61,0,0,1,.52-.66,2.76,2.76,0,0,1,.72-.39h.1a4.19,4.19,0,0,1,.83-.1,3.77,3.77,0,0,1,1.24.17,1.49,1.49,0,0,1,1.09,1.16,4.63,4.63,0,0,1,.1.88v3.74a3.32,3.32,0,0,0,0,.78,5.1,5.1,0,0,1,.16.6H339a2,2,0,0,1-.16-.38.65.65,0,0,1-.05-.2c0-.07,0-.13-.05-.19a1.45,1.45,0,0,1-.68.72,2.72,2.72,0,0,1-1,.16,1.67,1.67,0,0,1-.78-.16,2.16,2.16,0,0,1-.51-.44,1.23,1.23,0,0,1-.26-.67l0-.13a3.25,3.25,0,0,1-.07-.58,4.63,4.63,0,0,1,.1-.88,1.32,1.32,0,0,1,.31-.61,2,2,0,0,1,.52-.44,5.36,5.36,0,0,1,.77-.33l1-.28a.91.91,0,0,0,.52-.27.88.88,0,0,0,.16-.55,1.24,1.24,0,0,0-.16-.66c-.1-.17-.31-.22-.62-.22a.85.85,0,0,0-.62.27,1,1,0,0,0-.21.66v.22h-1.55v-.16Zm2.74,1.76-.11,0a.68.68,0,0,1-.25.07,1,1,0,0,0-.72.39,1.09,1.09,0,0,0-.21.77,1.51,1.51,0,0,0,.16.71.48.48,0,0,0,.51.28.8.8,0,0,0,.37-.06l.18-.08.18-.08a1.87,1.87,0,0,0,.26-.33,1.78,1.78,0,0,0,.1-.5v-1.37a1.48,1.48,0,0,0-.32.11Z"/></svg>