<svg id="Capa_1" data-name="Capa 1" xmlns="http://www.w3.org/2000/svg" viewBox="0 0 480 200"><defs><style>.cls-1{fill:#d12e2d;}.cls-2{fill:#fff;}.cls-3{fill:#1d1d1b;}</style></defs><path class="cls-1" d="M125.14,63.38c-15.59,0-28.24,14.75-28.24,32.93s12.65,32.93,28.24,32.93,28.25-14.74,28.25-32.93-12.65-32.93-28.25-32.93Z"/><path class="cls-2" d="M105.42,112.71a33.42,33.42,0,0,1,0-32.8v32.8Z"/><path class="cls-2" d="M111.49,72.69a22.83,22.83,0,0,1,5.06-3.2v53.64a22.79,22.79,0,0,1-5.06-3.19V72.69Z"/><path class="cls-2" d="M122.62,67.76a19.16,19.16,0,0,1,2.52-.16,19.35,19.35,0,0,1,2.54.16v57.1a19.35,19.35,0,0,1-2.54.16,21,21,0,0,1-2.52-.15V67.76Z"/><path class="cls-2" d="M133.75,69.5a23.2,23.2,0,0,1,5.06,3.2v47.22a22.48,22.48,0,0,1-5.06,3.2V69.5Z"/><path class="cls-2" d="M144.88,79.94a33.38,33.38,0,0,1,0,32.74V79.94Z"/><path class="cls-2" d="M99.27,96.31a34,34,0,0,1,6.15-19.79v1.8a34.05,34.05,0,0,0,0,36v1.8a33.94,33.94,0,0,1-6.15-19.79Z"/><path class="cls-2" d="M144.88,114.27a34,34,0,0,0,0-35.92v-1.8a34.88,34.88,0,0,1,0,39.53v-1.81Z"/><path class="cls-1" d="M152.67,125.79a7.21,7.21,0,0,1,1-2.35,6.73,6.73,0,0,1-1.59-.94,9.06,9.06,0,0,0,1.59-4.89l-.08-11.51a34.4,34.4,0,0,1-4.07,10c-.45.68-.65,1.1-.93,1.55a7,7,0,0,0-1,3.58,6.63,6.63,0,0,1-2,0,5.67,5.67,0,0,1-.07,2.22c-2.79.21-3.6,1.89-6.91,3.67a32.6,32.6,0,0,1-5.08,2.16c5.62-.07,9.74.73,13.28-1.65a7.54,7.54,0,0,1,1,1.68,7.18,7.18,0,0,1,2.24-1.06,4.39,4.39,0,0,0,3.69,1.11,4,4,0,0,0-1.08-3.65Z"/><path class="cls-2" d="M153.09,123.66c-.43.18-2.48.94-2.48.94l0,0a1.42,1.42,0,0,0-.13-.53v0a3.57,3.57,0,0,0,1.3-1.24h0a3.13,3.13,0,0,0,1.35.84Z"/><path class="cls-2" d="M151.4,113.94c2-4.55,1.57-4.35,2-6.24,0,.91-.11,2.06-.24,2.89a66.2,66.2,0,0,1-3.74,12.68,3.11,3.11,0,0,0-.63,0,2.5,2.5,0,0,1-.5-1c-.72-3,1.52-4.84,3.09-8.3Z"/><path class="cls-2" d="M146.25,121.92l1.92,1.61h0a.8.8,0,0,0-.17.15,1.18,1.18,0,0,0-.24.31v0a4.29,4.29,0,0,0-1.64-.49,4.08,4.08,0,0,0,.13-1.62Z"/><path class="cls-2" d="M137.54,128.83a12.15,12.15,0,0,1-2.36.24l2-.64c4.43-1.66,5.55-4.23,8.54-4.29a3.7,3.7,0,0,1,1.8.48v.08a1.61,1.61,0,0,0,.05.58v0a58.3,58.3,0,0,1-10.09,3.52Z"/><path class="cls-2" d="M148.06,128.7a3.74,3.74,0,0,0-.74-1.34,2.7,2.7,0,0,0,1-1.31h0a1.33,1.33,0,0,0,.63.2h0l-.88,2.45Z"/><path class="cls-2" d="M148.45,125.36a.87.87,0,1,1,1.24,0,.87.87,0,0,1-1.24,0Z"/><path class="cls-2" d="M150.36,127.82a3.48,3.48,0,0,1-.82-1.65,1.23,1.23,0,0,0,.65-.42l3.06,3.11a3.11,3.11,0,0,1-2.89-1Z"/><path class="cls-1" d="M153.75,63.14a4.39,4.39,0,0,0-3.69,1.1,6.76,6.76,0,0,1-2.24-1.06,7.32,7.32,0,0,1-1,1.68c-3.54-2.38-7.66-1.58-13.28-1.65a34.65,34.65,0,0,1,5.08,2.16c3.31,1.79,4.12,3.46,6.91,3.68a5.62,5.62,0,0,1,.07,2.21,7,7,0,0,1,2,0,6.93,6.93,0,0,0,1,3.58c.28.45.48.88.93,1.55a34.4,34.4,0,0,1,4.07,10L153.71,75a9,9,0,0,0-1.59-4.88,6.77,6.77,0,0,1,1.59-1,7.12,7.12,0,0,1-1-2.35,4,4,0,0,0,1.08-3.64Z"/><path class="cls-2" d="M153.09,68.91c-.43-.18-2.48-.94-2.48-.94l0,0a1.42,1.42,0,0,1-.13.52v0a3.57,3.57,0,0,1,1.3,1.24v0s0,0,0,0a3.23,3.23,0,0,1,1.35-.84Z"/><path class="cls-2" d="M151.4,78.63c2,4.55,1.57,4.35,2,6.24,0-.91-.11-2.06-.24-2.88a66.52,66.52,0,0,0-3.74-12.69,3.11,3.11,0,0,1-.63,0,2.5,2.5,0,0,0-.5,1c-.72,3,1.52,4.85,3.09,8.3Z"/><path class="cls-2" d="M146.25,70.65l1.92-1.6v0l-.17-.14a1.41,1.41,0,0,1-.24-.32v0a4.45,4.45,0,0,1-1.64.5,4,4,0,0,1,.13,1.61Z"/><path class="cls-2" d="M137.54,63.74a11.29,11.29,0,0,0-2.36-.23l2,.63c4.43,1.66,5.55,4.23,8.54,4.29a3.7,3.7,0,0,0,1.8-.48v-.08a1.56,1.56,0,0,1,.05-.57v0a57.42,57.42,0,0,0-10.09-3.53Z"/><path class="cls-2" d="M148.06,63.88a3.71,3.71,0,0,1-.74,1.33,2.72,2.72,0,0,1,1,1.32h0a1.46,1.46,0,0,1,.63-.2h0l-.88-2.44Z"/><path class="cls-2" d="M148.45,67.21a.87.87,0,0,0,0,1.23.87.87,0,0,0,1.23-1.23.88.88,0,0,0-1.24,0Z"/><path class="cls-2" d="M150.36,64.76a3.4,3.4,0,0,0-.82,1.64,1.29,1.29,0,0,1,.65.42l3.06-3.11a3.12,3.12,0,0,0-2.89,1.05Z"/><path class="cls-1" d="M96.43,129.44a4.39,4.39,0,0,0,3.69-1.11,7.12,7.12,0,0,1,2.23,1.06,8,8,0,0,1,1-1.68c3.53,2.38,7.66,1.58,13.28,1.65a31.78,31.78,0,0,1-5.08-2.16c-3.31-1.78-4.12-3.46-6.91-3.67a5.67,5.67,0,0,1-.07-2.22,6.61,6.61,0,0,1-2,0,6.94,6.94,0,0,0-1-3.58c-.27-.45-.47-.87-.92-1.55a34.4,34.4,0,0,1-4.07-10l-.08,11.51a9,9,0,0,0,1.58,4.89,6.87,6.87,0,0,1-1.58.94,7.66,7.66,0,0,1,1,2.35,4,4,0,0,0-1.08,3.65Z"/><path class="cls-2" d="M97.08,123.66c.44.18,2.49.94,2.49.94l0,0a1.42,1.42,0,0,1,.13-.53v0a3.57,3.57,0,0,1-1.3-1.24s0,0,0,0h0a3.12,3.12,0,0,1-1.36.84Z"/><path class="cls-2" d="M98.78,113.94c-2.06-4.55-1.57-4.35-2-6.24.06.91.12,2.06.25,2.89a66.21,66.21,0,0,0,3.73,12.68,3.2,3.2,0,0,1,.64,0,2.56,2.56,0,0,0,.49-1c.72-3-1.52-4.84-3.08-8.3Z"/><path class="cls-2" d="M103.92,121.92,102,123.53h0a1.14,1.14,0,0,1,.17.15,1.83,1.83,0,0,1,.24.31v0a4.27,4.27,0,0,1,1.63-.49,4.34,4.34,0,0,1-.13-1.62Z"/><path class="cls-2" d="M112.64,128.83a12.06,12.06,0,0,0,2.35.24l-2-.64c-4.43-1.66-5.56-4.23-8.55-4.29a3.66,3.66,0,0,0-1.79.48v.08a1.42,1.42,0,0,1,0,.58v0a58.3,58.3,0,0,0,10.09,3.52Z"/><path class="cls-2" d="M102.12,128.7a3.58,3.58,0,0,1,.74-1.34,2.64,2.64,0,0,1-1-1.31h0a1.3,1.3,0,0,1-.62.2h0l.88,2.45Z"/><path class="cls-2" d="M101.72,125.36a.87.87,0,0,0,0-1.23.88.88,0,1,0-1.24,1.24.87.87,0,0,0,1.24,0Z"/><path class="cls-2" d="M99.82,127.82a3.57,3.57,0,0,0,.82-1.65,1.19,1.19,0,0,1-.65-.42l-3.07,3.11a3.12,3.12,0,0,0,2.9-1Z"/><path class="cls-1" d="M97.51,66.78a7.56,7.56,0,0,1-1,2.35,6.91,6.91,0,0,1,1.58,1A8.94,8.94,0,0,0,96.47,75l.08,11.51a34.4,34.4,0,0,1,4.07-10c.45-.67.65-1.1.92-1.55a6.9,6.9,0,0,0,1-3.58,7,7,0,0,1,2,0,5.62,5.62,0,0,1,.07-2.21c2.79-.22,3.6-1.89,6.91-3.68a33.72,33.72,0,0,1,5.08-2.16c-5.62.07-9.75-.73-13.28,1.65a7.75,7.75,0,0,1-1-1.68,6.7,6.7,0,0,1-2.23,1.06,4.39,4.39,0,0,0-3.69-1.1,4,4,0,0,0,1.08,3.64Z"/><path class="cls-2" d="M97.08,68.91c.44-.18,2.49-.94,2.49-.94l0,0a1.42,1.42,0,0,0,.13.52v0a3.57,3.57,0,0,0-1.3,1.24s0,0,0,0v0a3.22,3.22,0,0,0-1.36-.84Z"/><path class="cls-2" d="M98.78,78.63c-2.06,4.55-1.57,4.35-2,6.24.06-.91.12-2.06.25-2.88a66.53,66.53,0,0,1,3.73-12.69,3.2,3.2,0,0,0,.64,0,2.56,2.56,0,0,1,.49,1c.72,3-1.52,4.85-3.08,8.3Z"/><path class="cls-2" d="M103.92,70.65,102,69.05v0l.17-.14a2.43,2.43,0,0,0,.24-.32v0a4.43,4.43,0,0,0,1.63.5,4.29,4.29,0,0,0-.13,1.61Z"/><path class="cls-2" d="M112.64,63.74a11.2,11.2,0,0,1,2.35-.23l-2,.63c-4.43,1.66-5.56,4.23-8.55,4.29a3.66,3.66,0,0,1-1.79-.48v-.08a1.37,1.37,0,0,0,0-.57v0a57.42,57.42,0,0,1,10.09-3.53Z"/><path class="cls-2" d="M102.12,63.88a3.56,3.56,0,0,0,.74,1.33,2.66,2.66,0,0,0-1,1.32h0a1.42,1.42,0,0,0-.62-.2h0l.88-2.44Z"/><path class="cls-2" d="M101.72,67.21a.87.87,0,1,1-1.24,0,.88.88,0,0,1,1.24,0Z"/><path class="cls-2" d="M99.82,64.76a3.49,3.49,0,0,1,.82,1.64,1.25,1.25,0,0,0-.65.42l-3.07-3.11a3.13,3.13,0,0,1,2.9,1.05Z"/><path class="cls-2" d="M138.81,70.36v1.28a23.57,23.57,0,0,0-5.06-3V67.48a23.75,23.75,0,0,1,5.06,2.88Z"/><path class="cls-2" d="M125.14,65.75a23.59,23.59,0,0,1,2.54.14v1a21.41,21.41,0,0,0-5.06,0v-1a23.36,23.36,0,0,1,2.52-.14Z"/><path class="cls-2" d="M116.55,67.47v1.12a23.37,23.37,0,0,0-5.06,3V70.34a24.4,24.4,0,0,1,5.06-2.87Z"/><path class="cls-2" d="M111.49,122.28V121a23.77,23.77,0,0,0,5.06,3v1.11a24.4,24.4,0,0,1-5.06-2.87Z"/><path class="cls-2" d="M125.14,126.88a21,21,0,0,1-2.52-.15v-1a21,21,0,0,0,2.52.15,19.35,19.35,0,0,0,2.54-.16v1a21.26,21.26,0,0,1-2.54.15Z"/><path class="cls-2" d="M133.75,125.14V124a23.17,23.17,0,0,0,5.06-3v1.28a23.75,23.75,0,0,1-5.06,2.88Z"/><path class="cls-3" d="M184,81.12H194.4V94.6h-3.48l-.52-3.13a9.22,9.22,0,0,1-7.8,3.8c-6,0-11.5-4.32-11.5-13.1,0-6.83,3.8-13.27,12.23-13.24,7.66,0,10.69,5,11,8.43h-5.23c0-1-1.77-4.11-5.46-4.11s-7.18,2.58-7.18,9c0,6.83,3.73,8.6,7.28,8.6,1.15,0,5-.45,6.06-5.5H184V81.12Z"/><path class="cls-3" d="M202.49,83.49c.27-2.44,1.49-3.9,3.79-3.9,1.57,0,3.49.91,3.76,3.9Zm7.35,5.68a3.15,3.15,0,0,1-3.14,2c-3.94,0-4.21-3.13-4.35-4.53h12.71v-.87c0-8.46-5.05-10.2-8.71-10.2-8.11,0-8.88,7.14-8.88,9.37,0,7.62,4,10.13,9.23,10.13a8,8,0,0,0,8.15-5.92Z"/><path class="cls-3" d="M235.06,94.6h-4.88V83.35c0-1.36-.07-3.65-3.17-3.65-2.16,0-3.83,1.46-3.83,4.28V94.6H218.3V76.07H223v2.72H223a6,6,0,0,1,5.57-3.2c3.62,0,6.45,2.12,6.45,6.2V94.6Z"/><path class="cls-3" d="M243.14,83.49c.28-2.44,1.49-3.9,3.79-3.9,1.57,0,3.49.91,3.77,3.9Zm7.35,5.68a3.15,3.15,0,0,1-3.14,2c-3.93,0-4.21-3.13-4.35-4.53h12.71v-.87c0-8.46-5.05-10.2-8.71-10.2-8.11,0-8.88,7.14-8.88,9.37,0,7.62,4,10.13,9.23,10.13a8,8,0,0,0,8.15-5.92Z"/><path class="cls-3" d="M258.92,76.07h4.66v3.21h.07c1-1.88,2.13-3.69,5.09-3.69a7.43,7.43,0,0,1,.94.07V80.6a9.05,9.05,0,0,0-1.39-.07c-3.8,0-4.5,2.37-4.5,4.43V94.6h-4.87V76.07Z"/><path class="cls-3" d="M282.74,88c0,2.27-2.19,3.66-4.35,3.66a2.13,2.13,0,0,1-2.27-2.23c0-2,1.5-2.47,3.31-2.79,2-.31,2.83-.62,3.31-1V88Zm4.78-7c0-4.56-4.78-5.36-7.39-5.36-3.8,0-7.73.8-8.29,6.47h4.7c.14-1.08.56-2.57,3-2.57,1.25,0,3.2.1,3.2,2.16,0,1-.94,1.36-1.7,1.46l-4.39.66c-3.1.45-5.4,2.3-5.4,5.92,0,3.83,2.85,5.4,5.64,5.4a7.53,7.53,0,0,0,6-2.68,8.23,8.23,0,0,0,.46,2.19h5.26v-.73c-.6-.21-1.08-.69-1.08-2.89V81Z"/><polygon class="cls-3" points="296.89 94.61 292.01 94.61 292.01 69.59 296.89 69.59 296.89 94.61 296.89 94.61"/><path class="cls-3" d="M306.57,76.07V94.6h-4.88V76.07Zm0-2.19h-4.88V69.35h4.88v4.53Z"/><path class="cls-3" d="M316.71,76.07h3v3.49h-3V89.62c0,1.08,0,1.5,2,1.5a9.2,9.2,0,0,0,1-.07v3.69c-.77,0-1.54.07-2.3.07h-.63c-4.21,0-5-1.6-5-4V79.56h-2.51V76.07h2.51v-5h4.88v5Z"/><path class="cls-3" d="M333.08,88c0,2.27-2.2,3.66-4.36,3.66a2.12,2.12,0,0,1-2.26-2.23c0-2,1.5-2.47,3.31-2.79,2-.31,2.82-.62,3.31-1V88Zm4.77-7c0-4.56-4.77-5.36-7.38-5.36-3.8,0-7.74.8-8.29,6.47h4.7c.14-1.08.56-2.57,3-2.57,1.26,0,3.21.1,3.21,2.16,0,1-.94,1.36-1.71,1.46l-4.39.66c-3.1.45-5.4,2.3-5.4,5.92,0,3.83,2.86,5.4,5.65,5.4a7.54,7.54,0,0,0,6-2.68,7.86,7.86,0,0,0,.45,2.19h5.26v-.73c-.59-.21-1.08-.69-1.08-2.89V81Z"/><path class="cls-3" d="M347.67,76.07h3v3.49h-3V89.62c0,1.08,0,1.5,2,1.5a8.87,8.87,0,0,0,1-.07v3.69c-.76,0-1.53.07-2.29.07h-.63c-4.22,0-5-1.6-5-4V79.56h-2.51V76.07h2.51v-5h4.87v5Z"/><path class="cls-3" d="M175.77,120.31c0-2.92,1-5.67,4.14-5.67,3.35,0,4.18,3,4.18,6,0,2.75-1.22,5.33-4.32,5.33s-4-3.41-4-5.61Zm13-15.88h-4.88v8.88h-.07a5.93,5.93,0,0,0-5.36-2.89c-4.08,0-7.7,3.14-7.7,9.55,0,5.08,2.3,10,7.8,10a5.9,5.9,0,0,0,5.37-2.82H184v2.33h4.77v-25Z"/><path class="cls-3" d="M196.67,118.33c.28-2.44,1.5-3.9,3.8-3.9,1.56,0,3.48.9,3.76,3.9ZM204,124a3.14,3.14,0,0,1-3.14,2c-3.93,0-4.21-3.14-4.35-4.53h12.71v-.87c0-8.47-5.05-10.21-8.71-10.21-8.11,0-8.88,7.14-8.88,9.37,0,7.63,4,10.14,9.23,10.14A8,8,0,0,0,209,124Z"/><path class="cls-3" d="M238.5,112.62c-.41-1.5-1.22-4.32-5.53-4.32-2.51,0-6.21,1.67-6.21,8.74,0,4.49,1.78,8.53,6.21,8.53,2.89,0,4.91-1.63,5.53-4.7h5.23c-1,5.44-4.6,9.23-10.87,9.23-6.65,0-11.42-4.49-11.42-13.13s5.05-13.2,11.49-13.2c7.49,0,10.52,5.15,10.8,8.85Z"/><path class="cls-3" d="M257.56,122.79c0,2.26-2.2,3.65-4.36,3.65a2.12,2.12,0,0,1-2.26-2.22c0-2,1.5-2.48,3.31-2.79a7.13,7.13,0,0,0,3.31-1v2.37Zm4.77-7c0-4.57-4.77-5.37-7.39-5.37-3.79,0-7.73.8-8.29,6.48h4.71c.14-1.08.55-2.58,3-2.58,1.26,0,3.21.11,3.21,2.16,0,1-.94,1.36-1.71,1.47l-4.39.66c-3.1.45-5.4,2.3-5.4,5.92,0,3.83,2.86,5.4,5.65,5.4a7.56,7.56,0,0,0,6-2.68,7.94,7.94,0,0,0,.45,2.19h5.26v-.73c-.59-.21-1.08-.7-1.08-2.89v-10Z"/><path class="cls-3" d="M272.15,110.91h3v3.48h-3v10.07c0,1.08,0,1.5,2,1.5.32,0,.67,0,1-.07v3.69c-.76,0-1.53.07-2.3.07h-.62c-4.22,0-5-1.6-5-4V114.39h-2.51v-3.48h2.51v-5h4.87v5Z"/><path class="cls-3" d="M288.52,122.79c0,2.26-2.19,3.65-4.35,3.65a2.12,2.12,0,0,1-2.26-2.22c0-2,1.49-2.48,3.31-2.79,2-.31,2.82-.63,3.3-1v2.37Zm4.78-7c0-4.57-4.78-5.37-7.39-5.37-3.79,0-7.73.8-8.29,6.48h4.7c.14-1.08.56-2.58,3-2.58,1.25,0,3.2.11,3.2,2.16,0,1-.94,1.36-1.7,1.47l-4.39.66c-3.1.45-5.4,2.3-5.4,5.92,0,3.83,2.86,5.4,5.64,5.4a7.53,7.53,0,0,0,6-2.68,8.31,8.31,0,0,0,.46,2.19h5.26v-.73c-.6-.21-1.08-.7-1.08-2.89v-10Z"/><polygon class="cls-3" points="302.67 129.44 297.79 129.44 297.79 104.43 302.67 104.43 302.67 129.44 302.67 129.44"/><path class="cls-3" d="M324.06,129.44h-4.67v-2.61h-.07a6.12,6.12,0,0,1-5.64,3.1c-3.66,0-6.31-2.09-6.31-6.83V110.91h4.88V122.4c0,2.86,1.67,3.42,3.17,3.42s3.76-.91,3.76-4.22V110.91h4.88v18.53Z"/><path class="cls-3" d="M345.37,129.44H340.5V118.19c0-1.36-.07-3.66-3.17-3.66-2.16,0-3.83,1.46-3.83,4.29v10.62h-4.88V110.91h4.67v2.72h.07a6,6,0,0,1,5.57-3.21c3.62,0,6.44,2.13,6.44,6.2v12.82Z"/><path class="cls-3" d="M359.35,129.13c-2.3,6.86-2.93,7.76-7.18,7.76-.66,0-1.49,0-2.19-.06v-3.91a5.2,5.2,0,0,0,.94.07c1.78,0,2.75-.24,3.21-2.78l-6.83-19.3h5.43l4,13.65h.07l3.8-13.65h5.15l-6.37,18.22Z"/><path class="cls-3" d="M377.79,122.79c0,2.26-2.2,3.65-4.36,3.65a2.12,2.12,0,0,1-2.26-2.22c0-2,1.49-2.48,3.31-2.79a7.13,7.13,0,0,0,3.31-1v2.37Zm4.77-7c0-4.57-4.77-5.37-7.39-5.37-3.79,0-7.73.8-8.29,6.48h4.7c.14-1.08.56-2.58,3-2.58,1.25,0,3.21.11,3.21,2.16,0,1-1,1.36-1.71,1.47l-4.39.66c-3.1.45-5.4,2.3-5.4,5.92,0,3.83,2.86,5.4,5.64,5.4a7.53,7.53,0,0,0,6-2.68,8.31,8.31,0,0,0,.46,2.19h5.26v-.73c-.6-.21-1.08-.7-1.08-2.89v-10Z"/></svg>