<svg id="Capa_1" data-name="Capa 1" xmlns="http://www.w3.org/2000/svg" viewBox="0 0 480 200"><defs><style>.cls-1,.cls-2{fill-rule:evenodd;}.cls-2{fill:#006ed1;}</style></defs><g id="logo-il3"><g id="Group"><path id="Fill-1" class="cls-1" d="M98.31,107.23l-.86.07-.16.13v4.25c0,1.59.65,2.28,2.18,2.28s2.2-.65,2.2-2.28v-4.17l-.17-.18-.84-.1v-.58h2.84v.58l-.81.1-.18.18v4.27c0,2.1-1,3-3.27,3s-3.3-.9-3.3-3v-4.35l-.16-.13-.77-.07v-.58h3.3Z"/><polygon id="Fill-3" class="cls-1" points="113.28 107.51 113.1 107.33 112.3 107.23 112.3 106.64 115.06 106.64 115.06 107.23 114.25 107.33 114.07 107.51 114.07 113.81 114.68 114.66 113.17 114.66 108.61 108.28 108.61 113.81 108.79 113.98 109.6 114.07 109.6 114.66 106.8 114.66 106.8 114.07 107.61 113.98 107.79 113.81 107.79 107.43 107.63 107.3 106.77 107.23 106.77 106.64 109.26 106.64 109.26 107 113.28 112.67 113.28 107.51"/><polygon id="Fill-5" class="cls-1" points="121.93 107.23 121.06 107.3 120.91 107.43 120.91 113.88 121.06 114.01 121.93 114.08 121.93 114.66 118.55 114.66 118.55 114.08 119.41 114.01 119.56 113.88 119.56 107.43 119.41 107.3 118.55 107.23 118.55 106.65 121.93 106.65 121.93 107.23"/><polygon id="Fill-7" class="cls-1" points="125.13 107.36 124.31 107.23 124.31 106.64 127.49 106.64 127.49 107.23 126.71 107.3 126.61 107.43 128.95 113.19 131.2 107.43 131.12 107.3 130.3 107.23 130.3 106.64 132.84 106.64 132.84 107.23 132.03 107.36 129.14 114.71 128.08 114.71 125.13 107.36"/><polygon id="Fill-9" class="cls-1" points="141.79 108.48 140.94 108.48 140.73 107.43 140.54 107.3 137.84 107.3 137.84 110.18 139.73 110.18 139.91 110.05 140.03 109.15 140.78 109.15 140.78 111.85 140.03 111.85 139.91 110.95 139.73 110.83 137.84 110.83 137.84 114.01 140.98 114.01 141.21 113.88 141.44 112.54 142.24 112.54 142.24 114.66 135.56 114.66 135.56 114.07 136.33 114.01 136.49 113.88 136.49 107.43 136.33 107.3 135.56 107.23 135.56 106.64 141.79 106.64 141.79 108.48"/><path id="Fill-11" class="cls-1" d="M148,110.47a5.24,5.24,0,0,0,.56,0c1.48,0,2.09-.47,2.09-1.59s-.63-1.6-2.17-1.6H148Zm1-3.83c2.08,0,3.16.72,3.16,2.13,0,1-.64,1.7-1.95,2,1,.27,1.26.62,1.65,2.07.28,1,.58,1.23,1.62,1.23h.25v.54a5.47,5.47,0,0,1-1.17.13c-1.21,0-1.64-.39-2.11-2-.43-1.39-.75-1.67-1.94-1.67a4.78,4.78,0,0,0-.53,0v2.73l.16.13.78.06v.59H145.7v-.59l.78-.06.16-.13v-6.45l-.16-.13-.78-.07v-.59Z"/><path id="Fill-13" class="cls-1" d="M157,112.16h.91l.17,1.49.13.18a4.55,4.55,0,0,0,1.35.21c1.13,0,1.79-.49,1.79-1.32a1.1,1.1,0,0,0-.63-1,8.83,8.83,0,0,0-1.49-.67c-1.59-.64-2.08-1.15-2.08-2.15,0-1.46,1.17-2.37,3-2.37a6.93,6.93,0,0,1,2.25.38v2h-.84l-.21-1.26-.16-.18a3.12,3.12,0,0,0-1-.18c-1,0-1.62.49-1.62,1.29s.38,1,2,1.57a4.35,4.35,0,0,1,1.67.87,1.84,1.84,0,0,1,.58,1.38c0,1.47-1.35,2.43-3.41,2.43a6.08,6.08,0,0,1-2.35-.39Z"/><polygon id="Fill-15" class="cls-1" points="170.16 107.23 169.29 107.3 169.14 107.43 169.14 113.88 169.29 114.01 170.16 114.08 170.16 114.66 166.78 114.66 166.78 114.08 167.64 114.01 167.79 113.88 167.79 107.43 167.64 107.3 166.78 107.23 166.78 106.65 170.16 106.65 170.16 107.23"/><polygon id="Fill-17" class="cls-1" points="174.62 107.43 174.4 108.67 173.57 108.67 173.57 106.65 180.86 106.65 180.86 108.67 180.03 108.67 179.82 107.43 179.65 107.3 177.89 107.3 177.89 113.88 178.03 114.01 178.94 114.08 178.94 114.66 175.49 114.66 175.49 114.08 176.38 114.01 176.54 113.88 176.54 107.3 174.78 107.3 174.62 107.43"/><path id="Fill-19" class="cls-1" d="M185.37,111h2.39l-1.21-3Zm2-4.42,3,7.39.76.13v.59h-3.1v-.59l.8-.06.06-.13-.9-2.24h-2.94l-.87,2.24.08.13.85.06v.59h-2.49v-.59l.75-.13,2.93-7.39Z"/><polygon id="Fill-21" class="cls-1" points="193.99 107.43 193.76 108.67 192.94 108.67 192.94 106.65 200.22 106.65 200.22 108.67 199.4 108.67 199.19 107.43 199.02 107.3 197.25 107.3 197.25 113.88 197.4 114.01 198.3 114.08 198.3 114.66 194.86 114.66 194.86 114.08 195.75 114.01 195.91 113.88 195.91 107.3 194.14 107.3 193.99 107.43"/><path id="Fill-23" class="cls-1" d="M231,114l.81,0c1.63,0,2.34-.47,2.34-1.6s-.62-1.54-2-1.54c-.31,0-.53,0-1.12.07Zm0-3.73.51,0c1.39,0,2.1-.53,2.1-1.56s-.65-1.41-2-1.41c-.15,0-.27,0-.66,0Zm-2.38,3.84.81-.06.16-.13v-6.45l-.16-.13-.81-.07v-.59H232c2.06,0,3.12.67,3.12,2,0,.9-.56,1.49-1.68,1.78,1.43.1,2.23.81,2.23,2,0,1.45-1.32,2.32-3.54,2.32h-3.55Z"/><path id="Fill-25" class="cls-1" d="M241.76,111h2.5l-1.26-3Zm2.1-4.41L247,114l.79.13v.59h-3.22v-.59l.82-.06.07-.13-.94-2.24h-3.06l-.91,2.24.09.13.89.06v.59h-2.6v-.59l.78-.13,3.06-7.39Z"/><path id="Fill-27" class="cls-1" d="M253.7,110.52a5.62,5.62,0,0,0,.58,0c1.54,0,2.18-.47,2.18-1.59s-.66-1.6-2.26-1.6h-.5Zm1.06-3.83c2.16,0,3.29.72,3.29,2.13,0,1.05-.66,1.7-2,2,1,.28,1.32.63,1.71,2.08.3,1,.61,1.23,1.69,1.23h.26v.54a6,6,0,0,1-1.22.13c-1.25,0-1.7-.39-2.2-2-.44-1.39-.77-1.67-2-1.67h-.55v2.74l.17.13.81.06v.59h-3.36v-.59l.81-.06.17-.13v-6.45l-.17-.13-.81-.07v-.59Z"/><path id="Fill-29" class="cls-1" d="M270.36,114.42a9.58,9.58,0,0,1-2.81.42,4.26,4.26,0,0,1-4.58-4.17c0-2.44,1.9-4.12,4.65-4.12a9.37,9.37,0,0,1,2.74.44V109h-.86l-.25-1.28-.18-.18a3.75,3.75,0,0,0-1.5-.28c-1.8,0-3,1.33-3,3.35a3.12,3.12,0,0,0,3.29,3.44,3.48,3.48,0,0,0,1.16-.18l.18-.16.33-1.39h.81Z"/><polygon id="Fill-31" class="cls-1" points="281.43 108.53 280.54 108.53 280.33 107.48 280.13 107.35 277.32 107.35 277.32 110.23 279.29 110.23 279.47 110.1 279.6 109.2 280.38 109.2 280.38 111.9 279.6 111.9 279.47 111 279.29 110.88 277.32 110.88 277.32 114.06 280.59 114.06 280.82 113.93 281.07 112.59 281.9 112.59 281.9 114.71 274.94 114.71 274.94 114.12 275.75 114.06 275.92 113.93 275.92 107.48 275.75 107.35 274.94 107.28 274.94 106.69 281.43 106.69 281.43 108.53"/><polygon id="Fill-33" class="cls-1" points="287.7 107.35 286.79 107.28 286.79 106.69 290.23 106.69 290.23 107.28 289.42 107.35 289.25 107.48 289.25 114.06 292 114.06 292.21 113.93 292.44 112.36 293.3 112.36 293.3 114.71 286.79 114.71 286.79 114.12 287.7 114.06 287.85 113.93 287.85 107.48 287.7 107.35"/><path id="Fill-35" class="cls-1" d="M298.06,110.69c0,2.11,1.08,3.47,2.73,3.47s2.73-1.36,2.73-3.42-1.08-3.49-2.78-3.49-2.68,1.36-2.68,3.44m7.07,0a4.35,4.35,0,1,1-4.29-4.2,4.1,4.1,0,0,1,4.29,4.2"/><polygon id="Fill-37" class="cls-1" points="315.89 107.56 315.71 107.38 314.87 107.28 314.87 106.69 317.75 106.69 317.75 107.28 316.9 107.38 316.72 107.56 316.72 113.86 317.35 114.71 315.78 114.71 311.04 108.33 311.04 113.86 311.22 114.03 312.06 114.12 312.06 114.71 309.15 114.71 309.15 114.12 310 114.03 310.18 113.86 310.18 107.48 310.01 107.35 309.12 107.28 309.12 106.69 311.71 106.69 311.71 107.06 315.89 112.72 315.89 107.56"/><path id="Fill-39" class="cls-1" d="M323.53,111H326l-1.25-3Zm2.1-4.41,3.14,7.39.79.13v.59h-3.22v-.59l.82-.06.07-.13-.94-2.24h-3.06l-.91,2.24.09.13.89.06v.59h-2.6v-.59l.78-.13,3.06-7.39Z"/><path id="Fill-41" class="cls-1" d="M209.84,113h-.48v-4.29h.48c1.39,0,2.07.7,2.07,2.14s-.68,2.15-2.07,2.15m.21-4.69h-2.63v.35l.53,0,.14.11v4.1L208,113l-.53,0v.36h2.63c2.08,0,3.27-.93,3.27-2.55s-1.19-2.56-3.27-2.56"/><polygon id="Fill-43" class="cls-1" points="215.51 113.38 220.37 113.38 220.37 112.03 219.69 112.03 219.53 112.85 219.43 112.96 217.45 112.96 217.45 110.94 218.52 110.94 218.64 111.02 218.72 111.61 219.33 111.61 219.33 109.85 218.72 109.85 218.64 110.43 218.52 110.52 217.45 110.52 217.45 108.68 219.14 108.68 219.24 108.77 219.25 108.79 219.38 109.45 220.08 109.45 220.08 108.27 215.51 108.27 215.51 108.62 216.06 108.66 216.19 108.77 216.19 112.87 216.05 112.98 215.51 113.02 215.51 113.38"/><polygon id="Fill-45" class="cls-2" points="103.88 81.09 103.88 81.97 102.34 82.08 101.97 82.43 99.48 95.23 99.76 95.58 101.27 95.7 101.27 96.58 95.58 96.58 95.58 95.7 97.08 95.58 97.45 95.23 99.94 82.43 99.69 82.08 98.19 81.97 98.19 81.09 103.88 81.09"/><path id="Fill-47" class="cls-2" d="M108.1,85.45l-.42,2.22c2.16-1.69,3.31-2.24,4.59-2.24a1.78,1.78,0,0,1,1.89,1.82,9.21,9.21,0,0,1-.33,2.1L113,92.93a8.11,8.11,0,0,0-.26,1.52A1.06,1.06,0,0,0,114,95.58a5.89,5.89,0,0,0,1.3-.2V96a7.8,7.8,0,0,1-2.89.72c-1,0-1.6-.49-1.6-1.41a5,5,0,0,1,.18-1.25l1-4.26a6.43,6.43,0,0,0,.21-1.53c0-.94-.39-1.43-1.16-1.43-1,0-2.05.58-3.54,1.92L106,96.57h-2L106,87.14l-1.91-.35v-.57l3.45-.77Z"/><path id="Fill-49" class="cls-2" d="M121.47,86.72a1.22,1.22,0,0,0-.74-.25A1.57,1.57,0,0,0,119.12,88c0,.71.26,1,1.75,2.16a11.28,11.28,0,0,1,1.7,1.41,2.32,2.32,0,0,1,.65,1.66c0,2.06-1.79,3.53-4.31,3.53-1.84,0-3-.8-3-2a1.16,1.16,0,0,1,1.19-1.23,1.66,1.66,0,0,1,1,.44l-.42,1.15a2,2,0,0,0,1.7.81,1.89,1.89,0,0,0,2.1-1.89c0-.78-.35-1.27-1.61-2.21a7.87,7.87,0,0,1-1.65-1.41,2.27,2.27,0,0,1-.56-1.53,3.8,3.8,0,0,1,4-3.48c1.31,0,2.2.6,2.2,1.46,0,.66-.5,1.08-1.36,1.17Z"/><path id="Fill-51" class="cls-2" d="M129.67,83.22l-.48,2.63h3.35v1H129L127.79,93a5.38,5.38,0,0,0-.14,1.06,1.25,1.25,0,0,0,1.42,1.36,7.29,7.29,0,0,0,2.21-.44v.74a9.68,9.68,0,0,1-3.65,1c-1.24,0-1.89-.74-1.89-2.08a7.11,7.11,0,0,1,.18-1.57l1.26-6.25-1.44.11v-.69l1.7-.74,1.16-2.3Z"/><path id="Fill-53" class="cls-2" d="M138.39,81.6a1.26,1.26,0,0,1-1.28,1.22,1.21,1.21,0,0,1-1.24-1.22,1.26,1.26,0,0,1,1.26-1.27A1.3,1.3,0,0,1,138.39,81.6Zm-1.12,3.85-1.68,8.63a3.6,3.6,0,0,0-.07.58c0,.58.38.9,1.08.9a5.83,5.83,0,0,0,1.77-.35v.72a9,9,0,0,1-3.29.81,1.35,1.35,0,0,1-1.49-1.55,6.61,6.61,0,0,1,.14-1.18l1.37-6.87-1.88-.35v-.57l3.45-.77Z"/><path id="Fill-55" class="cls-2" d="M144.1,83.22l-.49,2.63H147v1h-3.54L142.21,93a6.28,6.28,0,0,0-.14,1.06,1.25,1.25,0,0,0,1.42,1.36,7.34,7.34,0,0,0,2.22-.44v.74a9.72,9.72,0,0,1-3.66,1c-1.24,0-1.89-.74-1.89-2.08a7.2,7.2,0,0,1,.19-1.57l1.26-6.25-1.45.11v-.69l1.7-.74,1.17-2.3Z"/><path id="Fill-57" class="cls-2" d="M151.72,85.73l-1.47,6.74a9.36,9.36,0,0,0-.25,1.68,1.21,1.21,0,0,0,1.3,1.32A5.65,5.65,0,0,0,154.65,94l1.75-8.35h1.89l-1.66,7.54a9.31,9.31,0,0,0-.23,1.52c0,.56.49,1,1.19,1a5.62,5.62,0,0,0,1.33-.25V96a8.83,8.83,0,0,1-3,.74c-.89,0-1.35-.51-1.35-1.5,0-.09,0-.2,0-.43a6.94,6.94,0,0,1-4.24,1.93,2.05,2.05,0,0,1-2.24-2.17,6.88,6.88,0,0,1,.19-1.4l1.35-6.09-1.93-.35v-.58l3.66-.78Z"/><path id="Fill-59" class="cls-2" d="M164.86,83.22l-.49,2.63h3.36v1h-3.54L163,93a6.28,6.28,0,0,0-.14,1.06,1.25,1.25,0,0,0,1.43,1.36,7.29,7.29,0,0,0,2.21-.44v.74a9.67,9.67,0,0,1-3.66,1c-1.23,0-1.89-.74-1.89-2.08a7.2,7.2,0,0,1,.19-1.57l1.26-6.25-1.45.11v-.69l1.7-.74,1.17-2.3Z"/><path id="Fill-61" class="cls-2" d="M179.77,86.4a5.73,5.73,0,0,0-.62-.07c-2.22,0-4.24,2.93-4.24,6.18,0,1.85.72,3,1.91,3,1,0,1.93-.6,3.05-2l1-5.79Zm4.41-6.81-2.5,13.82a8.44,8.44,0,0,0-.14,1.27c0,.63.33.93,1,.93a6.28,6.28,0,0,0,1.56-.23v.69a9.43,9.43,0,0,1-2.91.67c-1,0-1.51-.56-1.51-1.69a3.26,3.26,0,0,1,0-.41A4.74,4.74,0,0,1,176,96.78c-1.88,0-3-1.57-3-4.1A7.35,7.35,0,0,1,175.51,87a6,6,0,0,1,3.89-1.52,5.25,5.25,0,0,1,1.84.32l.82-4.63L180,80.93v-.64l3.56-.7Z"/><path id="Fill-63" class="cls-2" d="M190.1,89.79a2.56,2.56,0,0,0,1.4-2.12,1.23,1.23,0,0,0-1.24-1.27c-1.42,0-2.65,1.57-3.33,4.27A6.58,6.58,0,0,0,190.1,89.79Zm2.79,4.92a6.53,6.53,0,0,1-4.52,2.07c-2.21,0-3.54-1.54-3.54-4.15a7.56,7.56,0,0,1,2.87-6,5.36,5.36,0,0,1,3.1-1.2,2.21,2.21,0,0,1,2.37,2.29c0,2.1-2.26,3.41-6.36,3.73a9,9,0,0,0-.07,1c0,1.9.91,3.07,2.36,3.07,1.18,0,2.28-.55,3.79-1.89Z"/><polygon id="Fill-65" class="cls-2" points="199.88 95.63 201.21 95.51 201.61 95.19 201.61 82.48 201.21 82.16 199.7 82.04 199.7 81.09 210.88 81.09 210.88 84.69 209.6 84.69 209.25 82.5 208.95 82.16 203.71 82.16 203.71 88.22 207.53 88.22 207.85 87.9 208.09 86.22 209.18 86.22 209.18 91.31 208.09 91.31 207.85 89.63 207.53 89.28 203.71 89.28 203.71 95.19 204.1 95.51 205.76 95.63 205.76 96.57 199.88 96.57 199.88 95.63"/><path id="Fill-67" class="cls-2" d="M214,91c0,2.87,1.28,4.76,3.21,4.76s3.24-1.87,3.24-4.73-1.28-4.76-3.28-4.76S214,88.15,214,91m8.64,0a5.39,5.39,0,0,1-5.43,5.74c-3.16,0-5.4-2.37-5.4-5.74s2.21-5.77,5.45-5.77,5.38,2.42,5.38,5.77"/><path id="Fill-69" class="cls-2" d="M224.17,95.74l1.25-.11.4-.37V86.91h-1.65v-.72l2.7-.83h.88v2.17a28.29,28.29,0,0,1,2.5-2.24,2.74,2.74,0,0,1,.56,0,3.39,3.39,0,0,1,1.42.3v2h-.75a1.38,1.38,0,0,0-1.16-.55c-.77,0-1.49.48-2.57,1.68v6.6l.4.37,1.63.11v.83h-5.61Z"/><path id="Fill-71" class="cls-2" d="M237.1,86.63c1.82-1,2.77-1.36,3.77-1.36a2.74,2.74,0,0,1,2.52,1.52c2-1.13,3.1-1.52,4.1-1.52,1.79,0,2.91,1.34,2.91,3.48v6.51l.4.37,1.26.12v.82H247v-.82l1.1-.12.42-.37V89.15c0-1.57-.68-2.36-2.05-2.36a6.1,6.1,0,0,0-2.68.74v7.73l.42.37,1.09.12v.82h-5v-.82l1.12-.12.39-.37V89.15c0-1.6-.65-2.36-2-2.36a6,6,0,0,0-2.7.74v7.73l.4.37,1.11.12v.82h-5.1v-.82l1.26-.12.39-.37V86.91h-1.65v-.72l2.7-.83h.89Z"/><path id="Fill-73" class="cls-2" d="M260.24,90.39a17.94,17.94,0,0,0-3.15,1.06c-1.12.53-1.61,1.18-1.61,2.13a1.76,1.76,0,0,0,1.82,1.91,6.11,6.11,0,0,0,2.94-1Zm0,4.85c-1.7,1.1-2.7,1.5-3.85,1.5a2.8,2.8,0,0,1-3-2.93c0-1.37.73-2.29,2.33-2.93a31.23,31.23,0,0,1,4.48-1.3v-.73c0-1.9-.56-2.56-2.1-2.56a5.05,5.05,0,0,0-1.82.34v1.94h-1.6c-.54,0-.73-.16-.73-.67,0-1.55,1.91-2.63,4.66-2.63,2.47,0,3.52,1,3.52,3.3v6.69l.4.37,1.23.11v.84h-3.26Z"/><path id="Fill-75" class="cls-2" d="M274.13,95.61a7.51,7.51,0,0,1-3.82,1.13c-3.13,0-5.22-2.29-5.22-5.7s2.23-5.77,5.59-5.77c2.07,0,3.42.85,3.42,2.19a1.19,1.19,0,0,1-1.26,1.25,1.84,1.84,0,0,1-1.09-.33V86.49a2.4,2.4,0,0,0-1.17-.3c-2,0-3.37,1.89-3.37,4.62s1.49,4.56,3.93,4.56a5.32,5.32,0,0,0,3-1Z"/><path id="Fill-77" class="cls-2" d="M279.53,81.58a1.34,1.34,0,0,1-2.68,0,1.35,1.35,0,0,1,1.36-1.34A1.34,1.34,0,0,1,279.53,81.58ZM279,85.36v9.9l.4.37,1.26.11v.83h-5.27v-.83l1.26-.11.39-.37V86.91h-1.65v-.72l2.7-.83Z"/><path id="Fill-79" class="cls-2" d="M291.11,79.59,287.71,84h-1.16l2.26-4.39ZM284.19,91c0,2.86,1.28,4.75,3.22,4.75s3.24-1.87,3.24-4.73-1.28-4.76-3.29-4.76S284.19,88.15,284.19,91Zm8.65,0a5.39,5.39,0,0,1-5.43,5.74c-3.17,0-5.41-2.37-5.41-5.74s2.22-5.77,5.46-5.77S292.84,87.69,292.84,91Z"/><path id="Fill-81" class="cls-2" d="M312.57,96a14,14,0,0,1-4.68.81,7.59,7.59,0,0,1-5.87-2.4,8.21,8.21,0,0,1-2.14-5.72c0-4.71,3.28-7.91,8.08-7.91a14.18,14.18,0,0,1,4.61.78v3.55h-1.3l-.35-2.09-.3-.42A6,6,0,0,0,308,82c-3.54,0-5.7,2.56-5.7,6.71s2.28,6.88,6.08,6.88a5.83,5.83,0,0,0,2-.3l.38-.37.56-2.56h1.25Z"/><path id="Fill-83" class="cls-2" d="M316.65,91c0,2.87,1.29,4.76,3.22,4.76s3.24-1.87,3.24-4.73-1.28-4.76-3.29-4.76-3.17,1.87-3.17,4.73m8.65,0a5.39,5.39,0,0,1-5.43,5.74c-3.17,0-5.4-2.37-5.4-5.74s2.21-5.77,5.44-5.77,5.39,2.42,5.39,5.77"/><path id="Fill-85" class="cls-2" d="M326.86,95.74l1.26-.11.39-.37V86.91h-1.65v-.72l2.7-.83h.89v1.27c2.05-1.08,2.84-1.36,3.87-1.36,1.93,0,3,1.27,3,3.48v6.51l.39.37,1.26.11v.83h-5.1v-.83l1.12-.11.39-.37V89.15c0-1.64-.67-2.36-2.21-2.36a5.81,5.81,0,0,0-2.75.74v7.73l.39.37,1.12.11v.83h-5.1Z"/><path id="Fill-87" class="cls-2" d="M340,86.86v-.71l1.54-.67,1-2.15h.86v2.45h3.54v1.08h-3.54V93c0,1.94.44,2.52,1.89,2.52a6.91,6.91,0,0,0,1.65-.19v.86a10,10,0,0,1-3.1.5c-1.77,0-2.37-.57-2.37-2.33V86.86Z"/><path id="Fill-89" class="cls-2" d="M354.12,79.59,350.72,84h-1.16l2.26-4.39Zm-2.54,5.77v9.9l.4.37,1.26.11v.83H348v-.83l1.23-.11.4-.37V86.91H348v-.72l2.68-.83Z"/><path id="Fill-91" class="cls-2" d="M354.41,95.74l1.25-.11.4-.37V86.91h-1.65v-.72l2.7-.83H358v1.27c2.05-1.08,2.85-1.36,3.87-1.36,1.93,0,3,1.27,3,3.48v6.51l.4.37,1.25.11v.83h-5.1v-.83l1.12-.11.4-.37V89.15c0-1.64-.68-2.36-2.22-2.36a5.84,5.84,0,0,0-2.75.74v7.73l.4.37,1.12.11v.83h-5.1Z"/><path id="Fill-93" class="cls-2" d="M371.14,85.25v7.63c0,1.66.69,2.43,2.25,2.43a6.25,6.25,0,0,0,2.71-.67V86.82h-1.66V86.1l2.71-.85H378v10l.42.37,1.1.11v.83H376.1V95.28c-1.7,1.13-2.63,1.5-3.85,1.5-1.95,0-3.05-1.27-3.05-3.5V86.82h-1.65V86.1l2.7-.85Z"/><path id="Fill-95" class="cls-2" d="M388,90.39a18,18,0,0,0-3.14,1.06c-1.12.53-1.61,1.18-1.61,2.13a1.76,1.76,0,0,0,1.82,1.91,6,6,0,0,0,2.93-1Zm0,4.85c-1.7,1.1-2.7,1.5-3.84,1.5a2.8,2.8,0,0,1-3-2.93c0-1.37.72-2.29,2.33-2.93a30.53,30.53,0,0,1,4.47-1.3v-.73c0-1.9-.56-2.56-2.09-2.56a5,5,0,0,0-1.82.34v1.94h-1.61c-.53,0-.72-.16-.72-.67,0-1.55,1.91-2.63,4.66-2.63,2.47,0,3.52,1,3.52,3.3v6.69l.39.37,1.24.11v.84h-3.27Z"/><path id="Fill-97" class="cls-2" d="M66.55,108.09c-3.23,0-5.34-1.77-5.34-2.82l0-.35h0l.14-3.07,4.8,3.55a.77.77,0,0,0,.44.14.82.82,0,0,0,.45-.14l4.71-3.34.19,2.58v.66C71.93,106.34,69.82,108.09,66.55,108.09ZM57,97.31l9.55-6.2,9.54,6.2-9.54,6.57Zm20.85.62a.75.75,0,0,0,0-1.23L67,89.71a.77.77,0,0,0-.93,0l-10.84,7a.74.74,0,0,0-.31.61.76.76,0,0,0,.31.62l1,.76.42,3a.74.74,0,0,0,1.48,0L58,99.55l2,1.34s-.27,4.63-.22,4.73c.28,2.11,3.28,3.94,6.83,3.94,3.76,0,6.93-2,6.93-4.26L73.22,101Z"/><path id="Fill-99" class="cls-2" d="M84.45,93.58v0ZM66,124.48a35.93,35.93,0,0,1-17-5.29c-.3-.21-.34-.46-.34-1v-39a.79.79,0,0,1,.46-.77,55.08,55.08,0,0,1,17.26-3,59.8,59.8,0,0,1,17.49,3c.38.16.51.39.53.93V118c0,.71,0,1-.36,1.19a36,36,0,0,1-17,5.29ZM85.57,79.12a1.53,1.53,0,0,0-1.18-1.58,61.22,61.22,0,0,0-18-3.14,56.36,56.36,0,0,0-17.85,3.11,1.46,1.46,0,0,0-1,1.41v39.32a2,2,0,0,0,.79,1.85,37.09,37.09,0,0,0,18.19,5.51h0a37.05,37.05,0,0,0,18.19-5.51,2.2,2.2,0,0,0,.82-2.09Z"/><path id="Fill-102" class="cls-2" d="M80.24,99.35a.66.66,0,0,0,0,1.31l2.73.08V99.26Z"/><path id="Fill-104" class="cls-2" d="M77,104.24a.66.66,0,0,0,.33.87l5.67,2.5v-1.75l-5.16-2a.67.67,0,0,0-.84.34"/><path id="Fill-106" class="cls-2" d="M75.23,108.35a.65.65,0,0,0,0,.93L83,117.42v-2.49l-6.83-6.57a.67.67,0,0,0-.91,0"/><path id="Fill-108" class="cls-2" d="M71.31,88.6a.66.66,0,0,0,.87-.33l4.6-10.08c-.69-.15-1.38-.29-2.06-.41L71,87.77a.66.66,0,0,0,.35.83"/><path id="Fill-110" class="cls-2" d="M75.55,91.45a.67.67,0,0,0,.94,0L83,85.13V82.49l-7.43,8.06a.65.65,0,0,0,0,.9"/><path id="Fill-112" class="cls-2" d="M79.47,94.87a.67.67,0,0,0,.86.37l2.64-1V92.57L79.8,94a.65.65,0,0,0-.33.83"/><path id="Fill-114" class="cls-2" d="M71.35,111.53a.64.64,0,0,0-.38.85l3.64,9.4c.64-.18,1.27-.38,1.87-.59l-4.3-9.32a.65.65,0,0,0-.83-.34"/><path id="Fill-116" class="cls-2" d="M53.54,100a.66.66,0,0,0-.64-.68l-2.73-.09v1.48l2.73-.08a.66.66,0,0,0,.64-.63"/><path id="Fill-118" class="cls-2" d="M56.19,104.28a.67.67,0,0,0-.86-.38l-5.16,2v1.74l5.67-2.5a.66.66,0,0,0,.35-.83"/><path id="Fill-120" class="cls-2" d="M57.93,108.37a.66.66,0,0,0-.93,0l-6.83,6.56v2.5l7.77-8.14a.66.66,0,0,0,0-.91"/><path id="Fill-122" class="cls-2" d="M61.79,88.62a.66.66,0,0,0,.38-.85l-3.79-10.1c-.69.12-1.38.25-2.08.4L61,88.27a.68.68,0,0,0,.84.35"/><path id="Fill-124" class="cls-2" d="M57.56,91.47a.64.64,0,0,0,0-.92l-7.43-8.06v2.64l6.48,6.32a.66.66,0,0,0,.91,0"/><path id="Fill-126" class="cls-2" d="M53.65,94.91a.64.64,0,0,0-.31-.87l-3.17-1.47v1.64l2.64,1a.67.67,0,0,0,.84-.33"/><path id="Fill-128" class="cls-2" d="M67.23,114.26a.68.68,0,0,0-.63-.63.66.66,0,0,0-.69.63l-.2,5.12L65.57,123l.45,0h1.09l.46,0-.14-3.55Z"/><path id="Fill-130" class="cls-2" d="M61.83,111.54a.66.66,0,0,0-.87.33l-4.3,9.33c.6.21,1.23.4,1.87.59l3.64-9.42a.65.65,0,0,0-.34-.83"/><path id="Fill-132" class="cls-2" d="M66.55,86.63a.64.64,0,0,0,.68-.62l.34-9-1.15,0-.86,0,.35,9a.65.65,0,0,0,.64.62"/><polygon id="Fill-134" class="cls-2" points="394.32 91.66 399.57 91.66 399.57 90.11 394.32 90.11 394.32 91.66"/><polygon id="Fill-136" class="cls-2" points="402.02 95.5 403.52 95.38 403.91 95.06 403.91 82.32 403.52 82 402.02 81.89 402.02 80.94 407.95 80.94 407.95 81.89 406.46 82 406.06 82.32 406.06 95.06 406.46 95.38 407.95 95.5 407.95 96.44 402.02 96.44 402.02 95.5"/><polygon id="Fill-137" class="cls-2" points="409.37 95.5 410.87 95.38 411.26 95.06 411.26 82.32 410.87 82 409.37 81.89 409.37 80.94 415.07 80.94 415.07 81.89 413.74 82 413.36 82.32 413.36 95.38 418.62 95.38 418.94 95.01 419.34 92.24 420.55 92.24 420.55 96.44 409.37 96.44 409.37 95.5"/><path id="Fill-138" class="cls-2" d="M424.5,84.68a1.66,1.66,0,0,1-.43.23,1.43,1.43,0,0,1-.48.07,1.33,1.33,0,0,1-1-.33,1.24,1.24,0,0,1-.35-.92,2,2,0,0,1,.4-1.18,4,4,0,0,1,1.06-1,5.83,5.83,0,0,1,1.56-.67,7.2,7.2,0,0,1,1.89-.24,6,6,0,0,1,1.91.28,4.32,4.32,0,0,1,1.46.77,3.31,3.31,0,0,1,.94,1.22,3.68,3.68,0,0,1,.33,1.57,3.29,3.29,0,0,1-.84,2.32,5.75,5.75,0,0,1-2.65,1.47,5.14,5.14,0,0,1,3,1.13A3.27,3.27,0,0,1,432.43,92a4.05,4.05,0,0,1-.45,1.89,4.78,4.78,0,0,1-1.23,1.5,6,6,0,0,1-1.88,1,7.36,7.36,0,0,1-2.34.36,7.21,7.21,0,0,1-1.77-.21,5.93,5.93,0,0,1-1.49-.58,3.41,3.41,0,0,1-1-.83,1.53,1.53,0,0,1-.38-1,1.07,1.07,0,0,1,.38-.85,1.39,1.39,0,0,1,.95-.33,2,2,0,0,1,.68.12l.72,2a4.17,4.17,0,0,0,1,.44,3.63,3.63,0,0,0,1,.12,3.74,3.74,0,0,0,1.47-.28,3.58,3.58,0,0,0,1.17-.76,3.45,3.45,0,0,0,.76-1.14,3.6,3.6,0,0,0,.29-1.44,2.68,2.68,0,0,0-.89-2.15,3.67,3.67,0,0,0-2.47-.76l-.51,0-.85.07V87.79h.68a3.74,3.74,0,0,0,2.53-.78,2.78,2.78,0,0,0,.9-2.2,2.79,2.79,0,0,0-3-3,4.23,4.23,0,0,0-1.16.15,3.58,3.58,0,0,0-1.06.52Z"/></g></g></svg>