<svg id="Capa_1" data-name="Capa 1" xmlns="http://www.w3.org/2000/svg" viewBox="0 0 480 200"><defs><style>.cls-1,.cls-2{fill:#9b7524;}.cls-1,.cls-5{fill-rule:evenodd;}.cls-3{fill:#d3ab1d;}.cls-4,.cls-5{fill:#5a462f;}</style></defs><polyline class="cls-1" points="184.71 51.94 147.77 94.71 147.77 92.03 184.71 42.04 184.71 51.94"/><polyline class="cls-2" points="184.71 74.87 147.77 100.66 147.77 98.42 184.71 65.75 184.71 74.87"/><polyline class="cls-3" points="340.37 100.52 340.37 98.15 184.71 65.75 184.71 74.83 340.37 100.52"/><polyline class="cls-3" points="184.71 51.94 340.37 93.37 340.37 91.02 184.71 42.04 184.71 51.94"/><polyline class="cls-4" points="340.37 100.52 314.2 105.91 307.55 109.43 180.4 109.43 172.57 105.18 147.78 100.66 184.71 74.83 340.37 100.52"/><rect class="cls-4" x="104.77" y="108.54" width="270.44" height="1.79"/><polygon class="cls-5" points="112.78 138.93 112.78 136.71 107.36 136.71 107.36 123.14 104.81 123.14 104.81 138.93 112.78 138.93"/><path class="cls-5" d="M131.3,138.93l-5.73-15.79h-2.83l-5.66,15.79h2.58l1.21-3.49h6.39l1.21,3.49Zm-4.72-5.52h-5l1.77-4.89c.16-.42.3-.84.43-1.26s.22-.84.3-1.24h0c.09.44.19.85.3,1.24a11.89,11.89,0,0,0,.4,1.19Z"/><polygon class="cls-5" points="154.07 138.93 154.07 136.71 148.64 136.71 148.64 123.14 146.09 123.14 146.09 138.93 154.07 138.93"/><polygon class="cls-5" points="167.89 138.93 167.89 136.71 162.46 136.71 162.46 123.14 159.91 123.14 159.91 138.93 167.89 138.93"/><path class="cls-5" d="M187,130.84a10.72,10.72,0,0,0-.51-3.48,6.9,6.9,0,0,0-1.45-2.47,5.91,5.91,0,0,0-2.25-1.49,8.13,8.13,0,0,0-2.9-.49,7.81,7.81,0,0,0-2.94.56,6.86,6.86,0,0,0-2.41,1.63,7.62,7.62,0,0,0-1.63,2.6,9.64,9.64,0,0,0-.59,3.51,11.55,11.55,0,0,0,.43,3.29,6.88,6.88,0,0,0,1.32,2.5,5.82,5.82,0,0,0,2.22,1.6,8.1,8.1,0,0,0,3.13.56,7.82,7.82,0,0,0,3-.56,6.84,6.84,0,0,0,2.41-1.64,7.54,7.54,0,0,0,1.62-2.62A9.55,9.55,0,0,0,187,130.84Zm-2.71.25a7.28,7.28,0,0,1-.4,2.56,5.39,5.39,0,0,1-1.06,1.82,4.37,4.37,0,0,1-3.22,1.42,4.44,4.44,0,0,1-2-.43,3.75,3.75,0,0,1-1.43-1.22,5.65,5.65,0,0,1-.84-1.89,9.79,9.79,0,0,1-.28-2.44,7.66,7.66,0,0,1,.38-2.51,5.8,5.8,0,0,1,1-1.8,4.07,4.07,0,0,1,1.47-1.08,4.48,4.48,0,0,1,1.76-.37,4.1,4.1,0,0,1,3.42,1.54A6.94,6.94,0,0,1,184.28,131.09Z"/><polygon class="cls-5" points="202.54 125.3 202.54 123.14 191.32 123.14 191.32 125.3 195.64 125.3 195.64 138.93 198.19 138.93 198.19 125.3 202.54 125.3"/><path class="cls-5" d="M211.67,134.67V123.14h-2.55v11.41a5.57,5.57,0,0,1-.11,1.2,1.72,1.72,0,0,1-.36.73,1.21,1.21,0,0,1-.58.38,2.75,2.75,0,0,1-.79.1,4.32,4.32,0,0,1-.82-.07,3.74,3.74,0,0,1-.7-.18v2.22l.81.13c.3,0,.64.05,1,.05a5,5,0,0,0,1.93-.32,3.31,3.31,0,0,0,1.26-.91,3.58,3.58,0,0,0,.69-1.41A7.17,7.17,0,0,0,211.67,134.67Z"/><path class="cls-5" d="M231.24,138.93l-5.73-15.79h-2.83L217,138.93h2.58l1.21-3.49h6.38l1.22,3.49Zm-4.72-5.52h-5.05l1.77-4.89q.24-.63.42-1.26A12.48,12.48,0,0,0,224,126h0c.1.44.2.85.31,1.24a11.89,11.89,0,0,0,.4,1.19Z"/><path class="cls-5" d="M259,130.81a9.74,9.74,0,0,0-.56-3.52,6.07,6.07,0,0,0-1.6-2.39,6.34,6.34,0,0,0-2.53-1.38,11.51,11.51,0,0,0-3.35-.45c-.92,0-1.81,0-2.67,0l-2.22.06v15.76L248,139c.68,0,1.43,0,2.24,0a11.67,11.67,0,0,0,3.53-.51,7.53,7.53,0,0,0,2.77-1.56,7.1,7.1,0,0,0,1.8-2.57A9.14,9.14,0,0,0,259,130.81Zm-2.71.19a7.35,7.35,0,0,1-.42,2.62,4.84,4.84,0,0,1-1.19,1.82,4.77,4.77,0,0,1-1.84,1.07,7.8,7.8,0,0,1-2.33.34c-.31,0-.64,0-1,0l-.91-.08V125.25q.42,0,1-.06h1.16a5.28,5.28,0,0,1,4.21,1.51A6.38,6.38,0,0,1,256.25,131Z"/><polygon class="cls-5" points="273.94 138.93 273.94 136.75 268.17 136.75 268.17 131.84 273.66 131.84 273.66 129.76 268.17 129.76 268.17 125.27 273.94 125.27 273.94 123.14 265.62 123.14 265.62 138.93 273.94 138.93"/><polygon class="cls-5" points="298.03 138.93 298.03 136.71 292.61 136.71 292.61 123.14 290.06 123.14 290.06 138.93 298.03 138.93"/><polygon class="cls-5" points="311.85 138.93 311.85 136.71 306.43 136.71 306.43 123.14 303.88 123.14 303.88 138.93 311.85 138.93"/><polygon class="cls-5" points="326.02 138.93 326.02 136.75 320.25 136.75 320.25 131.84 325.74 131.84 325.74 129.76 320.25 129.76 320.25 125.27 326.02 125.27 326.02 123.14 317.7 123.14 317.7 138.93 326.02 138.93"/><rect class="cls-4" x="333.2" y="123.14" width="2.55" height="15.78"/><path class="cls-5" d="M356.6,130.81a10,10,0,0,0-.56-3.52,6.18,6.18,0,0,0-1.6-2.39,6.41,6.41,0,0,0-2.53-1.38,11.58,11.58,0,0,0-3.36-.45c-.91,0-1.8,0-2.66,0l-2.22.06v15.76l1.95.06c.68,0,1.42,0,2.23,0a11.62,11.62,0,0,0,3.53-.51,7.57,7.57,0,0,0,2.78-1.56,7.1,7.1,0,0,0,1.8-2.57A9.32,9.32,0,0,0,356.6,130.81Zm-2.71.19a7.35,7.35,0,0,1-.42,2.62,4.75,4.75,0,0,1-1.2,1.82,4.66,4.66,0,0,1-1.83,1.07,7.85,7.85,0,0,1-2.33.34c-.31,0-.64,0-1,0l-.91-.08V125.25q.42,0,1-.06h1.16a5.3,5.3,0,0,1,4.21,1.51A6.38,6.38,0,0,1,353.89,131Z"/><path class="cls-5" d="M375.16,138.93l-5.73-15.79H366.6l-5.66,15.79h2.57l1.22-3.49h6.38l1.22,3.49Zm-4.73-5.52h-5.05l1.78-4.89q.24-.63.42-1.26a10.13,10.13,0,0,0,.3-1.24h.05c.1.44.2.85.31,1.24a11.78,11.78,0,0,0,.39,1.19Z"/><polygon class="cls-5" points="110.23 151.45 110.23 150.44 104.96 150.44 104.96 151.45 106.99 151.45 106.99 157.85 108.19 157.85 108.19 151.45 110.23 151.45"/><polygon class="cls-5" points="116.68 157.85 116.68 156.83 113.97 156.83 113.97 154.53 116.55 154.53 116.55 153.55 113.97 153.55 113.97 151.44 116.68 151.44 116.68 150.44 112.77 150.44 112.77 157.85 116.68 157.85"/><path class="cls-5" d="M125.62,157.85l-2.69-7.41h-1.32L119,157.85h1.21l.57-1.63h3l.58,1.63Zm-2.21-2.59H121l.83-2.29c.07-.2.14-.4.2-.59s.1-.4.14-.59h0c0,.21.09.4.14.59s.12.36.19.55Z"/><polygon class="cls-5" points="132.05 151.45 132.05 150.44 126.78 150.44 126.78 151.45 128.81 151.45 128.81 157.85 130 157.85 130 151.45 132.05 151.45"/><path class="cls-5" d="M139.65,157.85l-2-2.58-.31-.39-.32-.4a2.74,2.74,0,0,0,.83-.21,2.2,2.2,0,0,0,.67-.43,2.16,2.16,0,0,0,.44-.63,2,2,0,0,0,.16-.8,2.14,2.14,0,0,0-.19-.93,1.55,1.55,0,0,0-.53-.63,2.5,2.5,0,0,0-.83-.34,4.74,4.74,0,0,0-1-.11h-1.11l-.88,0v7.41h1.2v-3.2h.05l2.31,3.2Zm-1.73-5.31a1.08,1.08,0,0,1-.42.89,1.69,1.69,0,0,1-1.13.34h-.58V151.4l.29,0h.33a1.92,1.92,0,0,1,1.13.27A1,1,0,0,1,137.92,152.54Z"/><polygon class="cls-5" points="146.31 157.85 146.31 156.83 143.59 156.83 143.59 154.53 146.17 154.53 146.17 153.55 143.59 153.55 143.59 151.44 146.31 151.44 146.31 150.44 142.4 150.44 142.4 157.85 146.31 157.85"/><path class="cls-5" d="M161.85,157.85l-1.13-7.41h-1.43l-1.46,4.33c-.09.28-.17.52-.23.73s-.12.46-.18.74h0c-.05-.24-.1-.49-.17-.74s-.15-.51-.24-.78l-1.42-4.28h-1.43L153,157.85h1.22l.47-3.83c0-.35.07-.68.11-1s.07-.62.09-.94h0a7.93,7.93,0,0,0,.19.86c.09.31.18.6.28.9l1.33,4H158l1.39-4.3a6.39,6.39,0,0,0,.23-.77c.06-.24.11-.47.16-.68h0c0,.24.06.51.09.79s.08.63.14,1l.58,3.94Z"/><path class="cls-5" d="M170.53,155v-4.56h-1.16v4.65a3.28,3.28,0,0,1-.1.88,1.41,1.41,0,0,1-.32.58,1.33,1.33,0,0,1-.55.33,3.1,3.1,0,0,1-.79.1,2.25,2.25,0,0,1-.85-.14,1.24,1.24,0,0,1-.52-.36,1.29,1.29,0,0,1-.27-.55,3.66,3.66,0,0,1-.07-.69v-4.8h-1.19v4.89a4.06,4.06,0,0,0,.11,1,2.11,2.11,0,0,0,.42.83,2,2,0,0,0,.86.58,3.84,3.84,0,0,0,1.43.22,3.13,3.13,0,0,0,2.24-.73A2.93,2.93,0,0,0,170.53,155Z"/><path class="cls-5" d="M180,157.85v-7.41h-1.17v2.2c0,.27,0,.57,0,.89s0,.64,0,1,0,.62,0,.91,0,.55,0,.76l-.43-.83c-.14-.29-.3-.57-.47-.85l-2.45-4H174v7.41h1.17v-2.49c0-.26,0-.55,0-.86s0-.61,0-.91,0-.58,0-.84,0-.49,0-.67l.37.76c.14.26.29.53.45.8l2.54,4.21Z"/><rect class="cls-4" x="183.48" y="150.44" width="1.2" height="7.41"/><path class="cls-5" d="M193,157.59l-.14-1.07a2.67,2.67,0,0,1-.74.25,4,4,0,0,1-.82.09,2.15,2.15,0,0,1-1.78-.7,3.09,3.09,0,0,1-.57-2,4.2,4.2,0,0,1,.14-1.08,2.22,2.22,0,0,1,.41-.86,1.88,1.88,0,0,1,.7-.58,2.23,2.23,0,0,1,1-.21,5.79,5.79,0,0,1,1.61.25l.13-1.09c-.26-.06-.52-.11-.8-.15a5.93,5.93,0,0,0-.84-.06,4.22,4.22,0,0,0-1.62.29,3.29,3.29,0,0,0-1.14.83,3.47,3.47,0,0,0-.67,1.26,5.43,5.43,0,0,0-.22,1.6,5.26,5.26,0,0,0,.18,1.4,3,3,0,0,0,.58,1.13,2.76,2.76,0,0,0,1.05.77,3.92,3.92,0,0,0,1.58.28,5.83,5.83,0,0,0,1-.09A5.3,5.3,0,0,0,193,157.59Z"/><rect class="cls-4" x="195.98" y="150.44" width="1.2" height="7.41"/><path class="cls-5" d="M205.3,152.63a2,2,0,0,0-.7-1.63,3,3,0,0,0-2-.6h-1l-.9,0v7.41h1.2v-2.73l.28,0h.27a3.34,3.34,0,0,0,1.17-.19,2.83,2.83,0,0,0,.91-.53,2.37,2.37,0,0,0,.79-1.79Zm-1.24.1a1.28,1.28,0,0,1-.45,1,1.78,1.78,0,0,1-1.21.39h-.26a1.86,1.86,0,0,1-.26,0V151.4a1.46,1.46,0,0,1,.29,0h.32a1.73,1.73,0,0,1,1.19.35A1.3,1.3,0,0,1,204.06,152.73Z"/><path class="cls-5" d="M213.29,157.85l-2.69-7.41h-1.32l-2.66,7.41h1.21l.57-1.63h3l.58,1.63Zm-2.21-2.59h-2.37l.83-2.29c.07-.2.14-.4.2-.59s.1-.4.14-.59h0c0,.21.09.4.14.59s.12.36.19.55Z"/><polygon class="cls-5" points="219.56 157.85 219.56 156.81 217.02 156.81 217.02 150.44 215.82 150.44 215.82 157.85 219.56 157.85"/><rect class="cls-4" x="226.07" y="150.44" width="1.2" height="7.41"/><path class="cls-5" d="M239.19,152.63a2,2,0,0,0-.69-1.63,3,3,0,0,0-2-.6h-1l-.9,0v7.41h1.2v-2.73l.28,0h.27a3.34,3.34,0,0,0,1.17-.19,2.73,2.73,0,0,0,.91-.53,2.41,2.41,0,0,0,.59-.79A2.55,2.55,0,0,0,239.19,152.63Zm-1.24.1a1.28,1.28,0,0,1-.45,1,1.77,1.77,0,0,1-1.2.39H236a2.06,2.06,0,0,1-.26,0V151.4a1.51,1.51,0,0,1,.3,0h.31a1.71,1.71,0,0,1,1.19.35A1.3,1.3,0,0,1,238,152.73Z"/><path class="cls-5" d="M247.19,157.85l-2.69-7.41h-1.33l-2.66,7.41h1.21l.57-1.63h3l.57,1.63ZM245,155.26H242.6l.83-2.29c.07-.2.14-.4.2-.59a4.56,4.56,0,0,0,.14-.59h0c.05.21.1.4.15.59s.11.36.18.55Z"/><polygon class="cls-5" points="253.46 157.85 253.46 156.81 250.91 156.81 250.91 150.44 249.71 150.44 249.71 157.85 253.46 157.85"/><path class="cls-5" d="M261.93,157.85l-2.69-7.41h-1.33l-2.65,7.41h1.2l.58-1.63h3l.57,1.63Zm-2.22-2.59h-2.37l.84-2.29c.07-.2.14-.4.19-.59s.11-.4.15-.59h0c0,.21.09.4.14.59s.12.36.19.55Z"/><path class="cls-5" d="M270,155v-4.56h-1.16v4.65a3.28,3.28,0,0,1-.1.88,1.41,1.41,0,0,1-.32.58,1.33,1.33,0,0,1-.55.33,3.1,3.1,0,0,1-.79.1,2.25,2.25,0,0,1-.85-.14,1.24,1.24,0,0,1-.52-.36,1.29,1.29,0,0,1-.27-.55,3.66,3.66,0,0,1-.07-.69v-4.8h-1.19v4.89a4.06,4.06,0,0,0,.11,1,2.11,2.11,0,0,0,.42.83,2,2,0,0,0,.86.58A3.84,3.84,0,0,0,267,158a3.13,3.13,0,0,0,2.24-.73A2.93,2.93,0,0,0,270,155Z"/><path class="cls-5" d="M283.38,154a4.76,4.76,0,0,0-.26-1.65,2.82,2.82,0,0,0-.76-1.12,3,3,0,0,0-1.18-.65,5.49,5.49,0,0,0-1.58-.21l-1.25,0-1,0v7.4l.92,0,1,0a5.16,5.16,0,0,0,1.66-.25,3.38,3.38,0,0,0,1.3-.73,3.27,3.27,0,0,0,.85-1.2A4.34,4.34,0,0,0,283.38,154Zm-1.27.09a3.44,3.44,0,0,1-.2,1.23,2.33,2.33,0,0,1-.56.86,2.38,2.38,0,0,1-.86.5,3.83,3.83,0,0,1-1.09.16l-.47,0-.42,0v-5.39l.46,0h.55a2.46,2.46,0,0,1,2,.71A3,3,0,0,1,282.11,154.13Z"/><polygon class="cls-5" points="290.19 157.85 290.19 156.83 287.48 156.83 287.48 154.53 290.06 154.53 290.06 153.55 287.48 153.55 287.48 151.44 290.19 151.44 290.19 150.44 286.29 150.44 286.29 157.85 290.19 157.85"/><path class="cls-5" d="M302.3,157.59l-.15-1.07a2.67,2.67,0,0,1-.74.25,4,4,0,0,1-.82.09,2.15,2.15,0,0,1-1.78-.7,3.09,3.09,0,0,1-.56-2,4.21,4.21,0,0,1,.13-1.08,2.37,2.37,0,0,1,.41-.86,2,2,0,0,1,.7-.58,2.25,2.25,0,0,1,1-.21,5.72,5.72,0,0,1,1.6.25l.13-1.09c-.26-.06-.52-.11-.8-.15a5.93,5.93,0,0,0-.84-.06,4.13,4.13,0,0,0-1.61.29,3.24,3.24,0,0,0-1.15.83,3.63,3.63,0,0,0-.67,1.26,5.43,5.43,0,0,0-.22,1.6,5.26,5.26,0,0,0,.18,1.4,3.11,3.11,0,0,0,.58,1.13,2.76,2.76,0,0,0,1.05.77,3.92,3.92,0,0,0,1.58.28,5.83,5.83,0,0,0,1-.09A5.69,5.69,0,0,0,302.3,157.59Z"/><path class="cls-5" d="M311.44,154.05a5,5,0,0,0-.24-1.63,3.24,3.24,0,0,0-.68-1.16,2.89,2.89,0,0,0-1-.7,4,4,0,0,0-1.37-.23,3.54,3.54,0,0,0-1.38.27,3.22,3.22,0,0,0-1.13.76,3.51,3.51,0,0,0-.76,1.22,4.53,4.53,0,0,0-.28,1.65,5.63,5.63,0,0,0,.2,1.54,3.24,3.24,0,0,0,.62,1.18,2.93,2.93,0,0,0,1,.75,3.9,3.9,0,0,0,1.47.26,3.77,3.77,0,0,0,1.39-.26,3.25,3.25,0,0,0,1.13-.77,3.82,3.82,0,0,0,.76-1.23A4.46,4.46,0,0,0,311.44,154.05Zm-1.27.13a3.36,3.36,0,0,1-.19,1.2,2.45,2.45,0,0,1-.5.85,2.11,2.11,0,0,1-2.46.46,1.68,1.68,0,0,1-.67-.57,2.51,2.51,0,0,1-.4-.89,5,5,0,0,1-.13-1.14,3.53,3.53,0,0,1,.18-1.18,2.53,2.53,0,0,1,.48-.84,1.88,1.88,0,0,1,.69-.51,2,2,0,0,1,.82-.17,1.91,1.91,0,0,1,1.61.72A3.27,3.27,0,0,1,310.17,154.18Z"/><path class="cls-5" d="M320.31,157.85v-7.41h-1.16v3.09c0,.32,0,.64,0,1s0,.62,0,.91,0,.55,0,.76c-.13-.27-.28-.55-.42-.83s-.31-.57-.47-.85l-2.45-4h-1.57v7.41h1.16V154.5c0-.3,0-.61,0-.91s0-.58,0-.84,0-.49,0-.67c.11.25.24.5.37.76s.28.53.45.8l2.53,4.21Z"/><path class="cls-5" d="M329.35,150.66a6.79,6.79,0,0,0-2.07-.32,4.56,4.56,0,0,0-1.7.3,3.75,3.75,0,0,0-1.28.82,3.69,3.69,0,0,0-.81,1.26,4.36,4.36,0,0,0-.28,1.59,4.3,4.3,0,0,0,.26,1.53,3.15,3.15,0,0,0,.73,1.15,3.3,3.3,0,0,0,1.17.72,4.46,4.46,0,0,0,1.55.25,7.9,7.9,0,0,0,1.28-.11,6.21,6.21,0,0,0,1.2-.34V154h-1.19v2.69a3,3,0,0,1-.54.13,3.86,3.86,0,0,1-.61.05,2.52,2.52,0,0,1-1.88-.71,2.74,2.74,0,0,1-.68-2,3.51,3.51,0,0,1,.2-1.22,2.65,2.65,0,0,1,.58-.87,2.53,2.53,0,0,1,.86-.53,3,3,0,0,1,1-.18,4.9,4.9,0,0,1,1,.1,5.29,5.29,0,0,1,1,.28Z"/><path class="cls-5" d="M337.74,157.85l-1.95-2.58-.31-.39-.32-.4a2.74,2.74,0,0,0,.83-.21,2.2,2.2,0,0,0,.67-.43,2.16,2.16,0,0,0,.44-.63,2,2,0,0,0,.16-.8,2.14,2.14,0,0,0-.19-.93,1.63,1.63,0,0,0-.53-.63,2.5,2.5,0,0,0-.83-.34,4.74,4.74,0,0,0-1-.11h-1.11l-.88,0v7.41h1.2v-3.2h.05l2.31,3.2ZM336,152.54a1.07,1.07,0,0,1-.41.89,1.69,1.69,0,0,1-1.13.34h-.58V151.4l.29,0h.33a1.92,1.92,0,0,1,1.13.27A1,1,0,0,1,336,152.54Z"/><polygon class="cls-5" points="344.39 157.85 344.39 156.83 341.68 156.83 341.68 154.53 344.26 154.53 344.26 153.55 341.68 153.55 341.68 151.44 344.39 151.44 344.39 150.44 340.49 150.44 340.49 157.85 344.39 157.85"/><path class="cls-5" d="M351.69,155.61a1.72,1.72,0,0,0-.24-1,2.14,2.14,0,0,0-.6-.6,4.06,4.06,0,0,0-.78-.39c-.28-.11-.54-.22-.77-.33a2.22,2.22,0,0,1-.6-.39.78.78,0,0,1-.24-.59.93.93,0,0,1,.35-.76,1.61,1.61,0,0,1,1-.29,3.88,3.88,0,0,1,.67.06,3.45,3.45,0,0,1,.67.15l.06-1.06-.67-.09c-.22,0-.45,0-.66,0a4.06,4.06,0,0,0-1.16.16,2.64,2.64,0,0,0-.85.45,2,2,0,0,0-.54.68,2.13,2.13,0,0,0-.18.88,1.68,1.68,0,0,0,.25,1,2.25,2.25,0,0,0,.59.6,3.56,3.56,0,0,0,.78.39,7,7,0,0,1,.78.31,2.51,2.51,0,0,1,.6.4.83.83,0,0,1,.24.62,1.13,1.13,0,0,1-.11.51,1,1,0,0,1-.32.36,1.29,1.29,0,0,1-.46.2,2.15,2.15,0,0,1-.58.07,4.45,4.45,0,0,1-.81-.08,4.56,4.56,0,0,1-.73-.19l-.06,1.13a4.37,4.37,0,0,0,.7.13,6.85,6.85,0,0,0,.79,0,4,4,0,0,0,1.19-.17,2.63,2.63,0,0,0,.89-.49,2.2,2.2,0,0,0,.57-.75A2.23,2.23,0,0,0,351.69,155.61Z"/><path class="cls-5" d="M358.8,155.61a1.72,1.72,0,0,0-.24-1,2.14,2.14,0,0,0-.6-.6,4.73,4.73,0,0,0-.78-.39l-.78-.33a2.22,2.22,0,0,1-.6-.39.78.78,0,0,1-.24-.59,1,1,0,0,1,.35-.76,1.64,1.64,0,0,1,1-.29,3.88,3.88,0,0,1,.67.06,3.52,3.52,0,0,1,.66.15l.07-1.06-.67-.09c-.23,0-.45,0-.67,0a4,4,0,0,0-1.15.16,2.7,2.7,0,0,0-.86.45,1.93,1.93,0,0,0-.53.68,2.13,2.13,0,0,0-.18.88,1.76,1.76,0,0,0,.24,1,2.14,2.14,0,0,0,.6.6,3.56,3.56,0,0,0,.78.39,7,7,0,0,1,.78.31,2.72,2.72,0,0,1,.6.4.83.83,0,0,1,.24.62,1,1,0,0,1-.12.51.9.9,0,0,1-.31.36,1.34,1.34,0,0,1-.47.2,2.12,2.12,0,0,1-.57.07,4.65,4.65,0,0,1-.82-.08,4.17,4.17,0,0,1-.72-.19l-.07,1.13a4.73,4.73,0,0,0,.71.13,6.74,6.74,0,0,0,.79,0,3.91,3.91,0,0,0,1.18-.17,2.78,2.78,0,0,0,.9-.49,2.17,2.17,0,0,0,.56-.75A2.23,2.23,0,0,0,358.8,155.61Z"/><path class="cls-5" d="M368.21,154.05a5,5,0,0,0-.24-1.63,3.24,3.24,0,0,0-.68-1.16,2.85,2.85,0,0,0-1.06-.7,3.92,3.92,0,0,0-1.36-.23,3.54,3.54,0,0,0-1.38.27,3.22,3.22,0,0,0-1.13.76,3.51,3.51,0,0,0-.76,1.22,4.53,4.53,0,0,0-.28,1.65,5.63,5.63,0,0,0,.2,1.54,3.24,3.24,0,0,0,.62,1.18,2.93,2.93,0,0,0,1,.75,3.9,3.9,0,0,0,1.47.26,3.77,3.77,0,0,0,1.39-.26,3.25,3.25,0,0,0,1.13-.77,3.82,3.82,0,0,0,.76-1.23A4.46,4.46,0,0,0,368.21,154.05Zm-1.27.13a3.6,3.6,0,0,1-.19,1.2,2.45,2.45,0,0,1-.5.85,2.11,2.11,0,0,1-2.46.46,1.68,1.68,0,0,1-.67-.57,2.51,2.51,0,0,1-.4-.89,4.52,4.52,0,0,1-.13-1.14,3.53,3.53,0,0,1,.18-1.18,2.53,2.53,0,0,1,.48-.84,1.88,1.88,0,0,1,.69-.51,2,2,0,0,1,.82-.17,1.91,1.91,0,0,1,1.61.72A3.27,3.27,0,0,1,366.94,154.18Z"/><path class="cls-5" d="M375.23,155.61a1.64,1.64,0,0,0-.25-1,2.25,2.25,0,0,0-.59-.6,4.73,4.73,0,0,0-.78-.39l-.78-.33a2.22,2.22,0,0,1-.6-.39.78.78,0,0,1-.24-.59,1,1,0,0,1,.35-.76,1.61,1.61,0,0,1,1-.29,4,4,0,0,1,.68.06,3.52,3.52,0,0,1,.66.15l.07-1.06-.68-.09c-.22,0-.44,0-.66,0a4,4,0,0,0-1.15.16,2.59,2.59,0,0,0-.86.45,1.93,1.93,0,0,0-.53.68,2.13,2.13,0,0,0-.18.88,1.76,1.76,0,0,0,.24,1,2.14,2.14,0,0,0,.6.6,3.16,3.16,0,0,0,.78.39,6.17,6.17,0,0,1,.77.31,2.51,2.51,0,0,1,.6.4.83.83,0,0,1,.24.62,1,1,0,0,1-.11.51,1,1,0,0,1-.31.36,1.42,1.42,0,0,1-.47.2,2.15,2.15,0,0,1-.58.07,4.45,4.45,0,0,1-.81-.08,4.17,4.17,0,0,1-.72-.19l-.07,1.13a4.59,4.59,0,0,0,.7.13,6.85,6.85,0,0,0,.79,0,4,4,0,0,0,1.19-.17,2.63,2.63,0,0,0,.89-.49,2.08,2.08,0,0,0,.57-.75A2.23,2.23,0,0,0,375.23,155.61Z"/></svg>