<svg id="Capa_1" data-name="Capa 1" xmlns="http://www.w3.org/2000/svg" viewBox="0 0 480 200"><defs><style>.cls-1{fill:#f7ce39;}.cls-2{fill:#d02e26;}</style></defs><rect class="cls-1" x="171.29" y="31.3" width="137.42" height="137.41"/><path class="cls-2" d="M185.4,109.16h3.65c2.24,0,4.22.7,4.22,3.26s-2,3.25-4.22,3.25H185.4Zm0,15V117h2.68c3.21.07,6.81-.72,6.81-4.61s-3.6-4.68-6.81-4.61H183.9v16.32Zm29.85,0v-1.95h-8.34v-5.4h7.76v-1.94h-7.76v-5.09h8.15v-1.94H204.6v16.32Zm13.86-13.61h3c1.57,0,2.49.63,2.49,2.08s-.92,2.22-2.49,2.24h-3Zm0,7h3.79c1.17,0,1.41,1.29,1.5,2.19.16,1.47.32,2.94.62,4.39H239c-.67-.9-.81-2.83-1-3.87-.3-2.26-.3-3.91-3.05-4.2a4,4,0,0,0,3.47-4c0-3.33-2.94-4.23-5.8-4.25h-7.09v16.32h3.58Zm40.05,6.58V121h-7.55V107.81H257v16.32Zm12.41,0,1.09-3.19h6.77l1.1,3.19h5.22l-6.58-16.32h-5.63L277,124.13Zm2.27-6.35L286.1,111l2.19,6.78h-4.45"/><path class="cls-2" d="M185.65,44.69h3.65c2.24,0,4.23.7,4.23,3.25s-2,3.26-4.23,3.26h-3.65Zm0,15v-7.1h2.68c3.21.07,6.81-.72,6.81-4.61s-3.6-4.68-6.81-4.61h-4.18V59.65Zm31.54,0V57.71h-7.76V43.33h-2.31V59.65Zm13.35,0,1.25-3.46h6.61l1.2,3.45h3.6l-5.8-16.32h-4.25l-6,16.32Zm2.17-6.17,2.45-7,2.34,7Zm25.17,6.17h4.62V46.5h5.22V43.33h-15V46.5h5.11Zm24,0,1.08-3.18h6.77l1.11,3.18H296l-6.58-16.32H283.8l-6.58,16.32Zm2.26-6.35,2.26-6.78,2.2,6.78Z"/><path class="cls-2" d="M185.77,92.24V84.4h7.64V83h-7.64V77.27h7.92V75.92h-9.42V92.24Zm16.84-8.16c0,4.77,2.42,8.5,7.62,8.5s7.62-3.73,7.62-8.5-2.42-8.5-7.62-8.5-7.62,3.73-7.62,8.5m2.42,0c0-3.48,1-6.56,5.2-6.56s5.2,3.08,5.2,6.56-1,6.56-5.2,6.56-5.2-3.17-5.2-6.56m25.52-5.45h3c1.57,0,2.49.64,2.49,2.08s-.92,2.22-2.49,2.24h-3Zm0,7h3.79c1.18,0,1.41,1.29,1.5,2.19.16,1.47.33,2.94.63,4.39h3.95c-.67-.9-.81-2.82-1-3.86-.3-2.27-.3-3.92-3-4.21a4,4,0,0,0,3.46-4c0-3.32-2.93-4.23-5.79-4.25H227V92.24h3.58Zm22.32-7.19,3.72,13.77h4.16l3.9-13.7.05,13.7h4V75.92h-7.18l-2.64,11-2.77-11h-7.32V92.24h4V78.47m28.85,13.77,1.09-3.19h6.76l1.11,3.19h5.22l-6.58-16.32h-5.64L277.1,92.24ZM284,85.89l2.27-6.78,2.19,6.78Z"/><polygon class="cls-2" points="184.15 140.3 185.51 140.3 185.51 155.31 194.06 155.31 194.06 156.58 184.15 156.58 184.15 140.3"/><polygon class="cls-2" points="208.96 140.26 208.96 156.55 219.54 156.55 219.54 154.61 211.25 154.61 211.25 149.22 218.97 149.22 218.97 147.28 211.25 147.28 211.25 142.2 219.36 142.2 219.36 140.26 208.96 140.26"/><path class="cls-2" d="M284,140.27l-6.54,16.33h4.59l1.08-3.19h6.73l1.1,3.19h5.19l-6.55-16.33Zm.3,10,2.25-6.78,2.18,6.78Z"/><polygon class="cls-2" points="196.93 140.3 198.3 140.3 198.3 155.31 206.84 155.31 206.84 156.58 196.93 156.58 196.93 140.3"/><polygon class="cls-2" points="222.9 156.58 222.9 140.26 228.19 140.26 234.54 153.03 234.54 140.26 237.87 140.26 237.87 156.55 232.75 156.58 226.23 143.04 226.23 156.55 222.9 156.58"/><path class="cls-2" d="M256.81,145.12s.45-5.51-8.12-5.23a9.68,9.68,0,0,0-5.74,1.9,8.61,8.61,0,0,0-2.66,7.8,8.13,8.13,0,0,0,3.85,6.22s2.32,1.78,9.26.77l3.52-.56v-8.73h-8v3.17h3.37v3s-4.85,1.27-6.46-1.68a7.09,7.09,0,0,1-.19-6.58,3.94,3.94,0,0,1,4.44-2.07s2,.27,2.1,2Z"/><path class="cls-2" d="M276,150c0,4.79-2.41,7.17-7.9,7.17s-7.89-2.38-7.89-7.17v-9.68h4.72v9.94c0,2.12.87,3.21,3.17,3.21s3.18-1.09,3.18-3.21v-9.94H276Z"/></svg>