<svg id="Capa_1" data-name="Capa 1" xmlns="http://www.w3.org/2000/svg" viewBox="0 0 480 200"><defs><style>.cls-1{fill:#76b480;}.cls-2{fill:#213c69;}</style></defs><path class="cls-1" d="M238.13,135.6a9.39,9.39,0,0,1-7-2.74,9.83,9.83,0,0,1-2.72-7.27,9.73,9.73,0,0,1,2.7-7.22,9.49,9.49,0,0,1,7-2.69,10,10,0,0,1,7.12,2.66,9.6,9.6,0,0,1,2.83,7.36,12.29,12.29,0,0,1-.14,1.88h-13.4a3.25,3.25,0,0,0,1.15,2.11,3.21,3.21,0,0,0,2.11.82,4.73,4.73,0,0,0,1.69-.23,2.84,2.84,0,0,0,.82-.45,4.94,4.94,0,0,0,.68-.75h6.46a8.61,8.61,0,0,1-3.35,4.73A10,10,0,0,1,238.13,135.6Zm2.55-14a3.79,3.79,0,0,0-2.48-.85,3.51,3.51,0,0,0-2.4.85,3.72,3.72,0,0,0-1.22,2.22h7.29A3.2,3.2,0,0,0,240.68,121.63Z"/><path class="cls-1" d="M257.88,115.89v2.86a6.37,6.37,0,0,1,5.89-3.07,7.09,7.09,0,0,1,5.43,2.24,8.58,8.58,0,0,1,2.07,6.07v11.37h-5.93V124.79a4,4,0,0,0-1-2.91,4.16,4.16,0,0,0-5.48,0,4,4,0,0,0-1,2.91v10.57h-6V115.89Z"/><path class="cls-1" d="M284.6,135.6a9.39,9.39,0,0,1-7-2.74,9.87,9.87,0,0,1-2.72-7.27,9.73,9.73,0,0,1,2.7-7.22,9.51,9.51,0,0,1,7-2.69,10,10,0,0,1,7.11,2.66,9.57,9.57,0,0,1,2.83,7.36,12.29,12.29,0,0,1-.14,1.88H281a3.4,3.4,0,0,0,3.26,2.93,4.83,4.83,0,0,0,1.7-.23,3.15,3.15,0,0,0,.82-.45,6.3,6.3,0,0,0,.68-.75h6.45a8.56,8.56,0,0,1-3.35,4.73A10,10,0,0,1,284.6,135.6Zm2.54-14a3.78,3.78,0,0,0-2.47-.85,3.52,3.52,0,0,0-2.41.85,3.72,3.72,0,0,0-1.22,2.22h7.29A3.16,3.16,0,0,0,287.14,121.63Z"/><path class="cls-1" d="M304.34,115.89v3.63q2.09-3.84,5.58-3.84v6.07h-1.47a4.31,4.31,0,0,0-3.08,1,4.58,4.58,0,0,0-1,3.42v9.21h-6V115.89Z"/><path class="cls-1" d="M314.31,132.81a11.23,11.23,0,0,1,0-14.32,8.26,8.26,0,0,1,6.3-2.81,6.59,6.59,0,0,1,5.7,2.76v-2.55h6v19.36a10.45,10.45,0,0,1-2.23,6.81,7.26,7.26,0,0,1-3.06,2.16,14.18,14.18,0,0,1-11.56-1.05,7.16,7.16,0,0,1-3-5.54h5.86c.55,1.46,1.95,2.19,4.18,2.19a3.63,3.63,0,0,0,2.72-1.1,4.79,4.79,0,0,0,1.08-3.47v-2.72a6.73,6.73,0,0,1-5.79,3.07A8.17,8.17,0,0,1,314.31,132.81ZM325,129.18a4.72,4.72,0,0,0,1.29-3.55,4.66,4.66,0,0,0-1.29-3.54,4.15,4.15,0,0,0-5.93,0,4.75,4.75,0,0,0-1.29,3.56,4.66,4.66,0,0,0,1.29,3.54,4.14,4.14,0,0,0,5.93,0Z"/><path class="cls-1" d="M343,113.7a3.51,3.51,0,1,1-2.47-6,3.45,3.45,0,0,1,3.48,3.5A3.39,3.39,0,0,1,343,113.7Zm-5.44,21.66V115.89h6v19.47Z"/><path class="cls-1" d="M349.86,132.81a11.23,11.23,0,0,1,0-14.32,8.23,8.23,0,0,1,6.29-2.81,6.62,6.62,0,0,1,5.71,2.76v-2.55h6v19.47h-6v-2.83a6.73,6.73,0,0,1-5.79,3.07A8.16,8.16,0,0,1,349.86,132.81Zm10.71-3.63a4.72,4.72,0,0,0,1.29-3.55,4.66,4.66,0,0,0-1.29-3.54,4.15,4.15,0,0,0-5.93,0,4.75,4.75,0,0,0-1.29,3.56,4.66,4.66,0,0,0,1.29,3.54,4.14,4.14,0,0,0,5.93,0Z"/><path class="cls-2" d="M124,69.54q4-5.49,11.36-5.49a16.41,16.41,0,0,1,12.55,5.6Q153,75.24,153,83.93t-5.14,14.25a16.33,16.33,0,0,1-12.44,5.56A13.15,13.15,0,0,1,124,97.62v24.12H112.08V64.47H124ZM138.35,91q2.57-2.46,2.57-7a9.46,9.46,0,0,0-2.57-7.09,8.28,8.28,0,0,0-11.82,0Q124,79.28,124,83.86A9.46,9.46,0,0,0,126.53,91a8.27,8.27,0,0,0,11.82,0Z"/><path class="cls-2" d="M217.86,64.47v5.7q3.69-6.12,11.75-6.12a14.06,14.06,0,0,1,10.81,4.45c2.75,3,4.13,7,4.13,12.09v22.66H232.74V82.19a8,8,0,0,0-2-5.8,8.3,8.3,0,0,0-10.92,0,8,8,0,0,0-2,5.8v21.06H206V64.47Z"/><path class="cls-2" d="M271.1,103.74a18.76,18.76,0,0,1-13.9-5.46q-5.41-5.46-5.42-14.49t5.39-14.39q5.38-5.36,13.93-5.35a19.91,19.91,0,0,1,14.18,5.28q5.64,5.28,5.63,14.67a24.49,24.49,0,0,1-.27,3.75H264a6.76,6.76,0,0,0,6.49,5.84,9.58,9.58,0,0,0,3.38-.45,5.77,5.77,0,0,0,1.63-.91,10.93,10.93,0,0,0,1.35-1.49h12.86a17,17,0,0,1-6.67,9.42A19.88,19.88,0,0,1,271.1,103.74Zm5.08-27.84a7.6,7.6,0,0,0-4.94-1.7,7,7,0,0,0-4.79,1.7A7.46,7.46,0,0,0,264,80.31h14.53A6.31,6.31,0,0,0,276.18,75.9Z"/><path class="cls-2" d="M310.44,64.47v5.7q3.69-6.12,11.75-6.12A14.06,14.06,0,0,1,333,68.5c2.75,3,4.13,7,4.13,12.09v22.66H325.32V82.19a8,8,0,0,0-2-5.8,8.3,8.3,0,0,0-10.92,0,8,8,0,0,0-2,5.8v21.06H298.56V64.47Z"/><path class="cls-2" d="M363.68,93.17h4.24v10.08h-6q-6.54,0-10.12-2.88t-3.57-9.91V74.34h-3.62V64.47h3.62V55h11.88v9.46h7.78v9.87h-7.78V90.46Q360.07,93.18,363.68,93.17Z"/><path class="cls-2" d="M178.07,63.39a20.26,20.26,0,1,0,20.26,20.26A20.26,20.26,0,0,0,178.07,63.39Zm0,32.48a12.22,12.22,0,1,1,12.22-12.22A12.22,12.22,0,0,1,178.07,95.87Z"/><path class="cls-1" d="M197,90.77a20.25,20.25,0,1,0-37.9-14.25c12.77-10.3,23-4.4,23-4.4h0A12.22,12.22,0,0,1,174,95.18h0S184.25,101.09,197,90.77Z"/><path class="cls-1" d="M179.33,94.38s8.06-2.53,8.06-11.24c0-5-4.4-9.77-9.37-9.77a9,9,0,0,0-8.42,5.84c5.67-4.58,10.22-2,10.22-2h0c2.11.75,4.23,4,4.37,6.4.34,5.95-2.47,9.23-4.86,10.73"/></svg>