<svg id="Capa_1" data-name="Capa 1" xmlns="http://www.w3.org/2000/svg" viewBox="0 0 480 200"><defs><style>.cls-1,.cls-3,.cls-4,.cls-5{fill:#d03b2c;}.cls-1{opacity:0.5;}.cls-2{fill:#1d1d1b;}.cls-4,.cls-5{fill-rule:evenodd;}.cls-5{opacity:0.25;}</style></defs><circle class="cls-1" cx="188.05" cy="73.62" r="8.48" transform="translate(3.02 154.53) rotate(-45)"/><path class="cls-2" d="M162.17,102.66a41.26,41.26,0,0,1,7.25,3.07,5.09,5.09,0,0,1,2.87,4.53,4.55,4.55,0,0,1-2.91,4.09,13.43,13.43,0,0,1-5.53,1.11,37.05,37.05,0,0,1-17.55-4.38l-3.6,13.6a42.68,42.68,0,0,0,19.5,4.42s9.41.54,17.38-3.7V93.14a37,37,0,0,0-7.29-3.27,48.59,48.59,0,0,1-8.47-3.59s-2.76-1.29-2.76-3.8c0,0-.22-2.34,2.79-3.74,0,0,5.57-2.69,15.73.83V65.21a53.55,53.55,0,0,0-10.2-1s-16.13-.76-23,10.11a17.22,17.22,0,0,0-2.73,9.43,15.6,15.6,0,0,0,2.73,8.73S149.85,98.69,162.17,102.66Z"/><path class="cls-2" d="M196.53,73.37s8.7-9.16,26.29-9.16c0,0,12.07,0,17.45,3.3l-3.74,13a30.65,30.65,0,0,0-12.87-2.64s-19.39-1.34-19.39,19.46c0,0-.84,17.94,19.39,17.94,0,0,8.23,0,13.09-2.48l2.61,13.12s-5.19,3.2-18.68,3.2c0,0-14.82.3-24.16-8Z"/><path class="cls-3" d="M284.28,83.8c0-22.07-23.33-21.21-23.33-21.21A35.53,35.53,0,0,0,239.59,70l5,12.89C251.87,76.7,258.4,77,258.4,77c9.77,0,8.87,8,8.87,8,0,5.75-6.28,12.28-6.28,12.28-3.92,4.92-21.6,20.81-21.6,20.81v11h46.14l0-14.72H264.18s11.27-9,15.94-17.06A26,26,0,0,0,284.28,83.8Z"/><path class="cls-4" d="M302.7,100.89h10.48V82.48Zm-17.16,2.37,24.23-39.05h19.88v36.68h7.65v13.5h-7.65V129.1H313.18V114.39H285.54Z"/><path class="cls-4" d="M179.76,56.06a8.48,8.48,0,1,1,8.47,8.48A8.48,8.48,0,0,1,179.76,56.06Z"/><path class="cls-5" d="M179.57,91.18a8.48,8.48,0,1,1,8.48,8.48A8.47,8.47,0,0,1,179.57,91.18Z"/><path class="cls-2" d="M143.59,145.63a7.2,7.2,0,0,0,3.13.78c1.3,0,2-.54,2-1.35s-.6-1.23-2.1-1.77c-2.07-.72-3.43-1.87-3.43-3.69,0-2.13,1.78-3.76,4.73-3.76a7.55,7.55,0,0,1,3.19.63l-.63,2.28a6,6,0,0,0-2.62-.59c-1.22,0-1.81.55-1.81,1.2s.7,1.15,2.32,1.76c2.2.82,3.24,2,3.24,3.73,0,2.1-1.61,3.88-5,3.88A8.22,8.22,0,0,1,143,148Z"/><path class="cls-2" d="M155.72,144.91c.1,1.17,1.25,1.72,2.56,1.72a8,8,0,0,0,2.51-.37l.37,1.91a9,9,0,0,1-3.29.56c-3.07,0-4.83-1.78-4.83-4.62,0-2.3,1.42-4.84,4.58-4.84,2.93,0,4,2.28,4,4.52a7.78,7.78,0,0,1-.09,1.12ZM159,143a1.63,1.63,0,0,0-1.59-1.84,1.85,1.85,0,0,0-1.74,1.84Z"/><path class="cls-2" d="M163.35,142.46c0-1.34,0-2.21-.07-3h2.43l.09,1.67h.07a2.68,2.68,0,0,1,2.45-1.87,2.79,2.79,0,0,1,.6,0V142a4,4,0,0,0-.77-.07,1.8,1.8,0,0,0-1.92,1.42,3.13,3.13,0,0,0-.06.63v4.6h-2.82Z"/><path class="cls-2" d="M172.83,139.47l1.23,4.21a21.79,21.79,0,0,1,.51,2.21h.06c.15-.74.3-1.43.5-2.21l1.17-4.21h3l-3.38,9.07h-2.82l-3.3-9.07Z"/><path class="cls-2" d="M183.48,137a1.41,1.41,0,0,1-1.52,1.41,1.42,1.42,0,1,1,0-2.84A1.41,1.41,0,0,1,183.48,137Zm-2.91,11.59v-9.07h2.82v9.07Z"/><path class="cls-2" d="M192.46,148.32a6.93,6.93,0,0,1-2.52.41c-2.93,0-4.8-1.78-4.8-4.64,0-2.65,1.81-4.82,5.19-4.82a6.59,6.59,0,0,1,2.15.35l-.44,2.1a3.87,3.87,0,0,0-1.58-.28,2.54,2.54,0,0,0,0,5.08,4.32,4.32,0,0,0,1.62-.28Z"/><path class="cls-2" d="M196.94,137a1.42,1.42,0,0,1-1.53,1.41,1.42,1.42,0,1,1,0-2.84A1.42,1.42,0,0,1,196.94,137ZM194,148.54v-9.07h2.82v9.07Z"/><path class="cls-2" d="M208.06,143.91a4.55,4.55,0,0,1-4.78,4.84,4.45,4.45,0,0,1-4.69-4.68,4.52,4.52,0,0,1,4.84-4.8A4.41,4.41,0,0,1,208.06,143.91Zm-6.56.09c0,1.56.65,2.72,1.85,2.72s1.8-1.09,1.8-2.72c0-1.36-.52-2.73-1.8-2.73S201.5,142.66,201.5,144Z"/><path class="cls-2" d="M209.8,146.08a5.52,5.52,0,0,0,2.42.68c.86,0,1.21-.29,1.21-.76s-.28-.68-1.33-1c-1.88-.63-2.6-1.65-2.58-2.72,0-1.69,1.44-3,3.69-3a6.1,6.1,0,0,1,2.56.52l-.5,2a4.38,4.38,0,0,0-2-.52c-.69,0-1.08.28-1.08.74s.36.65,1.47,1c1.72.59,2.45,1.46,2.47,2.8,0,1.68-1.34,2.93-3.94,2.93a6.39,6.39,0,0,1-2.92-.63Z"/><path class="cls-2" d="M230.41,135.38v10.46c0,1,0,2.09.07,2.7H228l-.13-1.33h0a3.16,3.16,0,0,1-2.84,1.54c-2.15,0-3.87-1.84-3.87-4.66,0-3.06,1.89-4.82,4.06-4.82a2.76,2.76,0,0,1,2.39,1h0v-4.91Zm-2.82,7.93a4.21,4.21,0,0,0,0-.5,1.7,1.7,0,0,0-1.65-1.39c-1.28,0-2,1.15-2,2.58s.76,2.5,1.93,2.5a1.63,1.63,0,0,0,1.63-1.35,2.27,2.27,0,0,0,.08-.65Z"/><path class="cls-2" d="M234.84,144.91c.1,1.17,1.25,1.72,2.56,1.72a8,8,0,0,0,2.51-.37l.37,1.91a9,9,0,0,1-3.28.56c-3.08,0-4.84-1.78-4.84-4.62,0-2.3,1.42-4.84,4.58-4.84,2.93,0,4,2.28,4,4.52a7.78,7.78,0,0,1-.09,1.12Zm3.33-1.93a1.64,1.64,0,0,0-1.6-1.84,1.85,1.85,0,0,0-1.74,1.84Z"/><path class="cls-2" d="M246.41,145.63a7.17,7.17,0,0,0,3.13.78c1.3,0,2-.54,2-1.35s-.59-1.23-2.09-1.77c-2.08-.72-3.43-1.87-3.43-3.69,0-2.13,1.78-3.76,4.73-3.76a7.55,7.55,0,0,1,3.19.63l-.63,2.28a6,6,0,0,0-2.62-.59c-1.22,0-1.82.55-1.82,1.2s.71,1.15,2.32,1.76c2.21.82,3.25,2,3.25,3.73,0,2.1-1.62,3.88-5,3.88a8.17,8.17,0,0,1-3.54-.76Z"/><path class="cls-2" d="M258.54,144.91c.09,1.17,1.24,1.72,2.56,1.72a8,8,0,0,0,2.5-.37l.37,1.91a8.94,8.94,0,0,1-3.28.56c-3.08,0-4.84-1.78-4.84-4.62a4.54,4.54,0,0,1,4.58-4.84c2.93,0,4,2.28,4,4.52a6.54,6.54,0,0,1-.09,1.12Zm3.32-1.93a1.64,1.64,0,0,0-1.6-1.84,1.86,1.86,0,0,0-1.74,1.84Z"/><path class="cls-2" d="M274.83,139.47c0,.58-.08,1.34-.08,2.69v5.06a5.23,5.23,0,0,1-1.37,4.09,5.6,5.6,0,0,1-3.69,1.11,7,7,0,0,1-3.26-.71l.55-2.13a5.54,5.54,0,0,0,2.64.69,2.17,2.17,0,0,0,2.35-2.4v-.59h0a2.92,2.92,0,0,1-2.45,1.19c-2.25,0-3.84-1.82-3.84-4.43,0-2.92,1.89-4.77,4.12-4.77a2.73,2.73,0,0,1,2.48,1.28h0l.09-1.08Zm-2.89,3.69a2.12,2.12,0,0,0-.06-.52,1.54,1.54,0,0,0-1.52-1.24c-1,0-1.86.93-1.86,2.58,0,1.35.67,2.41,1.86,2.41a1.52,1.52,0,0,0,1.48-1.15,2.21,2.21,0,0,0,.1-.74Z"/><path class="cls-2" d="M285.57,145.63c0,1.19,0,2.15.08,2.91H283.2l-.13-1.28H283a3.21,3.21,0,0,1-2.83,1.49c-1.84,0-3.19-1.15-3.19-3.95v-5.33h2.83v4.88c0,1.32.43,2.12,1.41,2.12a1.51,1.51,0,0,0,1.41-1,1.45,1.45,0,0,0,.1-.61v-5.4h2.83Z"/><path class="cls-2" d="M287.84,142.46c0-1.34,0-2.21-.07-3h2.43l.09,1.67h.07a2.68,2.68,0,0,1,2.45-1.87,2.79,2.79,0,0,1,.6,0V142a4,4,0,0,0-.77-.07,1.8,1.8,0,0,0-1.92,1.42,3.13,3.13,0,0,0-.06.63v4.6h-2.82Z"/><path class="cls-2" d="M297.8,137a1.41,1.41,0,0,1-1.52,1.41,1.42,1.42,0,1,1,0-2.84A1.41,1.41,0,0,1,297.8,137Zm-2.91,11.59v-9.07h2.82v9.07Z"/><path class="cls-2" d="M308.77,135.38v10.46c0,1,0,2.09.07,2.7h-2.5l-.13-1.33h0a3.17,3.17,0,0,1-2.84,1.54c-2.15,0-3.87-1.84-3.87-4.66,0-3.06,1.89-4.82,4.06-4.82a2.76,2.76,0,0,1,2.39,1h0v-4.91ZM306,143.31a4.21,4.21,0,0,0,0-.5,1.7,1.7,0,0,0-1.65-1.39c-1.28,0-1.95,1.15-1.95,2.58s.76,2.5,1.93,2.5a1.63,1.63,0,0,0,1.63-1.35,2.27,2.27,0,0,0,.08-.65Z"/><path class="cls-2" d="M316.19,148.54l-.17-.91h0a3.26,3.26,0,0,1-2.6,1.12,2.79,2.79,0,0,1-2.93-2.78c0-2.36,2.11-3.49,5.32-3.47v-.13c0-.48-.26-1.17-1.65-1.17a5,5,0,0,0-2.5.69l-.52-1.82a7.37,7.37,0,0,1,3.52-.8c3,0,4,1.78,4,3.91v3.16a14.3,14.3,0,0,0,.13,2.2Zm-.33-4.28c-1.49,0-2.64.33-2.64,1.43a1,1,0,0,0,1.12,1.07,1.53,1.53,0,0,0,1.46-1,1.8,1.8,0,0,0,.06-.48Z"/><path class="cls-2" d="M329.62,135.38v10.46c0,1,0,2.09.08,2.7h-2.51l-.13-1.33h0a3.17,3.17,0,0,1-2.84,1.54c-2.15,0-3.88-1.84-3.88-4.66,0-3.06,1.89-4.82,4.06-4.82a2.77,2.77,0,0,1,2.4,1h0v-4.91Zm-2.82,7.93c0-.15,0-.35,0-.5a1.7,1.7,0,0,0-1.65-1.39c-1.28,0-1.95,1.15-1.95,2.58s.76,2.5,1.93,2.5a1.65,1.65,0,0,0,1.63-1.35,2.7,2.7,0,0,0,.07-.65Z"/></svg>